<svg width="134" height="57" viewBox="0 0 134 57" fill="none" xmlns="http://www.w3.org/2000/svg">
<path d="M133.378 28.5111C133.378 23.7081 131.975 18.9035 129.32 18.4017C129.184 18.3407 129.037 18.3043 128.877 18.3043H125.267C122.921 7.77247 117.08 0.736356 110.53 0.660433C110.496 0.657132 110.468 0.640625 110.435 0.640625L91.049 0.640625C91.0325 0.640625 91.0175 0.648878 90.9993 0.650529C84.1487 0.688491 78.4556 7.90451 76.1721 18.3043L60.7329 18.3043C58.388 7.77907 52.554 0.746259 46.0085 0.660433C45.9737 0.657132 45.9438 0.640625 45.909 0.640625L26.5247 0.640625C26.5081 0.640625 26.4932 0.648878 26.4749 0.650529C19.6243 0.688491 13.9312 7.90451 11.6477 18.3043H5.21831C5.21665 18.3043 5.21499 18.306 5.21333 18.306C5.21167 18.306 5.21002 18.3043 5.20836 18.3043C5.17187 18.3043 5.14202 18.3258 5.10554 18.3275C4.99277 18.339 4.88001 18.3555 4.78051 18.4001C2.11887 18.8853 0.710938 23.6998 0.710938 28.5111C0.710938 33.3223 2.11887 38.1368 4.78216 38.6237C4.88166 38.6683 4.99443 38.6831 5.1072 38.6963C5.14368 38.698 5.17353 38.7195 5.21002 38.7195C5.21167 38.7195 5.21333 38.7178 5.21499 38.7178C5.21665 38.7178 5.21831 38.7195 5.21997 38.7195H11.6494C13.9329 49.1193 19.626 56.3353 26.4766 56.3733C26.4932 56.3733 26.5081 56.3832 26.5263 56.3832H45.914C45.9488 56.3832 45.9787 56.3667 46.0135 56.3634C52.559 56.2775 58.393 49.2447 60.7379 38.7195H76.177C78.4606 49.1193 84.1537 56.3353 91.0043 56.3733C91.0209 56.3733 91.0358 56.3832 91.054 56.3832H110.442C110.475 56.3832 110.503 56.3667 110.536 56.3634C117.087 56.2874 122.927 49.2513 125.274 38.7195L128.884 38.7195C129.043 38.7195 129.191 38.6815 129.327 38.6221C131.975 38.1187 133.378 33.314 133.378 28.5111ZM131.204 28.5111C131.204 33.7349 129.554 36.554 128.879 36.554L110.516 36.554C110.5 36.554 110.486 36.5622 110.47 36.5639C110.453 36.5639 110.44 36.554 110.423 36.554C109.748 36.554 108.098 33.7349 108.098 28.5111C108.098 23.2872 109.748 20.4682 110.423 20.4682C110.44 20.4682 110.453 20.4599 110.47 20.4583C110.486 20.4583 110.5 20.4682 110.516 20.4682H128.877C129.552 20.4682 131.204 23.2872 131.204 28.5111ZM5.21997 36.554C5.21831 36.554 5.21665 36.5556 5.21499 36.5556C5.21333 36.5556 5.21167 36.554 5.21002 36.554C4.53673 36.554 2.88668 33.7349 2.88668 28.5111C2.88668 23.2872 4.53673 20.4682 5.21002 20.4682C5.21167 20.4682 5.21333 20.4665 5.21499 20.4665C5.21665 20.4665 5.21831 20.4682 5.21997 20.4682H11.2248C10.8003 23.0066 10.5665 25.7019 10.5665 28.5111C10.5665 31.3202 10.8003 34.0155 11.2248 36.554H5.21997ZM12.7405 28.5111C12.7405 14.3398 18.9262 2.80939 26.5296 2.80939C26.5396 2.80939 26.5462 2.80444 26.5562 2.80444H39.7533C34.0005 7.01488 29.9475 16.9493 29.9475 28.5111C29.9475 40.0729 34.0005 50.0073 39.7533 54.2177H26.5562C26.5462 54.2177 26.5396 54.2128 26.5296 54.2128C18.9262 54.2128 12.7405 42.6823 12.7405 28.5111ZM45.8908 54.2062C38.2972 54.2062 32.1216 42.679 32.1216 28.5111C32.1216 14.3431 38.2972 2.81599 45.8908 2.81599C51.35 2.81599 56.3234 8.99054 58.5091 18.3027H45.914C45.7548 18.3027 45.6072 18.3407 45.4712 18.4001C42.8162 18.9035 41.4132 23.7081 41.4132 28.5111C41.4132 33.314 42.8162 38.1187 45.4712 38.6204C45.6072 38.6815 45.7548 38.7178 45.914 38.7178H58.5091C56.3217 48.0316 51.3484 54.2062 45.8908 54.2062ZM45.914 36.554C45.239 36.554 43.589 33.7349 43.589 28.5111C43.589 23.2872 45.239 20.4682 45.914 20.4682L75.7492 20.4682C75.3247 23.0066 75.0908 25.7019 75.0908 28.5111C75.0908 31.3202 75.3247 34.0155 75.7492 36.554H45.914ZM77.2649 28.5111C77.2649 14.3398 83.4505 2.80939 91.054 2.80939C91.064 2.80939 91.0706 2.80444 91.0806 2.80444H104.158C98.4054 6.97692 94.4569 16.7908 94.4569 28.5111C94.4569 40.2313 98.4038 50.0452 104.157 54.2177H91.0789C91.0689 54.2177 91.0623 54.2128 91.0524 54.2128C83.4489 54.2128 77.2649 42.6823 77.2649 28.5111ZM110.423 54.2062C102.82 54.2062 96.6327 42.679 96.6327 28.5111C96.6327 14.3431 102.82 2.81599 110.423 2.81599C115.883 2.81599 120.856 8.99054 123.042 18.3027H110.516C110.5 18.3027 110.486 18.3109 110.47 18.3126C110.453 18.3126 110.44 18.3027 110.423 18.3027C107.468 18.3027 105.923 23.4391 105.923 28.5111C105.923 33.5831 107.468 38.7195 110.423 38.7195C110.44 38.7195 110.453 38.7112 110.47 38.7096C110.486 38.7096 110.5 38.7195 110.516 38.7195H123.042C120.854 48.0316 115.881 54.2062 110.423 54.2062Z" fill="#3283F9"/>
</svg>
