<svg width="126" height="126" viewBox="0 0 126 126" fill="none" xmlns="http://www.w3.org/2000/svg">
<path d="M62.5762 119.912C30.9643 119.912 5.24609 94.1939 5.24609 62.5781C5.24609 30.9623 30.9643 5.24414 62.5762 5.24414C94.188 5.24414 119.906 30.9623 119.906 62.5781C119.906 94.1939 94.188 119.912 62.5762 119.912ZM62.5762 11.0557C34.1646 11.0557 11.0499 34.1665 11.0499 62.5781C11.0499 90.9897 34.1646 114.101 62.5762 114.101C90.9878 114.101 114.102 90.9897 114.102 62.5781C114.102 34.1665 90.9878 11.0557 62.5762 11.0557Z" fill="#3283F9"/>
<path d="M82.5308 55.1579C80.9267 55.1579 79.6289 53.8536 79.6289 52.2521V43.4644C79.6289 41.8629 80.928 40.5586 82.5308 40.5586C84.1348 40.5586 85.4327 41.8629 85.4327 43.4644V52.2521C85.4327 53.8536 84.1348 55.1579 82.5308 55.1579Z" fill="#3283F9"/>
<path d="M41.2336 87.9693C40.7997 87.9693 40.358 87.8702 39.9436 87.6644C38.5064 86.949 37.9226 85.2055 38.6367 83.7735C42.8233 75.3467 50.8332 69.2953 60.0639 67.5792C69.2882 65.8566 78.9451 68.6347 85.8773 74.9988C87.0578 76.0829 87.1373 77.9189 86.0532 79.102C84.9677 80.2787 83.1291 80.3569 81.9512 79.2793C76.3559 74.1414 68.5689 71.8871 61.1246 73.2905C53.6777 74.673 47.2146 79.5555 43.8358 86.3522C43.3289 87.3738 42.3008 87.9693 41.2336 87.9693Z" fill="#3283F9"/>
<path d="M42.5073 55.1579C40.9033 55.1579 39.6055 53.8536 39.6055 52.2521V43.4644C39.6055 41.8629 40.9046 40.5586 42.5073 40.5586C44.1114 40.5586 45.4092 41.8629 45.4092 43.4644V52.2521C45.4092 53.8536 44.1114 55.1579 42.5073 55.1579Z" fill="#3283F9"/>
</svg>
