<svg width="1987" height="4564" viewBox="0 0 1987 4564" fill="none" xmlns="http://www.w3.org/2000/svg">
<path d="M985.458 845.57L986.532 847.254C1000.95 840.848 1016.4 835.08 1029.23 833.801C1035.64 833.162 1041.3 833.655 1045.82 835.664C1050.3 837.654 1053.76 841.169 1055.75 846.779C1057.75 852.436 1057.23 857.281 1054.9 861.508C1052.55 865.773 1048.33 869.484 1042.79 872.724C1031.72 879.209 1015.74 883.619 1000.37 886.888L1000.53 888.837C1016.34 890.345 1032.75 893.013 1044.39 898.29C1050.2 900.926 1054.71 904.169 1057.39 908.151C1060.04 912.091 1060.96 916.856 1059.4 922.72L1059.39 922.726C1057.78 928.959 1054.27 932.993 1049.47 935.435C1044.63 937.898 1038.39 938.775 1031.29 938.514C1017.1 937.989 999.855 932.923 984.475 927.567L983.593 929.303C996.891 938.336 1010.78 948.896 1018.9 959.559C1022.95 964.885 1025.5 970.149 1025.88 975.192C1026.26 980.185 1024.54 985.089 1019.78 989.767C1014.77 994.672 1009.3 996.496 1003.59 996.169C997.84 995.839 991.746 993.314 985.549 989.327C973.147 981.347 960.681 967.741 950.247 955.341L948.557 956.357C955.527 970.915 963.107 988.128 965.295 1002.71C966.389 1009.99 966.117 1016.5 963.846 1021.67C961.596 1026.79 957.343 1030.68 950.22 1032.69C943.402 1034.61 937.834 1033.69 933.201 1030.84C928.523 1027.96 924.691 1023.05 921.53 1016.82C915.203 1004.35 911.761 986.991 909.421 971.457L907.415 971.434C905.493 986.886 902.489 1003.68 896.562 1015.84C893.601 1021.92 889.95 1026.76 885.421 1029.71C880.927 1032.64 875.495 1033.78 868.819 1032.32C862.194 1030.86 857.99 1027.63 855.504 1023.24C852.991 1018.8 852.17 1013.05 852.585 1006.46C853.416 993.271 859.165 977.171 865.272 962.668L863.526 961.659C853.631 974.243 841.972 987.458 830.312 995.246C824.485 999.138 818.737 1001.62 813.273 1002.05C807.856 1002.47 802.642 1000.89 797.783 996.485L797.781 996.483C793.155 992.318 791.238 987.809 791.245 983.103C791.253 978.349 793.226 973.279 796.625 968.057C803.428 957.606 815.707 946.9 828.051 937.458L827.05 935.744C812.168 941.004 796.192 945.6 783.201 945.899C776.71 946.048 771.067 945.121 766.697 942.756C762.369 940.413 759.204 936.616 757.706 930.815C756.223 925.062 757.152 920.303 759.807 916.297C762.485 912.256 766.969 908.91 772.712 906.136C784.21 900.583 800.414 897.481 816.068 895.517L815.992 893.554C800.048 891.977 783.242 889.363 771.266 884.098C765.283 881.467 760.611 878.219 757.827 874.204C755.073 870.232 754.095 865.41 755.681 859.439L755.683 859.433C757.297 853.2 760.803 849.166 765.607 846.724C770.452 844.261 776.689 843.384 783.783 843.646C797.98 844.17 815.223 849.236 830.602 854.592L831.485 852.856C818.186 843.823 804.295 833.263 796.178 822.6C792.124 817.274 789.579 812.01 789.195 806.968C788.814 801.973 790.541 797.069 795.297 792.39C800.313 787.486 805.779 785.663 811.483 785.99C817.237 786.32 823.331 788.845 829.528 792.832C841.93 800.812 854.396 814.418 864.83 826.818L866.52 825.802C859.55 811.244 851.97 794.031 849.782 779.453C848.688 772.169 848.96 765.654 851.232 760.489C853.481 755.373 857.734 751.48 864.857 749.472C871.622 747.565 877.16 748.481 881.775 751.317C886.435 754.18 890.259 759.064 893.412 765.268C899.723 777.687 903.151 795 905.385 810.559L907.391 810.588C909.313 795.137 912.317 778.342 918.244 766.179C921.205 760.104 924.856 755.267 929.385 752.311C933.88 749.377 939.312 748.246 945.99 749.698C952.613 751.164 956.817 754.388 959.302 758.781C961.815 763.222 962.636 768.972 962.221 775.562C961.39 788.752 955.642 804.852 949.534 819.355L951.28 820.363C961.175 807.779 972.834 794.564 984.494 786.777C990.321 782.885 996.069 780.404 1001.53 779.976C1006.95 779.552 1012.16 781.137 1017.02 785.537L1017.03 785.541C1021.71 789.736 1023.61 794.297 1023.52 799.074C1023.44 803.904 1021.33 809.068 1017.78 814.391C1010.66 825.042 997.986 835.968 985.458 845.57Z" stroke="#C4FF63" stroke-width="2"/>
<path d="M1770.23 1276.43C1610.53 1276.43 1481.11 1173.53 1481.11 1046.54C1481.11 919.563 1610.53 816.654 1770.23 816.654L1770.23 1276.43Z" fill="#C4FF63"/>
<path d="M1192 1046.54C1192 919.563 1321.42 816.654 1481.11 816.654L1481.11 1276.43C1321.42 1276.43 1192 1173.53 1192 1046.54Z" fill="#C4FF63"/>
<path d="M1517.49 286.387L1517.49 285.416C1488.28 278.253 1464.01 268.362 1447.04 256.695C1430.06 245.019 1420.5 231.633 1420.5 217.49C1420.5 203.346 1430.04 189.961 1447.01 178.296C1463.96 166.64 1488.24 156.771 1517.49 149.652L1517.49 148.68C1488.28 141.517 1464.01 131.626 1447.04 119.959C1430.06 108.284 1420.5 94.8978 1420.5 80.7545C1420.5 69.7936 1426.22 59.2961 1436.68 49.692C1447.14 40.0875 1462.31 31.4147 1481.09 24.1206C1518.66 9.53367 1570.59 0.499612 1628 0.499616C1685.41 0.499621 1737.34 9.53368 1774.91 24.1206C1793.69 31.4147 1808.86 40.0876 1819.32 49.692C1829.78 59.2961 1835.5 69.7936 1835.5 80.7545C1835.5 94.8978 1825.94 108.284 1808.96 119.948C1791.99 131.605 1767.72 141.473 1738.51 148.593L1738.51 149.564C1767.72 156.728 1791.99 166.618 1808.96 178.285C1825.94 189.961 1835.5 203.347 1835.5 217.49C1835.5 231.633 1825.94 245.019 1808.96 256.684C1791.99 268.34 1767.72 278.209 1738.51 285.329L1738.51 286.3C1767.72 293.463 1791.99 303.354 1808.96 315.021C1825.94 326.697 1835.5 340.082 1835.5 354.226C1835.5 365.187 1829.78 375.684 1819.32 385.288C1808.86 394.893 1793.69 403.565 1774.91 410.859C1737.34 425.446 1685.41 434.48 1628 434.48C1570.59 434.48 1518.66 425.446 1481.09 410.87C1462.31 403.582 1447.14 394.917 1436.68 385.325C1426.22 375.732 1420.5 365.251 1420.5 354.313C1420.5 340.125 1430.06 326.718 1447.04 315.043C1464.01 303.376 1488.28 293.507 1517.49 286.387Z" stroke="#E056BA"/>
<path d="M619.5 552.654C665.472 552.654 705.889 511.703 728.806 450.136C751.583 511.703 792 552.654 838.111 552.654C909.222 552.654 967 454.634 967 333.654C967 212.675 909.222 114.654 837.972 114.654C792 114.654 751.583 155.606 728.667 217.173C705.889 155.606 665.472 114.654 619.5 114.654C573.528 114.654 533.111 155.606 510.194 217.173C487.417 155.606 447 114.654 401.028 114.654C329.778 114.654 272 212.675 272 333.654C272 454.634 329.778 552.654 401.028 552.654C447 552.654 487.417 511.703 510.333 450.136C533.111 511.797 573.528 552.654 619.5 552.654Z" fill="#C4FF63"/>
<path d="M1880.67 2645.04C1864.26 2598.73 1798.16 2619.46 1741.16 2644.79C1790.68 2606.84 1842.24 2557.78 1803.61 2523.21C1763.55 2486.93 1709.89 2542.47 1670.77 2592.23C1694.9 2534.91 1716.68 2463.94 1662.3 2451.9C1607.5 2439.99 1591.25 2512.76 1583.66 2573.84C1574.83 2512.34 1556.44 2435.86 1501 2451.49C1442.64 2467.94 1475.55 2547.48 1503.08 2604.98C1461.85 2555.98 1403.85 2496.55 1362.72 2536.77C1323.73 2575.13 1381.98 2623.53 1434.54 2659.24C1373.75 2638.06 1297.23 2618.8 1283.94 2670.12C1270.88 2719.26 1341.87 2733.77 1404.89 2740C1342.98 2747.77 1275.69 2764.63 1287.94 2812.12C1300.3 2859.99 1368.77 2844.06 1427.61 2823.26C1378.81 2860.59 1329.63 2908.56 1367.72 2942.86C1407.78 2979.14 1461.44 2923.6 1500.57 2873.84C1476.43 2931.16 1454.65 3002.13 1509.03 3014.17C1563.83 3026.08 1580.08 2953.3 1587.67 2892.23C1596.92 2953.61 1615.01 3030.6 1670.87 3014.85C1729.22 2998.4 1696.32 2918.85 1668.79 2861.36C1710.02 2910.36 1768.02 2969.79 1809.15 2929.57C1848.14 2891.21 1789.89 2842.8 1737.33 2807.1C1798.12 2828.27 1874.64 2847.54 1887.93 2796.22C1900.8 2747.97 1832.32 2732.76 1769.83 2726.8C1830.62 2713.87 1897.2 2691.73 1880.67 2645.04Z" fill="#C4FF63"/>
<path d="M158.5 477.156C222.943 477.4 275 524.765 275 583.074C275 641.384 222.943 688.749 158.5 688.993L158.5 477.156Z" stroke="#FF92E0"/>
<path d="M392.5 583.072C392.5 641.382 340.443 688.747 276 688.991L276 477.154C340.443 477.398 392.5 524.763 392.5 583.072Z" stroke="#FF92E0"/>
<path d="M636.905 4275.25C639.978 4222.79 568.158 4218.18 503.199 4221.62C566.114 4202.73 635.496 4173.55 612.491 4124.29C588.811 4072.79 514.786 4107.64 457.048 4142.28C503.485 4094.36 553.205 4031.94 505.937 3999.13C458.222 3966.28 413.074 4032.62 380.974 4090.62C397.49 4025.92 410.928 3942.62 351.41 3936.99C288.759 3931.06 288 4022.97 291.042 4090.82C271.407 4026.19 239.927 3944.75 184.137 3969.11C131.163 3992.43 167.365 4062.99 203.268 4118.7C153.562 4074.33 88.0083 4025.84 54.4081 4071.92C21.9225 4115.92 84.1067 4157.55 142.018 4187.88C79.4818 4171.93 8.1004 4163 0.551963 4215.03C-7.04036 4267.49 65.1044 4277.81 129.984 4279.59C68.0079 4298.14 1.35442 4327.14 23.9558 4375.92C47.6364 4427.42 121.661 4392.57 179.4 4357.93C132.962 4405.85 83.2422 4468.28 130.51 4501.08C178.225 4533.93 223.373 4467.59 255.474 4409.6C239.404 4474.33 225.475 4558.02 285.441 4563.69C348.092 4569.62 348.851 4477.72 345.809 4409.86C365.444 4474.49 396.923 4555.94 452.714 4531.57C505.687 4508.25 469.486 4437.69 433.583 4381.99C483.289 4426.36 548.843 4474.85 582.443 4428.77C614.393 4385.58 554.894 4344.21 497.386 4314.36C560.94 4324.73 633.787 4328.14 636.905 4275.25Z" fill="#C4FF63"/>
<rect x="159.5" y="857.154" width="539" height="751" rx="30.5" fill="#FCFF79" stroke="white" stroke-width="3"/>
<path d="M1025.36 247.78C1021.2 236.027 1004.42 241.29 989.956 247.718C1002.52 238.086 1015.61 225.637 1005.8 216.862C995.639 207.656 982.022 221.75 972.093 234.378C978.218 219.831 983.745 201.821 969.944 198.767C956.037 195.743 951.914 214.212 949.986 229.712C947.745 214.105 943.078 194.695 929.009 198.661C914.199 202.835 922.551 223.023 929.536 237.613C919.073 225.179 904.354 210.097 893.916 220.305C884.021 230.038 898.805 242.323 912.143 251.383C896.714 246.011 877.297 241.121 873.923 254.145C870.61 266.616 888.625 270.299 904.619 271.88C888.906 273.852 871.83 278.131 874.938 290.182C878.076 302.331 895.453 298.288 910.385 293.01C897.999 302.484 885.518 314.656 895.186 323.362C905.353 332.569 918.97 318.474 928.899 305.846C922.773 320.393 917.246 338.404 931.048 341.458C944.955 344.482 949.077 326.012 951.005 310.512C953.352 326.089 957.943 345.628 972.118 341.632C986.928 337.458 978.577 317.27 971.591 302.679C982.054 315.114 996.773 330.195 1007.21 319.988C1017.11 310.255 1002.32 297.97 988.984 288.909C1004.41 294.282 1023.83 299.172 1027.2 286.148C1030.47 273.903 1013.09 270.042 997.234 268.529C1012.66 265.249 1029.56 259.631 1025.36 247.78Z" fill="#FF92E0"/>
<path d="M1526.29 455.604C1522.53 444.989 1507.37 449.742 1494.31 455.548C1505.66 446.848 1517.48 435.604 1508.62 427.679C1499.44 419.364 1487.14 432.094 1478.18 443.499C1483.71 430.361 1488.7 414.094 1476.24 411.336C1463.67 408.604 1459.95 425.286 1458.21 439.285C1456.19 425.189 1451.97 407.658 1439.26 411.24C1425.89 415.01 1433.43 433.244 1439.74 446.422C1430.29 435.191 1417 421.569 1407.57 430.789C1398.63 439.579 1411.98 450.675 1424.03 458.858C1410.1 454.006 1392.56 449.59 1389.51 461.352C1386.52 472.617 1402.79 475.943 1417.23 477.371C1403.04 479.152 1387.62 483.017 1390.43 493.901C1393.26 504.874 1408.96 501.222 1422.44 496.455C1411.26 505.012 1399.98 516.006 1408.72 523.869C1417.9 532.184 1430.2 519.454 1439.16 508.049C1433.63 521.187 1428.64 537.454 1441.1 540.212C1453.66 542.944 1457.39 526.262 1459.13 512.263C1461.25 526.332 1465.4 543.979 1478.2 540.37C1491.57 536.6 1484.03 518.366 1477.72 505.188C1487.17 516.419 1500.47 530.04 1509.89 520.821C1518.83 512.03 1505.48 500.935 1493.43 492.752C1507.37 497.604 1524.9 502.02 1527.95 490.258C1530.9 479.198 1515.21 475.71 1500.88 474.344C1514.82 471.381 1530.08 466.308 1526.29 455.604Z" fill="#C4FF63"/>
<path d="M565.747 1100.08L566.285 1100.92C575.931 1096.64 586.288 1092.77 594.903 1091.91C599.208 1091.48 603.028 1091.81 606.094 1093.17C609.138 1094.52 611.483 1096.91 612.828 1100.71C614.183 1104.53 613.83 1107.82 612.251 1110.69C610.661 1113.58 607.806 1116.08 604.091 1118.26C596.656 1122.61 585.944 1125.57 575.657 1127.76L575.739 1128.73C586.312 1129.74 597.323 1131.53 605.135 1135.07C609.038 1136.84 612.092 1139.03 613.909 1141.73C615.712 1144.41 616.331 1147.65 615.274 1151.61L615.273 1151.61C614.181 1155.83 611.806 1158.57 608.549 1160.22C605.272 1161.89 601.066 1162.48 596.304 1162.3C586.777 1161.95 575.219 1158.55 564.928 1154.97L564.487 1155.83C573.384 1161.88 582.7 1168.96 588.15 1176.12C590.873 1179.69 592.595 1183.24 592.856 1186.66C593.115 1190.06 591.937 1193.38 588.725 1196.54C585.338 1199.86 581.635 1201.1 577.768 1200.87C573.876 1200.65 569.768 1198.94 565.609 1196.27C557.287 1190.91 548.931 1181.79 541.951 1173.49L541.106 1174C545.768 1183.74 550.851 1195.28 552.319 1205.06C553.053 1209.95 552.874 1214.34 551.338 1217.84C549.811 1221.31 546.925 1223.94 542.115 1225.3C537.511 1226.6 533.735 1225.98 530.589 1224.04C527.42 1222.09 524.838 1218.78 522.716 1214.6C518.47 1206.23 516.164 1194.59 514.598 1184.19L513.595 1184.18C512.309 1194.52 510.297 1205.78 506.319 1213.94C504.331 1218.02 501.872 1221.29 498.808 1223.29C495.761 1225.28 492.079 1226.04 487.569 1225.06C483.093 1224.07 480.235 1221.88 478.545 1218.9C476.841 1215.89 476.292 1212 476.571 1207.58C477.129 1198.72 480.985 1187.93 485.071 1178.23L484.198 1177.72C477.577 1186.14 469.763 1195 461.939 1200.23C458.028 1202.84 454.154 1204.52 450.457 1204.81C446.785 1205.09 443.248 1204.02 439.962 1201.04L439.961 1201.04C436.833 1198.22 435.526 1195.16 435.531 1191.96C435.536 1188.74 436.874 1185.31 439.156 1181.81C443.724 1174.79 451.96 1167.61 460.219 1161.29L459.719 1160.44C449.761 1163.96 439.05 1167.04 430.328 1167.24C425.97 1167.34 422.16 1166.72 419.198 1165.12C416.258 1163.52 414.111 1160.94 413.097 1157.02C412.094 1153.13 412.722 1149.9 414.524 1147.18C416.338 1144.44 419.367 1142.18 423.224 1140.32C430.943 1136.59 441.808 1134.51 452.284 1133.2L452.246 1132.22C441.578 1131.16 430.309 1129.41 422.268 1125.88C418.25 1124.11 415.092 1121.92 413.203 1119.2C411.329 1116.5 410.67 1113.22 411.742 1109.18L411.743 1109.18C412.835 1104.97 415.21 1102.23 418.467 1100.57C421.744 1098.91 425.95 1098.32 430.712 1098.49C440.239 1098.85 451.797 1102.24 462.088 1105.83L462.529 1104.96C453.632 1098.92 444.316 1091.84 438.866 1084.68C436.143 1081.1 434.42 1077.55 434.16 1074.13C433.901 1070.74 435.078 1067.41 438.29 1064.25C441.678 1060.94 445.381 1059.7 449.248 1059.92C453.14 1060.14 457.248 1061.85 461.407 1064.53C469.729 1069.88 478.085 1079 485.065 1087.3L485.91 1086.79C481.248 1077.05 476.165 1065.51 474.697 1055.73C473.963 1050.85 474.141 1046.45 475.678 1042.96C477.204 1039.49 480.091 1036.85 484.901 1035.49C489.469 1034.21 493.225 1034.82 496.36 1036.75C499.516 1038.69 502.093 1041.99 504.209 1046.15C508.445 1054.49 510.742 1066.1 512.236 1076.51L513.24 1076.52C514.525 1066.18 516.537 1054.92 520.516 1046.76C522.503 1042.68 524.963 1039.41 528.027 1037.41C531.074 1035.43 534.755 1034.66 539.265 1035.64C543.741 1036.63 546.599 1038.82 548.29 1041.8C549.993 1044.82 550.543 1048.7 550.264 1053.12C549.706 1061.98 545.85 1072.77 541.764 1082.48L542.636 1082.98C549.257 1074.56 557.072 1065.7 564.896 1060.47C568.807 1057.86 572.68 1056.19 576.377 1055.9C580.05 1055.61 583.587 1056.69 586.873 1059.66L586.875 1059.66C590.045 1062.5 591.335 1065.6 591.279 1068.85C591.222 1072.12 589.794 1075.61 587.407 1079.18C582.629 1086.33 574.13 1093.66 565.747 1100.08Z" stroke="#E056BA"/>
</svg>
