<svg width="1310" height="418" viewBox="0 0 1310 418" fill="none" xmlns="http://www.w3.org/2000/svg">
<g clip-path="url(#clip0_2256_7842)">
<rect width="1310" height="418" fill="#E056BA"/>
<path d="M765.67 366.634L765.846 367.611C776.999 366.998 788.671 367.109 797.407 369.675C801.772 370.957 805.358 372.839 807.787 375.508C810.202 378.161 811.508 381.631 811.251 386.178C810.99 390.762 809.279 394.088 806.551 396.469C803.807 398.863 799.996 400.336 795.486 401.122C786.457 402.695 774.816 401.483 763.905 399.638L763.585 400.571C773.456 405.882 783.438 412.189 789.583 419.053C792.653 422.482 794.733 426.016 795.392 429.601C796.047 433.166 795.306 436.834 792.634 440.577L792.632 440.58C789.823 444.572 786.377 446.486 782.527 446.911C778.653 447.339 774.318 446.263 769.756 444.162C760.628 439.958 750.779 431.742 742.243 423.844L741.479 424.475C747.644 434.391 753.797 445.571 756.153 455.283C757.33 460.137 757.545 464.575 756.383 468.286C755.228 471.975 752.697 474.996 748.268 477.017C743.605 479.127 739.492 478.936 735.819 477.147C732.12 475.344 728.821 471.897 725.873 467.412C719.976 458.439 715.603 445.503 712.23 433.995L711.251 434.158C711.774 446.243 711.964 460.397 709.358 471.257C708.055 476.687 706.065 481.235 703.119 484.292C700.195 487.325 696.296 488.925 691.061 488.411C686.05 487.92 682.623 485.751 680.349 482.442C678.059 479.109 676.911 474.577 676.569 469.329C675.886 458.829 678.444 445.684 681.204 434.158L680.277 433.806C674.763 444.129 668.161 455.133 660.919 462.097C657.299 465.578 653.558 468.012 649.751 468.876C645.968 469.735 642.07 469.056 638.081 466.209C634.129 463.366 632.234 459.911 631.817 456.069C631.398 452.202 632.471 447.891 634.569 443.358C638.767 434.288 646.975 424.517 654.949 415.988L654.32 415.222C644.406 421.387 633.149 427.533 623.381 429.863C618.499 431.028 614.04 431.227 610.323 430.043C606.63 428.867 603.622 426.31 601.642 421.847L601.642 421.846C599.75 417.616 599.738 413.854 601.072 410.476C602.413 407.079 605.135 404.022 608.802 401.263C616.143 395.741 627.117 391.529 637.757 388.229L637.623 387.252C626.483 386.935 614.79 385.858 606.221 382.559C601.939 380.911 598.482 378.724 596.254 375.842C594.038 372.976 593.005 369.382 593.64 364.835C594.272 360.325 596.227 357.174 599.109 355.043C602.007 352.899 605.885 351.754 610.404 351.353C619.451 350.551 630.88 352.744 641.615 355.581L641.981 354.658C632.037 349.26 621.789 342.888 615.418 335.941C612.235 332.47 610.053 328.892 609.334 325.254C608.618 321.639 609.337 317.913 612.054 314.099L612.055 314.096C614.864 310.104 618.31 308.19 622.16 307.765C626.034 307.337 630.369 308.413 634.931 310.514C644.059 314.718 653.908 322.934 662.444 330.832L663.208 330.201C657.043 320.285 650.89 309.106 648.534 299.393C647.357 294.539 647.142 290.101 648.304 286.39C649.459 282.702 651.99 279.681 656.418 277.66C661.081 275.549 665.194 275.74 668.868 277.53C672.567 279.332 675.866 282.779 678.814 287.265C684.711 296.237 689.084 309.173 692.457 320.681L693.436 320.518C692.913 308.433 692.723 294.279 695.329 283.419C696.632 277.989 698.622 273.441 701.568 270.385C704.492 267.351 708.391 265.752 713.626 266.265C718.598 266.753 722.007 268.91 724.273 272.204C726.555 275.522 727.705 280.034 728.049 285.263C728.736 295.723 726.182 308.83 723.345 320.346L724.272 320.702C729.785 310.378 736.388 299.375 743.63 292.41C747.249 288.93 750.991 286.495 754.798 285.631C758.58 284.772 762.478 285.452 766.468 288.299C770.419 291.141 772.315 294.596 772.731 298.438C773.151 302.305 772.077 306.616 769.979 311.149C765.781 320.219 757.574 329.99 749.599 338.519L750.228 339.285C760.142 333.12 771.399 326.975 781.167 324.644C786.049 323.479 790.509 323.28 794.225 324.464C797.918 325.641 800.927 328.198 802.906 332.66L802.907 332.663C804.831 336.932 804.812 340.726 803.408 344.134C801.995 347.562 799.16 350.649 795.363 353.435C787.764 359.012 776.473 363.272 765.67 366.634Z" stroke="white"/>
<path d="M131.294 462.645L131.118 461.668C153.588 454.675 177.145 445.796 193.027 434.14C200.966 428.314 206.946 421.824 209.936 414.568C212.918 407.333 212.945 399.287 208.888 390.285L208.887 390.282C204.712 380.871 198.341 375.439 190.505 372.942C182.645 370.438 173.261 370.872 163.06 373.306C142.654 378.175 119.181 390.997 98.5599 403.82L97.9307 403.054C114.517 385.316 131.64 364.941 140.409 345.993C144.792 336.522 147.066 327.454 146.179 319.276C145.295 311.123 141.266 303.804 132.932 297.808C124.518 291.805 116.255 290.352 108.228 292.174C100.177 294.002 92.3114 299.137 84.749 306.409C69.6207 320.957 55.8557 343.909 44.3899 365.378L43.4634 365.023C49.3627 341.072 54.6939 313.744 53.2594 291.9C52.5422 280.979 50.1366 271.484 45.3138 264.472C40.5067 257.482 33.2706 252.918 22.7797 251.889C11.7358 250.806 3.46259 254.186 -2.73766 260.619C-8.95979 267.075 -13.1275 276.64 -15.8474 287.974C-21.2874 310.641 -20.885 340.148 -19.7983 365.275L-20.7776 365.437C-27.7916 341.508 -36.9037 314.534 -49.216 295.801C-55.3715 286.434 -62.2968 279.176 -70.1143 275.367C-77.906 271.571 -86.6285 271.18 -96.4643 275.632C-105.804 279.894 -111.179 286.29 -113.63 294.116C-116.089 301.966 -115.621 311.303 -113.161 321.446C-108.24 341.736 -95.4022 365.05 -82.5786 385.672L-83.3428 386.303C-101.097 369.877 -121.632 352.737 -140.7 343.956C-150.232 339.566 -159.35 337.288 -167.544 338.193C-175.713 339.095 -183.015 343.165 -188.939 351.586L-188.941 351.588C-194.67 359.631 -196.206 367.528 -194.687 375.205C-193.164 382.903 -188.558 390.432 -181.903 397.689C-168.588 412.209 -147.205 425.495 -126.522 436.722L-126.888 437.645C-149.22 431.743 -173.064 427.159 -191.978 428.837C-201.431 429.676 -209.606 432.075 -215.742 436.614C-221.862 441.14 -225.997 447.826 -227.328 457.336L131.294 462.645ZM131.294 462.645C154.492 461.371 178.846 461.594 197.11 466.959C206.239 469.64 213.801 473.593 218.943 479.243C224.071 484.878 226.828 492.239 226.286 501.827C225.736 511.493 222.12 518.549 216.328 523.603C210.521 528.671 202.487 531.762 193.054 533.406C174.181 536.694 149.894 534.158 127.197 530.319L126.877 531.252C147.412 542.301 168.242 555.452 181.089 569.802C187.509 576.974 191.904 584.41 193.298 592C194.689 599.57 193.105 607.344 187.471 615.237L187.469 615.24C181.545 623.66 174.242 627.731 166.073 628.633C157.879 629.538 148.761 627.259 139.229 622.87C120.161 614.088 99.6261 596.949 81.8722 580.523L81.108 581.154C93.9316 601.776 106.77 625.089 111.69 645.38C114.15 655.523 114.618 664.86 112.16 672.709C109.708 680.536 104.333 686.933 94.9922 691.195C85.1571 695.646 76.435 695.254 68.6437 691.459C60.8262 687.65 53.9009 680.391 47.7453 671.025C35.4331 652.291 26.321 625.318 19.307 601.389L18.3276 601.551C19.4144 626.678 19.8168 656.185 14.3768 678.852C11.6569 690.185 7.48917 699.751 1.26703 706.207C-4.93321 712.639 -13.2064 716.019 -24.2503 714.936C-34.8215 713.899 -42.0953 709.312 -46.9193 702.291C-51.7591 695.247 -54.1608 685.712 -54.8742 674.751C-56.301 652.826 -50.9617 625.417 -45.2216 601.449L-46.1489 601.097C-57.6147 622.566 -71.3797 645.518 -86.508 660.066C-94.0704 667.338 -101.936 672.473 -109.987 674.301C-118.014 676.123 -126.277 674.67 -134.691 668.666C-143.025 662.671 -147.054 655.352 -147.938 647.199C-148.825 639.021 -146.551 629.953 -142.168 620.481C-133.399 601.533 -116.276 581.159 -99.6896 563.421L-100.319 562.655C-120.94 575.477 -144.413 588.3 -164.819 593.169C-175.02 595.603 -184.404 596.037 -192.264 593.532C-200.1 591.036 -206.471 585.604 -210.646 576.193L-210.647 576.191C-214.633 567.273 -214.672 559.298 -211.841 552.127C-209.002 544.937 -203.257 538.506 -195.588 532.736C-180.242 521.192 -157.342 512.411 -135.209 505.546L-135.343 504.569M131.294 462.645L-135.343 504.569M-135.343 504.569C-158.513 503.91 -182.911 501.671 -200.825 494.774M-135.343 504.569L-200.825 494.774M-200.825 494.774C-209.779 491.327 -217.069 486.733 -221.786 480.633M-200.825 494.774L-221.786 480.633M-221.786 480.633C-226.49 474.548 -228.667 466.925 -227.328 457.336L-221.786 480.633Z" stroke="white"/>
</g>
<defs>
<clipPath id="clip0_2256_7842">
<rect width="1310" height="418" fill="white"/>
</clipPath>
</defs>
</svg>
