<svg width="567" height="559" viewBox="0 0 567 559" fill="none" xmlns="http://www.w3.org/2000/svg">
<path d="M473.725 29.3415C423.548 0.603025 360.262 -11.0392 307.541 12.884C270.312 29.7775 244.922 62.9358 228.054 100.646C186.334 86.0411 140.415 83.79 100.541 101.884C48.0943 125.683 19.1431 181.76 4.41449 237.371C-7.47341 282.255 6.85239 325.841 21.3304 369.89C22.853 374.523 24.3773 379.16 25.8729 383.805C30.1927 397.22 33.7263 411.376 37.269 425.569C49.1065 472.991 61.0449 520.818 102.752 542.758C159.439 572.578 233.498 557.014 286.482 520.897C307.726 506.415 321.137 485.826 330.539 462.478C383.669 479.607 446.767 463.741 493.482 431.897C536.272 402.728 547.282 348.782 557.766 297.415C558.779 292.448 559.788 287.505 560.82 282.611C570.108 238.572 566.916 195.596 552.288 153.062C535.774 105.038 517.821 54.5972 473.725 29.3415Z" fill="white"/>
</svg>
