<svg width="430" height="285" viewBox="0 0 430 285" fill="none" xmlns="http://www.w3.org/2000/svg">
<path d="M214.5 285C244.465 285 270.808 258.354 285.745 218.293C300.592 258.354 326.935 285 356.99 285C403.341 285 441 221.22 441 142.5C441 63.7805 403.341 -1.59827e-06 356.9 -3.5692e-06C326.935 -4.8409e-06 300.592 26.6463 285.655 66.7073C270.808 26.6463 244.465 -8.34095e-06 214.5 -9.61265e-06C184.535 -1.08843e-05 158.192 26.6463 143.255 66.7073C128.408 26.6463 102.065 -1.43844e-05 72.1001 -1.56561e-05C25.6595 -1.7627e-05 -12 63.7805 -12 142.5C-12 221.22 25.6594 285 72.1001 285C102.065 285 128.408 258.354 143.345 218.293C158.192 258.415 184.535 285 214.5 285Z" fill="#C4FF63"/>
</svg>
