<svg width="39" height="39" viewBox="0 0 39 39" fill="none" xmlns="http://www.w3.org/2000/svg">
<path fill-rule="evenodd" clip-rule="evenodd" d="M35.6479 2.17309C35.8484 2.18104 36.2092 2.24472 36.4498 2.31635C36.6903 2.38798 37.0191 2.53921 37.1794 2.66655C37.3398 2.78594 37.5563 3.00084 37.6766 3.12818C37.7888 3.25553 37.9652 3.55002 38.0615 3.76491C38.2218 4.10716 38.2459 4.29818 38.2539 5.07817C38.2539 5.82633 38.1978 6.26408 37.9572 7.46591C37.7969 8.27775 37.5723 9.42386 37.4601 10.0128C37.3478 10.6018 37.1634 11.5728 37.0512 12.1618C36.9469 12.7508 36.8186 13.4194 36.7705 13.6343C36.7304 13.8571 36.6583 14.2153 36.6101 14.4302C36.5701 14.653 36.4738 15.1704 36.4097 15.5842C36.3375 15.9981 36.2493 16.4677 36.2092 16.6189C36.1691 16.7702 36.105 17.0965 36.0569 17.3353C36.0168 17.574 35.9206 18.0993 35.8484 18.4893C35.7762 18.8793 35.6479 19.5479 35.5678 19.9618C35.4796 20.3756 35.3914 20.8612 35.3673 21.0363C35.3432 21.2114 35.1989 21.9993 35.0386 22.7873C34.8862 23.5752 34.6537 24.777 34.5254 25.4536C34.3971 26.1301 34.1646 27.3479 34.0122 28.1597C33.8599 28.9715 33.6033 30.3166 33.4429 31.1444C33.2906 31.9721 33.066 33.1421 32.9538 33.7311C32.8415 34.3201 32.7132 34.9488 32.6571 35.1239C32.601 35.299 32.4406 35.6094 32.3043 35.8243C32.16 36.0313 31.9194 36.3098 31.7831 36.4372C31.6388 36.5725 31.3742 36.7635 31.1978 36.8749C31.0214 36.9784 30.7167 37.1137 30.5162 37.1854C30.3158 37.249 29.8667 37.3127 29.5139 37.3207C29.1611 37.3286 28.672 37.2968 28.4314 37.249C28.1749 37.1933 27.8301 37.05 27.6216 36.8988C27.4131 36.7556 26.9962 36.4372 26.6834 36.1984C26.3788 35.9596 25.192 35.0284 24.0534 34.137C22.9068 33.2376 21.9206 32.4576 21.8564 32.386C21.7923 32.3223 21.4876 32.0835 21.1748 31.8527C20.8621 31.614 20.5815 31.4229 20.5334 31.4229C20.4853 31.4229 19.932 31.9164 19.2905 32.5213C18.6491 33.1341 17.9836 33.755 17.8071 33.9141C17.6307 34.0733 17.1577 34.5111 16.7648 34.8852C16.2115 35.4025 15.9469 35.5935 15.6422 35.689C15.3696 35.7766 15.0649 35.8084 14.68 35.7845C14.3673 35.7607 13.9984 35.689 13.8541 35.6174C13.7178 35.5378 13.4772 35.3627 13.3329 35.2115C13.1966 35.0682 12.948 34.6782 12.7877 34.3599C12.6273 34.0335 12.3226 33.2137 12.1141 32.5372C11.9057 31.8607 11.6892 31.1046 11.625 30.8658C11.5609 30.627 11.4165 30.1574 11.3123 29.8311C11.2 29.5048 10.8793 28.4303 10.5906 27.4434C10.31 26.4564 9.98125 25.366 9.87701 25.0158C9.69259 24.4348 9.6525 24.3711 9.41195 24.2836C9.26762 24.2358 8.62615 24.013 7.98469 23.7822C7.34322 23.5593 6.15651 23.1454 5.33863 22.8748C4.52076 22.5962 3.55055 22.262 3.17368 22.1346C2.79682 21.9993 2.29969 21.8003 2.06715 21.6809C1.84264 21.5695 1.42569 21.2511 1.14505 20.9726C0.864403 20.702 0.551688 20.2961 0.44745 20.0812C0.295101 19.7628 0.25501 19.5559 0.25501 19.0067C0.246991 18.4177 0.279065 18.2744 0.471505 17.8924C0.599798 17.6536 0.760165 17.383 0.83233 17.2955C0.912513 17.1999 1.16108 16.9771 1.3856 16.794C1.61813 16.611 1.84264 16.4597 1.89075 16.4597C1.93886 16.4597 2.3077 16.3006 2.70862 16.1095C3.11756 15.9185 4.28021 15.4091 5.29854 14.9714C6.30885 14.5336 7.53566 14.0004 8.02478 13.7934C8.5139 13.5865 9.09122 13.3318 9.30771 13.2363C9.52421 13.1328 9.90909 12.9657 10.1496 12.8543C10.3902 12.7508 10.9515 12.5041 11.3925 12.321C11.8335 12.1379 13.2046 11.541 14.4394 11.0077C15.6743 10.4665 16.869 9.95713 17.0855 9.86958C17.302 9.78203 17.6869 9.62284 17.9274 9.51141C18.168 9.40795 18.8896 9.08162 19.5311 8.79509C20.1726 8.50856 20.9263 8.18224 21.2149 8.06285C21.5036 7.94346 21.8484 7.8002 21.9767 7.74448C22.105 7.68877 22.6422 7.45796 23.1634 7.2351C23.6766 7.01224 24.5265 6.64612 25.0397 6.42327C25.5609 6.19245 26.2104 5.90592 26.491 5.78654C26.7636 5.65919 27.0042 5.55572 27.0282 5.55572C27.0523 5.55572 27.3329 5.44429 27.6456 5.30899C27.9664 5.17368 28.5277 4.91899 28.8885 4.75185C29.2573 4.57675 29.57 4.44144 29.5941 4.44144C29.6182 4.44144 30.2356 4.17083 30.9733 3.84451C31.719 3.51818 32.3444 3.24757 32.3765 3.24757C32.4166 3.24757 32.6651 3.1441 32.9377 3.01675C33.2184 2.88941 33.6754 2.69043 33.9641 2.57104C34.2528 2.45166 34.6617 2.30839 34.8862 2.25268C35.1027 2.19696 35.4475 2.16513 35.6479 2.17309V2.17309ZM33.5632 6.00939C32.7934 6.34368 31.7109 6.82122 31.1577 7.06796C30.6044 7.32265 30.0672 7.55347 29.9549 7.5853C29.8427 7.61714 29.538 7.74448 29.2734 7.86387C29.0088 7.98326 28.231 8.3255 27.5494 8.61999C26.8679 8.91448 26.1061 9.24876 25.8656 9.35223C25.625 9.46366 25.1359 9.6706 24.7831 9.81386C24.4303 9.95713 23.5082 10.3551 22.7384 10.6894C21.9687 11.0237 21.1348 11.3898 20.8942 11.5012C20.6537 11.6126 20.2046 11.8116 19.8919 11.939C19.5792 12.0663 18.2482 12.6394 16.9251 13.2124C15.6021 13.7775 14.1428 14.4142 13.6777 14.6132C13.2126 14.8122 12.499 15.1306 12.0901 15.3216C11.6892 15.5046 11.3043 15.6638 11.2481 15.6638C11.192 15.6638 11.1118 15.6957 11.0637 15.7275C11.0236 15.7673 10.6468 15.9424 10.2298 16.1255C9.81287 16.3006 8.995 16.6508 8.42569 16.9055C7.85639 17.1522 6.99041 17.5263 6.50129 17.7332C6.01218 17.9401 5.41882 18.2028 5.17827 18.3063C4.93772 18.4177 4.47265 18.6087 4.15994 18.7361C3.83921 18.8634 3.5746 18.9828 3.5746 19.0067C3.5746 19.0305 4.10381 19.2375 4.7533 19.4763C5.40278 19.7071 6.86212 20.2165 7.98469 20.5985C9.10725 20.9805 10.5024 21.4581 11.0717 21.6571L12.1141 22.0152C13.6055 21.0522 14.3673 20.5667 14.7602 20.312C15.1531 20.0652 15.8747 19.5956 16.3638 19.2852C16.853 18.9748 17.2779 18.6963 17.326 18.6803C17.3742 18.6644 17.751 18.4257 18.168 18.155C18.5849 17.8844 19.2264 17.4706 19.5872 17.2397C19.948 17.0089 20.5254 16.6428 20.8702 16.4279C21.2149 16.213 21.9687 15.7355 22.538 15.3614C23.1073 14.9953 23.7327 14.5893 23.9251 14.462C24.1096 14.3347 24.2779 14.2312 24.302 14.2312C24.3261 14.2312 24.7671 13.9606 25.2883 13.6263C25.8014 13.292 26.5151 12.8304 26.8679 12.5996C27.2207 12.3687 28.0626 11.8355 28.7361 11.4136C29.4017 10.9918 30.0431 10.6177 30.1554 10.57C30.2676 10.5222 30.428 10.4904 30.5162 10.4904C30.6044 10.4904 30.7167 10.57 30.7648 10.6655C30.8129 10.769 30.8369 10.9202 30.8129 11.0077C30.7888 11.0953 30.5082 11.4216 30.1955 11.7241C29.8828 12.0265 29.2413 12.6553 28.7602 13.1169C28.2871 13.5785 27.0363 14.7724 25.9859 15.7832C24.9354 16.794 23.853 17.8287 23.5804 18.0914C23.3077 18.354 22.5861 19.0544 21.9687 19.6434C21.3513 20.2324 19.932 21.6014 18.8094 22.6758C17.6869 23.7503 16.6685 24.7213 16.5483 24.8248C16.436 24.9283 16.2997 25.1034 16.2596 25.2148C16.2195 25.3262 16.1393 25.756 16.0832 26.1699C16.0351 26.5838 15.9228 27.316 15.8427 27.8015C15.7625 28.287 15.6502 28.9795 15.6021 29.3536C15.546 29.7276 15.4337 30.4758 15.3455 31.025C15.2653 31.5742 15.1691 32.0915 15.1451 32.1791C15.113 32.2905 15.2172 32.2348 15.4898 31.988C15.7063 31.7891 16.3638 31.1842 16.9492 30.635C17.5345 30.0858 18.168 29.4968 18.3524 29.3217C18.5368 29.1546 19.058 28.6611 19.5151 28.2313C19.9641 27.8015 20.349 27.4434 20.373 27.4434C20.3971 27.4434 20.6055 27.5946 20.8381 27.7776C21.0706 27.9687 21.3994 28.2313 21.5677 28.3587C21.7361 28.486 22.4738 29.075 23.2115 29.648C23.9412 30.2291 24.735 30.8578 24.9675 31.0409C25.2081 31.2319 25.4406 31.415 25.4887 31.4627C25.5448 31.5105 25.7854 31.6935 26.0259 31.8766C26.2665 32.0517 26.5552 32.2746 26.6674 32.3701C26.7797 32.4576 27.373 32.9352 27.9904 33.4207C28.6078 33.9062 29.2012 34.3201 29.3135 34.3439C29.4257 34.3678 29.5941 34.3439 29.6983 34.2962C29.7946 34.2484 29.8908 34.1131 29.9068 33.9858C29.9309 33.8664 30.0431 33.2854 30.1554 32.6964C30.2757 32.1074 30.42 31.3354 30.4761 30.9852C30.5403 30.635 30.6605 29.9903 30.7568 29.5525C30.853 29.1148 30.9813 28.4542 31.0374 28.0801C31.1015 27.706 31.2058 27.133 31.2699 26.8066C31.3421 26.4803 31.4303 26.0266 31.4704 25.8117C31.5185 25.5889 31.6067 25.1113 31.6709 24.7373C31.743 24.3632 31.9194 23.3762 32.0798 22.5485C32.2402 21.7207 32.3845 20.9646 32.4085 20.8771C32.4246 20.7895 32.4967 20.4314 32.5609 20.0812C32.617 19.731 32.8335 18.5689 33.034 17.4944C33.2424 16.42 33.475 15.1863 33.5632 14.7485C33.6434 14.3108 33.8438 13.2522 34.0042 12.4006C34.1646 11.549 34.4211 10.1879 34.5735 9.37611C34.7339 8.56428 34.9584 7.36245 35.0947 6.7098C35.223 6.04919 35.3272 5.46817 35.3272 5.41246C35.3272 5.3647 35.3032 5.31695 35.2711 5.32491C35.231 5.32491 35.1508 5.34878 35.0867 5.37266C35.0225 5.39654 34.3329 5.68307 33.5632 6.00939V6.00939Z" fill="white"/>
</svg>
