<svg width="38" height="39" viewBox="0 0 38 39" fill="none" xmlns="http://www.w3.org/2000/svg">
<path d="M26.6345 38.4944C25.9813 38.3841 25.3181 38.3039 24.6649 38.1536C22.2028 37.6123 19.9417 36.5498 17.7609 35.3269C14.3643 33.4324 11.3394 31.0567 8.68637 28.21C5.46052 24.7418 2.7874 20.9027 1.10916 16.4421C0.49615 14.8183 0.0439291 13.1544 0.00373165 11.4002C-0.0465151 9.63603 0.405706 8.04226 1.66188 6.75922C2.66681 5.7368 3.63154 4.66426 4.71687 3.73205C6.38506 2.27861 8.20401 2.28863 9.8119 3.80222C11.5203 5.39599 13.1483 7.06995 14.7461 8.78401C15.9722 10.0971 15.9521 12.0417 14.7662 13.3849C13.9221 14.3372 12.9975 15.2092 12.1032 16.1214C12.0228 16.2016 11.9424 16.2717 11.7916 16.402C14.2437 20.7624 17.6203 24.1604 22.0118 26.5962C22.7454 25.8544 23.4388 25.1528 24.1423 24.4511C24.7151 23.8798 25.2779 23.3184 26.0617 23.0378C27.348 22.5767 28.5741 22.727 29.5589 23.6592C31.3376 25.3532 33.0862 27.0974 34.7745 28.8816C35.9603 30.1446 36.0005 32.1293 34.8649 33.4424C33.7696 34.7054 32.5837 35.8782 31.3879 37.0409C30.5437 37.8629 29.4584 38.2738 28.2927 38.4242C28.2123 38.4342 28.1319 38.4743 28.0515 38.4944C27.5792 38.4944 27.1069 38.4944 26.6345 38.4944ZM27.1169 36.3393C28.5037 36.3593 29.5388 35.9483 30.3829 35.0562C31.1266 34.2744 31.8903 33.5126 32.634 32.7508C32.8048 32.5703 32.9857 32.3999 33.1264 32.1995C33.6289 31.5379 33.6188 30.8462 33.0762 30.2047C32.9455 30.0544 32.8149 29.914 32.6742 29.7737C31.7698 28.8716 30.8754 27.9694 29.9709 27.0673C29.4383 26.536 28.9057 25.9948 28.363 25.4735C27.6797 24.812 26.936 24.8019 26.2225 25.4334C26.1019 25.5437 25.9914 25.654 25.8708 25.7642C25.0266 26.6062 24.1925 27.4482 23.3484 28.2802C22.7153 28.9016 22.0319 29.0119 21.2883 28.631C20.7757 28.3704 20.2532 28.1098 19.7507 27.8091C17.5097 26.4759 15.5702 24.7819 13.8115 22.8774C12.2137 21.1433 10.7666 19.2989 9.8119 17.1238C9.43003 16.2617 9.55062 15.6002 10.2239 14.9386C10.435 14.7281 10.656 14.5376 10.8671 14.3271C11.5906 13.6054 12.3343 12.8937 13.0377 12.142C13.6608 11.4704 13.6508 10.7888 13.0578 10.0871C12.9674 9.97684 12.8569 9.86658 12.7564 9.75632C11.3595 8.35299 9.96264 6.94967 8.55573 5.55637C7.66134 4.66426 6.85739 4.65424 5.95295 5.54635C5.09875 6.38834 4.22446 7.22031 3.42051 8.1024C3.02859 8.53342 2.6668 9.03461 2.45577 9.56587C2.00354 10.7086 2.14424 11.9014 2.38542 13.0742C2.75725 14.8885 3.45066 16.5925 4.27471 18.2464C6.03335 21.7748 8.38489 24.8821 11.1686 27.6587C14.7059 31.177 18.7759 33.8834 23.469 35.5975C24.695 36.0385 25.9813 36.2891 27.1169 36.3393Z" fill="white"/>
<path d="M21.2889 0.504165C22.1431 0.724687 23.0174 0.915138 23.8615 1.17575C26.615 2.01775 29.0771 3.41105 31.2377 5.31556C33.539 7.34035 35.3178 9.73602 36.5438 12.5427C37.187 14.0061 37.6291 15.5297 37.9306 17.1035C37.9507 17.1837 37.9809 17.2638 38.001 17.344C38.001 17.4142 38.001 17.4944 38.001 17.5646C37.9909 17.5746 37.9809 17.5846 37.9708 17.5946C37.7397 18.2361 37.3678 18.5469 36.8654 18.5068C36.2624 18.4667 35.9006 18.1259 35.77 17.3942C35.2776 14.7278 34.2626 12.282 32.6748 10.0869C30.6046 7.21004 27.9416 5.04492 24.6353 3.75185C23.4796 3.30079 22.2536 3.02012 21.0577 2.69936C20.3744 2.50891 20.0126 2.22825 19.9523 1.71704C19.892 1.18578 20.1332 0.824924 20.7663 0.494141C20.9472 0.504164 21.118 0.504165 21.2889 0.504165Z" fill="white"/>
<path d="M19.6388 8.49264C19.6287 7.78096 20.2317 7.27977 20.9653 7.42011C23.5681 7.90124 25.8192 9.07402 27.6783 10.9585C29.457 12.7728 30.5826 14.9379 31.0549 17.4338C31.1855 18.1054 30.8639 18.6667 30.2509 18.8071C29.6781 18.9374 29.0953 18.5865 28.9546 17.945C28.7134 16.8524 28.4018 15.7899 27.8592 14.8176C26.2513 11.9709 23.8595 10.2067 20.6437 9.56518C19.9905 9.42485 19.6488 9.05397 19.6388 8.49264Z" fill="white"/>
</svg>
