<svg width="30" height="29" viewBox="0 0 30 29" fill="none" xmlns="http://www.w3.org/2000/svg">
<path d="M15.1369 10.5696C17.0654 8.61552 18.9431 6.72944 20.8209 4.84336C22.0727 3.58597 23.3246 2.31159 24.5933 1.0712C25.7606 -0.0842387 27.4015 -0.101231 28.5011 1.00323C29.5837 2.10769 29.5668 3.75589 28.3996 4.92832C25.4561 7.90187 22.4956 10.8754 19.5352 13.832C19.3491 14.0019 19.1461 14.1548 18.8924 14.3417C19.1292 14.5966 19.2815 14.7665 19.4337 14.9194C22.4111 17.91 25.3715 20.8835 28.3488 23.8741C29.33 24.8766 29.5499 26.066 28.9917 27.1705C28.1458 28.8187 26.0312 29.1585 24.661 27.8332C23.4261 26.6437 22.2419 25.4033 21.0239 24.1969C19.2138 22.3788 17.4206 20.5607 15.6105 18.7596C15.4583 18.6067 15.306 18.4707 15.12 18.3008C14.9339 18.4707 14.7647 18.6236 14.5955 18.7936C11.652 21.7501 8.70853 24.6897 5.78194 27.6632C5.07144 28.3769 4.25944 28.8017 3.22752 28.6318C2.16177 28.4449 1.41743 27.8162 1.0791 26.7967C0.740766 25.7602 0.994516 24.8256 1.73885 24.044C3.15985 22.5997 4.59777 21.1554 6.03569 19.7281C7.7612 17.9949 9.50362 16.2618 11.2799 14.4777C11.0938 14.2908 10.9415 14.1208 10.7893 13.9509C7.81195 10.9604 4.85153 7.98683 1.87419 4.99628C1.11293 4.23166 0.757683 3.36508 1.02835 2.2946C1.50202 0.374538 3.73502 -0.407081 5.29136 0.799331C5.51128 0.969248 5.69736 1.17315 5.90036 1.36006C8.79312 4.26564 11.6859 7.17123 14.5955 10.0768C14.7478 10.1958 14.917 10.3657 15.1369 10.5696Z" fill="white"/>
</svg>
