<svg width="38" height="38" viewBox="0 0 38 38" fill="none" xmlns="http://www.w3.org/2000/svg">
<path fill-rule="evenodd" clip-rule="evenodd" d="M19.2962 0.00213391C21.0269 0.024154 21.8546 0.0792042 22.5748 0.233345C23.1015 0.343445 23.6389 0.442536 23.7572 0.453546C23.8754 0.464556 24.0474 0.508596 24.1334 0.541626C24.2194 0.574656 24.5526 0.684756 24.8644 0.772837C25.1653 0.871927 25.4233 0.915967 25.4233 0.860917C25.4233 0.816877 25.4663 0.838897 25.5093 0.893947C25.5523 0.960007 25.95 1.14718 26.3908 1.32334C26.8315 1.4995 27.6592 1.88485 28.2181 2.18212C28.7771 2.4904 29.6693 3.0409 30.1853 3.41525C30.712 3.77858 31.2064 4.1309 31.2924 4.19696C31.3784 4.25201 31.7332 4.5713 32.0664 4.89059C32.3996 5.20988 32.7328 5.51816 32.7866 5.58422C32.8403 5.63927 33.1306 5.95857 33.4316 6.27786C33.7218 6.59715 34.2162 7.22472 34.528 7.67613C34.829 8.12754 35.3449 8.96431 35.6782 9.53683C36.0114 10.1094 36.4736 11.0782 36.6993 11.6838C36.9358 12.2893 37.2475 13.2582 37.398 13.8307C37.5593 14.4033 37.7528 15.4382 37.8388 16.1098C37.9248 16.7924 38 17.8824 38 18.532C38 19.1926 37.9248 20.2166 37.8495 20.8221C37.7635 21.4277 37.6238 22.2424 37.527 22.6388C37.441 23.0351 37.2153 23.8279 37.0326 24.4004C36.8391 24.9729 36.4414 25.9418 36.1511 26.5473C35.8501 27.1529 35.3342 28.0667 34.9794 28.5842C34.6355 29.1017 34.3882 29.5641 34.4312 29.6081C34.4742 29.6632 34.4527 29.6852 34.3882 29.6632C34.3237 29.6412 34.0335 29.9274 33.7433 30.2908C33.4423 30.6541 32.7221 31.4138 32.1309 31.9643C31.5504 32.5258 30.583 33.3075 29.9918 33.7149C29.4006 34.1112 28.4546 34.6838 27.8957 34.97C27.3367 35.2563 26.4445 35.6526 25.907 35.8508C25.3696 36.038 24.8429 36.2472 24.7246 36.2912C24.6064 36.3463 24.3591 36.4123 24.1872 36.4454C24.0152 36.4674 23.3057 36.5995 22.6285 36.7426C21.6288 36.9298 20.9946 36.9849 19.35 36.9849C17.8666 36.9849 17.0281 36.9408 16.2864 36.7977C15.7275 36.6986 14.8998 36.5114 14.459 36.4013C14.0183 36.2912 13.6206 36.2142 13.5669 36.2472C13.5239 36.2692 13.4916 36.2582 13.4916 36.2031C13.4916 36.1591 13.1691 36.005 12.7714 35.8618C12.3629 35.7077 11.6427 35.3994 10.2668 34.7498L5.3974 36.2912C2.73157 37.139 0.431223 37.8877 0.291482 37.9427C0.162491 38.0088 0.0334994 38.0198 0.00125154 37.9648C-0.020247 37.9207 0.237736 37.0729 0.581713 36.071C0.925691 35.0691 1.21592 34.2213 1.22667 34.1663C1.22667 34.1222 1.25892 34.0232 1.29117 33.9461C1.31267 33.88 1.50615 33.3295 1.72114 32.735C1.92537 32.1515 2.07586 31.623 2.04362 31.5569C2.01137 31.4908 2.03287 31.4358 2.08661 31.4138C2.14036 31.4028 2.41984 30.6761 2.71007 29.7953C3.01105 28.9145 3.23679 28.1218 3.22604 28.0337C3.20454 27.9456 3.0863 27.6594 2.94656 27.3951C2.80682 27.1419 2.65633 26.9547 2.60258 26.9877C2.55958 27.0208 2.54883 27.0208 2.58108 26.9877C2.61333 26.9547 2.48434 26.6024 2.3016 26.184C2.11886 25.7766 1.81788 24.9729 1.61365 24.4004C1.42016 23.8279 1.16218 22.881 1.04393 22.3085C0.914941 21.736 0.764451 20.646 0.699955 19.8863C0.63546 19.1266 0.613961 18.1137 0.646209 17.6292C0.678457 17.1448 0.764451 16.3741 0.818198 15.9227C0.882693 15.4712 1.06543 14.5574 1.23742 13.8858C1.40941 13.2142 1.67814 12.3664 1.82863 11.9811C1.97912 11.6067 2.06512 11.2984 2.01137 11.2984C1.96837 11.2984 1.98987 11.2544 2.05437 11.2104C2.11886 11.1663 2.3016 10.836 2.47359 10.4727C2.63483 10.1094 3.03255 9.3937 3.34428 8.87623C3.65601 8.35875 4.15048 7.63209 4.45146 7.24674C4.75244 6.8724 4.97817 6.56412 4.94593 6.56412C4.91368 6.56412 5.2899 6.16776 5.77362 5.68331C6.26809 5.20988 6.97754 4.56029 7.36452 4.241C7.75149 3.92171 8.3212 3.49232 8.63293 3.27212C8.94466 3.05192 9.20265 2.85373 9.1919 2.8207C9.1919 2.78767 9.25639 2.75464 9.32089 2.75464C9.39613 2.74363 9.79386 2.53444 10.2131 2.29222C10.6323 2.05 11.4492 1.64263 12.0405 1.40041C12.6317 1.15819 13.6744 0.805867 14.3516 0.629706C15.0288 0.453546 15.8242 0.266375 16.1252 0.222335C16.4154 0.189305 16.7379 0.112234 16.8239 0.0681942C16.9099 0.024154 18.0278 -0.00887613 19.2962 0.00213391V0.00213391ZM14.7815 3.81161C14.1581 3.99878 13.0616 4.43918 12.3307 4.80251C11.6105 5.16584 10.9978 5.54018 10.9655 5.62826C10.9333 5.71634 10.8473 5.79342 10.772 5.79342C10.7075 5.78241 10.2561 6.07968 9.78311 6.432C9.31014 6.79533 8.51469 7.52199 8.00947 8.07249C7.50426 8.61199 6.80555 9.5038 6.44008 10.0433C6.08535 10.5828 5.59088 11.4195 5.3544 11.904C5.11791 12.3884 4.76319 13.2802 4.5697 13.8858C4.37621 14.4913 4.20422 15.1299 4.18273 15.3171C4.16123 15.5043 4.09673 15.8676 4.04299 16.1429C3.97849 16.4181 3.90324 17.1117 3.86025 17.6843C3.81725 18.3008 3.8495 19.2257 3.92474 19.9413C3.98924 20.6129 4.16123 21.6038 4.30097 22.1433C4.42996 22.6828 4.68794 23.4865 4.84918 23.927C5.03192 24.3784 5.20391 24.6866 5.2684 24.6426C5.3329 24.5986 5.34365 24.6206 5.2899 24.6977C5.24691 24.7747 5.32215 25.05 5.45114 25.3032C5.56938 25.5674 5.92411 26.173 6.23584 26.6574L6.78405 27.5382C5.38665 31.7221 5.02117 32.9662 5.07492 33.0212C5.11791 33.0653 5.3114 33.0433 5.48339 32.9772C5.65538 32.9001 5.90261 32.8231 6.02085 32.801C6.1391 32.779 7.24627 32.4377 8.49319 32.0414L10.7505 31.3257C12.5027 32.2616 13.3304 32.6579 13.7281 32.8121C14.1366 32.9662 14.8245 33.1974 15.2652 33.3185C15.706 33.4396 16.2757 33.5607 16.5229 33.5938C16.7809 33.6268 17.3506 33.7039 17.7913 33.7699C18.2428 33.836 19.1995 33.858 19.9949 33.825C20.7581 33.7919 21.8331 33.6708 22.3598 33.5607C22.8865 33.4396 23.7142 33.2194 24.1872 33.0653C24.6601 32.9111 25.4341 32.6029 25.907 32.3827C26.38 32.1625 27.0572 31.7991 27.4119 31.5789C27.7667 31.3697 28.0784 31.1605 28.1107 31.1165C28.1429 31.0835 28.4761 30.8302 28.8631 30.555C29.2501 30.2687 30.024 29.5531 30.583 28.9475C31.142 28.342 31.8084 27.5493 32.0556 27.1749C32.3136 26.8006 32.5286 26.4262 32.5394 26.3602C32.5609 26.2831 32.6254 26.173 32.7006 26.1069C32.7758 26.0519 33.0231 25.6225 33.2488 25.1711C33.4853 24.7197 33.8078 23.949 33.969 23.4645C34.1303 22.9801 34.356 22.1653 34.4742 21.6479C34.6032 21.0533 34.7 20.0955 34.743 19.0055C34.786 17.7393 34.7537 17.0347 34.6247 16.253C34.5387 15.6804 34.3345 14.7556 34.184 14.2161C34.0228 13.6766 33.6573 12.7297 33.3671 12.1242C33.0768 11.5186 32.7328 10.847 32.5931 10.6158C32.4641 10.3956 32.2491 10.0873 32.1094 9.93319C31.9804 9.77905 31.8729 9.60289 31.8729 9.53683C31.8729 9.47077 31.8192 9.42673 31.7654 9.42673C31.7117 9.42673 31.6364 9.33865 31.6042 9.23956C31.5827 9.12946 31.1849 8.64502 30.7227 8.16057C30.2605 7.66512 29.5511 6.99351 29.1318 6.6522C28.7126 6.3219 27.9924 5.79341 27.5194 5.49614C27.0465 5.19887 26.2725 4.78049 25.7996 4.56029C25.3266 4.34009 24.5419 4.03181 24.0474 3.87767C23.5637 3.72353 23.123 3.61343 23.0585 3.64646C22.994 3.67949 22.9402 3.65747 22.9187 3.60242C22.908 3.54737 22.392 3.41525 21.7686 3.32717C21.1451 3.22808 20.0057 3.16202 19.2425 3.16202C18.4793 3.17303 17.4044 3.23909 16.8776 3.32717C16.3509 3.40424 15.405 3.62444 14.7815 3.81161V3.81161ZM13.4594 9.42673C13.9538 9.42673 14.4483 9.47077 14.5665 9.53683C14.6848 9.60289 14.8568 9.81208 14.9535 10.0103C15.061 10.1974 15.448 11.2104 15.8242 12.2343C16.2004 13.2582 16.5014 14.2271 16.5014 14.3812C16.5014 14.5354 16.3832 14.8547 16.2542 15.0859C16.1252 15.3281 15.792 15.7465 15.5017 16.0217C15.2222 16.297 14.9643 16.6493 14.9428 16.8035C14.8998 16.9796 14.9858 17.2659 15.1793 17.6182C15.3512 17.9155 15.5447 18.1797 15.6092 18.2017C15.6845 18.2127 15.7275 18.2678 15.6952 18.3228C15.6737 18.3669 15.7597 18.5541 15.8887 18.7412C16.0177 18.9284 16.1682 19.0825 16.2112 19.0715C16.2542 19.0605 16.3617 19.2147 16.4477 19.3908C16.5337 19.567 16.8884 19.9964 17.2216 20.3267C17.5656 20.668 18.0601 21.1084 18.3288 21.3286C18.5975 21.5378 19.135 21.9231 19.5327 22.1764C19.9412 22.4296 20.5431 22.7599 20.8764 22.914C21.2204 23.0682 21.6288 23.1893 21.7901 23.1893C21.9621 23.1893 22.1448 23.1012 22.22 22.9801C22.2953 22.87 22.5963 22.5067 22.8865 22.1874C23.1875 21.8571 23.4132 21.5818 23.4025 21.5708C23.3917 21.5488 23.5422 21.3946 23.7249 21.2075C23.9184 21.0313 24.1979 20.8772 24.3484 20.8772C24.4989 20.8662 25.5738 21.3506 26.7347 21.9451C28.5514 22.87 28.8738 23.0682 28.9813 23.3544C29.0781 23.6187 29.0781 23.8279 28.9813 24.3453C28.9061 24.7087 28.7556 25.2041 28.6589 25.4463C28.5514 25.6886 28.2826 26.0739 28.0569 26.3051C27.8312 26.5253 27.6054 26.7125 27.5517 26.7125C27.5087 26.7125 27.4979 26.7786 27.5409 26.8556C27.5732 26.9217 27.5732 26.9547 27.5409 26.9107C27.4979 26.8556 27.111 26.9988 26.681 27.2079C26.2618 27.4171 25.5738 27.6483 25.1546 27.7144C24.5956 27.8135 24.2194 27.8135 23.7034 27.7254C23.3165 27.6594 22.6178 27.4722 22.1448 27.307C21.6718 27.1529 20.6829 26.7455 19.9412 26.4152C19.1995 26.0959 18.2321 25.5895 17.7913 25.3142C17.3506 25.028 16.9636 24.7747 16.9314 24.7417C16.8991 24.7087 16.6519 24.4885 16.3617 24.2683C16.0822 24.0371 15.8565 23.8609 15.8565 23.8829C15.8457 23.8939 15.405 23.4315 14.8568 22.859C14.3086 22.2865 13.8141 21.769 13.7496 21.7029C13.6744 21.6479 13.2659 21.0974 12.8252 20.4918C12.3952 19.8863 11.976 19.2697 11.9007 19.1156C11.8255 18.9614 11.6212 18.6752 11.4492 18.488C11.2665 18.2898 11.159 18.1026 11.202 18.0696C11.2343 18.0366 11.202 18.0146 11.1268 18.0146C11.0515 18.0146 11.0193 17.9925 11.0515 17.9595C11.0945 17.9265 10.9548 17.5411 10.7505 17.1117C10.5463 16.6713 10.2776 15.8896 10.1486 15.3722C9.96584 14.6565 9.9336 14.2601 9.97659 13.6656C10.0196 13.2472 10.1593 12.5756 10.2883 12.1792C10.4173 11.7829 10.686 11.2544 10.8795 11.0012C11.073 10.7369 11.2343 10.5057 11.2343 10.4727C11.2343 10.4397 11.3848 10.2855 11.5675 10.1204C11.761 9.9442 12.062 9.724 12.2447 9.62491C12.4812 9.49279 12.8359 9.43774 13.4594 9.42673V9.42673Z" fill="white"/>
</svg>
