<svg width="1811" height="2483" viewBox="0 0 1811 2483" fill="none" xmlns="http://www.w3.org/2000/svg">
<path d="M636.905 2200.6C639.978 2149.37 568.158 2144.86 503.199 2148.23C566.114 2129.77 635.496 2101.28 612.491 2053.18C588.811 2002.89 514.786 2036.91 457.048 2070.74C503.485 2023.95 553.205 1962.99 505.937 1930.95C458.222 1898.87 413.074 1963.66 380.974 2020.29C397.49 1957.11 410.928 1875.77 351.41 1870.27C288.759 1864.48 288 1954.23 291.042 2020.49C271.407 1957.38 239.927 1877.84 184.137 1901.64C131.163 1924.41 167.365 1993.31 203.268 2047.71C153.562 2004.38 88.0083 1957.03 54.4081 2002.03C21.9225 2045 84.1067 2085.66 142.018 2115.27C79.4818 2099.7 8.1004 2090.98 0.551963 2141.79C-7.04036 2193.02 65.1044 2203.1 129.984 2204.83C68.0079 2222.95 1.35442 2251.27 23.9558 2298.91C47.6364 2349.2 121.661 2315.17 179.4 2281.34C132.962 2328.14 83.2422 2389.1 130.51 2421.14C178.225 2453.22 223.373 2388.43 255.474 2331.8C239.404 2395.02 225.475 2476.74 285.441 2482.28C348.092 2488.07 348.851 2398.32 345.809 2332.05C365.444 2395.17 396.923 2474.7 452.714 2450.91C505.687 2428.14 469.486 2359.24 433.583 2304.83C483.289 2348.17 548.843 2395.52 582.443 2350.52C614.393 2308.35 554.894 2267.94 497.386 2238.79C560.94 2248.92 633.787 2252.24 636.905 2200.6Z" fill="#FF92E0"/>
<path d="M1811 568.074C1623.2 568.074 1471 440.927 1471 284.037C1471 127.147 1623.2 -6.93953e-06 1811 0L1811 568.074Z" fill="#C4FF63"/>
<path d="M1131 284.037C1131 127.147 1283.2 -6.93953e-06 1471 0L1471 568.074C1283.2 568.074 1131 440.927 1131 284.037Z" fill="#C4FF63"/>
</svg>
