<svg width="124" height="36" viewBox="0 0 124 36" fill="none" xmlns="http://www.w3.org/2000/svg">
<g clip-path="url(#clip0_2212_7501)">
<path d="M114.125 0.000117H9.88016C9.50017 0.000117 9.12475 0.000117 8.74576 0.001917C8.42852 0.003717 8.11381 0.008946 7.79352 0.013347C7.0977 0.0204586 6.40352 0.0736256 5.71701 0.172386C5.03146 0.273296 4.36739 0.463541 3.74725 0.736686C3.12787 1.01214 2.56193 1.37007 2.06995 1.79748C1.57539 2.22369 1.16313 2.71633 0.849038 3.25646C0.534075 3.79551 0.315679 4.37316 0.201392 4.96945C0.0860188 5.56498 0.0239353 6.16739 0.0156989 6.77125C0.00608269 7.04719 0.00506718 7.32405 0 7.60002V28.4029C0.00506718 28.6823 0.00608269 28.953 0.0156989 29.2326C0.0239379 29.8364 0.0860213 30.4388 0.201392 31.0343C0.315363 31.6309 0.533773 32.2089 0.849038 32.7481C1.16299 33.2865 1.5753 33.7772 2.06995 34.201C2.56006 34.6303 3.12637 34.9885 3.74725 35.2618C4.36738 35.5357 5.03138 35.7271 5.71701 35.8296C6.40364 35.9275 7.09775 35.9807 7.79352 35.9887C8.11381 35.9948 8.42852 35.9983 8.74576 35.9983C9.12474 36.0001 9.50019 36.0001 9.88016 36.0001H114.125C114.498 36.0001 114.876 36.0001 115.249 35.9983C115.564 35.9983 115.888 35.9948 116.204 35.9887C116.898 35.9811 117.591 35.928 118.276 35.8296C118.964 35.7264 119.631 35.535 120.254 35.2618C120.874 34.9883 121.44 34.6302 121.93 34.201C122.423 33.7755 122.836 33.2852 123.154 32.7481C123.467 32.2085 123.683 31.6306 123.796 31.0343C123.911 30.4387 123.975 29.8364 123.988 29.2326C123.992 28.953 123.992 28.6823 123.992 28.4029C124 28.0759 124 27.7507 124 27.4184V8.58263C124 8.25304 124 7.92609 123.992 7.60002C123.992 7.32405 123.992 7.04719 123.988 6.77121C123.975 6.1673 123.911 5.56503 123.796 4.96941C123.683 4.37347 123.467 3.79587 123.154 3.25642C122.514 2.17379 121.5 1.29254 120.254 0.736605C119.631 0.464128 118.964 0.273933 118.276 0.172305C117.591 0.0731095 116.898 0.019924 116.204 0.013221C115.888 0.008829 115.564 0.003555 115.249 0.0018C114.876 0 114.498 0 114.125 0V0.000117Z" fill="#A6A6A6"/>
<path d="M8.75048 35.2121C8.43476 35.2121 8.12666 35.2086 7.81342 35.2025C7.16451 35.1951 6.51712 35.1461 5.87655 35.0557C5.27926 34.9663 4.70064 34.8001 4.15978 34.5626C3.62389 34.327 3.1351 34.0181 2.71216 33.6476C2.2831 33.2816 1.92589 32.857 1.65468 32.3908C1.38048 31.9215 1.19072 31.4185 1.092 30.8993C0.985397 30.3414 0.92772 29.7773 0.919467 29.2118C0.912898 29.022 0.904297 28.39 0.904297 28.39V7.59952C0.904297 7.59952 0.913457 6.97725 0.919519 6.79443C0.927421 6.22984 0.984763 5.6666 1.09105 5.10957C1.18994 4.58893 1.37985 4.08448 1.6542 3.61368C1.92441 3.14776 2.27964 2.72288 2.70612 2.35552C3.13212 1.98467 3.62247 1.67415 4.15927 1.4353C4.69889 1.19849 5.27641 1.03347 5.8725 0.945752C6.51517 0.854462 7.16481 0.805106 7.81597 0.798098L8.75098 0.787109H115.243L116.189 0.798539C116.835 0.805199 117.478 0.854114 118.115 0.94487C118.717 1.03369 119.301 1.19986 119.847 1.43794C120.922 1.9193 121.797 2.68086 122.349 3.61587C122.619 4.08343 122.806 4.58377 122.904 5.0999C123.011 5.6615 123.071 6.22917 123.084 6.79839C123.087 7.05327 123.087 7.32705 123.087 7.59952C123.095 7.93702 123.095 8.25825 123.095 8.58213V27.4179C123.095 27.7449 123.095 28.064 123.087 28.3856C123.087 28.6783 123.087 28.9464 123.083 29.2223C123.071 29.7814 123.012 30.3389 122.906 30.8905C122.809 31.4134 122.62 31.9204 122.346 32.3935C122.073 32.8547 121.718 33.2755 121.294 33.6406C120.87 34.013 120.381 34.3238 119.844 34.5609C119.299 34.8003 118.717 34.9671 118.115 35.0557C117.475 35.1466 116.827 35.1956 116.178 35.2025C115.875 35.2086 115.557 35.2121 115.248 35.2121L114.125 35.2139L8.75048 35.2121Z" fill="black"/>
<path d="M25.6714 17.9771C25.6825 17.1146 25.9123 16.2689 26.3392 15.5188C26.7662 14.7686 27.3765 14.1384 28.1133 13.6866C27.6452 13.0199 27.0277 12.4713 26.3097 12.0843C25.5918 11.6972 24.7933 11.4825 23.9775 11.457C22.2375 11.2749 20.5505 12.4953 19.6638 12.4953C18.7599 12.4953 17.3947 11.4751 15.9246 11.5053C14.9736 11.5359 14.0469 11.8116 13.2346 12.3056C12.4223 12.7996 11.7522 13.495 11.2896 14.3241C9.28548 17.7841 10.7803 22.8692 12.7001 25.666C13.6606 27.0355 14.7831 28.5653 16.2519 28.5111C17.6892 28.4516 18.226 27.5971 19.961 27.5971C21.6799 27.5971 22.1835 28.5111 23.6821 28.4766C25.2244 28.4516 26.1962 27.101 27.1229 25.7185C27.8131 24.7426 28.3441 23.6641 28.6964 22.5229C27.8003 22.145 27.0357 21.5124 26.4978 20.704C25.9598 19.8956 25.6724 18.9472 25.6714 17.9771V17.9771Z" fill="white"/>
<path d="M22.8408 9.61674C23.6817 8.61006 24.096 7.31614 23.9957 6.00977C22.7109 6.14433 21.5241 6.75664 20.6719 7.7247C20.2551 8.19762 19.936 8.7478 19.7326 9.3438C19.5293 9.93979 19.4457 10.5699 19.4867 11.1981C20.1293 11.2047 20.765 11.0658 21.346 10.7919C21.927 10.518 22.4381 10.1162 22.8408 9.61674Z" fill="white"/>
<path d="M43.8381 25.0443H38.9332L37.7553 28.5126H35.6777L40.3236 15.6807H42.4821L47.1279 28.5126H45.015L43.8381 25.0443ZM39.4412 23.4438H43.3291L41.4125 17.815H41.3588L39.4412 23.4438Z" fill="white"/>
<path d="M57.1596 23.8345C57.1596 26.7418 55.5992 28.6096 53.2444 28.6096C52.6479 28.6408 52.0547 28.5037 51.5326 28.2143C51.0106 27.9248 50.5808 27.4946 50.2926 26.9728H50.248V31.6067H48.3223V19.1563H50.1863V20.7123H50.2217C50.5232 20.1931 50.9602 19.7651 51.4863 19.4739C52.0123 19.1826 52.6076 19.039 53.209 19.0584C55.5901 19.0584 57.1596 20.9353 57.1596 23.8345ZM55.1803 23.8345C55.1803 21.9404 54.1987 20.6952 52.701 20.6952C51.2296 20.6952 50.2399 21.9666 50.2399 23.8345C50.2399 25.7195 51.2296 26.9819 52.701 26.9819C54.1987 26.9819 55.1803 25.7458 55.1803 23.8345Z" fill="white"/>
<path d="M67.4858 23.8345C67.4858 26.7418 65.9254 28.6096 63.5706 28.6096C62.9741 28.6407 62.3808 28.5037 61.8588 28.2142C61.3367 27.9248 60.907 27.4945 60.6187 26.9728H60.5742V31.6067H58.6484V19.1562H60.5124V20.7123H60.5479C60.8494 20.1931 61.2864 19.7651 61.8124 19.4739C62.3384 19.1826 62.9338 19.039 63.5351 19.0584C65.9163 19.0584 67.4858 20.9353 67.4858 23.8345ZM65.5064 23.8345C65.5064 21.9404 64.5248 20.6951 63.0272 20.6951C61.5558 20.6951 60.5661 21.9666 60.5661 23.8345C60.5661 25.7195 61.5558 26.9819 63.0272 26.9819C64.5249 26.9819 65.5064 25.7458 65.5064 23.8345H65.5064Z" fill="white"/>
<path d="M74.3131 24.9364C74.4558 26.2089 75.6954 27.0444 77.3894 27.0444C79.0126 27.0444 80.1804 26.2089 80.1804 25.0615C80.1804 24.0655 79.4761 23.4691 77.8084 23.0604L76.1407 22.6598C73.7778 22.0907 72.6808 20.9887 72.6808 19.2006C72.6808 16.9866 74.6157 15.4658 77.3631 15.4658C80.0822 15.4658 81.9462 16.9866 82.009 19.2006H80.065C79.9486 17.92 78.8871 17.147 77.3358 17.147C75.7845 17.147 74.7229 17.9291 74.7229 19.0674C74.7229 19.9746 75.4009 20.5084 77.0595 20.917L78.4772 21.2642C81.1174 21.8868 82.2144 22.9444 82.2144 24.8213C82.2144 27.222 80.2967 28.7255 77.2467 28.7255C74.393 28.7255 72.4663 27.2573 72.3418 24.9363L74.3131 24.9364Z" fill="white"/>
<path d="M86.3693 16.9424V19.1564H88.1533V20.6771H86.3693V25.8347C86.3693 26.6359 86.7265 27.0093 87.5107 27.0093C87.7225 27.0056 87.934 26.9908 88.1442 26.9649V28.4765C87.7916 28.5422 87.4332 28.572 87.0746 28.5653C85.1752 28.5653 84.4344 27.8539 84.4344 26.0395V20.6771H83.0703V19.1564H84.4344V16.9424H86.3693Z" fill="white"/>
<path d="M89.1875 23.8343C89.1875 20.8907 90.926 19.041 93.637 19.041C96.3571 19.041 98.0876 20.8907 98.0876 23.8343C98.0876 26.786 96.3663 28.6276 93.637 28.6276C90.9088 28.6276 89.1875 26.786 89.1875 23.8343ZM96.1254 23.8343C96.1254 21.8151 95.1974 20.6233 93.637 20.6233C92.0766 20.6233 91.1497 21.8242 91.1497 23.8343C91.1497 25.8616 92.0766 27.0443 93.637 27.0443C95.1974 27.0443 96.1254 25.8616 96.1254 23.8343H96.1254Z" fill="white"/>
<path d="M99.6758 19.1562H101.512V20.7485H101.557C101.681 20.2512 101.973 19.8117 102.384 19.5039C102.795 19.1961 103.3 19.0387 103.814 19.0583C104.036 19.0575 104.257 19.0815 104.473 19.1299V20.9261C104.193 20.8408 103.901 20.8016 103.608 20.8101C103.328 20.7988 103.05 20.848 102.791 20.9543C102.532 21.0606 102.299 21.2215 102.108 21.426C101.918 21.6305 101.774 21.8737 101.686 22.1389C101.599 22.4042 101.57 22.6851 101.602 22.9625V28.5117H99.6758L99.6758 19.1562Z" fill="white"/>
<path d="M113.352 25.7637C113.093 27.4621 111.434 28.6276 109.312 28.6276C106.583 28.6276 104.889 26.8041 104.889 23.8787C104.889 20.9442 106.592 19.041 109.231 19.041C111.827 19.041 113.459 20.8191 113.459 23.6557V24.3136H106.833V24.4297C106.802 24.774 106.845 25.1208 106.959 25.4472C107.074 25.7736 107.256 26.072 107.495 26.3226C107.734 26.5733 108.023 26.7704 108.344 26.9009C108.665 27.0314 109.01 27.0923 109.356 27.0796C109.812 27.1221 110.268 27.017 110.659 26.7799C111.049 26.5429 111.352 26.1864 111.523 25.7637L113.352 25.7637ZM106.842 22.9715H111.532C111.549 22.6619 111.502 22.3521 111.394 22.0615C111.285 21.771 111.118 21.5059 110.902 21.2829C110.686 21.06 110.426 20.8839 110.138 20.7659C109.851 20.6479 109.542 20.5904 109.231 20.5971C108.917 20.5952 108.606 20.6553 108.316 20.7739C108.026 20.8924 107.762 21.0671 107.54 21.2879C107.318 21.5086 107.142 21.7711 107.022 22.06C106.902 22.349 106.841 22.6588 106.842 22.9715V22.9715Z" fill="white"/>
<path d="M38.0689 8.62993H38.8957C39.038 8.64761 39.1824 8.63569 39.3199 8.59493C39.4574 8.55417 39.5849 8.48546 39.6944 8.39312C39.8039 8.30078 39.8931 8.18681 39.9563 8.05841C40.0194 7.93001 40.0552 7.78995 40.0614 7.64706C40.0614 7.07843 39.6324 6.71111 38.9048 6.71111C38.759 6.69079 38.6105 6.69981 38.4683 6.73764C38.326 6.77547 38.1928 6.84134 38.0765 6.93136C37.9602 7.02138 37.8632 7.13372 37.7911 7.26176C37.7191 7.3898 37.6735 7.53093 37.657 7.67683H36.7493C36.7649 7.41199 36.835 7.15319 36.9553 6.91654C37.0756 6.6799 37.2434 6.47048 37.4484 6.30131C37.6533 6.13215 37.891 6.00688 38.1466 5.93328C38.4022 5.85969 38.6703 5.83935 38.9341 5.87354C40.1515 5.87354 41.0086 6.55317 41.0086 7.53151C41.0115 7.85926 40.9015 8.17807 40.6971 8.43473C40.4927 8.69138 40.2061 8.87035 39.8854 8.94175V9.01441C40.2657 9.03123 40.6238 9.19751 40.8815 9.4769C41.1392 9.75629 41.2755 10.1261 41.2606 10.5054C41.2325 10.7781 41.15 11.0424 41.0181 11.2829C40.8862 11.5234 40.7074 11.7352 40.4924 11.906C40.2773 12.0767 40.0302 12.2029 39.7656 12.2771C39.5009 12.3514 39.2241 12.3722 38.9513 12.3384C38.678 12.3756 38.3999 12.3575 38.1337 12.2852C37.8675 12.2129 37.6186 12.0879 37.4019 11.9177C37.1851 11.7474 37.005 11.5354 36.8722 11.2942C36.7394 11.053 36.6567 10.7877 36.6289 10.514H37.5508C37.6065 11.1038 38.1499 11.4843 38.9513 11.4843C39.7528 11.4843 40.276 11.0569 40.276 10.4545C40.276 9.84344 39.7831 9.46704 38.922 9.46704H38.0689V8.62993Z" fill="white"/>
<path d="M42.3086 10.8732C42.3086 10.0357 42.935 9.55281 44.0441 9.48419L45.308 9.41153V9.00991C45.308 8.51847 44.9832 8.24096 44.3527 8.24096C43.8387 8.24096 43.4835 8.42916 43.3802 8.75814H42.4887C42.5828 7.95892 43.3377 7.44629 44.3962 7.44629C45.5661 7.44629 46.2258 8.02702 46.2258 9.00991V12.1891H45.3384V11.5352H45.2655C45.1176 11.7698 44.91 11.961 44.6637 12.0893C44.4175 12.2177 44.1415 12.2786 43.864 12.2658C43.6681 12.2861 43.4701 12.2653 43.2828 12.2046C43.0955 12.144 42.923 12.0448 42.7764 11.9136C42.6299 11.7824 42.5126 11.6221 42.432 11.4429C42.3514 11.2637 42.3094 11.0696 42.3086 10.8732V10.8732ZM45.308 10.4756V10.0866L44.1685 10.1593C43.5259 10.2022 43.2345 10.4201 43.2345 10.8303C43.2345 11.2491 43.5988 11.4928 44.0997 11.4928C44.2465 11.5076 44.3948 11.4929 44.5357 11.4494C44.6767 11.4059 44.8074 11.3346 44.9201 11.2397C45.0328 11.1448 45.1253 11.0282 45.1919 10.897C45.2586 10.7657 45.298 10.6224 45.308 10.4756V10.4756Z" fill="white"/>
<path d="M48.667 8.30912V12.1892H47.7461V7.53613H50.8184V8.30907L48.667 8.30912Z" fill="white"/>
<path d="M56.4024 9.86016C56.4024 11.3385 55.6525 12.2654 54.4746 12.2654C54.1855 12.2851 53.8967 12.222 53.6423 12.0835C53.3879 11.9451 53.1785 11.737 53.0387 11.4838H52.9658V13.7357H52.0449V7.53567H52.9314V8.30464H53.0002C53.1425 8.04263 53.3547 7.82495 53.6133 7.67563C53.8718 7.52631 54.1668 7.45116 54.4655 7.4585C55.6525 7.45847 56.4024 8.3813 56.4024 9.86016ZM55.4552 9.86016C55.4552 8.87728 54.9887 8.28342 54.2085 8.28342C53.4334 8.28342 52.9486 8.88989 52.9486 9.8642C52.9486 10.834 53.4333 11.4409 54.2044 11.4409C54.9887 11.4409 55.4552 10.8471 55.4552 9.86016Z" fill="white"/>
<path d="M57.6299 13.8557V13.0651C57.7296 13.0777 57.83 13.0834 57.9305 13.0822C58.1267 13.0967 58.3213 13.0385 58.4771 12.9186C58.6328 12.7988 58.7387 12.6258 58.7744 12.4329L58.8432 12.2063L57.1543 7.53613H58.1571L59.327 11.232H59.3998L60.5656 7.53613H61.5421L59.8026 12.3814C59.4039 13.5136 58.9627 13.8769 58.0115 13.8769C57.9345 13.8769 57.716 13.8683 57.6299 13.8557Z" fill="white"/>
<path d="M62.2598 10.8693H63.1766C63.2667 11.2795 63.6522 11.4934 64.1916 11.4934C64.8048 11.4934 65.1813 11.224 65.1813 10.8052C65.1813 10.3567 64.8433 10.1427 64.1916 10.1427H63.4933V9.4293H64.1794C64.736 9.4293 65.0193 9.21588 65.0193 8.82687C65.0193 8.48528 64.7451 8.22444 64.1794 8.22444C63.6643 8.22444 63.2879 8.44241 63.2282 8.80973H62.3407C62.4071 8.38765 62.6369 8.0084 62.9807 7.75355C63.3246 7.49869 63.755 7.38859 64.1794 7.44692C65.2885 7.44692 65.923 7.94694 65.923 8.73303C65.9282 8.95194 65.8579 9.16598 65.7238 9.33938C65.5897 9.51277 65.3999 9.63501 65.1863 9.68564V9.7583C65.4407 9.79101 65.6741 9.91569 65.8424 10.1087C66.0106 10.3017 66.102 10.5495 66.0991 10.8052C66.0991 11.6898 65.3442 12.275 64.1916 12.275C63.1725 12.275 62.3448 11.8093 62.2598 10.8693Z" fill="white"/>
<path d="M67.4238 12.1892V7.53613H68.3366V10.7366H68.4095L70.5599 7.53614H71.4726V12.1892H70.5599V8.97162H70.491L68.3366 12.1892L67.4238 12.1892Z" fill="white"/>
<path d="M76.4993 8.30907H75.0299V12.1891H74.108V8.30907H72.6387V7.53613H76.4993V8.30907Z" fill="white"/>
<path d="M81.4599 10.9329C81.3345 11.3581 81.0632 11.7259 80.6934 11.9719C80.3237 12.218 79.879 12.3267 79.4371 12.279C79.1297 12.2871 78.8242 12.2284 78.5418 12.1069C78.2594 11.9855 78.0069 11.8042 77.8018 11.5757C77.5967 11.3472 77.444 11.0769 77.3542 10.7837C77.2643 10.4904 77.2396 10.1811 77.2816 9.87732C77.2407 9.57261 77.2659 9.26268 77.3555 8.96852C77.4451 8.67436 77.5971 8.40283 77.8011 8.17232C78.0051 7.94181 78.2564 7.7577 78.5379 7.63246C78.8195 7.50721 79.1247 7.44375 79.433 7.44637C80.7313 7.44637 81.5156 8.3309 81.5156 9.79203V10.1125H78.2207V10.1639C78.2061 10.3347 78.2275 10.5067 78.2835 10.6687C78.3396 10.8308 78.429 10.9793 78.546 11.1049C78.663 11.2304 78.8051 11.3302 78.9631 11.3977C79.1211 11.4652 79.2915 11.499 79.4634 11.4969C79.6835 11.5232 79.9065 11.4836 80.104 11.3831C80.3015 11.2827 80.4645 11.1259 80.5725 10.9328L81.4599 10.9329ZM78.2207 9.43332H80.5765C80.5881 9.27724 80.5669 9.12045 80.5142 8.97303C80.4614 8.82561 80.3784 8.69082 80.2703 8.5773C80.1623 8.46379 80.0316 8.37407 79.8867 8.31391C79.7418 8.25374 79.5859 8.22446 79.429 8.22794C79.2696 8.22578 79.1115 8.25548 78.9639 8.3153C78.8163 8.37512 78.6822 8.46383 78.5696 8.5762C78.4569 8.68857 78.368 8.82232 78.3081 8.96954C78.2482 9.11675 78.2185 9.27446 78.2207 9.43332H78.2207Z" fill="white"/>
<path d="M85.3633 7.53613H87.4671C88.3799 7.53613 88.9152 7.9973 88.9152 8.7193C88.9166 8.9484 88.8391 9.17103 88.6956 9.34995C88.5521 9.52887 88.3514 9.65321 88.1269 9.70217V9.77483C88.3994 9.792 88.6549 9.91288 88.8406 10.1125C89.0263 10.3121 89.128 10.5753 89.1247 10.8475C89.1247 11.6593 88.5125 12.1891 87.4884 12.1891H85.3633V7.53613ZM86.2761 8.241V9.44587H87.1888C87.7454 9.44587 88.0116 9.23244 88.0116 8.83889C88.0116 8.47611 87.7798 8.24099 87.2911 8.24099L86.2761 8.241ZM86.2761 10.121V11.4843H87.368C87.9124 11.4843 88.2039 11.2446 88.2039 10.8047C88.2039 10.339 87.874 10.121 87.2526 10.121L86.2761 10.121Z" fill="white"/>
</g>
<defs>
<clipPath id="clip0_2212_7501">
<rect width="124" height="36" fill="white"/>
</clipPath>
</defs>
</svg>
