<svg width="39" height="39" viewBox="0 0 39 39" fill="none" xmlns="http://www.w3.org/2000/svg">
<path d="M35.7497 17.8754H7.1724L15.7735 9.27431C15.9287 9.12441 16.0525 8.9451 16.1377 8.74684C16.2229 8.54859 16.2677 8.33536 16.2696 8.11959C16.2714 7.90382 16.2303 7.68984 16.1486 7.49014C16.0669 7.29043 15.9462 7.109 15.7937 6.95642C15.6411 6.80384 15.4597 6.68318 15.26 6.60148C15.0602 6.51977 14.8463 6.47866 14.6305 6.48053C14.4147 6.48241 14.2015 6.52723 14.0032 6.6124C13.805 6.69756 13.6257 6.82136 13.4758 6.97656L2.10078 18.3516C1.79614 18.6563 1.625 19.0695 1.625 19.5004C1.625 19.9313 1.79614 20.3446 2.10078 20.6493L13.4758 32.0243C13.7823 32.3203 14.1927 32.4841 14.6188 32.4804C15.0449 32.4767 15.4524 32.3058 15.7537 32.0045C16.055 31.7032 16.2259 31.2957 16.2296 30.8696C16.2333 30.4435 16.0695 30.033 15.7735 29.7266L7.1724 21.1254H35.7497C36.1806 21.1254 36.594 20.9542 36.8987 20.6495C37.2034 20.3447 37.3747 19.9314 37.3747 19.5004C37.3747 19.0695 37.2034 18.6561 36.8987 18.3514C36.594 18.0466 36.1806 17.8754 35.7497 17.8754Z" fill="#E056BA"/>
</svg>
