<svg width="1316" height="420" viewBox="0 0 1316 420" fill="none" xmlns="http://www.w3.org/2000/svg">
<g clip-path="url(#clip0_2235_7727)">
<path fill-rule="evenodd" clip-rule="evenodd" d="M412.955 429.89L413.341 430.77C398.511 433.961 385.968 431.331 379.785 417.394C373.478 403.285 380.052 392.134 392.496 383.221L392.882 384.102C392.531 384.356 392.184 384.611 391.843 384.868C386.095 389.191 381.844 393.973 379.752 399.271C377.673 404.534 377.689 410.4 380.644 417.01L380.645 417.013C383.738 423.984 388.43 427.968 394.186 429.801C399.564 431.515 405.951 431.375 412.955 429.89Z" fill="white"/>
<path d="M638.103 330.201L638.434 332.039C655.952 331.077 674.262 331.253 687.957 335.276C694.798 337.285 700.401 340.23 704.19 344.392C707.953 348.527 709.992 353.936 709.59 361.039C709.183 368.202 706.513 373.384 702.261 377.095C697.981 380.83 692.025 383.137 684.956 384.368C670.803 386.834 652.541 384.935 635.403 382.036L634.8 383.793C650.304 392.135 665.962 402.03 675.595 412.79C680.407 418.165 683.655 423.69 684.682 429.283C685.703 434.838 684.551 440.557 680.376 446.405L680.373 446.41C675.985 452.647 670.611 455.628 664.611 456.29C658.565 456.958 651.786 455.28 644.633 451.985C630.319 445.394 614.866 432.504 601.457 420.098L600.019 421.286C609.703 436.86 619.356 454.402 623.049 469.632C624.895 477.243 625.228 484.181 623.413 489.974C621.613 495.722 617.67 500.434 610.75 503.592C603.467 506.887 597.056 506.587 591.33 503.797C585.554 500.984 580.392 495.595 575.769 488.56C566.52 474.488 559.657 454.189 554.359 436.114L552.515 436.419C553.336 455.404 553.634 477.616 549.546 494.65C547.502 503.167 544.386 510.28 539.786 515.052C535.228 519.782 529.151 522.278 520.973 521.476C513.145 520.708 507.805 517.325 504.26 512.166C500.686 506.964 498.885 499.878 498.35 491.647C497.278 475.181 501.29 454.554 505.626 436.449L503.881 435.786C495.221 452.001 484.859 469.265 473.503 480.186C467.828 485.643 461.976 489.446 456.035 490.795C450.14 492.133 444.063 491.078 437.83 486.631C431.656 482.189 428.704 476.801 428.055 470.813C427.4 464.778 429.075 458.037 432.364 450.93C438.946 436.708 451.823 421.375 464.349 407.979L463.165 406.537C447.593 416.22 429.93 425.861 414.613 429.516C414.057 429.648 413.504 429.773 412.955 429.89L413.341 430.77C428.185 427.575 445.32 418.547 460.663 409.184C461.67 408.569 462.67 407.953 463.662 407.336C462.864 408.189 462.065 409.05 461.266 409.919C445.792 426.732 430.299 446.328 427.441 462.934C425.809 472.423 428.302 480.936 437.281 487.396C462.186 505.167 485.795 471.029 502.99 439.423C503.571 438.355 504.145 437.29 504.711 436.23C504.432 437.396 504.153 438.574 503.878 439.761C495.597 475.407 489.567 519.341 520.881 522.413C553.561 525.618 555.032 477.692 553.612 440.214C553.563 438.922 553.51 437.643 553.455 436.378C553.812 437.595 554.176 438.823 554.547 440.058C565.209 475.524 582.05 517.615 611.141 504.448C638.831 491.813 621.367 454.388 602.635 423.736C602.03 422.746 601.424 421.763 600.818 420.789C601.66 421.568 602.51 422.349 603.368 423.131C629.843 447.255 663.581 471.913 681.142 446.952C697.915 423.455 667.981 400.915 637.771 384.336C636.929 383.874 636.087 383.417 635.246 382.964C636.188 383.123 637.133 383.28 638.081 383.432C671.67 388.846 708.894 389.859 710.53 361.093C712.13 332.788 676.11 329.389 642.092 330.914C640.852 330.97 639.615 331.032 638.383 331.099C639.56 330.733 640.741 330.36 641.924 329.979C674.868 319.388 709.34 303.259 697.357 276.666C684.985 248.78 647.149 266.16 616.479 284.876C615.471 285.491 614.471 286.108 613.48 286.724C614.277 285.871 615.076 285.01 615.876 284.142C640.192 257.721 664.554 224.429 639.86 206.665C614.974 188.907 591.381 222.98 574.19 254.566C573.596 255.658 573.009 256.747 572.43 257.831C572.724 256.64 573.015 255.438 573.304 254.226C581.777 218.628 587.536 174.959 556.478 171.913C523.798 168.708 522.327 216.633 523.748 254.112C523.797 255.403 523.849 256.683 523.904 257.947C523.547 256.73 523.183 255.503 522.812 254.267C512.15 218.802 495.309 176.711 466.218 189.878C438.528 202.513 455.993 239.938 474.724 270.59C475.329 271.579 475.935 272.562 476.541 273.537C475.699 272.758 474.849 271.977 473.991 271.195C447.516 247.07 413.778 222.412 396.217 247.374C379.313 271.107 409.914 293.605 440.141 310.39C441.259 311.01 442.376 311.623 443.491 312.228C442.263 311.904 441.03 311.585 439.792 311.272C406.99 302.993 371.081 299.373 367.156 327.414C365.589 338.639 370.319 346.415 378.718 351.792C391.679 360.09 413.376 362.68 434.149 363.428C435.1 363.462 436.05 363.493 436.997 363.52C436.092 363.8 435.186 364.085 434.279 364.374C418.991 369.248 403.464 375.366 392.496 383.221L392.882 384.102C404.371 375.82 421.06 369.448 437.276 364.419L437.024 362.579C419.528 362.081 401.184 360.39 387.75 355.218C381.04 352.635 375.638 349.214 372.162 344.718C368.709 340.252 367.096 334.649 368.088 327.544C369.074 320.498 372.125 315.589 376.616 312.268C381.137 308.924 387.197 307.131 394.28 306.502C408.461 305.244 426.39 308.683 443.25 313.138L443.94 311.401C428.321 302.923 412.244 292.925 402.256 282.033C397.266 276.593 393.86 270.997 392.737 265.322C391.622 259.688 392.739 253.879 396.983 247.92L396.986 247.915C401.374 241.679 406.749 238.698 412.748 238.036C418.794 237.368 425.573 239.046 432.726 242.34C447.04 248.932 462.493 261.822 475.902 274.228L477.34 273.04C467.656 257.465 458.003 239.923 454.31 224.693C452.464 217.083 452.131 210.144 453.946 204.352C455.746 198.604 459.689 193.891 466.608 190.734C473.892 187.438 480.303 187.739 486.029 190.528C491.805 193.342 496.967 198.731 501.59 205.765C510.839 219.837 517.702 240.136 523 258.212L524.844 257.907C524.023 238.922 523.725 216.709 527.813 199.675C529.857 191.159 532.973 184.046 537.573 179.273C542.131 174.544 548.208 172.048 556.386 172.85C564.153 173.611 569.465 176.976 572.997 182.112C576.558 187.29 578.362 194.346 578.9 202.546C579.978 218.95 575.972 239.517 571.517 257.606L573.261 258.274C581.92 242.059 592.282 224.795 603.638 213.875C609.313 208.417 615.165 204.615 621.107 203.266C627.002 201.928 633.08 202.983 639.313 207.431C645.486 211.872 648.437 217.26 649.087 223.248C649.741 229.282 648.066 236.024 644.777 243.131C638.195 257.353 625.318 272.685 612.792 286.081L613.977 287.523C629.549 277.84 647.211 268.199 662.528 264.545C670.183 262.718 677.156 262.411 682.956 264.259C688.711 266.093 693.404 270.077 696.496 277.048L696.499 277.053C699.504 283.723 699.471 289.638 697.283 294.948C695.079 300.297 690.65 305.124 684.699 309.492C672.785 318.235 655.072 324.919 638.103 330.201Z" fill="white"/>
<path fill-rule="evenodd" clip-rule="evenodd" d="M-76.9915 63.3205L-76.7651 63.8369C-85.4683 65.71 -92.8292 64.1662 -96.4576 55.9875C-100.159 47.7074 -96.301 41.1635 -88.9979 35.9327L-88.7712 36.4499C-88.9775 36.5986 -89.1809 36.7484 -89.3814 36.8992C-92.7543 39.4365 -95.2493 42.2426 -96.477 45.3517C-97.6967 48.4406 -97.6875 51.8829 -95.9534 55.7621L-95.9528 55.7635C-94.1378 59.8545 -91.384 62.1925 -88.0064 63.2686C-84.85 64.2743 -81.1017 64.1924 -76.9915 63.3205Z" fill="white"/>
<path d="M55.1379 4.81757L55.3323 5.89643C65.6124 5.33168 76.3579 5.43498 84.3952 7.79576C88.4095 8.97488 91.698 10.7032 93.9212 13.146C96.1298 15.5726 97.3262 18.7465 97.0906 22.9152C96.8516 27.1185 95.2844 30.1601 92.7893 32.3376C90.2778 34.5296 86.7822 35.8833 82.6337 36.6061C74.3281 38.0533 63.611 36.9388 53.5534 35.2374L53.1996 36.2683C62.2982 41.1638 71.4869 46.9708 77.1402 53.2854C79.964 56.4397 81.8704 59.6821 82.4733 62.9643C83.0722 66.2246 82.3961 69.5807 79.9463 73.0126L79.9441 73.0157C77.3692 76.6756 74.2151 78.425 70.6945 78.8137C67.146 79.2055 63.168 78.2207 58.9701 76.2875C50.5699 72.4191 41.501 64.8547 33.6321 57.5742L32.788 58.2712C38.4715 67.4113 44.136 77.7059 46.3034 86.6437C47.3865 91.11 47.5819 95.1817 46.5172 98.5811C45.4606 101.955 43.1466 104.72 39.0859 106.573C34.8116 108.507 31.049 108.331 27.6887 106.694C24.2994 105.042 21.2698 101.88 18.5567 97.7518C13.1292 89.4935 9.10134 77.5809 5.99202 66.9731L4.9102 67.1523C5.39209 78.2936 5.56687 91.3291 3.16776 101.326C1.96832 106.323 0.139501 110.498 -2.55985 113.299C-5.23503 116.074 -8.80125 117.539 -13.6004 117.068C-18.1945 116.618 -21.3284 114.632 -23.4084 111.605C-25.5059 108.552 -26.5627 104.393 -26.8771 99.5633C-27.5059 89.9 -25.1514 77.7948 -22.6069 67.1698L-23.6312 66.7809C-28.7133 76.2968 -34.794 86.4283 -41.4584 92.8371C-44.7887 96.0397 -48.2232 98.2714 -51.7099 99.0629C-55.1694 99.8482 -58.7358 99.229 -62.3936 96.6194C-66.0166 94.0129 -67.7491 90.8508 -68.1301 87.3363C-68.5141 83.7949 -67.5312 79.8387 -65.601 75.668C-61.7383 67.3217 -54.1816 58.3238 -46.8306 50.4622L-47.5256 49.6159C-56.6642 55.2985 -67.0297 60.9563 -76.0184 63.101C-76.3449 63.1789 -76.6693 63.2521 -76.9915 63.3205L-76.7651 63.8369C-68.0538 61.962 -57.9978 56.6639 -48.9939 51.1693C-48.4025 50.8084 -47.8156 50.4467 -47.234 50.085C-47.702 50.5854 -48.171 51.0907 -48.6401 51.6004C-57.7212 61.4675 -66.8132 72.9675 -68.4901 82.713C-69.4482 88.2816 -67.9852 93.2773 -62.7157 97.0681C-48.0999 107.497 -34.2446 87.4633 -24.154 68.9153C-23.813 68.2885 -23.4763 67.6633 -23.144 67.0411C-23.3079 67.7258 -23.4712 68.4169 -23.633 69.1134C-28.4925 90.0325 -32.0315 115.816 -13.6543 117.618C5.52401 119.499 6.38749 91.3737 5.5536 69.3794C5.52485 68.6213 5.4941 67.8705 5.462 67.1285C5.67132 67.8426 5.88488 68.563 6.10286 69.288C12.3596 90.1012 22.2431 114.802 39.3152 107.075C55.5653 99.6605 45.316 77.6972 34.3235 59.7093C33.9685 59.1284 33.6127 58.5516 33.257 57.9796C33.7511 58.4367 34.2501 58.8952 34.7537 59.3541C50.2906 73.5116 70.0898 87.9824 80.3958 73.3335C90.2391 59.5443 72.6721 46.3167 54.9429 36.5869C54.449 36.3159 53.9549 36.0475 53.4613 35.782C54.0138 35.8754 54.5685 35.9672 55.1249 36.0569C74.8367 39.2341 96.682 39.8281 97.6421 22.9465C98.581 6.33558 77.4424 4.34087 57.479 5.23611C56.7514 5.26873 56.0254 5.30521 55.302 5.34494C55.9928 5.12995 56.686 4.9109 57.3803 4.68766C76.7134 -1.52812 96.9435 -10.9936 89.9112 -26.5995C82.6509 -42.9645 60.4467 -32.7653 42.4475 -21.7813C41.8561 -21.4204 41.2692 -21.0587 40.6875 -20.697C41.1555 -21.1975 41.6245 -21.7028 42.0936 -22.2124C56.3637 -37.7176 70.6609 -57.255 56.1692 -67.6802C41.5644 -78.1016 27.719 -58.1053 17.6303 -39.5691C17.2815 -38.9283 16.9372 -38.2892 16.5975 -37.6532C16.7697 -38.3521 16.9408 -39.0576 17.11 -39.7686C22.0829 -60.6593 25.4627 -86.2868 7.23563 -88.0745C-11.9427 -89.9556 -12.8061 -61.8301 -11.9722 -39.8358C-11.9435 -39.0777 -11.9127 -38.3269 -11.8806 -37.5849C-12.09 -38.299 -12.3035 -39.0194 -12.5215 -39.7444C-18.7783 -60.5576 -28.6617 -85.2588 -45.7338 -77.5318C-61.9839 -70.1169 -51.7347 -48.1536 -40.7421 -30.1657C-40.3871 -29.5848 -40.0313 -29.008 -39.6756 -28.436C-40.1697 -28.8932 -40.6688 -29.3516 -41.1723 -29.8105C-56.7093 -43.968 -76.5084 -58.4388 -86.8144 -43.7899C-96.7347 -29.862 -78.7762 -16.6591 -61.0369 -6.80869C-60.381 -6.44445 -59.7253 -6.0848 -59.0714 -5.72985C-59.7916 -5.92017 -60.5155 -6.10744 -61.242 -6.29082C-80.4919 -11.1497 -101.565 -13.2741 -103.869 3.18213C-104.789 9.76982 -102.013 14.3327 -97.0836 17.4885C-89.4776 22.3585 -76.7447 23.8779 -64.5538 24.3171C-63.9953 24.3372 -63.4379 24.3551 -62.8822 24.3709C-63.4131 24.5356 -63.9451 24.7027 -64.4776 24.8725C-73.4493 27.7326 -82.5616 31.3227 -88.9979 35.9327L-88.7712 36.4499C-82.0289 31.5897 -72.2347 27.85 -62.7185 24.8984L-62.8665 23.8188C-73.1341 23.5267 -83.899 22.5343 -91.7831 19.4991C-95.721 17.9831 -98.8912 15.9755 -100.931 13.3371C-102.958 10.7163 -103.904 7.42811 -103.322 3.25851C-102.743 -0.876539 -100.953 -3.75745 -98.3172 -5.7067C-95.6643 -7.66883 -92.1078 -8.72131 -87.9511 -9.09007C-79.6288 -9.82839 -69.1073 -7.81058 -59.2125 -5.19586L-58.8079 -6.21528C-67.9741 -11.1905 -77.4088 -17.0581 -83.2705 -23.4498C-86.1987 -26.6428 -88.1977 -29.9268 -88.8565 -33.2568C-89.5107 -36.5634 -88.8554 -39.9724 -86.3646 -43.4694L-86.3627 -43.4721C-83.7878 -47.132 -80.6338 -48.8814 -77.1131 -49.2701C-73.5647 -49.6619 -69.5866 -48.6771 -65.3887 -46.7439C-56.9886 -42.8755 -47.9196 -35.3111 -40.0507 -28.0306L-39.2066 -28.7277C-44.8901 -37.8677 -50.5546 -48.1624 -52.7221 -57.1001C-53.8052 -61.5664 -54.0006 -65.6382 -52.9359 -69.0375C-51.8792 -72.411 -49.5654 -75.1763 -45.5048 -77.0292C-41.2304 -78.9635 -37.4677 -78.7871 -34.1073 -77.15C-30.718 -75.4987 -27.6884 -72.3363 -24.9754 -68.2082C-19.5478 -59.9499 -15.52 -48.0373 -12.4107 -37.4295L-11.3288 -37.6087C-11.8107 -48.75 -11.9855 -61.7855 -9.58641 -71.782C-8.38696 -76.7799 -6.55815 -80.9544 -3.85879 -83.755C-1.18361 -86.5305 2.38261 -87.9956 7.18172 -87.5249C11.7401 -87.0778 14.8574 -85.103 16.9301 -82.0894C19.0201 -79.0505 20.0785 -74.9093 20.3946 -70.0972C21.0268 -60.4703 18.6759 -48.4006 16.0612 -37.7853L17.0847 -37.393C22.1668 -46.9088 28.2476 -57.0404 34.9119 -63.4491C38.2422 -66.6517 41.6768 -68.8834 45.1634 -69.6749C48.6232 -70.4603 52.1899 -69.841 55.848 -67.2309C59.4704 -64.6245 61.2027 -61.4626 61.5836 -57.9484C61.9676 -54.407 60.9848 -50.4507 59.0546 -46.28C55.1919 -37.9337 47.6352 -28.9358 40.2841 -21.0742L40.9792 -20.2279C50.1178 -25.9106 60.4832 -31.5683 69.4719 -33.713C73.9639 -34.7849 78.0561 -34.9651 81.4599 -33.8806C84.8375 -32.8045 87.5913 -30.4665 89.4063 -26.3755L89.4076 -26.3726C91.1715 -22.4582 91.152 -18.9869 89.8678 -15.8705C88.5746 -12.7319 85.9756 -9.89881 82.4828 -7.33559C75.491 -2.20461 65.0961 1.71809 55.1379 4.81757Z" fill="white"/>
</g>
<defs>
<clipPath id="clip0_2235_7727">
<rect width="1316" height="420" fill="white"/>
</clipPath>
</defs>
</svg>
