<svg width="655" height="260" viewBox="0 0 655 260" fill="none" xmlns="http://www.w3.org/2000/svg">
<path d="M327.5 260C370.826 260 408.917 235.691 430.515 199.144C451.981 235.691 490.072 260 533.529 260C600.548 260 655 201.814 655 130C655 58.1857 600.548 -2.31096e-06 533.398 -5.16077e-06C490.072 -6.99954e-06 451.981 24.3089 430.384 60.8558C408.917 24.3089 370.826 -1.20603e-05 327.5 -1.38991e-05C284.174 -1.57378e-05 246.083 24.3089 224.485 60.8558C203.019 24.3089 164.928 -2.07986e-05 121.602 -2.26374e-05C54.4524 -2.54872e-05 -1.50173e-05 58.1857 -1.82505e-05 130C-2.14836e-05 201.814 54.4524 260 121.602 260C164.928 260 203.019 235.691 224.616 199.144C246.083 235.747 284.174 260 327.5 260Z" fill="#C4FF63"/>
</svg>
