<svg width="388" height="539" viewBox="0 0 388 539" fill="none" xmlns="http://www.w3.org/2000/svg">
<g clip-path="url(#clip0_2235_7740)">
<path fill-rule="evenodd" clip-rule="evenodd" d="M-59.045 411.89L-58.6593 412.77C-73.4894 415.961 -86.0325 413.331 -92.2153 399.394C-98.5224 385.285 -91.9484 374.134 -79.504 365.221L-79.1176 366.102C-79.4692 366.356 -79.8158 366.611 -80.1574 366.868C-85.9048 371.191 -90.1563 375.973 -92.2483 381.271C-94.3266 386.534 -94.3109 392.4 -91.3561 399.01L-91.355 399.013C-88.2623 405.984 -83.5698 409.968 -77.8144 411.801C-72.4359 413.515 -66.0488 413.375 -59.045 411.89Z" fill="white"/>
<path d="M166.103 312.201L166.434 314.039C183.952 313.077 202.262 313.253 215.957 317.276C222.798 319.285 228.401 322.23 232.19 326.392C235.953 330.527 237.992 335.936 237.59 343.039C237.183 350.202 234.513 355.384 230.261 359.095C225.981 362.83 220.025 365.137 212.956 366.368C198.803 368.834 180.541 366.935 163.403 364.036L162.8 365.793C178.304 374.135 193.962 384.03 203.595 394.79C208.407 400.165 211.655 405.69 212.682 411.283C213.703 416.838 212.551 422.557 208.376 428.405L208.373 428.41C203.985 434.647 198.611 437.628 192.611 438.29C186.565 438.958 179.786 437.28 172.633 433.985C158.319 427.394 142.866 414.504 129.457 402.098L128.019 403.286C137.703 418.86 147.356 436.402 151.049 451.632C152.895 459.243 153.228 466.181 151.413 471.974C149.613 477.722 145.67 482.434 138.75 485.592C131.467 488.887 125.056 488.587 119.33 485.797C113.554 482.984 108.392 477.595 103.769 470.56C94.5203 456.488 87.6569 436.189 82.3586 418.114L80.5152 418.419C81.3363 437.404 81.6341 459.616 77.5461 476.65C75.5022 485.167 72.3859 492.28 67.7862 497.052C63.2277 501.782 57.1509 504.278 48.9732 503.476C41.1448 502.708 35.8047 499.325 32.2604 494.166C28.6862 488.964 26.8854 481.878 26.3497 473.647C25.2782 457.181 29.2904 436.554 33.6262 418.449L31.8808 417.786C23.2209 434.001 12.8593 451.265 1.50324 462.186C-4.17153 467.643 -10.024 471.446 -15.9653 472.795C-21.8602 474.133 -27.9375 473.078 -34.1703 468.631C-40.3439 464.189 -43.296 458.801 -43.9453 452.813C-44.5995 446.778 -42.9248 440.037 -39.6357 432.93C-33.0537 418.708 -20.1771 403.375 -7.65092 389.979L-8.83534 388.537C-24.4075 398.22 -42.0702 407.861 -57.3869 411.516C-57.9433 411.648 -58.496 411.773 -59.045 411.89L-58.6593 412.77C-43.8152 409.575 -26.6798 400.547 -11.3373 391.184C-10.3296 390.569 -9.32951 389.953 -8.33836 389.336C-9.1358 390.189 -9.93503 391.05 -10.7343 391.919C-26.2085 408.732 -41.7013 428.328 -44.5586 444.934C-46.1913 454.423 -43.6984 462.936 -34.7191 469.396C-9.81384 487.167 13.7955 453.029 30.9898 421.423C31.5709 420.355 32.1447 419.29 32.7109 418.23C32.4316 419.396 32.1534 420.574 31.8777 421.761C23.5971 457.407 17.5666 501.341 48.8814 504.413C81.5611 507.618 83.0325 459.692 81.6115 422.214C81.5625 420.922 81.5101 419.643 81.4554 418.378C81.8121 419.595 82.176 420.823 82.5475 422.058C93.2089 457.524 110.05 499.615 139.141 486.448C166.831 473.813 149.367 436.388 130.635 405.736C130.03 404.746 129.424 403.763 128.818 402.789C129.66 403.568 130.51 404.349 131.368 405.131C157.843 429.255 191.581 453.913 209.142 428.952C225.915 405.455 195.981 382.915 165.771 366.336C164.929 365.874 164.087 365.417 163.246 364.964C164.188 365.123 165.133 365.28 166.081 365.432C199.67 370.846 236.894 371.859 238.53 343.093C240.13 314.788 204.11 311.389 170.092 312.914C168.852 312.97 167.615 313.032 166.383 313.099C167.56 312.733 168.741 312.36 169.924 311.979C202.868 301.388 237.34 285.259 225.357 258.666C212.985 230.78 175.149 248.16 144.479 266.876C143.471 267.491 142.471 268.108 141.48 268.724C142.277 267.871 143.076 267.01 143.876 266.142C168.192 239.721 192.554 206.429 167.86 188.665C142.974 170.907 119.381 204.98 102.19 236.566C101.596 237.658 101.009 238.747 100.43 239.831C100.724 238.64 101.015 237.438 101.304 236.226C109.777 200.628 115.536 156.959 84.4777 153.913C51.798 150.708 50.3266 198.633 51.7476 236.112C51.7965 237.403 51.8489 238.683 51.9036 239.947C51.5469 238.73 51.183 237.503 50.8116 236.267C40.1501 200.802 23.3087 158.711 -5.78205 171.878C-33.4722 184.513 -16.0075 221.938 2.7238 252.59C3.32872 253.579 3.93495 254.562 4.54104 255.537C3.69909 254.758 2.84871 253.977 1.9907 253.195C-24.4842 229.07 -58.222 204.412 -75.7833 229.374C-92.6874 253.107 -62.0862 275.605 -31.8586 292.39C-30.7408 293.01 -29.6236 293.623 -28.5093 294.228C-29.7365 293.904 -30.9701 293.585 -32.208 293.272C-65.0097 284.993 -100.919 281.373 -104.844 309.414C-106.411 320.639 -101.681 328.415 -93.282 333.792C-80.3213 342.09 -58.6245 344.68 -37.8513 345.428C-36.8995 345.462 -35.9497 345.493 -35.0028 345.52C-35.9075 345.8 -36.8141 346.085 -37.7215 346.374C-53.0092 351.248 -68.5365 357.366 -79.504 365.221L-79.1176 366.102C-67.6287 357.82 -50.9395 351.448 -34.724 346.419L-34.976 344.579C-52.472 344.081 -70.8155 342.39 -84.2499 337.218C-90.9601 334.635 -96.3621 331.214 -99.8382 326.718C-103.291 322.252 -104.904 316.649 -103.912 309.544C-102.926 302.498 -99.8748 297.589 -95.384 294.268C-90.8635 290.924 -84.8032 289.131 -77.7202 288.502C-63.5391 287.244 -45.6105 290.683 -28.7497 295.138L-28.0603 293.401C-43.6795 284.923 -59.7561 274.925 -69.7444 264.033C-74.7342 258.593 -78.1404 252.997 -79.263 247.322C-80.3777 241.688 -79.2611 235.879 -75.0167 229.92L-75.0136 229.915C-70.626 223.679 -65.2515 220.698 -59.2523 220.036C-53.2058 219.368 -46.4271 221.046 -39.2739 224.34C-24.9601 230.932 -9.50672 243.822 3.90187 256.228L5.34027 255.04C-4.34443 239.465 -13.9967 221.923 -17.69 206.693C-19.5356 199.083 -19.8686 192.144 -18.0544 186.352C-16.2539 180.604 -12.311 175.891 -5.39176 172.734C1.89175 169.438 8.30341 169.739 14.0295 172.528C19.8048 175.342 24.9672 180.731 29.5903 187.765C38.8387 201.837 45.7022 222.136 51.0005 240.212L52.8439 239.907C52.0228 220.922 51.7249 198.709 55.813 181.675C57.8569 173.159 60.9732 166.046 65.5728 161.273C70.1313 156.544 76.2082 154.048 84.3858 154.85C92.1533 155.611 97.4652 158.976 100.997 164.112C104.558 169.29 106.362 176.346 106.9 184.546C107.978 200.95 103.972 221.517 99.5165 239.606L101.261 240.274C109.92 224.059 120.282 206.795 131.638 195.875C137.313 190.417 143.165 186.615 149.107 185.266C155.002 183.928 161.08 184.983 167.313 189.431C173.486 193.872 176.437 199.26 177.087 205.248C177.741 211.282 176.066 218.024 172.777 225.131C166.195 239.353 153.318 254.685 140.792 268.081L141.977 269.523C157.549 259.84 175.211 250.199 190.528 246.545C198.183 244.718 205.156 244.411 210.956 246.259C216.711 248.093 221.404 252.077 224.496 259.048L224.499 259.053C227.504 265.723 227.471 271.638 225.283 276.948C223.079 282.297 218.65 287.124 212.699 291.492C200.785 300.235 183.072 306.919 166.103 312.201Z" fill="white"/>
</g>
<defs>
<clipPath id="clip0_2235_7740">
<rect width="388" height="539" fill="white"/>
</clipPath>
</defs>
</svg>
