<svg width="1440" height="2554" viewBox="0 0 1440 2554" fill="none" xmlns="http://www.w3.org/2000/svg">
<path d="M280.905 2250.67C283.978 2195.56 212.158 2190.71 147.199 2194.32C210.114 2174.47 279.496 2143.82 256.491 2092.07C232.811 2037.96 158.786 2074.57 101.048 2110.96C147.485 2060.62 197.205 1995.04 149.937 1960.57C102.222 1926.06 57.0737 1995.76 24.9736 2056.69C41.4902 1988.72 54.9278 1901.2 -4.59042 1895.29C-67.2412 1889.06 -67.9998 1985.62 -64.9579 2056.91C-84.5927 1989 -116.073 1903.44 -171.863 1929.03C-224.837 1953.54 -188.635 2027.66 -152.732 2086.19C-202.438 2039.57 -267.992 1988.63 -301.592 2037.04C-334.078 2083.27 -271.893 2127.01 -213.982 2158.87C-276.518 2142.12 -347.9 2132.74 -355.448 2187.4C-363.04 2242.52 -290.896 2253.36 -226.016 2255.23C-287.992 2274.71 -354.646 2305.18 -332.044 2356.43C-308.364 2410.54 -234.339 2373.93 -176.6 2337.54C-223.038 2387.88 -272.758 2453.46 -225.49 2487.93C-177.775 2522.44 -132.627 2452.74 -100.526 2391.82C-116.596 2459.83 -130.525 2547.75 -70.5588 2553.71C-7.90805 2559.94 -7.14948 2463.38 -10.1914 2392.09C9.44351 2460 40.9235 2545.56 96.7137 2519.97C149.687 2495.46 113.486 2421.34 77.5827 2362.81C127.289 2409.43 192.843 2460.37 226.443 2411.96C258.393 2366.59 198.894 2323.12 141.386 2291.75C204.94 2302.65 277.787 2306.23 280.905 2250.67Z" fill="#C4FF63"/>
<path d="M916.952 938.564C918.491 911.051 882.525 908.629 849.994 910.435C881.501 900.525 916.247 885.22 904.726 859.385C892.868 832.373 855.797 850.649 826.883 868.818C850.138 843.686 875.037 810.943 851.366 793.735C827.471 776.505 804.861 811.304 788.786 841.721C797.057 807.787 803.786 764.097 773.981 761.143C742.606 758.034 742.226 806.239 743.75 841.83C733.917 807.931 718.152 765.213 690.213 777.991C663.685 790.224 681.814 827.231 699.794 856.45C674.901 833.177 642.073 807.745 625.247 831.914C608.978 854.995 640.119 876.83 669.121 892.737C637.803 884.374 602.057 879.688 598.276 906.979C594.474 934.496 630.603 939.906 663.094 940.84C632.057 950.568 598.678 965.78 609.997 991.366C621.856 1018.38 658.926 1000.1 687.841 981.933C664.585 1007.07 639.686 1039.81 663.357 1057.02C687.252 1074.25 709.862 1039.45 725.937 1009.03C717.89 1042.99 710.915 1086.88 740.945 1089.86C772.319 1092.97 772.699 1044.76 771.176 1009.17C781.009 1043.07 796.773 1085.79 824.712 1073.01C851.241 1060.78 833.112 1023.77 815.132 994.55C840.024 1017.82 872.852 1043.26 889.678 1019.09C905.679 996.436 875.882 974.734 847.083 959.076C878.91 964.517 915.391 966.303 916.952 938.564Z" fill="#FF92E0"/>
<path fill-rule="evenodd" clip-rule="evenodd" d="M116.006 122.341C194.996 122.341 259.012 67.5811 259.012 0.0117188H-27C-27 67.5811 37.0154 122.341 116.006 122.341ZM-27 122.341C-27 189.911 37.0154 244.67 116.006 244.67C194.996 244.67 259.012 189.911 259.012 122.341H-27Z" fill="#FF92E0"/>
<rect x="24.5" y="426.5" width="446" height="751" rx="30.5" fill="#FCFF79" stroke="white" stroke-width="3"/>
<path d="M1611 1573.71C1423.2 1573.71 1271 1446.57 1271 1289.68C1271 1132.79 1423.2 1005.64 1611 1005.64L1611 1573.71Z" fill="#C4FF63"/>
<path d="M931 1289.68C931 1132.79 1083.2 1005.64 1271 1005.64L1271 1573.71C1083.2 1573.71 931 1446.57 931 1289.68Z" fill="#C4FF63"/>
</svg>
