<svg width="16" height="16" viewBox="0 0 16 16" fill="none" xmlns="http://www.w3.org/2000/svg">
<path fill-rule="evenodd" clip-rule="evenodd" d="M15.3007 1.70711C15.6913 1.31658 15.6913 0.683417 15.3007 0.292893C14.9102 -0.0976311 14.2771 -0.0976311 13.8865 0.292893L7.79676 6.38266L1.70711 0.293005C1.31658 -0.0975189 0.683417 -0.0975189 0.292893 0.293005C-0.0976311 0.683529 -0.0976311 1.31669 0.292893 1.70722L6.38255 7.79688L0.292894 13.8865C-0.0976299 14.2771 -0.0976299 14.9102 0.292894 15.3007C0.683419 15.6913 1.31658 15.6913 1.70711 15.3007L7.79676 9.21109L13.8865 15.3009C14.2771 15.6914 14.9102 15.6914 15.3007 15.3009C15.6913 14.9103 15.6913 14.2772 15.3007 13.8866L9.21098 7.79688L15.3007 1.70711Z" fill="#242424"/>
</svg>
