<svg width="1561" height="1227" viewBox="0 0 1561 1227" fill="none" xmlns="http://www.w3.org/2000/svg">
<path d="M1221 0C1033.2 0 881 127.146 881 284.037C881 440.928 1033.2 568.074 1221 568.074V284.037C1221 440.928 1373.2 568.074 1561 568.074V0C1373.2 0 1221 127.146 1221 284.037V0Z" fill="#C4FF63"/>
<path d="M636.905 944.597C639.978 893.372 568.158 888.863 503.199 892.225C566.114 873.775 635.496 845.279 612.491 797.178C588.811 746.886 514.786 780.912 457.048 814.741C503.485 767.948 553.205 706.986 505.937 674.948C458.222 642.868 413.074 707.658 380.974 764.289C397.49 701.11 410.928 619.767 351.41 614.267C288.759 608.477 288 698.229 291.042 764.493C271.407 701.378 239.927 621.843 184.137 645.635C131.163 668.41 167.365 737.313 203.268 791.714C153.562 748.382 88.0083 701.032 54.4081 746.03C21.9225 789.004 84.1067 829.657 142.018 859.274C79.4818 843.703 8.1004 834.978 0.551963 885.79C-7.04036 937.023 65.1044 947.096 129.984 948.835C68.0079 966.946 1.35442 995.268 23.9558 1042.91C47.6364 1093.2 121.661 1059.17 179.4 1025.34C132.962 1072.14 83.2422 1133.1 130.51 1165.14C178.225 1197.22 223.373 1132.43 255.474 1075.8C239.404 1139.02 225.475 1220.74 285.441 1226.28C348.092 1232.07 348.851 1142.32 345.809 1076.05C365.444 1139.17 396.923 1218.7 452.714 1194.91C505.687 1172.14 469.486 1103.24 433.583 1048.83C483.289 1092.17 548.843 1139.52 582.443 1094.52C614.393 1052.35 554.894 1011.94 497.386 982.787C560.94 992.917 633.787 996.244 636.905 944.597Z" fill="#FF92E0"/>
</svg>
