<svg width="284" height="260" viewBox="0 0 284 260" fill="none" xmlns="http://www.w3.org/2000/svg">
<path d="M142 260C160.786 260 177.301 235.691 186.666 199.144C195.974 235.691 212.489 260 231.332 260C260.39 260 284 201.814 284 130C284 58.1857 260.39 -1.002e-06 231.275 -2.23765e-06C212.489 -3.03491e-06 195.974 24.3089 186.609 60.8558C177.301 24.3089 160.786 -5.2292e-06 142 -6.02647e-06C123.214 -6.82374e-06 106.699 24.3089 97.3341 60.8558C88.0264 24.3089 71.5108 -9.01803e-06 52.725 -9.8153e-06C23.6099 -1.10509e-05 -2.61957e-06 58.1857 -5.85272e-06 130C-9.08587e-06 201.814 23.6099 260 52.725 260C71.5108 260 88.0264 235.691 97.3909 199.144C106.699 235.747 123.214 260 142 260Z" fill="#C4FF63"/>
</svg>
