<svg width="434" height="434" viewBox="0 0 434 434" fill="none" xmlns="http://www.w3.org/2000/svg">
<path d="M333.233 161.622L333.673 162.511C354.774 155.062 377.337 148.649 395.634 148.522C404.78 148.459 412.811 149.967 419.054 153.657C425.278 157.338 429.769 163.213 431.804 171.988C433.854 180.836 432.383 188.165 428.373 194.287C424.351 200.427 417.749 205.393 409.467 209.436C392.899 217.524 369.784 221.836 347.793 224.541L347.756 225.527C369.66 229.905 392.388 236.097 408.056 245.535C415.887 250.252 421.911 255.755 425.205 262.206C428.489 268.637 429.085 276.06 425.971 284.695L425.97 284.698C422.728 293.886 417.062 299.534 409.754 302.565C402.422 305.606 393.395 306.03 383.425 304.664C363.481 301.931 339.968 292.066 319.212 282.088L318.667 282.916C335.979 298.014 354.012 315.53 363.929 332.469C368.887 340.937 371.788 349.215 371.595 356.945C371.403 364.65 368.135 371.867 360.634 378.243C352.726 384.923 344.565 386.939 336.362 385.636C328.134 384.328 319.815 379.671 311.65 372.906C295.315 359.374 279.754 337.549 266.935 317.894L266.043 318.329C273.702 340.674 281.886 367.146 282.862 389.041C283.35 399.987 282.032 409.731 277.995 417.231C273.973 424.705 267.226 429.997 256.734 432.02C246.692 433.957 238.76 431.798 232.451 426.788C226.12 421.762 221.378 413.83 217.818 404.151C210.695 384.791 208.371 358.651 207.328 335.495L206.34 335.411C201.43 357.869 194.789 382.284 184.664 399.497C179.603 408.101 173.697 414.862 166.742 418.695C159.808 422.516 151.79 423.45 142.429 420.327C133.145 417.19 127.492 411.695 124.521 404.602C121.54 397.484 121.239 388.705 122.781 378.983C125.865 359.535 136.29 336.53 146.92 316.042L146.107 315.475C130.447 332.629 112.153 350.557 94.5867 360.486C85.8054 365.449 77.2499 368.388 69.3253 368.266C61.4253 368.145 54.106 364.983 47.7622 357.645L47.7612 357.644C41.7217 350.698 39.5782 343.535 40.2945 336.316C41.013 329.076 44.6143 321.725 50.1731 314.445C61.295 299.878 80.1295 285.746 98.7644 273.55L98.363 272.648C76.7768 278.347 53.6394 282.956 35.2598 281.608C26.0733 280.934 18.124 278.775 12.1552 274.563C6.20409 270.364 2.18007 264.096 0.879446 255.104C-0.407374 246.184 1.6394 239.046 6.0926 233.31C10.5584 227.558 17.475 223.176 25.9882 219.853C43.0211 213.204 66.2689 210.858 88.468 210.11L88.5509 209.12C66.4645 204.623 43.1888 198.459 27.0427 188.996C18.9723 184.265 12.7287 178.736 9.28734 172.223C5.85696 165.73 5.18437 158.209 8.34543 149.414L8.34641 149.411C11.5879 140.223 17.2538 134.575 24.5626 131.544C31.8938 128.503 40.9214 128.079 50.8912 129.445C70.835 132.178 94.3478 142.043 115.104 152.021L115.649 151.194C98.3373 136.095 80.3037 118.579 70.3867 101.64C65.4295 93.1721 62.5282 84.8942 62.721 77.1644C62.9133 69.4591 66.1811 62.2415 73.6819 55.8659C81.5898 49.1857 89.7515 47.1698 97.9537 48.4733C106.183 49.781 114.501 54.4381 122.667 61.203C139.001 74.7351 154.562 96.5598 167.381 116.215L168.273 115.78C160.614 93.4349 152.43 66.9628 151.454 45.0681C150.966 34.1218 152.284 24.3779 156.321 16.8777C160.343 9.40391 167.09 4.1121 177.582 2.08859C187.548 0.166413 195.438 2.31393 201.724 7.30011C208.031 12.3029 212.765 20.1977 216.319 29.8388C223.427 49.1243 225.738 75.1901 226.629 98.3724L227.617 98.46C232.527 76.0024 239.168 51.5873 249.293 34.3741C254.353 25.77 260.26 19.009 267.214 15.1765C274.148 11.3551 282.166 10.4208 291.527 13.5437C300.812 16.681 306.465 22.1759 309.436 29.2693C312.416 36.3866 312.718 45.166 311.176 54.8878C308.092 74.336 297.666 97.3412 287.037 117.829L287.85 118.396C303.51 101.242 321.804 83.314 339.37 73.3853C348.151 68.4218 356.707 65.4831 364.631 65.6047C372.531 65.7258 379.851 68.8882 386.195 76.2261L386.196 76.2283C392.323 83.2306 394.424 90.4755 393.586 97.7927C392.746 105.133 388.942 112.601 383.149 120.006C371.561 134.819 352.145 149.217 333.233 161.622Z" stroke="#E056BA"/>
</svg>
