<svg width="1233" height="10198" viewBox="0 0 1233 10198" fill="none" xmlns="http://www.w3.org/2000/svg">
<path d="M555.107 8016.45L555.644 8017.3C584.141 8004.63 614.853 7993.15 640.467 7990.59C653.272 7989.32 664.753 7990.28 674.033 7994.4C683.292 7998.51 690.404 8005.79 694.464 8017.24C698.552 8028.79 697.497 8038.79 692.699 8047.5C687.89 8056.24 679.299 8063.74 668.25 8070.21C646.147 8083.15 614.374 8091.9 583.983 8098.37L584.066 8099.34C615.304 8102.32 647.971 8107.61 671.208 8118.15C682.824 8123.42 692.033 8129.98 697.545 8138.17C703.043 8146.35 704.897 8156.2 701.71 8168.14L701.709 8168.14C698.419 8180.84 691.233 8189.15 681.366 8194.16C671.48 8199.19 658.867 8200.93 644.717 8200.41C616.413 8199.36 582.151 8189.28 551.755 8178.69L551.314 8179.56C577.592 8197.41 605.231 8218.4 621.435 8239.68C629.535 8250.32 634.743 8260.99 635.532 8271.35C636.32 8281.68 632.716 8291.77 623.058 8301.27C612.869 8311.23 601.667 8315 589.951 8314.33C578.211 8313.65 565.906 8308.52 553.547 8300.56C528.826 8284.66 504.063 8257.61 483.448 8233.11L482.603 8233.62C496.368 8262.37 511.444 8296.56 515.804 8325.61C517.984 8340.13 517.477 8353.31 512.837 8363.86C508.208 8374.39 499.445 8382.36 484.986 8386.43C471.146 8390.33 459.695 8388.48 450.137 8382.6C440.556 8376.71 432.824 8366.74 426.515 8354.3C413.895 8329.43 407.068 8294.91 402.445 8264.22L401.442 8264.21C397.644 8294.75 391.689 8328.14 379.866 8352.4C373.956 8364.53 366.599 8374.33 357.352 8380.37C348.122 8386.39 336.973 8388.69 323.402 8385.74C309.934 8382.76 301.232 8376.15 296.083 8367.05C290.921 8357.92 289.299 8346.24 290.128 8333.08C291.787 8306.76 303.235 8274.75 315.304 8246.09L314.431 8245.59C294.871 8270.46 271.716 8296.73 248.472 8312.26C236.852 8320.02 225.25 8325.07 214.096 8325.94C202.966 8326.81 192.243 8323.53 182.333 8314.56L182.332 8314.55C172.905 8306.07 168.906 8296.77 168.922 8287.02C168.937 8277.24 172.987 8266.96 179.779 8256.52C193.364 8235.65 217.802 8214.37 242.202 8195.71L241.701 8194.85C212.285 8205.25 180.523 8214.4 154.592 8215C141.629 8215.3 130.175 8213.46 121.21 8208.6C112.265 8203.76 105.755 8195.9 102.697 8184.06C99.6685 8172.32 101.559 8162.5 107.035 8154.24C112.522 8145.96 121.634 8139.2 133.107 8133.66C156.058 8122.58 188.286 8116.43 219.237 8112.54L219.199 8111.56C187.69 8108.45 154.262 8103.27 130.353 8092.75C118.401 8087.5 108.88 8080.93 103.153 8072.67C97.4404 8064.44 95.4658 8054.47 98.6966 8042.3L98.6973 8042.3C101.987 8029.6 109.174 8021.3 119.04 8016.28C128.927 8011.26 141.539 8009.52 155.689 8010.04C183.994 8011.08 218.256 8021.17 248.652 8031.75L249.093 8030.88C222.814 8013.03 195.176 7992.05 178.972 7970.76C170.872 7960.12 165.664 7949.45 164.874 7939.09C164.086 7928.76 167.691 7918.68 177.35 7909.18C187.539 7899.21 198.74 7895.44 210.455 7896.12C222.196 7896.79 234.501 7901.93 246.859 7909.88C271.581 7925.79 296.344 7952.84 316.959 7977.34L317.804 7976.83C304.038 7948.08 288.963 7913.88 284.603 7884.83C282.423 7870.31 282.93 7857.13 287.57 7846.58C292.198 7836.05 300.962 7828.09 315.421 7824.01C329.156 7820.14 340.547 7821.98 350.069 7827.83C359.613 7833.7 367.331 7843.62 373.624 7856C386.215 7880.78 393.012 7915.2 397.426 7945.95L398.43 7945.97C402.228 7915.43 408.182 7882.04 420.005 7857.77C425.916 7845.65 433.273 7835.84 442.52 7829.81C451.75 7823.78 462.899 7821.49 476.471 7824.44C489.938 7827.42 498.64 7834.03 503.788 7843.13C508.95 7852.25 510.572 7863.93 509.743 7877.09C508.085 7903.42 496.636 7935.42 484.568 7964.08L485.44 7964.59C505 7939.71 528.156 7913.44 551.399 7897.92C563.019 7890.16 574.621 7885.11 585.776 7884.24C596.906 7883.36 607.629 7886.64 617.538 7895.62L617.541 7895.62C627.098 7904.17 631.048 7913.59 630.876 7923.49C630.703 7933.41 626.385 7943.88 619.284 7954.51C605.08 7975.77 579.866 7997.48 555.107 8016.45Z" fill="#C4FF63" stroke="#C4FF63"/>
<path d="M987.107 9728.45L987.644 9729.3C1016.14 9716.63 1046.85 9705.15 1072.47 9702.59C1085.27 9701.32 1096.75 9702.28 1106.03 9706.4C1115.29 9710.51 1122.4 9717.79 1126.46 9729.24C1130.55 9740.79 1129.5 9750.79 1124.7 9759.5C1119.89 9768.24 1111.3 9775.74 1100.25 9782.21C1078.15 9795.15 1046.37 9803.9 1015.98 9810.37L1016.07 9811.34C1047.3 9814.32 1079.97 9819.61 1103.21 9830.15C1114.82 9835.42 1124.03 9841.98 1129.54 9850.17C1135.04 9858.35 1136.9 9868.2 1133.71 9880.14L1133.71 9880.14C1130.42 9892.84 1123.23 9901.15 1113.37 9906.16C1103.48 9911.19 1090.87 9912.93 1076.72 9912.41C1048.41 9911.36 1014.15 9901.28 983.755 9890.69L983.314 9891.56C1009.59 9909.41 1037.23 9930.4 1053.43 9951.68C1061.53 9962.32 1066.74 9972.99 1067.53 9983.35C1068.32 9993.68 1064.72 10003.8 1055.06 10013.3C1044.87 10023.2 1033.67 10027 1021.95 10026.3C1010.21 10025.7 997.906 10020.5 985.547 10012.6C960.826 9996.66 936.063 9969.61 915.448 9945.11L914.603 9945.62C928.368 9974.37 943.444 10008.6 947.804 10037.6C949.984 10052.1 949.477 10065.3 944.837 10075.9C940.208 10086.4 931.445 10094.4 916.986 10098.4C903.146 10102.3 891.695 10100.5 882.137 10094.6C872.556 10088.7 864.824 10078.7 858.515 10066.3C845.895 10041.4 839.068 10006.9 834.445 9976.22L833.442 9976.21C829.644 10006.7 823.689 10040.1 811.866 10064.4C805.956 10076.5 798.599 10086.3 789.352 10092.4C780.122 10098.4 768.973 10100.7 755.402 10097.7C741.934 10094.8 733.232 10088.1 728.083 10079C722.921 10069.9 721.299 10058.2 722.128 10045.1C723.787 10018.8 735.235 9986.75 747.304 9958.09L746.431 9957.59C726.871 9982.46 703.716 10008.7 680.472 10024.3C668.852 10032 657.25 10037.1 646.096 10037.9C634.966 10038.8 624.243 10035.5 614.333 10026.6L614.332 10026.6C604.905 10018.1 600.906 10008.8 600.922 9999.02C600.937 9989.24 604.987 9978.96 611.779 9968.52C625.364 9947.65 649.802 9926.37 674.202 9907.71L673.701 9906.85C644.285 9917.25 612.523 9926.4 586.592 9927C573.629 9927.3 562.175 9925.46 553.21 9920.6C544.265 9915.76 537.755 9907.9 534.697 9896.06C531.669 9884.32 533.559 9874.5 539.035 9866.24C544.522 9857.96 553.634 9851.2 565.107 9845.66C588.058 9834.58 620.286 9828.43 651.237 9824.54L651.199 9823.56C619.69 9820.45 586.262 9815.27 562.353 9804.75C550.401 9799.5 540.88 9792.93 535.153 9784.67C529.44 9776.44 527.466 9766.47 530.697 9754.3L530.697 9754.3C533.987 9741.6 541.174 9733.3 551.04 9728.28C560.927 9723.26 573.539 9721.52 587.689 9722.04C615.994 9723.08 650.256 9733.17 680.652 9743.75L681.093 9742.88C654.814 9725.03 627.176 9704.05 610.972 9682.76C602.872 9672.12 597.664 9661.45 596.874 9651.09C596.086 9640.76 599.691 9630.68 609.35 9621.18C619.539 9611.21 630.74 9607.44 642.455 9608.12C654.196 9608.79 666.501 9613.93 678.859 9621.88C703.581 9637.79 728.344 9664.84 748.959 9689.34L749.804 9688.83C736.038 9660.08 720.963 9625.88 716.603 9596.83C714.423 9582.31 714.93 9569.13 719.57 9558.58C724.198 9548.05 732.962 9540.09 747.421 9536.01C761.156 9532.14 772.547 9533.98 782.069 9539.83C791.613 9545.7 799.331 9555.62 805.624 9568C818.215 9592.78 825.012 9627.2 829.426 9657.95L830.43 9657.97C834.228 9627.43 840.182 9594.04 852.005 9569.77C857.916 9557.65 865.273 9547.84 874.52 9541.81C883.75 9535.78 894.899 9533.49 908.471 9536.44C921.938 9539.42 930.64 9546.03 935.788 9555.13C940.95 9564.25 942.572 9575.93 941.743 9589.09C940.085 9615.42 928.636 9647.42 916.568 9676.08L917.44 9676.59C937 9651.71 960.156 9625.44 983.399 9609.92C995.019 9602.16 1006.62 9597.11 1017.78 9596.24C1028.91 9595.36 1039.63 9598.64 1049.54 9607.62L1049.54 9607.62C1059.1 9616.17 1063.05 9625.59 1062.88 9635.49C1062.7 9645.41 1058.38 9655.88 1051.28 9666.51C1037.08 9687.77 1011.87 9709.48 987.107 9728.45Z" fill="#C4FF63" stroke="#C4FF63"/>
<path d="M469.508 931.104C421.554 862.649 232.33 700.189 299.271 576.403C407.397 376.462 597.051 826.387 659.866 727.986C722.681 629.585 416.587 436.703 517.781 323.696C618.975 210.689 750.575 581.56 841.214 473.75C912.175 389.348 628.674 192.14 765.876 90.4629" stroke="#C4FF63" stroke-opacity="0.77" stroke-width="75" stroke-linecap="round"/>
<path d="M557 4953.47C557 4862.2 618.791 4788.23 695.037 4788.23C771.283 4788.23 833.074 4862.2 833.074 4953.47L557 4953.47Z" fill="#C4FF63"/>
<path d="M695.037 4623C771.283 4623 833.074 4696.97 833.074 4788.23L557 4788.23C557 4696.97 618.791 4623 695.037 4623Z" fill="#C4FF63"/>
<path d="M553.5 3219C588.359 3219 619.006 3188.05 636.383 3141.53C653.655 3188.05 684.302 3219 719.267 3219C773.189 3219 817 3144.93 817 3053.5C817 2962.07 773.189 2888 719.162 2888C684.302 2888 653.655 2918.95 636.278 2965.47C619.006 2918.95 588.36 2888 553.5 2888C518.64 2888 487.994 2918.95 470.617 2965.47C453.345 2918.95 422.698 2888 387.838 2888C333.811 2888 290 2962.07 290 3053.5C290 3144.93 333.811 3219 387.838 3219C422.698 3219 453.345 3188.05 470.722 3141.53C487.994 3188.12 518.64 3219 553.5 3219Z" fill="#C4FF63"/>
<path d="M643.5 2689C677.169 2689 706.769 2670.11 723.553 2641.72C740.234 2670.11 769.835 2689 803.605 2689C855.685 2689 898 2643.79 898 2588C898 2532.21 855.685 2487 803.503 2487C769.835 2487 740.234 2505.89 723.451 2534.28C706.769 2505.89 677.169 2487 643.5 2487C609.831 2487 580.231 2505.89 563.447 2534.28C546.766 2505.89 517.165 2487 483.497 2487C431.315 2487 389 2532.21 389 2588C389 2643.79 431.315 2689 483.497 2689C517.165 2689 546.766 2670.11 563.549 2641.72C580.231 2670.16 609.831 2689 643.5 2689Z" fill="#C4FF63"/>
</svg>
