<svg width="2530" height="7995" viewBox="0 0 2530 7995" fill="none" xmlns="http://www.w3.org/2000/svg">
<path d="M953.508 931.104C905.554 862.649 716.33 700.189 783.271 576.403C891.397 376.462 1081.05 826.387 1143.87 727.986C1206.68 629.585 900.587 436.703 1001.78 323.696C1102.98 210.689 1234.57 581.56 1325.21 473.75C1396.17 389.348 1112.67 192.14 1249.88 90.4629" stroke="#C4FF63" stroke-opacity="0.77" stroke-width="75" stroke-linecap="round"/>
<path fill-rule="evenodd" clip-rule="evenodd" d="M1345.09 3447.96L1344.04 3446.28C1367.78 3427.16 1391.9 3405.33 1405.48 3383.99C1412.26 3373.32 1416.35 3362.87 1416.51 3352.99C1416.68 3343.17 1412.95 3333.81 1403.88 3325.28L1403.87 3325.27C1394.47 3316.32 1384.32 3313.08 1373.81 3313.94C1363.24 3314.81 1352.21 3319.84 1341.1 3327.63C1318.89 3343.22 1296.72 3369.63 1277.97 3394.69L1276.24 3393.72C1287.81 3364.84 1298.76 3332.66 1300.35 3306.23C1301.14 3293.01 1299.58 3281.35 1294.69 3272.26C1289.82 3263.23 1281.6 3256.65 1268.82 3253.68C1255.94 3250.74 1245.4 3253.03 1236.68 3259.01C1227.92 3265.01 1220.91 3274.8 1215.27 3286.98C1203.96 3311.34 1198.26 3344.92 1194.62 3375.68L1192.63 3375.7C1188.4 3344.72 1181.89 3310.11 1169.85 3285.22C1163.83 3272.78 1156.48 3262.87 1147.44 3257.03C1138.44 3251.22 1127.67 3249.38 1114.64 3253.24C1100.92 3257.31 1092.64 3265.22 1088.26 3275.68C1083.86 3286.19 1083.37 3299.37 1085.45 3313.96C1089.62 3343.15 1104.05 3377.55 1117.25 3406.52L1115.56 3407.56C1095.79 3382.88 1072.09 3355.67 1048.45 3339.69C1036.63 3331.71 1024.92 3326.58 1013.79 3325.91C1002.72 3325.25 992.122 3328.98 982.453 3338.91C973.286 3348.39 969.888 3358.41 970.633 3368.67C971.381 3378.98 976.321 3389.64 984.063 3400.33C999.552 3421.7 1026 3442.81 1051.2 3460.79L1050.27 3462.55C1021.13 3451.88 988.334 3441.75 961.279 3440.7C947.755 3440.17 935.766 3441.92 926.402 3446.93C917.081 3451.9 910.277 3460.15 907.154 3472.81L907.153 3472.82C904.086 3484.95 905.964 3494.85 911.362 3503.03C916.785 3511.24 925.825 3517.81 937.242 3523.08C960.088 3533.64 992.07 3538.85 1022.28 3541.99L1022.31 3543.98C992.636 3547.89 961.806 3554.08 939.883 3565.2C928.927 3570.76 920.28 3577.51 915.086 3585.74C909.915 3593.94 908.115 3603.7 910.99 3615.41C913.894 3627.22 920.061 3635.03 928.511 3639.83C936.998 3644.66 947.878 3646.51 960.258 3646.21C985.031 3645.61 1015.42 3636.41 1043.63 3625.94L1044.6 3627.66C1021.2 3646.46 997.83 3667.85 984.852 3688.8C978.366 3699.27 974.531 3709.54 974.516 3719.26C974.501 3728.94 978.273 3738.19 987.225 3746.66L987.227 3746.66C996.635 3755.61 1006.78 3758.86 1017.29 3757.99C1027.86 3757.12 1038.89 3752.09 1050 3744.3C1072.22 3728.71 1094.38 3702.3 1113.14 3677.24L1114.86 3678.21C1103.29 3707.09 1092.34 3739.27 1090.76 3765.71C1089.96 3778.92 1091.52 3790.59 1096.41 3799.67C1101.28 3808.7 1109.5 3815.28 1122.28 3818.25C1135.16 3821.2 1145.7 3818.91 1154.42 3812.92C1163.18 3806.92 1170.19 3797.13 1175.84 3784.96C1187.14 3760.59 1192.84 3727.02 1196.48 3696.25L1198.47 3696.22C1202.9 3727.15 1209.44 3761.86 1221.51 3786.85C1227.54 3799.34 1234.91 3809.3 1243.99 3815.17C1253.02 3821 1263.84 3822.85 1276.98 3818.96C1290.7 3814.9 1298.97 3806.98 1303.35 3796.52C1307.75 3786.01 1308.25 3772.84 1306.16 3758.24C1301.99 3729.05 1287.56 3694.66 1274.36 3665.68L1276.05 3664.64C1295.82 3689.33 1319.53 3716.53 1343.17 3732.51C1354.99 3740.5 1366.7 3745.62 1377.82 3746.29C1388.9 3746.96 1399.49 3743.22 1409.16 3733.29C1418.33 3723.82 1421.73 3713.8 1420.98 3703.54C1420.23 3693.23 1415.29 3682.56 1407.55 3671.88C1392.06 3650.5 1365.62 3629.39 1340.42 3611.41L1341.34 3609.66C1370.49 3620.32 1403.28 3630.46 1430.34 3631.51C1443.86 3632.03 1455.85 3630.28 1465.21 3625.28C1474.53 3620.3 1481.34 3612.06 1484.46 3599.39L1484.46 3599.39C1487.49 3587.48 1485.72 3577.69 1480.53 3569.58C1475.31 3561.43 1466.57 3554.87 1455.47 3549.58C1433.27 3539 1402.02 3533.68 1372.07 3530.68L1371.95 3528.7C1401.1 3522.19 1431.49 3513.39 1452.61 3500.4C1463.16 3493.91 1471.31 3486.42 1475.86 3477.73C1480.4 3469.07 1481.4 3459.14 1477.52 3447.62C1473.67 3436.2 1466.93 3428.97 1458.19 3424.89C1449.4 3420.8 1438.5 3419.82 1426.27 3421.1C1401.8 3423.67 1372.42 3435.2 1345.09 3447.96ZM1409.88 3733.99C1371.26 3773.66 1317.15 3717.12 1277.79 3668.4C1276.94 3667.35 1276.1 3666.31 1275.27 3665.27C1275.82 3666.48 1276.38 3667.7 1276.93 3668.93C1302.95 3726.52 1332.06 3803.69 1277.26 3819.92C1224.78 3835.46 1207.06 3761.32 1198.03 3700.15C1197.84 3698.88 1197.66 3697.62 1197.48 3696.37C1197.33 3697.63 1197.17 3698.89 1197.02 3700.16C1189.54 3760.87 1173.53 3830.99 1122.06 3819.23C1070.96 3807.35 1089.97 3738.47 1112.53 3681.37C1113 3680.19 1113.47 3679.01 1113.94 3677.84C1113.18 3678.85 1112.42 3679.86 1111.65 3680.88C1074.35 3730.19 1024.18 3783.2 986.538 3747.38C950.633 3713.42 995.56 3666.16 1041.54 3628.84C1042.35 3628.18 1043.16 3627.53 1043.97 3626.88C1043 3627.24 1042.02 3627.6 1041.04 3627.96C985.294 3648.37 921.672 3663.05 910.019 3615.65C898.549 3568.92 959.84 3551.62 1018.03 3543.55C1019.41 3543.35 1020.8 3543.17 1022.18 3542.98C1020.8 3542.84 1019.4 3542.69 1018.01 3542.54C958.661 3536.02 893.951 3520.95 906.183 3472.57C918.682 3421.89 989.432 3439.54 1047.14 3460.34C1048.3 3460.76 1049.46 3461.19 1050.62 3461.61C1049.62 3460.89 1048.62 3460.17 1047.61 3459.45C998.031 3423.7 945.087 3376.09 981.735 3338.22C1020.35 3298.54 1074.47 3355.09 1113.82 3403.8C1114.67 3404.85 1115.51 3405.9 1116.34 3406.94C1115.79 3405.73 1115.24 3404.5 1114.68 3403.27C1088.67 3345.69 1059.56 3268.51 1114.35 3252.28C1166.42 3236.86 1184.41 3310.44 1193.09 3371.69C1193.27 3372.99 1193.45 3374.28 1193.62 3375.57C1193.78 3374.28 1193.93 3372.98 1194.09 3371.68C1201.58 3310.99 1217.59 3240.95 1269.05 3252.7C1320.14 3264.58 1301.13 3333.46 1278.57 3390.56C1278.1 3391.74 1277.63 3392.92 1277.16 3394.09C1277.92 3393.08 1278.68 3392.07 1279.45 3391.05C1316.76 3341.74 1366.92 3288.73 1404.56 3324.55C1440.79 3358.61 1394.33 3406.62 1347.85 3444.48C1346.79 3445.34 1345.73 3446.2 1344.67 3447.05C1345.9 3446.48 1347.14 3445.91 1348.38 3445.34C1402.17 3420.63 1463.08 3401.69 1478.47 3447.3C1494.05 3493.53 1432.68 3515.87 1375.23 3528.99C1374.21 3529.22 1373.19 3529.45 1372.17 3529.68C1373.21 3529.78 1374.25 3529.89 1375.29 3530C1434.35 3536.23 1497.56 3551.86 1485.43 3599.63C1472.93 3650.32 1402.18 3632.67 1344.47 3611.86C1343.31 3611.44 1342.15 3611.02 1341 3610.6C1342 3611.31 1343 3612.03 1344 3612.75C1393.58 3648.5 1446.53 3696.11 1409.88 3733.99Z" fill="#E056BA"/>
<rect x="1.5" y="3296.5" width="460" height="751" rx="30.5" fill="#FCFF79" stroke="white" stroke-width="3"/>
<path d="M1720.11 6721.45L1720.64 6722.3C1749.14 6709.63 1779.85 6698.15 1805.47 6695.59C1818.27 6694.32 1829.75 6695.28 1839.03 6699.4C1848.29 6703.51 1855.4 6710.79 1859.46 6722.24C1863.55 6733.79 1862.5 6743.79 1857.7 6752.5C1852.89 6761.24 1844.3 6768.74 1833.25 6775.21C1811.15 6788.15 1779.37 6796.9 1748.98 6803.37L1749.07 6804.34C1780.3 6807.32 1812.97 6812.61 1836.21 6823.15C1847.82 6828.42 1857.03 6834.98 1862.54 6843.17C1868.04 6851.35 1869.9 6861.2 1866.71 6873.14L1866.71 6873.14C1863.42 6885.84 1856.23 6894.15 1846.37 6899.16C1836.48 6904.19 1823.87 6905.93 1809.72 6905.41C1781.41 6904.36 1747.15 6894.28 1716.75 6883.69L1716.31 6884.56C1742.59 6902.41 1770.23 6923.4 1786.43 6944.68C1794.53 6955.32 1799.74 6965.99 1800.53 6976.35C1801.32 6986.68 1797.72 6996.77 1788.06 7006.27C1777.87 7016.23 1766.67 7020 1754.95 7019.33C1743.21 7018.65 1730.91 7013.52 1718.55 7005.56C1693.83 6989.66 1669.06 6962.61 1648.45 6938.11L1647.6 6938.62C1661.37 6967.37 1676.44 7001.56 1680.8 7030.61C1682.98 7045.13 1682.48 7058.31 1677.84 7068.86C1673.21 7079.39 1664.44 7087.36 1649.99 7091.43C1636.15 7095.33 1624.7 7093.48 1615.14 7087.6C1605.56 7081.71 1597.82 7071.74 1591.51 7059.3C1578.89 7034.43 1572.07 6999.91 1567.44 6969.22L1566.44 6969.21C1562.64 6999.75 1556.69 7033.14 1544.87 7057.4C1538.96 7069.53 1531.6 7079.33 1522.35 7085.37C1513.12 7091.39 1501.97 7093.69 1488.4 7090.74C1474.93 7087.76 1466.23 7081.15 1461.08 7072.05C1455.92 7062.92 1454.3 7051.24 1455.13 7038.08C1456.79 7011.76 1468.24 6979.75 1480.3 6951.09L1479.43 6950.59C1459.87 6975.46 1436.72 7001.73 1413.47 7017.26C1401.85 7025.02 1390.25 7030.07 1379.1 7030.94C1367.97 7031.81 1357.24 7028.53 1347.33 7019.56L1347.33 7019.55C1337.9 7011.07 1333.91 7001.77 1333.92 6992.02C1333.94 6982.24 1337.99 6971.96 1344.78 6961.52C1358.36 6940.65 1382.8 6919.37 1407.2 6900.71L1406.7 6899.85C1377.29 6910.25 1345.52 6919.4 1319.59 6920C1306.63 6920.3 1295.18 6918.46 1286.21 6913.6C1277.27 6908.76 1270.75 6900.9 1267.7 6889.06C1264.67 6877.32 1266.56 6867.5 1272.03 6859.24C1277.52 6850.96 1286.63 6844.2 1298.11 6838.66C1321.06 6827.58 1353.29 6821.43 1384.24 6817.54L1384.2 6816.56C1352.69 6813.45 1319.26 6808.27 1295.35 6797.75C1283.4 6792.5 1273.88 6785.93 1268.15 6777.67C1262.44 6769.44 1260.47 6759.47 1263.7 6747.3L1263.7 6747.3C1266.99 6734.6 1274.17 6726.3 1284.04 6721.28C1293.93 6716.26 1306.54 6714.52 1320.69 6715.04C1348.99 6716.08 1383.26 6726.17 1413.65 6736.75L1414.09 6735.88C1387.81 6718.03 1360.18 6697.05 1343.97 6675.76C1335.87 6665.12 1330.66 6654.45 1329.87 6644.09C1329.09 6633.76 1332.69 6623.68 1342.35 6614.18C1352.54 6604.21 1363.74 6600.44 1375.46 6601.12C1387.2 6601.79 1399.5 6606.93 1411.86 6614.88C1436.58 6630.79 1461.34 6657.84 1481.96 6682.34L1482.8 6681.83C1469.04 6653.08 1453.96 6618.88 1449.6 6589.83C1447.42 6575.31 1447.93 6562.13 1452.57 6551.58C1457.2 6541.05 1465.96 6533.09 1480.42 6529.01C1494.16 6525.14 1505.55 6526.98 1515.07 6532.83C1524.61 6538.7 1532.33 6548.62 1538.62 6561C1551.21 6585.78 1558.01 6620.2 1562.43 6650.95L1563.43 6650.97C1567.23 6620.43 1573.18 6587.04 1585.01 6562.77C1590.92 6550.65 1598.27 6540.84 1607.52 6534.81C1616.75 6528.78 1627.9 6526.49 1641.47 6529.44C1654.94 6532.42 1663.64 6539.03 1668.79 6548.13C1673.95 6557.25 1675.57 6568.93 1674.74 6582.09C1673.08 6608.42 1661.64 6640.42 1649.57 6669.08L1650.44 6669.59C1670 6644.71 1693.16 6618.44 1716.4 6602.92C1728.02 6595.16 1739.62 6590.11 1750.78 6589.24C1761.91 6588.36 1772.63 6591.64 1782.54 6600.62L1782.54 6600.62C1792.1 6609.17 1796.05 6618.59 1795.88 6628.49C1795.7 6638.41 1791.38 6648.88 1784.28 6659.51C1770.08 6680.77 1744.87 6702.48 1720.11 6721.45Z" fill="#C4FF63" stroke="#C4FF63"/>
<path d="M353.709 6582.27L354.246 6583.11C362.608 6579.4 371.577 6576.05 379.033 6575.3C382.759 6574.93 386.057 6575.22 388.699 6576.39C391.32 6577.55 393.34 6579.61 394.5 6582.88C395.669 6586.19 395.363 6589.02 394.004 6591.49C392.633 6593.98 390.169 6596.14 386.954 6598.02C380.519 6601.79 371.242 6604.35 362.325 6606.25L362.408 6607.22C371.573 6608.1 381.107 6609.65 387.867 6612.71C391.245 6614.24 393.879 6616.13 395.445 6618.46C396.996 6620.77 397.531 6623.55 396.618 6626.97L396.618 6626.98C395.676 6630.61 393.629 6632.97 390.822 6634.4C387.995 6635.83 384.362 6636.34 380.241 6636.19C371.993 6635.89 361.982 6632.94 353.063 6629.84L352.621 6630.71C360.334 6635.94 368.401 6642.08 373.117 6648.27C375.474 6651.37 376.959 6654.43 377.184 6657.38C377.406 6660.3 376.394 6663.17 373.623 6665.89C370.698 6668.75 367.506 6669.82 364.173 6669.63C360.816 6669.44 357.267 6667.96 353.668 6665.65C346.463 6661.01 339.226 6653.11 333.174 6645.92L332.329 6646.43C336.372 6654.87 340.773 6664.86 342.044 6673.33C342.679 6677.56 342.523 6681.36 341.198 6684.37C339.883 6687.36 337.397 6689.64 333.245 6690.81C329.271 6691.93 326.017 6691.39 323.308 6689.72C320.577 6688.04 318.346 6685.18 316.509 6681.56C312.833 6674.32 310.835 6664.24 309.478 6655.23L308.475 6655.22C307.361 6664.18 305.618 6673.93 302.174 6681C300.454 6684.53 298.328 6687.35 295.685 6689.07C293.06 6690.78 289.887 6691.44 285.994 6690.6C282.132 6689.74 279.672 6687.86 278.218 6685.29C276.75 6682.69 276.273 6679.34 276.515 6675.51C276.997 6667.85 280.336 6658.5 283.878 6650.09L283.006 6649.58C277.266 6656.88 270.498 6664.56 263.724 6669.08C260.339 6671.34 256.992 6672.79 253.804 6673.04C250.639 6673.29 247.592 6672.36 244.758 6669.79L244.756 6669.79C242.058 6667.36 240.935 6664.72 240.939 6661.97C240.943 6659.19 242.096 6656.24 244.071 6653.2C248.024 6647.13 255.156 6640.91 262.315 6635.44L261.815 6634.58C253.183 6637.63 243.907 6640.3 236.358 6640.47C232.586 6640.56 229.297 6640.02 226.744 6638.64C224.213 6637.27 222.364 6635.05 221.49 6631.66C220.624 6628.31 221.166 6625.52 222.718 6623.18C224.282 6620.82 226.896 6618.87 230.234 6617.26C236.915 6614.04 246.324 6612.24 255.404 6611.1L255.366 6610.11C246.119 6609.2 236.36 6607.68 229.401 6604.62C225.924 6603.1 223.199 6601.2 221.572 6598.86C219.959 6596.53 219.39 6593.71 220.315 6590.23L220.316 6590.23C221.258 6586.59 223.305 6584.23 226.112 6582.81C228.938 6581.37 232.571 6580.86 236.693 6581.01C244.941 6581.32 254.951 6584.26 263.871 6587.37L264.312 6586.5C256.6 6581.26 248.533 6575.13 243.816 6568.93C241.46 6565.84 239.975 6562.77 239.75 6559.82C239.527 6556.9 240.539 6554.04 243.311 6551.31C246.236 6548.45 249.427 6547.38 252.76 6547.57C256.117 6547.77 259.666 6549.24 263.266 6551.55C270.471 6556.19 277.708 6564.09 283.759 6571.28L284.604 6570.77C280.562 6562.33 276.161 6552.34 274.89 6543.87C274.254 6539.64 274.41 6535.84 275.736 6532.83C277.05 6529.84 279.537 6527.57 283.688 6526.4C287.632 6525.29 290.868 6525.82 293.567 6527.48C296.287 6529.15 298.514 6532 300.346 6535.6C304.013 6542.82 306.002 6552.87 307.298 6561.89L308.301 6561.91C309.416 6552.95 311.159 6543.19 314.602 6536.13C316.323 6532.6 318.448 6529.78 321.091 6528.05C323.716 6526.34 326.889 6525.68 330.782 6526.53C334.644 6527.38 337.104 6529.26 338.559 6531.84C340.027 6534.43 340.503 6537.78 340.262 6541.61C339.779 6549.28 336.44 6558.62 332.898 6567.03L333.771 6567.54C339.51 6560.24 346.279 6552.57 353.052 6548.04C356.437 6545.78 359.784 6544.34 362.973 6544.09C366.137 6543.84 369.184 6544.77 372.019 6547.33L372.021 6547.33C374.756 6549.78 375.865 6552.45 375.816 6555.24C375.767 6558.07 374.537 6561.08 372.47 6564.17C368.335 6570.36 360.975 6576.7 353.709 6582.27Z" fill="white" stroke="#FF96E2"/>
<path d="M654.881 7522.51L654.356 7521.67C678.101 7502.55 702.278 7480.67 715.899 7459.26C722.707 7448.55 726.849 7438 727.014 7428C727.18 7418.02 723.389 7408.53 714.221 7399.91L714.219 7399.91C704.713 7390.87 694.432 7387.57 683.767 7388.44C673.078 7389.32 661.957 7394.4 650.815 7402.22C628.529 7417.86 606.324 7444.33 587.565 7469.39L586.701 7468.9C598.274 7440.03 609.254 7407.78 610.845 7381.26C611.64 7368 610.084 7356.22 605.132 7347.03C600.191 7337.85 591.844 7331.19 578.934 7328.19C565.923 7325.22 555.239 7327.53 546.396 7333.59C537.535 7339.67 530.481 7349.55 524.813 7361.77C513.474 7386.21 507.764 7419.86 504.121 7450.63L503.129 7450.63C498.895 7419.65 492.376 7384.97 480.301 7360C474.264 7347.52 466.861 7337.52 457.707 7331.61C448.576 7325.72 437.657 7323.86 424.495 7327.76C410.639 7331.87 402.241 7339.88 397.803 7350.49C393.354 7361.12 392.866 7374.4 394.957 7389.03C399.14 7418.3 413.599 7452.76 426.8 7481.73L425.955 7482.25C406.184 7457.56 382.435 7430.31 358.726 7414.28C346.872 7406.27 335.073 7401.09 323.82 7400.41C312.593 7399.74 301.86 7403.53 292.094 7413.56C282.837 7423.13 279.379 7433.29 280.134 7443.7C280.892 7454.14 285.889 7464.9 293.658 7475.62C309.199 7497.07 335.706 7518.22 360.908 7536.2L360.446 7537.08C331.295 7526.41 298.439 7516.25 271.298 7515.2C257.73 7514.67 245.64 7516.43 236.167 7521.48C226.714 7526.53 219.824 7534.89 216.669 7547.69L216.668 7547.69C213.57 7559.95 215.463 7570 220.944 7578.3C226.439 7586.63 235.571 7593.24 247.032 7598.54C269.96 7609.13 302.016 7614.35 332.233 7617.49L332.247 7618.48C302.565 7622.39 271.661 7628.59 249.656 7639.76C238.657 7645.34 229.923 7652.14 224.663 7660.48C219.415 7668.8 217.599 7678.69 220.505 7690.53M654.881 7522.51L220.505 7690.53M654.881 7522.51C682.21 7509.75 711.66 7498.18 736.219 7495.61C748.495 7494.32 759.501 7495.29 768.399 7499.44C777.277 7503.58 784.101 7510.92 787.996 7522.46C791.919 7534.1 790.905 7544.18 786.305 7552.96C781.695 7561.76 773.46 7569.31 762.867 7575.83C741.675 7588.86 711.209 7597.68 682.063 7604.19L682.122 7605.18C712.08 7608.18 743.406 7613.51 765.689 7624.13C776.828 7629.44 785.661 7636.05 790.949 7644.31C796.226 7652.55 798.003 7662.48 794.947 7674.51L794.946 7674.51C791.791 7687.31 784.9 7695.67 775.448 7700.72C765.974 7705.78 753.885 7707.53 740.317 7707.01C713.176 7705.95 680.32 7695.79 651.169 7685.13L650.707 7686C675.908 7703.99 702.416 7725.13 717.957 7746.58C725.726 7757.31 730.723 7768.06 731.48 7778.5C732.236 7788.91 728.778 7799.07 719.521 7808.64C709.755 7818.67 699.022 7822.47 687.795 7821.79C676.541 7821.11 664.742 7815.94 652.889 7807.92C629.18 7791.9 605.431 7764.64 585.66 7739.95L584.815 7740.47C598.016 7769.44 612.475 7803.9 616.657 7833.17C618.748 7847.81 618.261 7861.09 613.812 7871.72C609.374 7882.32 600.975 7890.34 587.12 7894.44C573.857 7898.37 562.882 7896.51 553.715 7890.59C544.526 7884.65 537.109 7874.6 531.057 7862.07C518.953 7837 512.406 7802.22 507.972 7771.29L506.98 7771.31C503.338 7802.08 497.627 7835.72 486.289 7860.17C480.621 7872.39 473.567 7882.26 464.705 7888.34C455.862 7894.4 445.179 7896.71 432.168 7893.74C419.258 7890.74 410.91 7884.08 405.97 7874.91C401.017 7865.71 399.462 7853.93 400.257 7840.68C401.847 7814.15 412.827 7781.9 424.401 7753.03L423.536 7752.54C404.778 7777.61 382.573 7804.07 360.286 7819.71C349.144 7827.53 338.023 7832.61 327.334 7833.49C316.669 7834.37 306.389 7831.06 296.883 7822.02L296.882 7822.02C287.838 7813.46 284.001 7804.09 284.016 7794.26C284.031 7784.41 287.915 7774.05 294.427 7763.54C307.454 7742.51 330.887 7721.07 354.287 7702.27L353.8 7701.41C325.589 7711.88 295.133 7721.11 270.27 7721.71C257.842 7722.01 246.86 7720.15 238.264 7715.27C229.686 7710.39 223.439 7702.47 220.505 7690.53M654.881 7522.51L220.019 7690.65L220.505 7690.53" stroke="#E056BA"/>
<path d="M994 5440C994 5252.2 1121.15 5100 1278.04 5100C1434.93 5100 1562.07 5252.2 1562.07 5440L994 5440Z" fill="#C4FF63"/>
<path d="M1278.04 4760C1434.93 4760 1562.07 4912.2 1562.07 5100L994 5100C994 4912.2 1121.15 4760 1278.04 4760Z" fill="#C4FF63"/>
<path d="M1979.5 3096C2052.33 3096 2116.35 3031.21 2152.66 2933.8C2188.74 3031.21 2252.77 3096 2325.82 3096C2438.47 3096 2530 2940.91 2530 2749.5C2530 2558.09 2438.47 2403 2325.6 2403C2252.77 2403 2188.74 2467.79 2152.44 2565.2C2116.35 2467.79 2052.33 2403 1979.5 2403C1906.67 2403 1842.65 2467.79 1806.34 2565.2C1770.26 2467.79 1706.23 2403 1633.4 2403C1520.53 2403 1429 2558.09 1429 2749.5C1429 2940.91 1520.53 3096 1633.4 3096C1706.23 3096 1770.26 3031.21 1806.56 2933.8C1842.65 3031.36 1906.67 3096 1979.5 3096Z" fill="#FF92E0"/>
<path d="M1662.9 720.784L1663.42 721.627C1683.7 712.161 1705.53 703.585 1723.73 701.679C1732.83 700.726 1740.97 701.446 1747.54 704.513C1754.09 707.57 1759.13 712.981 1762.01 721.516C1764.91 730.123 1764.16 737.56 1760.76 744.043C1757.36 750.545 1751.27 756.13 1743.42 760.959C1727.72 770.62 1705.13 777.159 1683.51 781.99L1683.57 782.975C1705.79 785.202 1729.02 789.154 1745.53 797.024C1753.78 800.957 1760.31 805.848 1764.22 811.948C1768.11 818.03 1769.42 825.36 1767.16 834.256L1767.16 834.26C1764.83 843.719 1759.74 849.892 1752.76 853.619C1745.76 857.358 1736.82 858.658 1726.76 858.268C1706.65 857.487 1682.29 849.956 1660.66 842.043L1660.2 842.92C1678.89 856.263 1698.55 871.942 1710.06 887.838C1715.82 895.783 1719.51 903.739 1720.07 911.451C1720.63 919.138 1718.08 926.639 1711.24 933.714C1704.01 941.132 1696.09 943.932 1687.8 943.433C1679.48 942.931 1670.75 939.105 1661.96 933.166C1644.39 921.287 1626.78 901.079 1612.11 882.763L1611.27 883.283C1621.06 904.777 1631.78 930.328 1634.88 952.024C1636.43 962.871 1636.07 972.697 1632.78 980.554C1629.5 988.384 1623.3 994.306 1613.06 997.341C1603.25 1000.24 1595.15 998.867 1588.38 994.495C1581.59 990.107 1576.1 982.674 1571.61 973.388C1562.64 954.812 1557.79 929.022 1554.5 906.077L1553.51 906.09C1550.8 928.918 1546.57 953.863 1538.17 971.979C1533.97 981.035 1528.74 988.338 1522.2 992.829C1515.67 997.306 1507.78 999.016 1498.16 996.819C1488.61 994.599 1482.45 989.68 1478.8 982.909C1475.15 976.115 1473.99 967.406 1474.58 957.581C1475.76 937.925 1483.9 914.015 1492.48 892.591L1491.62 892.105C1477.7 910.701 1461.24 930.323 1444.72 941.913C1436.46 947.706 1428.24 951.463 1420.34 952.113C1412.46 952.76 1404.87 950.325 1397.84 943.639L1397.84 943.638C1391.16 937.312 1388.33 930.391 1388.34 923.137C1388.35 915.861 1391.22 908.195 1396.04 900.409C1405.69 884.829 1423.06 868.933 1440.43 854.982L1439.94 854.124C1419.01 861.895 1396.43 868.732 1378.01 869.178C1368.8 869.4 1360.68 868.024 1354.33 864.413C1347.99 860.813 1343.38 854.966 1341.21 846.142C1339.06 837.39 1340.41 830.087 1344.28 823.945C1348.16 817.786 1354.62 812.752 1362.77 808.617C1379.08 800.344 1401.99 795.748 1424.01 792.844L1423.99 791.851C1401.58 789.523 1377.81 785.652 1360.82 777.803C1352.33 773.88 1345.58 768.985 1341.52 762.837C1337.47 756.708 1336.07 749.288 1338.36 740.227L1338.36 740.224C1340.7 730.765 1345.79 724.592 1352.77 720.865C1359.77 717.126 1368.71 715.826 1378.77 716.216C1398.88 716.997 1423.24 724.528 1444.87 732.441L1445.33 731.564C1426.63 718.221 1406.98 702.542 1395.47 686.646C1389.71 678.701 1386.02 670.745 1385.46 663.033C1384.9 655.346 1387.45 647.845 1394.29 640.77C1401.51 633.352 1409.44 630.552 1417.73 631.051C1426.05 631.553 1434.78 635.379 1443.57 641.318C1461.14 653.197 1478.75 673.405 1493.42 691.721L1494.26 691.201C1484.47 669.707 1473.75 644.156 1470.65 622.46C1469.1 611.613 1469.46 601.787 1472.75 593.93C1476.03 586.1 1482.23 580.178 1492.47 577.143C1502.2 574.261 1510.27 575.631 1517.01 579.982C1523.77 584.348 1529.25 591.745 1533.72 600.995C1542.67 619.498 1547.51 645.216 1550.65 668.201L1551.64 668.192C1554.34 645.364 1558.58 620.419 1566.98 602.303C1571.18 593.247 1576.4 585.944 1582.95 581.453C1589.48 576.976 1597.37 575.266 1606.99 577.464C1616.54 579.683 1622.7 584.603 1626.34 591.374C1630 598.167 1631.16 606.876 1630.57 616.701C1629.39 636.357 1621.25 660.267 1612.66 681.691L1613.53 682.177C1627.44 663.581 1643.91 643.959 1660.43 632.369C1668.68 626.576 1676.91 622.819 1684.81 622.169C1692.69 621.522 1700.28 623.957 1707.31 630.644L1707.31 630.646C1714.09 637.019 1716.88 644.025 1716.76 651.389C1716.64 658.777 1713.58 666.579 1708.53 674.512C1698.44 690.382 1680.51 706.599 1662.9 720.784Z" stroke="#E056BA"/>
<rect x="255.5" y="705.5" width="593" height="751" rx="30.5" fill="#FCFF79" stroke="white" stroke-width="3"/>
<path d="M1915 1948.07C1727.2 1948.07 1575 1820.93 1575 1664.04C1575 1507.15 1727.2 1380 1915 1380L1915 1948.07Z" fill="#C4FF63"/>
<path d="M1235 1664.04C1235 1507.15 1387.2 1380 1575 1380L1575 1948.07C1387.2 1948.07 1235 1820.93 1235 1664.04Z" fill="#C4FF63"/>
<path d="M293.279 696.192L293.28 695.224C268.647 688.869 248.173 680.096 233.869 669.751C219.556 659.399 211.5 647.535 211.5 635C211.5 622.465 219.538 610.601 233.841 600.259C248.135 589.924 268.609 581.17 293.279 574.854L293.28 573.885C268.647 567.531 248.173 558.757 233.869 548.412C219.556 538.06 211.5 526.196 211.5 513.661C211.5 503.946 216.319 494.643 225.136 486.13C233.954 477.615 246.74 469.924 262.583 463.454C294.266 450.515 338.074 442.5 386.5 442.5C434.926 442.5 478.734 450.515 510.417 463.454C526.26 469.924 539.046 477.615 547.864 486.13C556.681 494.643 561.5 503.946 561.5 513.661C561.5 526.196 553.444 538.06 539.131 548.402C524.828 558.738 504.354 567.492 479.721 573.808L479.72 574.776C504.353 581.131 524.827 589.904 539.131 600.249C553.444 610.601 561.5 622.465 561.5 635C561.5 647.535 553.444 659.399 539.131 669.741C524.828 680.077 504.354 688.83 479.72 695.146L479.72 696.115C504.353 702.469 524.827 711.243 539.131 721.588C553.444 731.94 561.5 743.804 561.5 756.339C561.5 766.054 556.681 775.357 547.864 783.87C539.046 792.385 526.26 800.076 510.417 806.546C478.734 819.485 434.926 827.5 386.5 827.5C338.074 827.5 294.266 819.485 262.583 806.555C246.74 800.09 233.954 792.406 225.135 783.903C216.319 775.4 211.5 766.111 211.5 756.416C211.5 743.842 219.557 731.958 233.869 721.607C248.172 711.262 268.646 702.508 293.279 696.192Z" stroke="#E056BA"/>
<path d="M1571.28 4541.19L1571.28 4540.22C1546.65 4533.87 1526.17 4525.1 1511.87 4514.75C1497.56 4504.4 1489.5 4492.53 1489.5 4480C1489.5 4467.46 1497.54 4455.6 1511.84 4445.26C1526.13 4434.92 1546.61 4426.17 1571.28 4419.85L1571.28 4418.89C1546.65 4412.53 1526.17 4403.76 1511.87 4393.41C1497.56 4383.06 1489.5 4371.2 1489.5 4358.66C1489.5 4348.95 1494.32 4339.64 1503.14 4331.13C1511.95 4322.62 1524.74 4314.92 1540.58 4308.45C1572.27 4295.52 1616.07 4287.5 1664.5 4287.5C1712.93 4287.5 1756.73 4295.52 1788.42 4308.45C1804.26 4314.92 1817.05 4322.62 1825.86 4331.13C1834.68 4339.64 1839.5 4348.95 1839.5 4358.66C1839.5 4371.2 1831.44 4383.06 1817.13 4393.4C1802.83 4403.74 1782.35 4412.49 1757.72 4418.81L1757.72 4419.78C1782.35 4426.13 1802.83 4434.9 1817.13 4445.25C1831.44 4455.6 1839.5 4467.47 1839.5 4480C1839.5 4492.53 1831.44 4504.4 1817.13 4514.74C1802.83 4525.08 1782.35 4533.83 1757.72 4540.15L1757.72 4541.11C1782.35 4547.47 1802.83 4556.24 1817.13 4566.59C1831.44 4576.94 1839.5 4588.8 1839.5 4601.34C1839.5 4611.05 1834.68 4620.36 1825.86 4628.87C1817.05 4637.38 1804.26 4645.08 1788.42 4651.55C1756.73 4664.48 1712.93 4672.5 1664.5 4672.5C1616.07 4672.5 1572.27 4664.48 1540.58 4651.56C1524.74 4645.09 1511.95 4637.41 1503.14 4628.9C1494.32 4620.4 1489.5 4611.11 1489.5 4601.42C1489.5 4588.84 1497.56 4576.96 1511.87 4566.61C1526.17 4556.26 1546.65 4547.51 1571.28 4541.19Z" stroke="#E056BA"/>
<path d="M1469.36 445.128C1465.2 433.375 1448.42 438.638 1433.96 445.066C1446.52 435.433 1459.61 422.984 1449.8 414.21C1439.64 405.003 1426.02 419.098 1416.09 431.726C1422.22 417.179 1427.75 399.168 1413.94 396.114C1400.04 393.09 1395.91 411.56 1393.99 427.06C1391.75 411.453 1387.08 392.042 1373.01 396.008C1358.2 400.183 1366.55 420.371 1373.54 434.961C1363.07 422.526 1348.35 407.445 1337.92 417.652C1328.02 427.386 1342.8 439.671 1356.14 448.731C1340.71 443.358 1321.3 438.469 1317.92 451.492C1314.61 463.964 1332.62 467.646 1348.62 469.228C1332.91 471.2 1315.83 475.479 1318.94 487.53C1322.08 499.679 1339.45 495.635 1354.39 490.358C1342 499.832 1329.52 512.004 1339.19 520.71C1349.35 529.916 1362.97 515.822 1372.9 503.194C1366.77 517.741 1361.25 535.751 1375.05 538.805C1388.95 541.829 1393.08 523.36 1395.01 507.86C1397.35 523.437 1401.94 542.976 1416.12 538.98C1430.93 534.805 1422.58 514.617 1415.59 500.027C1426.05 512.462 1440.77 527.543 1451.21 517.336C1461.11 507.603 1446.32 495.317 1432.98 486.257C1448.41 491.63 1467.83 496.519 1471.2 483.496C1474.47 471.251 1457.09 467.389 1441.23 465.877C1456.66 462.596 1473.56 456.979 1469.36 445.128Z" fill="#FF92E0"/>
</svg>
