<svg width="124" height="36" viewBox="0 0 124 36" fill="none" xmlns="http://www.w3.org/2000/svg">
<g clip-path="url(#clip0_2212_7480)">
<path d="M119.407 0H4.59259C2.05617 0 0 2.01472 0 4.5V31.5C0 33.9853 2.05617 36 4.59259 36H119.407C121.944 36 124 33.9853 124 31.5V4.5C124 2.01472 121.944 0 119.407 0Z" fill="black"/>
<path d="M119.407 0.72C120.431 0.72 121.412 1.11825 122.135 1.82714C122.859 2.53602 123.265 3.49748 123.265 4.5V31.5C123.265 32.5025 122.859 33.464 122.135 34.1729C121.412 34.8818 120.431 35.28 119.407 35.28H4.59259C3.56945 35.28 2.58821 34.8818 1.86473 34.1729C1.14126 33.464 0.734815 32.5025 0.734815 31.5V4.5C0.734815 3.49748 1.14126 2.53602 1.86473 1.82714C2.58821 1.11825 3.56945 0.72 4.59259 0.72H119.407ZM119.407 0H4.59259C3.37456 0 2.20642 0.474106 1.34514 1.31802C0.483861 2.16193 0 3.30653 0 4.5V31.5C0 32.6935 0.483861 33.8381 1.34514 34.682C2.20642 35.5259 3.37456 36 4.59259 36H119.407C120.625 36 121.794 35.5259 122.655 34.682C123.516 33.8381 124 32.6935 124 31.5V4.5C124 3.30653 123.516 2.16193 122.655 1.31802C121.794 0.474106 120.625 0 119.407 0Z" fill="#A6A6A6"/>
<path d="M62.5883 19.5743C61.8144 19.5761 61.0584 19.8027 60.4159 20.2255C59.7735 20.6483 59.2734 21.2482 58.9789 21.9494C58.6844 22.6507 58.6088 23.4218 58.7616 24.1651C58.9143 24.9085 59.2886 25.5908 59.8371 26.1257C60.3856 26.6607 61.0837 27.0242 61.8431 27.1704C62.6025 27.3166 63.389 27.2389 64.1033 26.947C64.8176 26.6552 65.4276 26.1624 65.856 25.5309C66.2844 24.8994 66.5122 24.1576 66.5103 23.3993C66.5178 22.8935 66.4214 22.3913 66.2267 21.9228C66.032 21.4542 65.7431 21.0288 65.3771 20.6719C65.0112 20.315 64.5757 20.0339 64.0966 19.8454C63.6174 19.6568 63.1045 19.5646 62.5883 19.5743V19.5743ZM62.5883 25.7213C62.1139 25.7539 61.6406 25.6458 61.2297 25.4112C60.8189 25.1766 60.4896 24.8263 60.2846 24.4059C60.0797 23.9855 60.0085 23.5144 60.0804 23.0539C60.1523 22.5933 60.364 22.1646 60.6878 21.8235C61.0117 21.4823 61.4328 21.2446 61.8964 21.141C62.36 21.0375 62.8447 21.0731 63.2874 21.243C63.7302 21.413 64.1105 21.7095 64.3789 22.0941C64.6474 22.4786 64.7915 22.9334 64.7927 23.3993C64.8075 23.6946 64.7618 23.9897 64.6584 24.2673C64.5549 24.545 64.3957 24.7995 64.1903 25.0159C63.9848 25.2323 63.7372 25.4062 63.4621 25.5274C63.1869 25.6485 62.8898 25.7145 62.5883 25.7213ZM54.0277 19.5743C53.2538 19.5761 52.4978 19.8027 51.8553 20.2255C51.2129 20.6483 50.7128 21.2482 50.4183 21.9494C50.1238 22.6507 50.0482 23.4218 50.201 24.1651C50.3537 24.9085 50.728 25.5908 51.2765 26.1257C51.825 26.6607 52.5231 27.0242 53.2825 27.1704C54.0419 27.3166 54.8285 27.2389 55.5427 26.947C56.257 26.6552 56.867 26.1624 57.2954 25.5309C57.7238 24.8994 57.9516 24.1576 57.9497 23.3993C57.9572 22.8935 57.8608 22.3913 57.6661 21.9228C57.4714 21.4542 57.1825 21.0288 56.8165 20.6719C56.4506 20.315 56.0151 20.0339 55.536 19.8454C55.0568 19.6568 54.5439 19.5646 54.0277 19.5743V19.5743ZM54.0277 25.7213C53.5533 25.7539 53.08 25.6458 52.6691 25.4112C52.2583 25.1766 51.929 24.8263 51.724 24.4059C51.5191 23.9855 51.4479 23.5144 51.5198 23.0539C51.5917 22.5933 51.8034 22.1646 52.1272 21.8235C52.4511 21.4823 52.8722 21.2446 53.3358 21.141C53.7994 21.0375 54.2841 21.0731 54.7268 21.243C55.1696 21.413 55.5499 21.7095 55.8183 22.0941C56.0868 22.4786 56.231 22.9334 56.2321 23.3993C56.2469 23.6946 56.2012 23.9897 56.0978 24.2673C55.9943 24.545 55.8351 24.7995 55.6297 25.0159C55.4242 25.2323 55.1766 25.4062 54.9015 25.5274C54.6264 25.6485 54.3292 25.7145 54.0277 25.7213ZM43.8505 20.7533V22.3733H47.8185C47.7563 23.1364 47.4326 23.8564 46.9 24.4163C46.5019 24.8137 46.0232 25.1248 45.4947 25.3294C44.9663 25.5341 44.3998 25.6277 43.8321 25.6043C42.6628 25.6043 41.5414 25.1492 40.7146 24.339C39.8877 23.5289 39.4232 22.4301 39.4232 21.2843C39.4232 20.1386 39.8877 19.0398 40.7146 18.2296C41.5414 17.4195 42.6628 16.9643 43.8321 16.9643C44.9531 16.948 46.0355 17.3651 46.8449 18.1253L48.0114 16.9823C47.4639 16.4518 46.8139 16.0336 46.0994 15.7524C45.385 15.4711 44.6204 15.3324 43.8505 15.3443C43.0339 15.3132 42.2193 15.4439 41.4556 15.7286C40.6918 16.0133 39.9945 16.4462 39.4055 17.0013C38.8166 17.5563 38.348 18.2222 38.028 18.9589C37.7079 19.6957 37.543 20.4881 37.543 21.2888C37.543 22.0896 37.7079 22.882 38.028 23.6188C38.348 24.3555 38.8166 25.0214 39.4055 25.5764C39.9945 26.1315 40.6918 26.5644 41.4556 26.8491C42.2193 27.1338 43.0339 27.2645 43.8505 27.2333C44.6362 27.2641 45.4197 27.1316 46.1494 26.8447C46.8792 26.5577 47.5388 26.1228 48.0849 25.5683C49.0494 24.5301 49.5634 23.1646 49.5177 21.7613C49.521 21.4236 49.4934 21.0862 49.4351 20.7533H43.8505ZM85.4686 22.0133C85.229 21.3228 84.7811 20.7199 84.184 20.2843C83.587 19.8488 82.869 19.6012 82.1252 19.5743C81.6227 19.5734 81.1254 19.6734 80.664 19.8682C80.2026 20.063 79.7869 20.3485 79.4425 20.707C79.0982 21.0655 78.8325 21.4894 78.662 21.9525C78.4915 22.4156 78.4197 22.908 78.4511 23.3993C78.4432 24.2209 78.7068 25.0229 79.2025 25.6856C79.6982 26.3482 80.3994 26.836 81.2014 27.076C82.0033 27.316 82.863 27.2953 83.6519 27.0171C84.4409 26.7389 85.1168 26.218 85.5788 25.5323L84.2469 24.6323C84.0484 24.9566 83.7668 25.2244 83.43 25.4091C83.0933 25.5938 82.7131 25.689 82.3272 25.6853C81.9291 25.7015 81.5353 25.5992 81.1976 25.392C80.8599 25.1848 80.5941 24.8823 80.4351 24.5243L85.6614 22.4093L85.4686 22.0133ZM80.1412 23.2913C80.1225 23.0118 80.161 22.7314 80.2544 22.4666C80.3477 22.2018 80.4941 21.9579 80.6848 21.7492C80.8756 21.5405 81.1069 21.3712 81.3653 21.2512C81.6236 21.1312 81.9038 21.0629 82.1895 21.0503C82.4854 21.0326 82.7801 21.1009 83.0366 21.2466C83.2931 21.3923 83.5001 21.6089 83.6315 21.8693L80.1412 23.2913ZM75.8976 26.9993H77.6152V15.7493H75.8976V26.9993ZM73.0869 20.4293H73.0226C72.766 20.143 72.4494 19.9144 72.0943 19.759C71.7392 19.6037 71.354 19.5254 70.9652 19.5293C69.9614 19.577 69.0148 20.0013 68.3216 20.7143C67.6284 21.4272 67.2418 22.3742 67.2418 23.3588C67.2418 24.3435 67.6284 25.2905 68.3216 26.0034C69.0148 26.7164 69.9614 27.1406 70.9652 27.1883C71.3546 27.196 71.7409 27.1193 72.0966 26.9637C72.4522 26.8081 72.7685 26.5775 73.0226 26.2883H73.0869V26.8373C73.0869 28.3043 72.2878 29.0873 71.0019 29.0873C70.5723 29.0781 70.1552 28.944 69.8036 28.702C69.452 28.46 69.1817 28.1211 69.0271 27.7283L67.5391 28.3313C67.8142 29.0084 68.2925 29.5876 68.9108 29.9926C69.5291 30.3976 70.2583 30.6091 71.0019 30.5993C73.0135 30.5993 74.676 29.4383 74.676 26.6123V19.7993H73.0869V20.4293ZM71.1121 25.7213C70.5103 25.6846 69.9454 25.4244 69.5325 24.9938C69.1196 24.5633 68.8898 23.9947 68.8898 23.4038C68.8898 22.813 69.1196 22.2444 69.5325 21.8138C69.9454 21.3833 70.5103 21.1231 71.1121 21.0863C71.4063 21.0988 71.6948 21.1691 71.9607 21.293C72.2266 21.417 72.4642 21.5921 72.6596 21.8079C72.855 22.0237 73.0041 22.2758 73.098 22.5492C73.1919 22.8226 73.2288 23.1117 73.2063 23.3993C73.2314 23.688 73.1964 23.9786 73.1036 24.2536C73.0108 24.5286 72.862 24.7823 72.6662 24.9994C72.4705 25.2164 72.2318 25.3923 71.9647 25.5164C71.6976 25.6405 71.4075 25.7102 71.1121 25.7213V25.7213ZM93.5148 15.7493H89.3998V26.9993H91.1174V22.7333H93.5148C94.0043 22.7678 94.4958 22.7031 94.9587 22.5432C95.4216 22.3833 95.8459 22.1317 96.2051 21.8041C96.5644 21.4765 96.8509 21.0798 97.0468 20.6389C97.2427 20.198 97.3439 19.7222 97.3439 19.2413C97.3439 18.7604 97.2427 18.2847 97.0468 17.8438C96.8509 17.4029 96.5644 17.0062 96.2051 16.6786C95.8459 16.351 95.4216 16.0994 94.9587 15.9395C94.4958 15.7796 94.0043 15.7149 93.5148 15.7493V15.7493ZM93.5148 21.1493H91.1174V17.3153H93.5515C93.8097 17.3153 94.0653 17.3652 94.3037 17.462C94.5422 17.5587 94.7589 17.7006 94.9414 17.8795C95.124 18.0583 95.2687 18.2706 95.3675 18.5043C95.4663 18.738 95.5171 18.9884 95.5171 19.2413C95.5171 19.4943 95.4663 19.7447 95.3675 19.9784C95.2687 20.2121 95.124 20.4244 94.9414 20.6032C94.7589 20.7821 94.5422 20.9239 94.3037 21.0207C94.0653 21.1175 93.8097 21.1673 93.5515 21.1673L93.5148 21.1493ZM104.114 19.5383C103.489 19.5006 102.866 19.6432 102.322 19.9488C101.779 20.2543 101.338 20.7092 101.056 21.2573L102.571 21.8783C102.725 21.6078 102.954 21.3865 103.233 21.2412C103.512 21.0958 103.827 21.0327 104.142 21.0593C104.36 21.0344 104.581 21.0522 104.792 21.1118C105.003 21.1714 105.2 21.2716 105.371 21.4065C105.542 21.5414 105.683 21.7083 105.788 21.8974C105.892 22.0866 105.957 22.2943 105.979 22.5083V22.6163C105.427 22.3319 104.812 22.1836 104.188 22.1843C102.553 22.1843 100.881 23.0843 100.881 24.7223C100.897 25.0705 100.985 25.4119 101.138 25.7263C101.292 26.0407 101.508 26.3217 101.775 26.5526C102.041 26.7835 102.352 26.9595 102.689 27.0703C103.027 27.181 103.383 27.2242 103.738 27.1973C104.169 27.2207 104.599 27.1313 104.983 26.9384C105.367 26.7454 105.692 26.4559 105.924 26.0993H105.979V26.9993H107.632V22.6703C107.632 20.6993 106.108 19.5563 104.151 19.5563L104.114 19.5383ZM103.903 25.7033C103.343 25.7033 102.562 25.4243 102.562 24.7493C102.562 23.8493 103.536 23.5433 104.399 23.5433C104.945 23.5302 105.484 23.6607 105.961 23.9213C105.903 24.4101 105.667 24.8618 105.295 25.1928C104.923 25.5238 104.442 25.7115 103.94 25.7213L103.903 25.7033ZM113.658 19.7993L111.692 24.6773H111.637L109.598 19.7993H107.761L110.82 26.6213L109.074 30.4103H110.866L115.568 19.7993H113.658ZM98.2268 26.9993H99.9352V15.7493H98.2268V26.9993Z" fill="white"/>
<path d="M9.58995 6.78663C9.28727 7.13729 9.13283 7.58805 9.15825 8.04663V27.9546C9.12699 28.414 9.28215 28.8668 9.58995 29.2146L9.65425 29.2866L21.0347 18.1356V17.8656L9.65425 6.72363L9.58995 6.78663Z" fill="url(#paint0_linear_2212_7480)"/>
<path d="M24.8011 21.8524L21.0352 18.1354V17.8654L24.8011 14.1484L24.8837 14.2024L29.3937 16.7044C30.6796 17.4154 30.6796 18.5854 29.3937 19.3054L24.9021 21.8074L24.8011 21.8524Z" fill="url(#paint1_linear_2212_7480)"/>
<path d="M24.9088 21.799L21.0326 18.001L9.58789 29.215C9.84744 29.4413 10.1797 29.5716 10.5269 29.5831C10.8742 29.5946 11.2147 29.4867 11.4892 29.278L24.9088 21.799" fill="url(#paint2_linear_2212_7480)"/>
<path d="M24.9088 14.2018L11.4892 6.73183C11.2164 6.52025 10.8763 6.40968 10.5285 6.41955C10.1808 6.42943 9.8477 6.55912 9.58789 6.78583L21.0326 17.9998L24.9088 14.2018Z" fill="url(#paint3_linear_2212_7480)"/>
<path opacity="0.2" d="M24.7986 21.7178L11.4892 29.1428C11.2246 29.3384 10.9022 29.4443 10.5707 29.4443C10.2392 29.4443 9.91677 29.3384 9.65219 29.1428V29.1428L9.58789 29.2058L9.65219 29.2778C9.91677 29.4734 10.2392 29.5793 10.5707 29.5793C10.9022 29.5793 11.2246 29.4734 11.4892 29.2778L24.9088 21.7988L24.7986 21.7178Z" fill="black"/>
<path opacity="0.12" d="M9.58715 29.0883C9.29212 28.7314 9.14753 28.2774 9.183 27.8193V27.9543C9.15175 28.4137 9.30691 28.8665 9.61471 29.2143L9.679 29.1513L9.58715 29.0883Z" fill="black"/>
<path opacity="0.12" d="M29.3914 19.171L24.7988 21.718L24.8815 21.799L29.3914 19.297C29.6576 19.1867 29.8886 19.0081 30.0599 18.78C30.2313 18.5519 30.3367 18.2828 30.3651 18.001C30.3076 18.2571 30.1896 18.4964 30.0205 18.6996C29.8514 18.9028 29.6359 19.0643 29.3914 19.171Z" fill="black"/>
<path opacity="0.25" d="M11.4912 6.85906L29.3932 16.8311C29.6376 16.9377 29.8531 17.0992 30.0222 17.3024C30.1913 17.5056 30.3094 17.7449 30.3668 18.0011C30.3384 17.7192 30.233 17.4501 30.0617 17.222C29.8903 16.9939 29.6594 16.8154 29.3932 16.7051L11.4912 6.73305C10.2145 6.01305 9.1582 6.60706 9.1582 8.04706V8.18206C9.18576 6.74205 10.2145 6.14806 11.4912 6.85906Z" fill="white"/>
<path d="M38.6803 12.8428H38.0098V11.0428H38.5792C38.8355 10.7703 39.0281 10.4464 39.1439 10.0936C39.2597 9.74083 39.2958 9.36761 39.2498 8.9998V6.2998H42.9238V11.0338H43.5392V12.8338H42.8595V11.6998H38.6803V12.8428ZM39.957 8.9998C39.998 9.72276 39.8155 10.441 39.4335 11.0608H42.189V6.9658H39.957V8.9998Z" fill="white" stroke="white" stroke-width="0.411304" stroke-miterlimit="10"/>
<path d="M49.0581 10.9975C48.7936 11.2574 48.4794 11.4636 48.1334 11.6042C47.7875 11.7449 47.4166 11.8173 47.042 11.8173C46.6674 11.8173 46.2965 11.7449 45.9506 11.6042C45.6046 11.4636 45.2903 11.2574 45.0258 10.9975C44.5004 10.4597 44.207 9.74399 44.207 8.99949C44.207 8.25499 44.5004 7.53923 45.0258 7.00149C45.2903 6.74161 45.6046 6.53542 45.9506 6.39474C46.2965 6.25406 46.6674 6.18164 47.042 6.18164C47.4166 6.18164 47.7875 6.25406 48.1334 6.39474C48.4794 6.53542 48.7936 6.74161 49.0581 7.00149C49.3235 7.26429 49.5325 7.57643 49.6729 7.91956C49.8133 8.26269 49.8822 8.62987 49.8756 8.99949C49.8865 9.36965 49.8195 9.73804 49.6789 10.0818C49.5382 10.4255 49.3269 10.7372 49.0581 10.9975V10.9975ZM45.5402 10.5475C45.7338 10.7444 45.9665 10.9004 46.224 11.0057C46.4815 11.1109 46.7584 11.1633 47.0374 11.1595C47.3166 11.1649 47.594 11.1133 47.8517 11.0079C48.1095 10.9026 48.3421 10.7458 48.5346 10.5475C48.9309 10.1255 49.1509 9.57297 49.1509 8.99949C49.1509 8.42601 48.9309 7.87347 48.5346 7.45149C48.3421 7.25322 48.1095 7.09641 47.8517 6.99105C47.594 6.88568 47.3166 6.83406 47.0374 6.83949C46.7584 6.8357 46.4815 6.88805 46.224 6.99332C45.9665 7.09859 45.7338 7.25453 45.5402 7.45149C45.1497 7.8763 44.9336 8.42776 44.9336 8.99949C44.9336 9.57121 45.1497 10.1227 45.5402 10.5475Z" fill="white" stroke="white" stroke-width="0.411304" stroke-miterlimit="10"/>
<path d="M53.4376 11.8168C53.0659 11.8225 52.6969 11.7544 52.3528 11.6168C52.0087 11.4791 51.6966 11.2747 51.4352 11.0158C50.9052 10.4731 50.6094 9.75089 50.6094 8.99975C50.6094 8.24862 50.9052 7.52646 51.4352 6.98375C51.7008 6.72036 52.019 6.51333 52.3697 6.37553C52.7205 6.23773 53.0965 6.17212 53.4743 6.18276C53.8588 6.1721 54.2408 6.24763 54.591 6.40361C54.9412 6.55958 55.2504 6.79187 55.495 7.08276L55.0082 7.55075C54.8278 7.32343 54.5943 7.14185 54.3274 7.02126C54.0605 6.90068 53.7679 6.84461 53.4743 6.85776C53.1916 6.85069 52.9104 6.90056 52.6481 7.00428C52.3858 7.108 52.1481 7.26337 51.9495 7.46076C51.5539 7.88665 51.3346 8.44184 51.3346 9.01775C51.3346 9.59367 51.5539 10.1489 51.9495 10.5748C52.1481 10.7721 52.3858 10.9275 52.6481 11.0312C52.9104 11.1349 53.1916 11.1848 53.4743 11.1778C53.7899 11.169 54.0997 11.0927 54.3822 10.9544C54.6646 10.816 54.9127 10.6189 55.1093 10.3768L55.6053 10.8538C55.3536 11.1492 55.0405 11.3886 54.6867 11.5558C54.296 11.7346 53.8688 11.8239 53.4376 11.8168Z" fill="white" stroke="white" stroke-width="0.411304" stroke-miterlimit="10"/>
<path d="M58.4906 11.6998H57.7833V6.9658H56.2402V6.2998H60.0245V6.9658H58.4906V11.6998Z" fill="white" stroke="white" stroke-width="0.411304" stroke-miterlimit="10"/>
<path d="M64.8956 6.2998L62.8105 10.8538C62.76 11.0364 62.6695 11.206 62.5454 11.3509C62.4212 11.4959 62.2665 11.6126 62.0917 11.6931C61.917 11.7736 61.7264 11.8158 61.5334 11.817C61.3403 11.8182 61.1493 11.7782 60.9735 11.6998L61.1572 11.0608C61.2696 11.1227 61.3957 11.1567 61.5246 11.1598C61.6606 11.1665 61.7953 11.1319 61.9104 11.0608C62.022 10.9698 62.1074 10.852 62.1584 10.7188L62.3605 10.2868L60.5234 6.2998H61.3593L62.7187 9.39581L64.0597 6.2998H64.8956Z" fill="white" stroke="white" stroke-width="0.411304" stroke-miterlimit="10"/>
<path d="M65.6914 11.6998V6.2998H69.6778V11.6998H68.9705V6.9658H66.3987V11.6998H65.6914Z" fill="white" stroke="white" stroke-width="0.411304" stroke-miterlimit="10"/>
<path d="M70.9375 11.6998V6.2998H71.6448V8.6128H74.4003V6.2998H75.1168V11.6998H74.4003V9.26081H71.6448V11.6998H70.9375Z" fill="white" stroke="white" stroke-width="0.411304" stroke-miterlimit="10"/>
<path d="M80.8837 10.9975C80.6184 11.2576 80.3034 11.464 79.9567 11.6048C79.61 11.7456 79.2383 11.8181 78.863 11.8181C78.4877 11.8181 78.116 11.7456 77.7693 11.6048C77.4225 11.464 77.1075 11.2576 76.8422 10.9975C76.3168 10.4597 76.0234 9.74399 76.0234 8.99949C76.0234 8.25499 76.3168 7.53923 76.8422 7.00149C77.1068 6.74161 77.421 6.53542 77.767 6.39474C78.1129 6.25406 78.4838 6.18164 78.8584 6.18164C79.233 6.18164 79.6039 6.25406 79.9498 6.39474C80.2958 6.53542 80.61 6.74161 80.8745 7.00149C81.3959 7.54132 81.6864 8.25629 81.6864 8.99949C81.6864 9.74268 81.3959 10.4577 80.8745 10.9975H80.8837ZM77.3658 10.5475C77.5583 10.7458 77.7909 10.9026 78.0486 11.0079C78.3064 11.1133 78.5837 11.1649 78.863 11.1595C79.142 11.1633 79.4188 11.1109 79.6764 11.0057C79.9339 10.9004 80.1666 10.7444 80.3602 10.5475C80.7507 10.1227 80.9668 9.57121 80.9668 8.99949C80.9668 8.42776 80.7507 7.8763 80.3602 7.45149C80.1666 7.25453 79.9339 7.09859 79.6764 6.99332C79.4188 6.88805 79.142 6.8357 78.863 6.83949C78.5837 6.83406 78.3064 6.88568 78.0486 6.99105C77.7909 7.09641 77.5583 7.25322 77.3658 7.45149C76.9695 7.87347 76.7495 8.42601 76.7495 8.99949C76.7495 9.57297 76.9695 10.1255 77.3658 10.5475V10.5475Z" fill="white" stroke="white" stroke-width="0.411304" stroke-miterlimit="10"/>
<path d="M84.5859 11.6999V6.29989H86.5791C86.9923 6.29582 87.3921 6.44352 87.6997 6.71389C87.8532 6.8444 87.9755 7.00637 88.0581 7.18833C88.1406 7.37029 88.1813 7.5678 88.1773 7.76689C88.1796 8.00932 88.1093 8.2471 87.9753 8.45089C87.8397 8.64412 87.6521 8.79677 87.4334 8.89189V8.89189C87.6985 8.98073 87.9315 9.14336 88.1039 9.35989C88.2727 9.58045 88.363 9.84918 88.361 10.1249C88.3657 10.3324 88.3237 10.5383 88.238 10.7281C88.1523 10.9178 88.0249 11.0868 87.8651 11.2229C87.5463 11.5136 87.1248 11.6717 86.6893 11.6639L84.5859 11.6999ZM85.2932 8.61289H86.5791C86.6994 8.61971 86.8198 8.59977 86.9311 8.55457C87.0425 8.50937 87.1419 8.44008 87.2221 8.35189C87.3778 8.20234 87.467 7.99854 87.4701 7.78489C87.4788 7.57057 87.4031 7.36116 87.2588 7.19989C87.1816 7.11595 87.0864 7.04983 86.98 7.00625C86.8736 6.96268 86.7586 6.94275 86.6434 6.94789H85.3208L85.2932 8.61289ZM85.2932 11.0339H86.7261C86.8505 11.038 86.9743 11.0151 87.0886 10.9669C87.2029 10.9186 87.305 10.8462 87.3874 10.7549C87.546 10.5889 87.6346 10.3703 87.6354 10.1429C87.6298 9.91741 87.538 9.70221 87.3782 9.53989C87.2897 9.44879 87.1826 9.37689 87.064 9.32883C86.9453 9.28078 86.8177 9.25763 86.6893 9.26089H85.2932V11.0339Z" fill="white" stroke="white" stroke-width="0.411304" stroke-miterlimit="10"/>
</g>
<defs>
<linearGradient id="paint0_linear_2212_7480" x1="20.0243" y1="7.83963" x2="4.92545" y2="23.2492" gradientUnits="userSpaceOnUse">
<stop stop-color="#00A0FF"/>
<stop offset="0.01" stop-color="#00A1FF"/>
<stop offset="0.26" stop-color="#00BEFF"/>
<stop offset="0.51" stop-color="#00D2FF"/>
<stop offset="0.76" stop-color="#00DFFF"/>
<stop offset="1" stop-color="#00E3FF"/>
</linearGradient>
<linearGradient id="paint1_linear_2212_7480" x1="31.0746" y1="18.0004" x2="8.8556" y2="18.0004" gradientUnits="userSpaceOnUse">
<stop stop-color="#FFE000"/>
<stop offset="0.41" stop-color="#FFBD00"/>
<stop offset="0.78" stop-color="#FFA500"/>
<stop offset="1" stop-color="#FF9C00"/>
</linearGradient>
<linearGradient id="paint2_linear_2212_7480" x1="22.8054" y1="20.071" x2="2.32543" y2="40.9631" gradientUnits="userSpaceOnUse">
<stop stop-color="#FF3A44"/>
<stop offset="1" stop-color="#C31162"/>
</linearGradient>
<linearGradient id="paint3_linear_2212_7480" x1="6.70374" y1="0.161826" x2="15.8458" y2="9.49204" gradientUnits="userSpaceOnUse">
<stop stop-color="#32A071"/>
<stop offset="0.07" stop-color="#2DA771"/>
<stop offset="0.48" stop-color="#15CF74"/>
<stop offset="0.8" stop-color="#06E775"/>
<stop offset="1" stop-color="#00F076"/>
</linearGradient>
<clipPath id="clip0_2212_7480">
<rect width="124" height="36" fill="white"/>
</clipPath>
</defs>
</svg>
