<svg width="2126" height="2516" viewBox="0 0 2126 2516" fill="none" xmlns="http://www.w3.org/2000/svg">
<path d="M1575.5 1639C1648.33 1639 1712.35 1574.21 1748.66 1476.8C1784.74 1574.21 1848.77 1639 1921.82 1639C2034.47 1639 2126 1483.91 2126 1292.5C2126 1101.09 2034.47 946 1921.6 946C1848.77 946 1784.74 1010.79 1748.44 1108.2C1712.35 1010.79 1648.33 946 1575.5 946C1502.67 946 1438.65 1010.79 1402.34 1108.2C1366.26 1010.79 1302.23 946 1229.4 946C1116.53 946 1025 1101.09 1025 1292.5C1025 1483.91 1116.53 1639 1229.4 1639C1302.23 1639 1366.26 1574.21 1402.56 1476.8C1438.65 1574.36 1502.67 1639 1575.5 1639Z" fill="#C4FF63"/>
<rect x="1.5" y="372.5" width="611" height="751" rx="30.5" fill="#FCFF79" stroke="white" stroke-width="3"/>
<path d="M1368.26 206.586L1368.26 205.607C1343.62 200.444 1323.14 193.315 1308.83 184.909C1294.49 176.486 1286.5 166.871 1286.5 156.782C1286.5 146.692 1294.47 137.077 1308.8 128.662C1323.1 120.264 1343.58 113.151 1368.26 108.019L1368.26 107.04C1343.62 101.876 1323.14 94.7471 1308.83 86.3412C1294.49 77.918 1286.5 68.3037 1286.5 58.214C1286.5 50.3975 1291.27 42.87 1300.1 35.9501C1308.91 29.0349 1321.7 22.7853 1337.55 17.5274C1369.24 7.01323 1413.06 0.500839 1461.5 0.500842C1509.94 0.500845 1553.76 7.01324 1585.45 17.5274C1601.3 22.7853 1614.09 29.035 1622.9 35.9502C1631.73 42.87 1636.5 50.3975 1636.5 58.214C1636.5 68.3036 1628.51 77.918 1614.17 86.3333C1599.86 94.7313 1579.38 101.845 1554.74 106.977L1554.74 107.956C1579.38 113.12 1599.86 120.249 1614.17 128.654C1628.51 137.078 1636.5 146.692 1636.5 156.782C1636.5 166.871 1628.51 176.486 1614.17 184.901C1599.86 193.299 1579.38 200.412 1554.74 205.545L1554.74 206.524C1579.38 211.687 1599.86 218.816 1614.17 227.222C1628.51 235.645 1636.5 245.26 1636.5 255.349C1636.5 263.166 1631.73 270.693 1622.9 277.613C1614.09 284.528 1601.3 290.778 1585.45 296.036C1553.76 306.55 1509.94 313.062 1461.5 313.062C1413.06 313.062 1369.24 306.55 1337.55 296.044C1321.7 290.79 1308.91 284.546 1300.1 277.639C1291.27 270.728 1286.5 263.212 1286.5 255.412C1286.5 245.291 1294.49 235.661 1308.83 227.238C1323.14 218.832 1343.62 211.719 1368.26 206.586Z" stroke="#E056BA"/>
<path fill-rule="evenodd" clip-rule="evenodd" d="M1324.09 2043.96L1323.04 2042.28C1346.78 2023.16 1370.9 2001.33 1384.48 1979.99C1391.26 1969.32 1395.35 1958.87 1395.51 1948.99C1395.68 1939.17 1391.95 1929.81 1382.88 1921.28L1382.87 1921.27C1373.47 1912.32 1363.32 1909.08 1352.81 1909.94C1342.24 1910.81 1331.21 1915.84 1320.1 1923.63C1297.89 1939.22 1275.72 1965.63 1256.97 1990.69L1255.24 1989.72C1266.81 1960.84 1277.76 1928.66 1279.35 1902.23C1280.14 1889.01 1278.58 1877.35 1273.69 1868.26C1268.82 1859.23 1260.6 1852.65 1247.82 1849.68C1234.94 1846.74 1224.4 1849.03 1215.68 1855.01C1206.92 1861.01 1199.91 1870.8 1194.27 1882.98C1182.96 1907.34 1177.26 1940.92 1173.62 1971.68L1171.63 1971.7C1167.4 1940.72 1160.89 1906.11 1148.85 1881.22C1142.83 1868.78 1135.48 1858.87 1126.44 1853.03C1117.44 1847.22 1106.67 1845.38 1093.64 1849.24C1079.92 1853.31 1071.64 1861.22 1067.26 1871.68C1062.86 1882.19 1062.37 1895.37 1064.45 1909.96C1068.62 1939.15 1083.05 1973.55 1096.25 2002.52L1094.56 2003.56C1074.79 1978.88 1051.09 1951.67 1027.45 1935.69C1015.63 1927.71 1003.92 1922.58 992.79 1921.91C981.716 1921.25 971.122 1924.98 961.453 1934.91C952.286 1944.39 948.888 1954.41 949.633 1964.67C950.381 1974.98 955.321 1985.64 963.063 1996.33C978.552 2017.7 1005 2038.81 1030.2 2056.79L1029.27 2058.55C1000.13 2047.88 967.334 2037.75 940.279 2036.7C926.755 2036.17 914.766 2037.92 905.402 2042.93C896.081 2047.9 889.277 2056.15 886.154 2068.81L886.153 2068.82C883.086 2080.95 884.964 2090.85 890.362 2099.03C895.785 2107.24 904.825 2113.81 916.242 2119.08C939.088 2129.64 971.07 2134.85 1001.28 2137.99L1001.31 2139.98C971.636 2143.89 940.806 2150.08 918.883 2161.2C907.927 2166.76 899.28 2173.51 894.086 2181.74C888.915 2189.94 887.115 2199.7 889.99 2211.41C892.894 2223.22 899.061 2231.03 907.511 2235.83C915.998 2240.66 926.878 2242.51 939.258 2242.21C964.031 2241.61 994.419 2232.41 1022.63 2221.94L1023.6 2223.66C1000.2 2242.46 976.83 2263.85 963.852 2284.8C957.366 2295.27 953.531 2305.54 953.516 2315.26C953.501 2324.94 957.273 2334.19 966.225 2342.66L966.227 2342.66C975.635 2351.61 985.777 2354.86 996.293 2353.99C1006.86 2353.12 1017.89 2348.09 1029 2340.3C1051.22 2324.71 1073.38 2298.3 1092.14 2273.24L1093.86 2274.21C1082.29 2303.09 1071.34 2335.27 1069.76 2361.71C1068.96 2374.92 1070.52 2386.59 1075.41 2395.67C1080.28 2404.7 1088.5 2411.28 1101.28 2414.25C1114.16 2417.2 1124.7 2414.91 1133.42 2408.92C1142.18 2402.92 1149.19 2393.13 1154.84 2380.96C1166.14 2356.59 1171.84 2323.02 1175.48 2292.25L1177.47 2292.22C1181.9 2323.15 1188.44 2357.86 1200.51 2382.85C1206.54 2395.34 1213.91 2405.3 1222.99 2411.17C1232.02 2417 1242.84 2418.85 1255.98 2414.96C1269.7 2410.9 1277.97 2402.98 1282.35 2392.52C1286.75 2382.01 1287.25 2368.84 1285.16 2354.24C1280.99 2325.05 1266.56 2290.66 1253.36 2261.68L1255.05 2260.64C1274.82 2285.33 1298.53 2312.53 1322.17 2328.51C1333.99 2336.5 1345.7 2341.62 1356.82 2342.29C1367.9 2342.96 1378.49 2339.22 1388.16 2329.29C1397.33 2319.82 1400.73 2309.8 1399.98 2299.54C1399.23 2289.23 1394.29 2278.56 1386.55 2267.88C1371.06 2246.5 1344.62 2225.39 1319.42 2207.41L1320.34 2205.66C1349.49 2216.32 1382.28 2226.46 1409.34 2227.51C1422.86 2228.03 1434.85 2226.28 1444.21 2221.28C1453.53 2216.3 1460.34 2208.06 1463.46 2195.39L1463.46 2195.39C1466.49 2183.48 1464.72 2173.69 1459.53 2165.58C1454.31 2157.43 1445.57 2150.87 1434.47 2145.58C1412.27 2135 1381.02 2129.68 1351.07 2126.68L1350.95 2124.7C1380.1 2118.19 1410.49 2109.39 1431.61 2096.4C1442.16 2089.91 1450.31 2082.42 1454.86 2073.73C1459.4 2065.07 1460.4 2055.14 1456.52 2043.62C1452.67 2032.2 1445.93 2024.97 1437.19 2020.89C1428.4 2016.8 1417.5 2015.82 1405.27 2017.1C1380.8 2019.67 1351.42 2031.2 1324.09 2043.96ZM1388.88 2329.99C1350.26 2369.66 1296.15 2313.12 1256.79 2264.4C1255.94 2263.35 1255.1 2262.31 1254.27 2261.27C1254.82 2262.48 1255.38 2263.7 1255.93 2264.93C1281.95 2322.52 1311.06 2399.69 1256.26 2415.92C1203.78 2431.46 1186.06 2357.32 1177.03 2296.15C1176.84 2294.88 1176.66 2293.62 1176.48 2292.37C1176.33 2293.63 1176.17 2294.89 1176.02 2296.16C1168.54 2356.87 1152.53 2426.99 1101.06 2415.23C1049.96 2403.35 1068.97 2334.47 1091.53 2277.37C1092 2276.19 1092.47 2275.01 1092.94 2273.84C1092.18 2274.85 1091.42 2275.86 1090.65 2276.88C1053.35 2326.19 1003.18 2379.2 965.538 2343.38C929.633 2309.42 974.56 2262.16 1020.54 2224.84C1021.35 2224.18 1022.16 2223.53 1022.97 2222.88C1022 2223.24 1021.02 2223.6 1020.04 2223.96C964.294 2244.37 900.672 2259.05 889.019 2211.65C877.549 2164.92 938.84 2147.62 997.026 2139.55C998.413 2139.35 999.799 2139.17 1001.18 2138.98C999.795 2138.84 998.405 2138.69 997.012 2138.54C937.661 2132.02 872.951 2116.95 885.183 2068.57C897.682 2017.89 968.432 2035.54 1026.14 2056.34C1027.3 2056.76 1028.46 2057.19 1029.62 2057.61C1028.62 2056.89 1027.62 2056.17 1026.61 2055.45C977.031 2019.7 924.087 1972.09 960.735 1934.22C999.352 1894.54 1053.47 1951.09 1092.82 1999.8C1093.67 2000.85 1094.51 2001.9 1095.34 2002.94C1094.79 2001.73 1094.24 2000.5 1093.68 1999.27C1067.67 1941.69 1038.56 1864.51 1093.35 1848.28C1145.42 1832.86 1163.41 1906.44 1172.09 1967.69C1172.27 1968.99 1172.45 1970.28 1172.62 1971.57C1172.78 1970.28 1172.93 1968.98 1173.09 1967.68C1180.58 1906.99 1196.59 1836.95 1248.05 1848.7C1299.14 1860.58 1280.13 1929.46 1257.57 1986.56C1257.1 1987.74 1256.63 1988.92 1256.16 1990.09C1256.92 1989.08 1257.68 1988.07 1258.45 1987.05C1295.76 1937.74 1345.92 1884.73 1383.56 1920.55C1419.79 1954.61 1373.33 2002.62 1326.85 2040.48C1325.79 2041.34 1324.73 2042.2 1323.67 2043.05C1324.9 2042.48 1326.14 2041.91 1327.38 2041.34C1381.17 2016.63 1442.08 1997.69 1457.47 2043.3C1473.05 2089.53 1411.68 2111.87 1354.23 2124.99C1353.21 2125.22 1352.19 2125.45 1351.17 2125.68C1352.21 2125.78 1353.25 2125.89 1354.29 2126C1413.35 2132.23 1476.56 2147.86 1464.43 2195.63C1451.93 2246.32 1381.18 2228.67 1323.47 2207.86C1322.31 2207.44 1321.15 2207.02 1320 2206.6C1321 2207.31 1322 2208.03 1323 2208.75C1372.58 2244.5 1425.53 2292.11 1388.88 2329.99Z" fill="#E056BA"/>
</svg>
