<svg width="221" height="64" viewBox="0 0 221 64" fill="none" xmlns="http://www.w3.org/2000/svg">
<path d="M37.3869 23.324C37.3869 17.4429 37.4114 11.5618 37.3624 5.70536C37.3624 4.77029 37.6319 4.54883 38.5384 4.54883C47.9463 4.57344 57.3787 4.57344 66.7867 4.54883C67.7911 4.54883 68.1096 4.7949 68.0606 5.8284C67.9871 7.9446 67.9871 10.0608 68.0606 12.2016C68.0851 13.0875 67.7911 13.2843 66.9582 13.2843C60.9557 13.2597 54.9777 13.2843 48.9753 13.2351C47.9218 13.2351 47.6278 13.5304 47.7258 14.5393C47.8238 15.4744 47.8238 16.434 47.7258 17.3445C47.6278 18.378 48.0688 18.5256 48.9508 18.5256C54.3653 18.501 59.8042 18.5502 65.2187 18.4764C66.2722 18.4764 66.5172 18.7717 66.4927 19.7806C66.4192 21.8476 66.4192 23.9392 66.4927 26.0308C66.5172 26.9905 66.2722 27.2858 65.2922 27.2611C59.8287 27.2119 54.3653 27.2611 48.9018 27.2119C48.0198 27.2119 47.6523 27.3596 47.7258 28.3439C47.8238 29.648 47.7993 30.9522 47.7258 32.2564C47.6768 33.1668 47.9218 33.4375 48.8528 33.4129C55.1002 33.3637 61.3232 33.4129 67.5706 33.3637C68.7221 33.3637 69.1386 33.6098 69.0651 34.8155C68.9671 36.8825 69.0161 38.9741 69.0406 41.0657C69.0651 41.8285 68.8936 42.1484 68.0361 42.1484C58.1382 42.1238 48.2158 42.1238 38.3179 42.1484C37.4359 42.1484 37.3379 41.7793 37.3379 41.0657C37.4114 35.16 37.3869 29.2543 37.3869 23.324ZM38.4894 23.3486C38.4894 28.8606 38.5139 34.3726 38.4649 39.8846C38.4649 40.8196 38.7344 41.0411 39.6409 41.0165C43.3403 40.9673 47.0643 40.9919 50.7638 40.9919C56.1047 40.9919 61.4457 40.9673 66.7867 41.0165C67.7666 41.0165 68.0606 40.7212 67.9871 39.7615C67.9136 38.4574 67.8891 37.1532 67.9871 35.849C68.0606 34.7663 67.7421 34.471 66.6397 34.4956C60.3922 34.5448 54.1693 34.4956 47.9218 34.5448C46.7948 34.5448 46.5498 34.2249 46.5988 33.1668C46.6723 31.2475 46.6723 29.3281 46.5988 27.4088C46.5498 26.3999 46.8438 26.1046 47.8728 26.1292C53.3363 26.1784 58.7997 26.1292 64.2632 26.1784C65.0962 26.1784 65.4147 25.957 65.3657 25.0957C65.2922 23.6685 65.2677 22.2413 65.3657 20.8141C65.4392 19.8052 65.0717 19.6084 64.1407 19.633C58.6772 19.6822 53.2138 19.633 47.7503 19.6822C46.8193 19.6822 46.5498 19.4361 46.5988 18.5256C46.6723 16.9754 46.6233 15.4252 46.6233 13.8749C46.6478 11.8571 46.3783 12.1524 48.3873 12.1524C54.1448 12.1524 59.8777 12.1278 65.6352 12.177C66.6887 12.177 66.9582 11.8817 66.9092 10.8728C66.8357 9.49485 66.8357 8.09225 66.9092 6.71425C66.9337 5.90222 66.6642 5.68075 65.8802 5.68075C57.1092 5.70536 48.3383 5.70536 39.5919 5.68075C38.6364 5.68075 38.4649 5.97604 38.4649 6.86189C38.4894 12.3493 38.4894 17.8613 38.4894 23.3486Z" fill="#2648F2"/>
<path d="M184.068 4.54741C187.89 4.54741 191.467 4.57201 195.044 4.5228C195.803 4.5228 195.999 5.03955 196.269 5.53169C198.008 8.58297 199.723 11.6342 201.463 14.6855C202.124 15.8667 202.173 15.842 202.884 14.6363C204.648 11.6096 206.436 8.58297 208.151 5.53169C208.568 4.81809 209.033 4.49819 209.891 4.5228C213.345 4.57201 216.8 4.54741 220.499 4.54741C219.715 5.80237 219.029 6.88508 218.343 7.94318C215.232 12.717 212.096 17.5153 208.96 22.2645C208.543 22.9043 208.543 23.3472 208.96 24.0116C212.635 29.6958 216.285 35.3801 219.936 41.0889C220.132 41.3842 220.573 41.6549 220.303 42.024C220.181 42.1962 219.715 42.147 219.397 42.147C216.261 42.147 213.125 42.1224 209.989 42.1716C209.107 42.1962 208.592 41.9255 208.127 41.1381C206.387 38.1853 204.55 35.2816 202.81 32.3534C202.32 31.5414 202.051 31.5167 201.536 32.3534C199.748 35.3308 197.886 38.2345 196.097 41.2119C195.656 41.9255 195.166 42.1962 194.333 42.1716C191.271 42.1224 188.208 42.1716 185.17 42.147C184.754 42.147 184.166 42.3931 183.945 41.9501C183.774 41.6056 184.239 41.2365 184.46 40.9166C188.061 35.4785 191.614 30.0157 195.289 24.6268C196.024 23.5441 196.048 22.8305 195.313 21.7231C191.687 16.3588 188.159 10.9206 184.607 5.48248C184.435 5.23641 184.313 4.99033 184.068 4.54741ZM185.685 41.0151C188.576 41.0151 191.197 40.9905 193.794 41.0397C194.603 41.0643 195.044 40.769 195.46 40.1046C197.42 36.8565 199.429 33.633 201.438 30.4094C202.198 29.2037 202.222 29.2037 202.933 30.3848C204.942 33.6576 206.951 36.9057 208.911 40.203C209.278 40.7936 209.646 41.0643 210.356 41.0397C212.684 40.9905 215.011 41.0151 217.339 41.0151C217.657 41.0151 218.049 41.1627 218.245 40.8674C218.466 40.5229 218.074 40.2769 217.902 40.0308C214.472 34.6664 211.042 29.3267 207.588 23.987C207.196 23.3964 207.147 22.9781 207.563 22.3629C210.087 18.5734 212.586 14.7347 215.085 10.9206C216.163 9.27196 217.216 7.59868 218.441 5.70394C215.599 5.70394 213.027 5.72855 210.43 5.67933C209.67 5.65473 209.278 5.95001 208.911 6.6144C207.098 9.81332 205.236 12.963 203.398 16.1373C203.055 16.7525 202.663 17.3431 202.222 18.0321C202.026 17.7122 201.928 17.5891 201.83 17.4661C199.723 13.8243 197.641 10.1824 195.534 6.56519C195.313 6.19608 195.191 5.72855 194.603 5.72855C191.859 5.72855 189.09 5.72855 186.346 5.72855C186.346 6.31912 186.665 6.6144 186.885 6.93429C190.242 12.0526 193.598 17.1708 196.979 22.2645C197.494 23.0027 197.42 23.4948 196.93 24.1838C194.48 27.7765 192.055 31.4183 189.629 35.0602C188.38 36.9303 187.106 38.8496 185.685 41.0151Z" fill="#CD24E5"/>
<path d="M150.848 41.9527C150.677 41.2883 150.799 40.5993 150.848 39.9349C151.779 40.0088 151.51 39.2952 151.51 38.8276C151.534 35.235 151.51 31.667 151.51 28.0743C151.51 21.3566 151.51 14.6389 151.51 7.89656C151.51 7.37981 151.779 6.6662 150.824 6.6662C150.701 4.55 150.701 4.55 152.759 4.55C161.898 4.55 171.011 4.5746 180.15 4.52539C181.179 4.52539 181.448 4.82068 181.424 5.82956C181.35 7.94577 181.375 10.062 181.424 12.2028C181.448 13.064 181.179 13.3101 180.321 13.3101C174.368 13.2855 168.414 13.3101 162.461 13.2609C161.432 13.2609 160.967 13.4578 161.089 14.5897C161.187 15.4755 161.163 16.386 161.089 17.2718C161.016 18.2315 161.334 18.5268 162.289 18.5268C167.679 18.4776 173.045 18.5514 178.435 18.4776C179.635 18.453 179.954 18.7975 179.905 19.9786C179.807 21.9718 179.831 23.965 179.905 25.9827C179.954 26.9916 179.66 27.3115 178.631 27.2869C173.241 27.2377 167.875 27.2869 162.485 27.2377C161.334 27.2131 161.016 27.6068 161.089 28.6895C161.163 29.7476 161.114 30.8057 161.114 31.8638C161.114 33.4141 161.114 33.4141 162.73 33.4141C168.88 33.4141 175.029 33.4387 181.179 33.3895C182.306 33.3895 182.551 33.734 182.502 34.7675C182.355 37.1544 182.673 39.5658 182.33 41.9527C182.257 42.0019 182.208 42.0512 182.134 42.1004C181.865 42.1004 181.62 42.1004 181.35 42.1004C181.277 42.1004 181.203 42.1004 181.154 42.1004C180.983 42.1004 180.787 42.1004 180.615 42.1004C180.199 41.8543 179.733 41.9773 179.292 41.9773C171.281 41.9773 163.269 41.9773 155.258 41.9773C154.107 41.9773 152.955 41.5836 151.828 42.1004C151.559 42.1004 151.289 42.1004 151.044 42.1004C150.971 42.0019 150.922 41.9773 150.848 41.9527ZM152 5.43585C151.975 5.18978 151.902 4.96832 151.583 4.99292C151.534 4.99292 151.436 5.09135 151.436 5.11596C151.534 5.41124 151.779 5.41124 152 5.43585C152 5.50967 152 5.58349 152 5.65732C151.975 5.85417 151.926 6.05103 151.926 6.27249C151.926 17.5425 151.926 28.7879 151.902 40.058C151.902 40.9438 152.294 41.0423 153.004 41.0423C156.312 41.0177 159.595 41.0177 162.902 41.0177C168.659 41.0177 174.392 40.9931 180.15 41.0423C181.105 41.0423 181.448 40.7962 181.375 39.8119C181.277 38.5077 181.277 37.2036 181.375 35.8994C181.448 34.8413 181.13 34.5214 180.052 34.5214C173.78 34.5706 167.508 34.546 161.212 34.5706C160.33 34.5706 159.987 34.3491 160.036 33.4141C160.109 31.4209 160.109 29.4031 160.036 27.41C159.987 26.3765 160.305 26.1058 161.334 26.1304C166.724 26.1796 172.089 26.1304 177.479 26.1796C178.508 26.1796 178.827 25.8597 178.778 24.8508C178.704 23.5959 178.68 22.3163 178.778 21.0613C178.851 19.954 178.533 19.6095 177.381 19.6341C171.991 19.7079 166.626 19.6341 161.236 19.6833C160.33 19.6833 160.011 19.4619 160.06 18.5268C160.134 16.7305 160.109 14.9342 160.06 13.1379C160.036 12.3012 160.354 12.1044 161.114 12.1044C164.788 12.129 168.439 12.129 172.114 12.129C174.515 12.129 176.916 12.129 179.317 12.129C179.831 12.129 180.321 12.1536 180.272 11.3908C180.199 9.47141 180.395 7.55206 180.174 5.65732C180.174 5.58349 180.174 5.53428 180.174 5.46046C180.468 5.41124 180.787 5.38664 180.958 4.99292C180.542 4.94371 180.223 4.94371 180.174 5.43585C179.464 4.74685 178.851 5.18978 178.239 5.6081C174.539 5.63271 170.84 5.65732 167.14 5.65732C162.583 5.65732 158.027 5.63271 153.494 5.6081C153.053 4.94371 152.563 4.82068 152 5.43585Z" fill="#CE23E5"/>
<path d="M90.381 23.2752C90.381 17.4433 90.4055 11.6114 90.3565 5.75496C90.3565 4.81989 90.577 4.5 91.557 4.5C100.107 4.54921 108.682 4.52461 117.233 4.5C118.139 4.5 118.433 4.72146 118.409 5.65653C118.335 7.77274 118.335 9.91355 118.409 12.0298C118.433 12.9894 118.164 13.2847 117.184 13.2847C112.137 13.2355 107.065 13.2847 102.018 13.2355C100.965 13.2355 100.671 13.5554 100.744 14.5397C100.818 15.5486 100.842 16.5821 100.744 17.591C100.622 18.7967 101.136 18.9936 102.19 18.969C106.722 18.9197 111.23 18.969 115.763 18.9197C116.718 18.9197 117.061 19.1166 117.012 20.1255C116.939 22.2909 116.939 24.4563 117.012 26.6217C117.037 27.5322 116.767 27.8029 115.836 27.8029C111.23 27.7537 106.624 27.8275 102.018 27.7537C100.989 27.7537 100.72 28.0736 100.72 29.0825C100.769 33.0442 100.72 37.0059 100.769 40.9677C100.769 41.8781 100.524 42.1488 99.593 42.1488C96.8735 42.0996 94.1295 42.0996 91.41 42.1488C90.528 42.1734 90.332 41.8535 90.332 41.0169C90.381 35.1112 90.381 29.2055 90.381 23.2752ZM91.5325 23.2506C91.5325 28.8118 91.557 34.3484 91.508 39.9096C91.508 40.7462 91.704 41.0661 92.586 41.0415C94.5705 40.9923 96.5795 40.9677 98.5885 41.0415C99.4705 41.0661 99.691 40.7708 99.6665 39.9342C99.6175 35.9232 99.691 31.9369 99.6175 27.9259C99.593 26.9416 99.838 26.5971 100.891 26.6217C105.497 26.671 110.103 26.6217 114.709 26.671C115.64 26.671 115.91 26.3757 115.885 25.4898C115.812 24.1364 115.812 22.783 115.885 21.4543C115.959 20.4208 115.591 20.1501 114.587 20.1747C110.03 20.2239 105.448 20.1747 100.891 20.2239C99.838 20.2485 99.593 19.904 99.6175 18.9197C99.691 17.0742 99.691 15.2533 99.6175 13.4078C99.5685 12.3497 99.9605 12.1282 100.94 12.1282C105.987 12.1774 111.059 12.1282 116.106 12.1774C117.037 12.1774 117.306 11.9067 117.257 10.9963C117.184 9.64288 117.184 8.28949 117.257 6.96071C117.306 6.00103 117.012 5.70575 116.032 5.70575C108.241 5.75496 100.45 5.73035 92.6595 5.70575C91.7285 5.70575 91.4835 5.97642 91.508 6.88689C91.557 12.3004 91.5325 17.7632 91.5325 23.2506Z" fill="#CF29E7"/>
<path d="M121.153 23.2982C121.153 17.5155 121.177 11.7083 121.128 5.92559C121.104 4.76906 121.471 4.49838 122.574 4.52299C125.146 4.59681 127.719 4.59681 130.267 4.52299C131.271 4.49838 131.565 4.76906 131.565 5.80256C131.516 14.4889 131.565 23.1751 131.516 31.8614C131.516 33.1164 131.859 33.4363 133.084 33.4117C137.641 33.3379 142.222 33.4117 146.779 33.3625C147.686 33.3625 148.078 33.5347 148.053 34.5682C147.98 36.7582 148.004 38.9729 148.053 41.1875C148.078 41.9503 147.808 42.1718 147.073 42.1718C138.768 42.1472 130.438 42.1472 122.133 42.1718C121.104 42.1718 121.177 41.6058 121.177 40.9168C121.153 35.0357 121.153 29.1793 121.153 23.2982ZM122.28 23.3228C122.28 28.8348 122.28 34.3467 122.28 39.8341C122.28 40.4739 122.231 41.0153 123.186 41.0153C130.806 40.9907 138.425 40.9907 146.044 41.0153C146.681 41.0153 146.902 40.7938 146.877 40.154C146.853 38.6776 146.804 37.2258 146.877 35.7494C146.926 34.7897 146.632 34.4944 145.652 34.519C141.169 34.5682 136.685 34.5436 132.202 34.5436C130.144 34.5436 130.414 34.7651 130.414 32.6981C130.414 24.1348 130.389 15.5716 130.438 7.0083C130.438 5.90099 130.12 5.6057 129.066 5.65491C127.229 5.72874 125.391 5.75334 123.578 5.65491C122.451 5.58109 122.231 6.02402 122.255 7.05752C122.304 12.4711 122.28 17.8846 122.28 23.3228Z" fill="#CF25E6"/>
<path d="M123.431 58.2163C124.24 57.2813 124.975 56.3708 125.783 55.5342C126.249 55.042 126.151 54.7467 125.661 54.3776C124.95 53.8609 124.264 53.2949 123.26 52.5075C124.289 52.6305 125.048 52.1138 125.612 52.8766C126.102 53.5164 126.763 53.8363 127.278 54.2546C128.086 53.8117 126.812 52.4829 128.258 52.5075C129.777 52.5321 128.405 53.8855 129.164 54.353C130.438 53.9347 131.051 51.7939 133.133 52.7043C132.668 53.0734 132.227 53.4179 131.81 53.7378C130.12 55.0912 130.071 54.6237 131.59 56.3954C132.104 57.0106 132.668 57.6011 133.207 58.1917C131.884 58.8561 131.32 57.9702 130.634 57.109C130.242 56.6415 129.899 55.7064 129.287 55.9033C128.601 56.1247 128.993 57.0598 128.993 57.675C128.993 58.2163 128.846 58.364 128.331 58.364C127.768 58.364 127.572 58.2163 127.596 57.6258C127.621 57.0106 127.988 56.1001 127.302 55.8786C126.763 55.6818 126.445 56.6169 126.028 57.0352C125.269 57.6996 124.877 58.8807 123.431 58.2163Z" fill="#5A5A5A"/>
<path d="M172.775 55.0914C172.628 56.2233 171.942 56.8385 170.937 57.1583C170.398 57.3306 169.663 57.2814 169.835 58.2411C169.933 58.7086 169.467 58.561 169.222 58.561C168.953 58.5363 168.414 58.7578 168.487 58.2411C168.61 57.3798 168.022 57.3552 167.507 57.183C166.478 56.8631 165.596 56.3217 165.596 55.116C165.572 53.8364 166.503 53.295 167.556 52.9259C167.973 52.7783 168.512 52.8521 168.487 52.0647C168.463 51.5479 169.075 51.8432 169.394 51.794C169.59 51.7694 169.982 51.6956 169.908 52.0647C169.712 52.8767 170.349 52.7783 170.766 52.9259C171.819 53.295 172.628 53.8856 172.775 55.0914ZM168.659 54.9929C168.242 54.673 169.002 53.8364 168.169 53.7872C167.532 53.7626 166.895 54.2301 166.895 55.0175C166.87 55.8296 167.458 56.3955 168.193 56.3463C168.953 56.2971 168.365 55.4851 168.659 54.9929ZM169.737 55.0914C170.031 55.4851 169.345 56.3217 170.227 56.3217C170.888 56.3217 171.476 55.805 171.452 55.0421C171.452 54.2793 170.815 53.7626 170.178 53.8118C169.369 53.861 170.031 54.673 169.737 55.0914Z" fill="#5A5A5A"/>
<path d="M150.823 6.66662C151.803 6.64201 151.509 7.38022 151.509 7.89697C151.534 14.6147 151.509 21.3324 151.509 28.0748C151.509 31.6674 151.509 35.2354 151.509 38.828C151.509 39.271 151.803 40.0092 150.848 39.9354C150.823 31.9135 150.774 23.867 150.774 15.845C150.75 12.7692 150.799 9.71789 150.823 6.66662Z" fill="#CF29E7"/>
<path d="M155.551 56.1969C156.531 55.1388 157.634 54.1545 158.467 52.9734C158.932 52.309 159.447 52.5059 159.937 52.5305C160.623 52.5551 160.255 53.1702 160.255 53.4901C160.304 54.8435 160.255 56.1723 160.28 57.5257C160.28 57.9932 160.402 58.3869 159.667 58.3869C158.981 58.3869 159.006 58.1163 159.03 57.5995C159.079 56.6398 159.055 55.6802 158.761 54.5482C157.732 55.6556 156.58 56.6891 155.723 57.9194C155.282 58.5592 154.841 58.3623 154.4 58.3377C153.689 58.3131 154.106 57.6979 154.106 57.4027C154.057 56.0985 154.081 54.7943 154.081 53.4901C154.081 53.0718 153.787 52.5059 154.669 52.5059C155.527 52.4813 155.282 52.998 155.257 53.4409C155.257 54.3268 155.257 55.2126 155.257 56.1231C155.355 56.1231 155.453 56.1477 155.551 56.1969Z" fill="#5A5A5A"/>
<path d="M70.8554 54.5517C69.8509 55.6591 68.7239 56.668 67.8665 57.8737C67.4255 58.5135 67.009 58.3412 66.5435 58.3166C65.8085 58.292 66.225 57.7015 66.225 57.3816C66.176 56.0036 66.2495 54.601 66.176 53.223C66.1515 52.6078 66.2985 52.4601 66.8865 52.4601C67.597 52.4355 67.3765 52.8046 67.3765 53.223C67.352 54.1826 67.3765 55.1423 67.3765 56.5203C68.6259 55.1423 69.7284 54.1334 70.5859 52.9523C71.0759 52.2879 71.5659 52.5094 72.0559 52.534C72.7664 52.5586 72.3744 53.1738 72.3744 53.4936C72.4234 54.8716 72.3499 56.2742 72.4234 57.6522C72.4479 58.292 72.2274 58.3658 71.6884 58.3904C70.9779 58.4151 71.1739 57.9967 71.1984 57.603C71.2229 56.6433 71.1984 55.6591 71.1984 54.6994C71.0759 54.6502 70.9779 54.601 70.8554 54.5517Z" fill="#5A5A5A"/>
<path d="M179.636 54.2283C178.362 55.6063 177.186 56.6398 176.328 57.8947C175.838 58.5837 175.348 58.3623 174.883 58.313C174.295 58.2392 174.711 57.7225 174.711 57.4272C174.662 56 174.736 54.5728 174.662 53.1456C174.613 52.5058 174.883 52.5058 175.348 52.5058C175.814 52.5058 175.961 52.6042 175.912 53.1209C175.838 54.1052 175.887 55.1141 175.887 56.4429C177.112 55.1141 178.239 54.1544 179.048 52.9733C179.513 52.3089 180.003 52.5058 180.493 52.5058C181.204 52.5304 180.812 53.1209 180.836 53.4654C180.885 54.8434 180.812 56.246 180.885 57.624C180.91 58.2638 180.689 58.3376 180.15 58.3623C179.513 58.3869 179.611 58.0916 179.636 57.6486C179.66 56.6398 179.636 55.6309 179.636 54.2283Z" fill="#5A5A5A"/>
<path d="M76.3416 56.1734C77.2726 55.1645 78.3261 54.2295 79.1101 53.0975C79.6246 52.3593 80.1881 52.4085 80.7516 52.5562C81.3395 52.7038 80.9966 53.319 80.9966 53.6881C81.0456 55.0415 80.9721 56.3949 81.0456 57.7237C81.0946 58.5111 80.6291 58.3142 80.2126 58.3634C79.5511 58.4373 79.8206 57.9943 79.8206 57.6991C79.8206 56.641 79.8206 55.6075 79.8206 54.2049C78.5466 55.5828 77.3706 56.6656 76.4886 57.9205C76.0476 58.5603 75.5821 58.3634 75.1411 58.3388C74.4306 58.2896 74.8716 57.6991 74.8716 57.3792C74.8226 56.0012 74.8716 54.5986 74.8226 53.2206C74.7981 52.7038 74.8716 52.4824 75.4351 52.4824C75.9986 52.4824 76.0966 52.6546 76.0476 53.196C75.9741 54.1556 76.0231 55.1153 76.0231 56.075C76.1211 56.0996 76.2436 56.1488 76.3416 56.1734Z" fill="#5A5A5A"/>
<path d="M60.786 58.3682C60.1735 58.3682 59.561 58.3436 58.9485 58.3682C58.483 58.3928 57.846 58.1467 57.944 59.1064C58.0175 59.7216 57.405 59.4263 57.111 59.4509C56.6455 59.5001 56.768 59.1802 56.7925 58.8849C56.817 58.1467 56.6455 57.4331 57.7235 57.1379C58.091 57.0394 58.287 56.2028 58.532 55.686C58.9485 54.7756 59.61 53.9389 59.7815 52.93C59.904 52.2164 60.394 52.5363 60.7125 52.5363C61.0065 52.5117 61.3495 52.3395 61.4965 52.9547C61.864 54.4065 62.648 55.7599 63.53 56.9164C64.0445 57.5808 64.8039 57.9499 64.6079 58.9588C64.5589 59.2048 64.6814 59.4755 64.3139 59.4509C64.0199 59.4509 63.432 59.5739 63.4565 59.2541C63.5545 57.8761 62.55 58.4666 61.962 58.3682C61.619 58.2944 61.2025 58.3682 60.786 58.3682ZM58.973 57.3347C60.1245 57.3347 61.08 57.3347 62.1335 57.3347C61.7415 56.1536 61.178 55.1201 60.541 53.9389C60.002 55.1201 59.512 56.1536 58.973 57.3347Z" fill="#5A5A5A"/>
<path d="M14.9712 54.6242C14.9712 55.1163 14.9712 55.51 14.9712 56.0022C14.2852 55.7807 13.5992 55.8545 12.8887 55.8299C12.3987 55.8053 12.1292 55.9776 12.1537 56.5189C12.1537 57.0357 12.3497 57.2571 12.8887 57.2571C13.8687 57.2325 14.8487 57.2817 15.8287 57.2079C16.2942 57.1833 16.4901 57.2079 16.4901 57.7247C16.4901 58.1676 16.3922 58.3644 15.8777 58.3644C14.4077 58.3152 12.9377 58.3398 11.4677 58.3644C11.0022 58.3644 10.8552 58.2414 10.8552 57.7493C10.8797 56.199 10.9042 54.6488 10.8552 53.0985C10.8307 52.5572 11.0757 52.508 11.4922 52.508C12.9867 52.4834 14.5057 52.4834 16.0002 52.4095C16.5391 52.3849 16.3922 52.7048 16.3922 52.9509C16.4167 53.2462 16.4902 53.6153 15.9267 53.5907C14.9467 53.5415 13.9667 53.5415 12.9867 53.5415C12.5457 53.5415 12.1782 53.5661 12.1537 54.1566C12.1292 54.821 12.5212 54.8702 13.0112 54.8702C13.6727 54.821 14.3097 54.8949 14.9712 54.6242Z" fill="#5A5A5A"/>
<path d="M198.545 55.3381C198.643 54.526 198.129 53.2711 198.717 52.6805C199.329 52.0899 200.579 52.5575 201.534 52.5083C202.146 52.4837 202.759 52.5575 203.371 52.4591C203.861 52.3852 204.106 52.3606 204.082 52.9758C204.082 53.591 203.837 53.5664 203.347 53.5418C202.416 53.4679 201.485 53.5418 200.53 53.5172C200.064 53.5172 199.893 53.714 199.868 54.1815C199.868 54.6491 200.04 54.8705 200.505 54.8459C200.946 54.8459 201.411 54.8952 201.852 54.8213C202.269 54.7721 202.661 54.4768 202.685 55.2889C202.685 56.1009 202.293 55.904 201.803 55.8548C201.362 55.8056 200.897 55.8548 200.456 55.8302C199.942 55.8056 199.844 56.1009 199.868 56.5192C199.868 56.9375 199.942 57.2574 200.456 57.2328C201.485 57.2082 202.489 57.2574 203.518 57.1836C203.935 57.159 204.155 57.159 204.131 57.6265C204.106 57.971 204.204 58.3647 203.616 58.3401C202.122 58.2909 200.603 58.3155 199.084 58.3155C198.545 58.3155 198.521 58.0695 198.545 57.6265C198.57 56.9621 198.545 56.2239 198.545 55.3381Z" fill="#5A5A5A"/>
<path d="M147.049 58.2661C147.049 57.0111 147.049 55.7808 147.049 54.2305C145.824 55.5593 144.648 56.6174 143.742 57.8724C143.301 58.4875 142.86 58.3399 142.419 58.3153C141.684 58.2661 142.149 57.6755 142.125 57.3802C142.076 56.0022 142.149 54.5996 142.076 53.2216C142.051 52.5818 142.247 52.508 142.811 52.4834C143.546 52.4588 143.276 52.9017 143.276 53.2708C143.252 54.2305 143.276 55.1902 143.546 56.2483C144.55 55.141 145.653 54.1075 146.535 52.9263C147.025 52.2865 147.539 52.5326 148.029 52.5818C148.593 52.631 148.274 53.1724 148.274 53.4923C148.323 54.7226 148.225 55.953 148.323 57.1587C148.397 58.2415 148.078 58.6352 147.049 58.2661Z" fill="#5A5A5A"/>
<path d="M196.17 55.4845C196.17 56.1243 196.146 56.7887 196.17 57.4284C196.219 58.019 196.219 58.3635 195.411 58.3881C194.504 58.4127 194.847 57.8714 194.847 57.4777C194.896 55.8782 194.896 55.8782 193.353 55.8782C193.157 55.8782 192.936 55.9028 192.74 55.8782C191.662 55.7059 191.148 56.0751 191.344 57.2316C191.368 57.4284 191.319 57.6499 191.368 57.8468C191.466 58.4619 191.001 58.3389 190.658 58.3635C190.29 58.3881 189.996 58.4127 190.021 57.7975C190.094 56.2965 190.094 54.7709 190.045 53.2699C190.021 52.7285 190.07 52.4824 190.707 52.4824C191.393 52.4824 191.368 52.8269 191.368 53.3191C191.393 53.8112 191.05 54.574 191.662 54.7217C192.642 54.9431 193.72 55.017 194.651 54.6478C195.092 54.4756 194.847 53.6636 194.798 53.1714C194.725 52.5562 194.994 52.507 195.484 52.507C195.974 52.507 196.219 52.5809 196.17 53.1714C196.121 53.9342 196.17 54.6971 196.17 55.4845Z" fill="#5A5A5A"/>
<path d="M115.982 58.2907C116.203 57.9708 116.399 57.6755 116.619 57.3802C117.207 56.6174 117.82 56.0515 116.521 55.2148C115.517 54.575 116.129 52.951 117.428 52.6557C118.824 52.3358 120.27 52.5819 121.691 52.5327C122.034 52.5327 121.985 52.6803 121.985 52.9756C121.936 54.6489 122.058 56.3221 121.936 57.9708C121.862 58.8567 121.054 58.1431 120.343 58.6106C120.735 57.8724 120.686 57.4049 120.662 56.9619C120.637 56.6174 120.907 56.0515 120.27 56.0023C119.78 55.953 119.192 55.7808 118.824 56.3221C118.579 56.6912 118.212 57.0357 118.089 57.4295C117.697 58.5614 116.889 58.4384 115.982 58.2907ZM119.192 55.141C119.363 55.141 119.51 55.141 119.682 55.141C120.245 55.1656 120.686 55.1656 120.686 54.3536C120.686 53.5169 120.294 53.4185 119.633 53.4677C119.314 53.4923 118.996 53.4431 118.653 53.4677C118.089 53.5169 117.379 53.4923 117.354 54.2305C117.33 55.0426 118.089 55.0672 118.702 55.1164C118.873 55.141 119.045 55.141 119.192 55.141Z" fill="#5A5A5A"/>
<path d="M135.831 54.7724C137.521 54.231 138.134 51.8687 140.363 52.5823C139.873 53.3698 139.04 53.7881 138.33 54.3294C137.791 54.7478 137.742 55.0677 138.232 55.5844C139.04 56.421 139.775 57.3315 140.633 58.3158C139.604 58.4142 138.722 58.5865 138.256 57.4545C138.109 57.11 137.742 56.8148 137.448 56.5441C137.154 56.2734 137.08 55.6336 136.443 55.9289C135.855 56.1996 135.855 56.7163 135.806 57.2577C135.757 57.6514 136.37 58.4388 135.243 58.3896C134.655 58.365 134.41 58.3404 134.483 57.6022C134.581 56.175 134.532 54.7478 134.508 53.3206C134.483 52.8284 134.434 52.5085 135.12 52.4839C135.855 52.4593 135.88 52.8038 135.831 53.3698C135.806 53.7881 135.831 54.2556 135.831 54.7724Z" fill="#5A5A5A"/>
<path d="M25.0912 55.4845C25.0912 54.7463 25.1402 54.0081 25.0667 53.2945C25.0177 52.7777 25.0422 52.4824 25.7282 52.4824C26.4142 52.4824 26.5612 52.7531 26.4387 53.3437C26.2182 54.451 26.7572 54.7709 27.7862 54.6478C28.3007 54.574 28.8397 54.6232 29.3542 54.6971C30.2607 54.7955 30.8732 55.263 30.9467 56.2473C31.0202 57.2808 30.6282 58.0436 29.5992 58.2651C28.2027 58.5604 26.7572 58.3389 25.3607 58.3881C25.0422 58.3881 25.0422 58.2651 25.0667 57.9452C25.1402 57.1332 25.0912 56.3211 25.0912 55.5091C25.0667 55.4845 25.0667 55.4845 25.0912 55.4845ZM27.8352 55.5829C27.4187 55.8782 26.6102 55.1154 26.4142 56.1735C26.1937 57.3792 26.9532 57.3792 27.7862 57.3054C28.5457 57.2316 29.6482 57.5269 29.6237 56.3457C29.5747 55.263 28.4967 55.7798 27.8352 55.5829Z" fill="#5A5A5A"/>
<path d="M88.3238 58.3155C87.7358 58.3155 87.2214 58.3155 86.8539 58.3155C86.8784 56.3716 86.9764 54.4768 86.7559 52.5083C88.0543 52.5083 89.4018 52.459 90.7493 52.5329C92.0233 52.5821 92.6113 53.2219 92.5868 54.3292C92.5623 55.5595 91.7538 55.8794 90.7248 55.9532C90.4798 55.9779 90.2348 55.9779 89.9898 55.9779C87.9074 55.9779 87.8583 56.0271 88.3238 58.3155ZM89.5978 54.9444C89.8918 54.9444 90.1123 54.9444 90.3083 54.9444C90.8228 54.9444 91.3373 54.9197 91.3373 54.2061C91.3128 53.5664 90.7983 53.5664 90.3573 53.5664C89.8183 53.5418 89.3038 53.5664 88.7648 53.5664C88.2749 53.5418 88.1524 53.8124 88.1524 54.2554C88.1769 55.5349 89.2058 54.6491 89.5978 54.9444Z" fill="#5A5A5A"/>
<path d="M8.72368 53.0755C8.45418 53.8384 8.20919 54.3059 7.20469 53.7399C6.0287 53.1002 4.55871 53.4447 3.94622 54.2813C3.43172 54.9703 3.43172 55.7331 3.89722 56.4467C4.48522 57.3326 5.8327 57.5786 7.13119 57.1111C7.40069 57.0127 7.67019 56.8896 7.86619 56.7174C8.25818 56.3483 8.40518 56.6436 8.60118 56.9142C8.84618 57.2341 8.84618 57.4556 8.42968 57.6525C7.05769 58.3661 5.66121 58.6121 4.19122 58.0708C3.06423 57.6525 2.37823 56.8158 2.32923 55.5855C2.28023 54.3305 2.81923 53.3708 3.97072 52.8295C5.63671 52.0913 7.18019 52.4604 8.72368 53.0755Z" fill="#5A5A5A"/>
<path d="M208.935 52.4355C209.792 52.4602 210.478 52.5586 211.115 52.8539C211.36 52.9769 212.022 52.9031 211.581 53.4937C211.385 53.7643 211.336 54.4041 210.625 53.912C209.866 53.3952 208.959 53.3214 208.053 53.5921C207.146 53.8628 206.705 54.4779 206.705 55.3884C206.705 56.2496 207.122 56.8402 207.93 57.1601C208.959 57.5538 209.988 57.4062 210.846 56.791C211.336 56.4465 211.483 56.5449 211.752 56.9632C212.095 57.5046 211.703 57.5538 211.385 57.7261C210.38 58.2428 209.327 58.4889 208.2 58.3166C206.534 58.0706 205.407 56.914 205.407 55.4376C205.382 53.9858 206.509 52.78 208.151 52.4848C208.445 52.4355 208.788 52.4355 208.935 52.4355Z" fill="#5A5A5A"/>
<path d="M107.337 53.0974C106.969 53.7126 106.896 54.3524 105.94 53.7864C104.764 53.0728 103.196 53.4173 102.584 54.3031C102.069 55.0414 102.069 55.8534 102.608 56.567C103.319 57.4775 104.985 57.6743 106.21 56.9607C106.626 56.7146 106.92 56.2471 107.288 57.0099C107.68 57.7974 106.945 57.6989 106.651 57.8466C105.45 58.4863 104.152 58.5848 102.878 58.0926C101.702 57.6497 100.991 56.8131 100.942 55.5335C100.893 54.3278 101.457 53.4419 102.535 52.8759C103.809 52.2362 105.132 52.2854 107.337 53.0974Z" fill="#5A5A5A"/>
<path d="M41.6782 53.0966C41.3353 53.7363 41.2373 54.3761 40.2328 53.761C39.1058 53.072 37.6113 53.4165 36.9743 54.2285C36.4108 54.9421 36.3618 55.7295 36.9008 56.4923C37.5133 57.3536 38.8363 57.5997 40.1593 57.1321C40.2818 57.0829 40.3798 57.0583 40.5023 57.0091C40.8943 56.8368 41.2863 56.0986 41.6782 57.0337C42.0212 57.8703 41.2128 57.7473 40.8698 57.9195C39.6938 58.5101 38.4198 58.5839 37.1948 58.0918C36.0923 57.6489 35.3818 56.8614 35.3328 55.6065C35.2593 54.3761 35.7983 53.4657 36.8763 52.9243C38.4443 52.0877 40.0368 52.4076 41.6782 53.0966Z" fill="#5A5A5A"/>
<path d="M99.9351 58.316C99.0531 58.3898 98.3181 58.6113 97.9506 57.4056C97.6321 56.3967 96.5296 57.0611 95.7946 56.9134C95.3046 56.815 94.8391 57.0118 94.7901 57.5286C94.6676 58.5375 94.0796 58.4883 93.3691 58.2668C94.0551 56.3721 95.2556 54.6742 95.7946 52.7056C95.9171 52.2873 96.3581 52.5334 96.6276 52.5087C96.8726 52.4841 97.1666 52.3365 97.3136 52.7794C97.8771 54.7234 99.0531 56.3967 99.9351 58.316ZM96.4561 54.059C96.0886 54.8464 95.6231 55.3386 95.5986 56.1752C96.1621 56.003 96.8726 56.3967 97.1176 55.9291C97.3871 55.3632 96.7991 54.8218 96.4561 54.059Z" fill="#5A5A5A"/>
<path d="M219.743 58.2896C218.812 58.3881 218.126 58.5603 217.758 57.4038C217.44 56.3703 216.337 57.0347 215.602 56.887C215.113 56.7886 214.671 56.9609 214.598 57.5022C214.475 58.4127 213.961 58.4865 213.104 58.2404C213.863 56.6656 214.574 55.0907 215.382 53.5651C215.578 53.196 215.21 52.5316 215.872 52.507C216.386 52.4824 216.876 52.2609 217.195 53.196C217.856 54.9431 218.861 56.5425 219.743 58.2896ZM217.072 56.0258C216.95 55.3368 216.631 54.7708 216.141 54.0326C215.97 54.8693 215.431 55.3368 215.431 56.0504C215.97 56.1242 216.484 56.1488 217.072 56.0258Z" fill="#5A5A5A"/>
<path d="M111.868 52.4848C112.603 52.4848 113.338 52.534 114.073 52.4602C114.49 52.4109 114.759 52.3125 114.759 52.9031C114.759 53.4198 114.735 53.6905 114.049 53.6413C112.187 53.5429 112.432 53.4444 112.407 55.2161C112.407 55.979 112.358 56.7664 112.432 57.5292C112.481 58.0952 112.481 58.3905 111.746 58.3658C111.109 58.3412 111.035 58.1444 111.084 57.5784C111.158 56.7172 111.011 55.8559 111.133 55.0193C111.28 53.7889 110.79 53.3706 109.639 53.5921C109.075 53.6905 108.683 53.6413 108.757 52.9031C108.806 52.5094 108.83 52.3863 109.32 52.4355C110.153 52.534 111.011 52.4848 111.868 52.4848Z" fill="#5A5A5A"/>
<path d="M19.8696 56.0767C19.8696 55.8306 19.8696 55.5846 19.8696 55.3385C19.8696 53.6652 19.8696 53.5914 18.1546 53.6406C17.4196 53.6652 17.6156 53.2715 17.5666 52.9024C17.4931 52.2872 17.8361 52.4595 18.2281 52.4841C19.7716 52.5333 21.3151 52.5333 22.8586 52.4841C23.2751 52.4595 23.5446 52.3856 23.5201 52.9516C23.4956 53.3945 23.4956 53.6652 22.8831 53.6406C21.1926 53.616 21.1926 53.6652 21.1926 55.4123C21.1926 56.1013 21.1681 56.7903 21.1926 57.4793C21.2171 57.9468 21.3396 58.3898 20.5556 58.3898C19.8206 58.3898 19.8451 58.0699 19.8941 57.5531C19.8941 57.061 19.8696 56.5688 19.8696 56.0767Z" fill="#5A5A5A"/>
<path d="M185.342 52.4824C186.151 52.4824 186.959 52.5316 187.768 52.4578C188.135 52.4332 188.478 52.2363 188.429 52.8761C188.405 53.319 188.503 53.6882 187.743 53.6389C185.759 53.5405 186.077 53.4913 186.053 55.2876C186.053 56.0996 185.979 56.9363 186.077 57.7237C186.175 58.3881 185.832 58.3389 185.416 58.3635C184.901 58.3881 184.705 58.2651 184.754 57.6991C184.828 56.764 184.681 55.829 184.803 54.8939C184.95 53.7374 184.436 53.4913 183.431 53.5897C183.015 53.6389 182.378 53.9342 182.451 53.0238C182.476 52.63 182.427 52.3594 183.039 52.4578C183.774 52.5562 184.558 52.4824 185.342 52.4824Z" fill="#5A5A5A"/>
<path d="M56.1297 52.6076C55.1252 54.4777 53.8267 56.2002 52.9202 58.1441C52.6507 58.7347 51.9157 58.2918 51.1073 58.3902C52.8467 57.0122 52.2342 55.8311 51.2543 54.6499C50.7398 54.0348 50.3233 53.3458 49.7598 52.5583C50.7398 52.4845 51.6217 52.1646 52.0137 53.4934C52.1852 54.1086 52.7487 54.6253 53.1897 55.2897C53.6062 54.6253 54.0717 54.1332 54.2432 53.5426C54.5617 52.5583 55.0762 52.1892 56.1297 52.6076Z" fill="#5A5A5A"/>
<path d="M48.9283 52.3848C49.1978 53.2952 49.0263 53.812 47.9483 53.5905C47.0418 53.4183 46.6253 53.7628 46.7233 54.7716C46.8213 55.7313 46.6988 56.7156 46.7723 57.6999C46.8213 58.2905 46.5763 58.3643 46.0863 58.3643C45.5963 58.3643 45.3758 58.2659 45.4248 57.6999C45.4983 56.7648 45.3758 55.8298 45.4738 54.8947C45.5963 53.7382 45.1063 53.4429 44.1018 53.5905C43.5873 53.6643 42.9994 53.7874 43.1219 52.9015C43.1709 52.5078 43.1954 52.4094 43.6853 52.434C45.3758 52.5078 47.1153 52.5816 48.9283 52.3848Z" fill="#5A5A5A"/>
<path d="M151.801 42.0732C152.928 41.5565 154.104 41.9502 155.231 41.9502C163.242 41.9502 171.254 41.9502 179.265 41.9502C179.706 41.9502 180.172 41.8271 180.588 42.0732C180.098 42.0978 179.608 42.147 179.143 42.147C170.568 42.147 161.968 42.147 153.393 42.147C152.854 42.147 152.315 42.0978 151.801 42.0732Z" fill="#CF29E7"/>
<path d="M2.74609 42.1009C3.04009 41.8794 3.35859 41.9532 3.67709 41.9532C9.75304 41.9532 15.8045 41.9532 21.8804 41.9532C22.1989 41.9532 22.5419 41.8794 22.8114 42.1009C21.3414 42.1255 19.896 42.1993 18.426 42.1993C13.2075 42.1747 7.96455 42.1255 2.74609 42.1009Z" fill="#193DF2"/>
<path d="M77.8622 51.9684C77.2007 51.9192 76.5882 51.6731 76.2452 50.9595C76.1472 50.7872 76.0737 50.5658 76.2697 50.4181C76.4902 50.2459 76.6617 50.3935 76.7842 50.5412C77.5192 51.427 78.2542 51.4024 78.9892 50.5166C79.1362 50.3443 79.3322 50.2459 79.5037 50.4181C79.6752 50.5904 79.5772 50.8118 79.5037 50.9841C79.1852 51.6485 78.6462 51.9438 77.8622 51.9684Z" fill="#5A5A5A"/>
<path d="M181.154 42.0742C181.228 42.0742 181.301 42.0742 181.35 42.0742L181.252 42.1231L181.154 42.0742Z" fill="#CF29E7"/>
<path d="M182.133 42.0754C182.206 42.0262 182.255 41.9769 182.329 41.9277C182.304 42.0508 182.255 42.1246 182.133 42.0754Z" fill="#CF29E7"/>
<path d="M150.848 41.9531C150.921 41.9776 150.97 42.002 150.995 42.0753C150.897 42.1242 150.848 42.0509 150.848 41.9531Z" fill="#CF29E7"/>
<path d="M180.149 5.6564C179.488 5.6564 178.851 5.63179 178.189 5.63179C178.802 5.23808 179.414 4.77055 180.125 5.45955C180.149 5.50876 180.149 5.58258 180.149 5.6564Z" fill="#CF29E7"/>
<path d="M153.466 5.60942C152.976 5.63403 152.486 5.63403 151.996 5.65864C151.996 5.58482 151.996 5.51099 151.996 5.43717C152.56 4.822 153.05 4.94503 153.466 5.60942Z" fill="#CF29E7"/>
<path d="M180.148 5.436C180.197 4.91925 180.516 4.94386 180.932 4.99307C180.761 5.36218 180.442 5.41139 180.148 5.436Z" fill="#CF29E7"/>
<path d="M152 5.43487C151.779 5.41026 151.51 5.41026 151.461 5.11498C151.461 5.09037 151.559 4.99194 151.608 4.99194C151.926 4.96733 151.975 5.2134 152 5.43487Z" fill="#CF29E7"/>
<path d="M30.7244 24.7771C29.7934 23.9651 28.7399 23.3991 27.6865 22.8085C27.8335 22.4148 28.1765 22.3164 28.4214 22.1195C30.6754 20.151 32.0719 17.7641 31.9249 14.6636C31.6309 9.44691 27.221 4.99303 21.782 4.72235C17.029 4.50089 12.2516 4.62393 7.47412 4.62393C5.24464 4.62393 2.99066 4.67314 0.761177 4.69775C0.614178 4.72235 0.540679 4.82078 0.614178 4.96842C0.614178 5.11607 0.614178 5.28832 0.614178 5.43596C0.614178 5.53439 0.614178 5.60821 0.614178 5.70664C0.614178 17.4688 0.614178 29.2064 0.614178 40.9686C0.565179 41.3623 0.295681 41.7806 0.810177 42.0759C1.44717 42.0759 2.08417 42.1005 2.72116 42.1005C3.01516 41.879 3.33366 41.9528 3.65215 41.9528C9.7036 41.9528 15.7796 41.9528 21.8555 41.9528C22.174 41.9528 22.517 41.879 22.7865 42.1005C27.0005 42.0021 30.2589 40.1565 32.3904 36.5639C34.8159 32.5283 34.6444 28.1483 30.7244 24.7771ZM31.1164 36.4655C29.0584 39.4429 26.1675 40.9932 22.4925 41.0178C15.9266 41.0178 9.36061 41.0178 2.79466 41.0178C2.42716 41.0178 1.96167 41.19 1.69217 40.7225C1.66767 40.6733 1.61867 40.6241 1.59417 40.5748C1.61867 40.6241 1.64317 40.6733 1.69217 40.7225C1.71667 40.4026 1.76567 40.0827 1.76567 39.7628C1.76567 28.7635 1.76567 17.7641 1.76567 6.78935C1.76567 6.49406 1.71667 6.22338 1.69217 5.9281C1.98617 5.48517 2.42716 5.68203 2.81916 5.68203C8.69911 5.65742 14.5546 5.63282 20.4345 5.68203C24.036 5.70664 27.0005 7.13385 29.2054 10.0375C32.1944 13.9992 31.0184 19.4128 26.584 22.2426C26.241 22.464 25.8245 22.5379 25.555 23.0054C27.368 23.6944 28.9604 24.6787 30.3569 26.0075C33.8849 29.2802 33.3704 33.1927 31.1164 36.4655Z" fill="#2648F2"/>
<path d="M15.1916 34.5451C13.7216 34.5451 12.2517 34.5204 10.7817 34.5451C10.1447 34.5697 9.82617 34.422 9.82617 33.6838C9.87517 31.1985 9.85067 28.7132 9.82617 26.2033C9.82617 25.5389 10.0712 25.3666 10.6837 25.3666C13.6726 25.3912 16.6371 25.3174 19.6261 25.3912C22.3946 25.4651 24.2811 27.3598 24.2811 29.8943C24.2811 32.5027 22.3701 34.3974 19.6016 34.5204C18.1316 34.5697 16.6616 34.5204 15.1916 34.5451ZM15.7061 33.4131C15.7061 33.3885 15.7061 33.3885 15.7061 33.4131C17.0536 33.3885 18.4011 33.4377 19.7486 33.3885C21.7331 33.3147 23.1786 31.8137 23.1786 29.9435C23.1786 28.1964 21.6596 26.5724 19.8221 26.5232C17.1271 26.4493 14.4321 26.5232 11.7372 26.4739C11.1492 26.4739 10.9532 26.6954 10.9777 27.2614C11.0022 29.0085 11.0267 30.7802 10.9777 32.5273C10.9532 33.2655 11.2717 33.4131 11.9332 33.3885C13.1826 33.3885 14.4566 33.4131 15.7061 33.4131Z" fill="#2648F2"/>
<path d="M14.8249 19.928C13.4284 19.928 12.0564 19.9034 10.6844 19.928C10.0474 19.9526 9.82693 19.7311 9.85143 19.0914C9.87593 17.049 9.87593 15.0066 9.85143 12.9888C9.85143 12.3982 9.97393 12.103 10.6599 12.103C13.3549 12.1276 16.0254 12.0537 18.7204 12.1276C21.0968 12.2014 22.7628 13.9239 22.7138 16.0401C22.6648 18.2301 20.8763 19.8788 18.5244 19.9034C17.2749 19.9526 16.0499 19.928 14.8249 19.928ZM15.3394 13.2595C14.1634 13.2595 12.9874 13.2595 11.7869 13.2595C11.3459 13.2595 10.9784 13.2595 10.9784 13.8747C11.0029 15.3511 10.9784 16.8029 10.9784 18.2793C10.9784 18.6976 11.1744 18.8453 11.5909 18.8453C14.0409 18.8207 16.4664 18.9191 18.9164 18.7715C20.5823 18.673 21.6848 17.295 21.5623 15.8186C21.4398 14.3176 20.2393 13.3087 18.4999 13.2595C17.4464 13.2349 16.3929 13.2595 15.3394 13.2595Z" fill="#2648F2"/>
</svg>
