<svg width="656" height="944" viewBox="0 0 656 944" fill="none" xmlns="http://www.w3.org/2000/svg">
<path d="M52.8569 306.061C52.8569 354.997 85.3432 394.655 125.429 394.655C165.515 394.655 198.001 354.997 198.001 306.061L52.8569 306.061Z" fill="#C4FF63"/>
<path d="M125.429 483.251C165.515 483.251 198.001 443.592 198.001 394.656L52.8569 394.656C52.8569 443.592 85.3432 483.251 125.429 483.251Z" fill="#C4FF63"/>
<path d="M588.608 193.303C589.19 183.011 575.594 182.105 563.296 182.781C575.207 179.074 588.341 173.348 583.986 163.684C579.503 153.579 565.49 160.416 554.56 167.213C563.351 157.811 572.763 145.563 563.815 139.126C554.782 132.68 546.235 145.698 540.158 157.076C543.285 144.382 545.829 128.039 534.562 126.934C522.702 125.77 522.558 143.803 523.134 157.117C519.417 144.436 513.458 128.456 502.896 133.236C492.868 137.812 499.721 151.656 506.518 162.586C497.108 153.88 484.698 144.366 478.338 153.407C472.188 162.042 483.96 170.21 494.923 176.16C483.084 173.032 469.571 171.279 468.142 181.488C466.705 191.782 480.363 193.805 492.645 194.155C480.912 197.794 468.294 203.484 472.573 213.055C477.056 223.16 491.069 216.324 501.999 209.527C493.208 218.928 483.796 231.177 492.744 237.614C501.777 244.059 510.324 231.042 516.401 219.663C513.359 232.366 510.722 248.785 522.074 249.899C533.934 251.062 534.077 233.029 533.502 219.716C537.219 232.397 543.178 248.377 553.739 243.596C563.768 239.02 556.914 225.177 550.118 214.246C559.527 222.952 571.937 232.466 578.298 223.425C584.346 214.952 573.083 206.834 562.196 200.976C574.227 203.012 588.018 203.68 588.608 193.303Z" fill="#FF92E0"/>
<path d="M514 943.263C532.786 943.263 549.301 919.116 558.666 882.814C567.974 919.116 584.489 943.263 603.332 943.263C632.39 943.263 656 885.466 656 814.131C656 742.797 632.39 685 603.275 685C584.489 685 567.974 709.147 558.609 745.449C549.301 709.147 532.786 685 514 685C495.214 685 478.699 709.147 469.334 745.449C460.026 709.147 443.511 685 424.725 685C395.61 685 372 742.797 372 814.131C372 885.466 395.61 943.263 424.725 943.263C443.511 943.263 460.026 919.116 469.391 882.814C478.699 919.172 495.214 943.263 514 943.263Z" fill="#C4FF63"/>
<path d="M189.106 834.995C189.975 819.623 169.668 818.27 151.3 819.279C169.09 813.742 188.708 805.19 182.203 790.755C175.508 775.662 154.577 785.873 138.251 796.025C151.381 781.983 165.44 763.688 152.075 754.073C138.583 744.446 125.817 763.89 116.74 780.885C121.41 761.925 125.21 737.513 108.381 735.863C90.6659 734.125 90.4514 761.06 91.3116 780.946C85.7597 762.005 76.8585 738.136 61.0834 745.276C46.1048 752.111 56.3409 772.789 66.4929 789.115C52.438 776.111 33.9024 761.901 24.4017 775.405C15.2162 788.302 32.7992 800.502 49.174 809.39C31.4915 804.717 11.3079 802.099 9.17356 817.347C7.02678 832.723 27.4262 835.745 45.7713 836.267C28.2472 841.703 9.40046 850.202 15.7912 864.498C22.487 879.591 43.4179 869.38 59.7439 859.228C46.6134 873.27 32.5548 891.565 45.92 901.18C59.4118 910.807 72.1778 891.363 81.2543 874.368C76.7107 893.341 72.7721 917.866 89.7279 919.53C107.443 921.267 107.657 894.332 106.797 874.446C112.349 893.387 121.25 917.256 137.025 910.116C152.004 903.281 141.768 882.603 131.616 866.277C145.671 879.281 164.206 893.491 173.707 879.987C182.741 867.331 165.917 855.205 149.657 846.456C167.627 849.497 188.225 850.495 189.106 834.995Z" fill="#FF92E0"/>
</svg>
