<svg width="562" height="562" viewBox="0 0 562 562" fill="none" xmlns="http://www.w3.org/2000/svg">
<path d="M0 526.188L562 526.187" stroke="#FFE7F8" stroke-width="2" stroke-miterlimit="10"/>
<path d="M0 491.162L562 491.162" stroke="#FFE7F8" stroke-width="2" stroke-miterlimit="10"/>
<path d="M0 456.137L562 456.137" stroke="#FFE7F8" stroke-width="2" stroke-miterlimit="10"/>
<path d="M0 421.111L562 421.111" stroke="#FFE7F8" stroke-width="2" stroke-miterlimit="10"/>
<path d="M0 386.086L562 386.086" stroke="#FFE7F8" stroke-width="2" stroke-miterlimit="10"/>
<path d="M0 351.061L562 351.061" stroke="#FFE7F8" stroke-width="2" stroke-miterlimit="10"/>
<path d="M0 316.035L562 316.035" stroke="#FFE7F8" stroke-width="2" stroke-miterlimit="10"/>
<path d="M0 281.01L562 281.01" stroke="#FFE7F8" stroke-width="2" stroke-miterlimit="10"/>
<path d="M0 245.984L562 245.984" stroke="#FFE7F8" stroke-width="2" stroke-miterlimit="10"/>
<path d="M0 210.941L562 210.941" stroke="#FFE7F8" stroke-width="2" stroke-miterlimit="10"/>
<path d="M0 175.916L562 175.916" stroke="#FFE7F8" stroke-width="2" stroke-miterlimit="10"/>
<path d="M0 140.891L562 140.891" stroke="#FFE7F8" stroke-width="2" stroke-miterlimit="10"/>
<path d="M0 105.865L562 105.865" stroke="#FFE7F8" stroke-width="2" stroke-miterlimit="10"/>
<path d="M0 70.8398L562 70.8398" stroke="#FFE7F8" stroke-width="2" stroke-miterlimit="10"/>
<path d="M0 35.8145L562 35.8144" stroke="#FFE7F8" stroke-width="2" stroke-miterlimit="10"/>
<path d="M35.8135 -4.68642e-06L35.8135 562" stroke="#FFE7F8" stroke-width="2" stroke-miterlimit="10"/>
<path d="M70.8388 -4.68642e-06L70.8389 562" stroke="#FFE7F8" stroke-width="2" stroke-miterlimit="10"/>
<path d="M105.864 -4.68642e-06L105.864 562" stroke="#FFE7F8" stroke-width="2" stroke-miterlimit="10"/>
<path d="M140.89 -4.68642e-06L140.89 562" stroke="#FFE7F8" stroke-width="2" stroke-miterlimit="10"/>
<path d="M175.915 -4.68642e-06L175.915 562" stroke="#FFE7F8" stroke-width="2" stroke-miterlimit="10"/>
<path d="M210.94 -4.68642e-06L210.94 562" stroke="#FFE7F8" stroke-width="2" stroke-miterlimit="10"/>
<path d="M245.966 -4.68642e-06L245.966 562" stroke="#FFE7F8" stroke-width="2" stroke-miterlimit="10"/>
<path d="M280.991 -4.68642e-06L280.991 562" stroke="#FFE7F8" stroke-width="2" stroke-miterlimit="10"/>
<path d="M316.017 -4.68642e-06L316.017 562" stroke="#FFE7F8" stroke-width="2" stroke-miterlimit="10"/>
<path d="M351.06 -4.68642e-06L351.06 562" stroke="#FFE7F8" stroke-width="2" stroke-miterlimit="10"/>
<path d="M386.085 -4.68642e-06L386.085 562" stroke="#FFE7F8" stroke-width="2" stroke-miterlimit="10"/>
<path d="M421.11 -4.68642e-06L421.11 562" stroke="#FFE7F8" stroke-width="2" stroke-miterlimit="10"/>
<path d="M456.136 -4.68642e-06L456.136 562" stroke="#FFE7F8" stroke-width="2" stroke-miterlimit="10"/>
<path d="M491.161 -4.68642e-06L491.161 562" stroke="#FFE7F8" stroke-width="2" stroke-miterlimit="10"/>
<path d="M526.186 -4.68642e-06L526.187 562" stroke="#FFE7F8" stroke-width="2" stroke-miterlimit="10"/>
</svg>
