<svg width="1307" height="5967" viewBox="0 0 1307 5967" fill="none" xmlns="http://www.w3.org/2000/svg">
<path d="M551 3806C551 3849.14 515.412 3884.11 471.5 3884.11C427.588 3884.11 392 3849.14 392 3806H551Z" fill="#D1FF87"/>
<path d="M471.5 3962.22C427.588 3962.22 392 3927.25 392 3884.11H551C551 3927.25 515.412 3962.22 471.5 3962.22Z" fill="#D1FF87"/>
<path d="M1307 1444.45C1119.2 1444.45 967 1298.42 967 1118.23C967 938.033 1119.2 792 1307 792L1307 1444.45Z" fill="#C4FF63"/>
<path d="M627 1118.23C627 938.033 779.198 792 967 792L967 1444.45C779.198 1444.45 627 1298.42 627 1118.23Z" fill="#C4FF63"/>
<path d="M680 5966.45C492.198 5966.45 340 5820.42 340 5640.23C340 5460.03 492.198 5314 680 5314L680 5966.45Z" fill="#C4FF63"/>
<path d="M-0.000148632 5640.23C-0.000140519 5460.03 152.198 5314 340 5314L340 5966.45C152.198 5966.45 -0.000156744 5820.42 -0.000148632 5640.23Z" fill="#C4FF63"/>
<path d="M917.893 159C873.457 159 837.446 123.412 837.446 79.5C837.446 35.5875 873.457 -1.94233e-06 917.893 0L917.893 159Z" fill="#D2FB86"/>
<path d="M756.999 79.5C756.999 35.5875 793.01 -1.94233e-06 837.445 0L837.445 159C793.01 159 756.999 123.412 756.999 79.5Z" fill="#D2FB86"/>
<path d="M892 2723C903.377 2723 913.38 2708.41 919.051 2686.49C924.688 2708.41 934.691 2723 946.102 2723C963.701 2723 978 2688.09 978 2645C978 2601.91 963.701 2567 946.068 2567C934.691 2567 924.688 2581.59 919.017 2603.51C913.38 2581.59 903.377 2567 892 2567C880.623 2567 870.62 2581.59 864.949 2603.51C859.312 2581.59 849.309 2567 837.932 2567C820.299 2567 806 2601.91 806 2645C806 2688.09 820.299 2723 837.932 2723C849.309 2723 859.312 2708.41 864.983 2686.49C870.62 2708.45 880.623 2723 892 2723Z" fill="#FF92E0"/>
</svg>
