<svg width="561" height="521" viewBox="0 0 561 521" fill="none" xmlns="http://www.w3.org/2000/svg">
<path fill-rule="evenodd" clip-rule="evenodd" d="M409.459 103.948C434.119 141.188 417.716 193.604 440.904 231.776C469.62 279.049 544.144 292.757 556.838 346.562C569.135 398.687 544.672 461.34 502.97 494.859C460.877 528.693 398.987 512.586 345.091 516.761C307.205 519.696 270.385 522.785 233.021 515.772C197.68 509.138 167.479 490.895 134.228 477.182C90.1444 459.001 26.5585 464.252 5.00012 421.732C-16.1736 379.971 36.6496 334.655 38.2603 287.904C40.0664 235.476 -3.77126 183.936 14.8806 134.932C33.6408 85.6435 86.7359 58.069 134.369 35.3982C182.979 12.2626 237.749 -9.06674 290.05 3.96612C341.282 16.7326 380.306 59.9238 409.459 103.948Z" fill="#DCA8F5"/>
</svg>
