<svg width="1844" height="1240" viewBox="0 0 1844 1240" fill="none" xmlns="http://www.w3.org/2000/svg">
<path fill-rule="evenodd" clip-rule="evenodd" d="M1213.2 0H1289.92C1300.78 33.0745 1319.28 68.8176 1341.75 106.713C1354.04 127.446 1367.18 148.27 1380.5 169.291C1381.57 170.978 1382.64 172.667 1383.72 174.357C1395.9 193.57 1408.21 212.982 1419.67 231.999C1444.23 272.742 1467.11 315.182 1477.66 355.326C1488.46 396.444 1487.71 441.308 1456.2 478.785C1432.47 507.007 1403.57 523.562 1370.2 524.625C1338.64 525.631 1309.58 512.483 1284.75 495.867C1238.57 464.963 1191.51 411.012 1148.41 361.607C1146.03 358.874 1143.65 356.155 1141.3 353.455C1093.61 298.864 1050.49 250.917 1010.6 226.414C991.307 214.559 976.579 210.685 965.247 211.43C955.08 212.099 942.227 216.824 926.571 234.307C897.989 266.226 895.417 304.001 914.631 354.602C934.519 406.978 975.073 464.736 1021.26 526.276C1028.04 535.312 1034.95 544.44 1041.91 553.628L1041.91 553.631C1080.7 604.852 1120.9 657.932 1147.69 707.293C1178.39 763.876 1200.31 831.426 1162.57 890.546C1153.29 905.095 1140.9 917.538 1124.57 924.786C1107.98 932.143 1090.94 932.542 1075.38 929.139C1046.61 922.848 1019.21 902.741 995.42 881.543C962.136 851.885 924.389 808.965 886.549 765.936L886.544 765.931C869.674 746.749 852.786 727.545 836.266 709.486C808.537 679.174 781.069 651.071 754.228 628.258C727.126 605.224 702.492 589.18 680.636 581.12C659.573 573.352 643.055 573.607 628.572 580.105C613.178 587.012 594.185 603.617 574.323 640.345C552.659 680.404 550.794 724.59 563.837 773.031C577.071 822.185 605.236 873.776 640.859 925.027C676.32 976.045 717.745 1024.74 755.957 1068.42C762.022 1075.36 768.059 1082.22 774.008 1088.98C804.53 1123.68 832.738 1155.75 850.415 1180.98C862.297 1197.94 858.179 1221.33 841.217 1233.21C824.254 1245.09 800.87 1240.98 788.987 1224.01C773.92 1202.5 749.246 1174.43 718.604 1139.57C712.469 1132.59 706.094 1125.33 699.509 1117.81C661.074 1073.87 617.285 1022.52 579.274 967.832C541.425 913.378 507.861 853.61 491.416 792.53C474.779 730.737 475.285 665.814 508.352 604.669C532.69 559.663 562.064 527.742 597.871 511.677C634.59 495.202 672.109 498.038 706.586 510.753C740.271 523.175 772.683 545.514 802.799 571.11C833.175 596.928 863.099 627.703 891.604 658.864C910.978 680.042 929.432 701.041 947.056 721.096L947.057 721.098C983.003 762.002 1015.5 798.979 1045.31 825.547C1067.8 845.585 1082.86 854.002 1091.4 855.87C1092.99 856.218 1093.85 856.225 1094.22 856.189C1094.7 855.895 1096.58 854.54 1099.36 850.19C1112.97 828.859 1110.85 796.647 1081.77 743.067C1057.94 699.159 1021.9 651.516 982.922 599.991L982.917 599.983C975.782 590.551 968.548 580.989 961.274 571.296C915.855 510.777 868.726 444.984 844.515 381.226C819.631 315.691 816.546 244.749 870.698 184.275C896.409 155.562 926.476 138.817 960.328 136.592C993.015 134.443 1023.4 146.254 1049.86 162.512C1101.5 194.235 1152.46 252.231 1197.78 304.115L1200.8 307.577C1247.56 361.113 1288.81 408.338 1326.46 433.534C1345.23 446.093 1358.59 449.957 1367.81 449.664C1375.23 449.427 1385.47 446.371 1398.79 430.521C1408.79 418.634 1412.46 402.335 1405.12 374.388C1397.52 345.467 1379.68 310.939 1355.43 270.712C1344.44 252.468 1332.58 233.771 1320.3 214.404C1319.26 212.756 1318.21 211.103 1317.16 209.445C1303.86 188.465 1290.17 166.774 1277.24 144.964C1251.59 101.719 1227.54 55.7417 1214.63 10.236C1213.66 6.82111 1213.2 3.38245 1213.2 0ZM1094.42 856.156C1094.44 856.151 1094.44 856.147 1094.44 856.144C1094.44 856.139 1094.37 856.146 1094.26 856.185C1094.34 856.176 1094.39 856.165 1094.42 856.156Z" fill="#C4FF63" fill-opacity="0.77"/>
<path d="M257.747 293.048C258.987 271.12 230.019 269.19 203.819 270.629C229.195 262.731 257.179 250.533 247.9 229.942C238.349 208.413 208.492 222.979 185.204 237.46C203.934 217.429 223.988 191.333 204.923 177.618C185.678 163.885 167.468 191.62 154.521 215.863C161.183 188.817 166.603 153.996 142.597 151.641C117.328 149.163 117.022 187.584 118.249 215.95C110.329 188.932 97.6323 154.885 75.1301 165.07C53.7641 174.819 68.3653 204.315 82.8464 227.603C62.798 209.053 36.3581 188.784 22.806 208.047C9.70343 226.442 34.7845 243.845 58.1421 256.523C32.9191 249.858 4.1285 246.123 1.08395 267.874C-1.97829 289.806 27.1202 294.118 53.2884 294.862C28.2913 302.616 1.40761 314.739 10.5235 335.132C20.0747 356.661 49.9314 342.095 73.2194 327.614C54.4895 347.645 34.4358 373.742 53.5005 387.456C72.7456 401.189 90.9555 373.454 103.903 349.211C97.4214 376.275 91.8034 411.259 115.99 413.631C141.259 416.109 141.565 377.689 140.338 349.322C148.257 376.34 160.954 410.387 183.456 400.203C204.822 390.453 190.221 360.958 175.74 337.67C195.789 356.219 222.228 376.489 235.781 357.226C248.667 339.173 224.669 321.877 201.474 309.397C227.108 313.733 256.49 315.157 257.747 293.048Z" fill="#C4FF63"/>
<path d="M1355.52 126.554C1355.75 125.5 1357.25 125.5 1357.48 126.554L1359.81 137.421C1359.89 137.806 1360.19 138.107 1360.58 138.189L1371.45 140.523C1372.5 140.749 1372.5 142.252 1371.45 142.478L1360.58 144.812C1360.19 144.895 1359.89 145.195 1359.81 145.58L1357.48 156.448C1357.25 157.501 1355.75 157.501 1355.52 156.448L1353.19 145.58C1353.11 145.195 1352.81 144.895 1352.42 144.812L1341.55 142.478C1340.5 142.252 1340.5 140.749 1341.55 140.523L1352.42 138.189C1352.81 138.107 1353.11 137.806 1353.19 137.421L1355.52 126.554Z" fill="white"/>
<path d="M350.893 755C306.458 755 270.446 719.412 270.446 675.5C270.446 631.588 306.458 596 350.893 596V755Z" fill="#FF92E0"/>
<path d="M190 675.5C190 631.588 226.011 596 270.446 596L270.446 755C226.011 755 190 719.412 190 675.5Z" fill="#FF92E0"/>
<path fill-rule="evenodd" clip-rule="evenodd" d="M998.455 784.012C1009.2 785.273 1019.64 784.453 1020.16 775.332C1020.65 766.617 1011.26 764.448 1000.86 764.343C998.639 764.32 996.368 764.392 994.139 764.514C996.257 763.855 998.414 763.133 1000.51 762.339C1010.52 758.545 1019.11 753.098 1015.41 744.882C1011.55 736.177 1000.81 739.701 990.814 745.184C988.882 746.244 986.978 747.377 985.157 748.509C986.623 746.941 988.107 745.295 989.524 743.611C996.838 734.914 1002.38 725.178 994.672 719.634C986.959 714.13 979.59 722.43 973.736 732.103C972.541 734.076 971.41 736.106 970.351 738.088C970.885 735.924 971.401 733.656 971.839 731.374C974.043 719.896 974.26 708.048 964.598 707.1C954.461 706.106 952.649 718.752 952.667 730.91C952.671 733.376 952.749 735.822 952.849 738.13C952.194 735.894 951.471 733.559 950.667 731.248C946.787 720.086 941.039 709.508 932.043 713.579C923.39 717.528 926.963 728.189 932.467 738.157C933.52 740.065 934.644 741.948 935.767 743.753C934.21 742.313 932.574 740.852 930.897 739.452C922.149 732.149 912.283 726.517 906.796 734.317C901.586 741.631 908.888 748.621 917.925 754.277C919.855 755.485 921.863 756.632 923.846 757.708C921.653 757.128 919.404 756.595 917.182 756.171C907.072 754.242 897.519 754.581 896.314 763.185C895.049 772.249 905.167 775.076 916.031 775.926C917.851 776.069 919.692 776.156 921.504 776.207C919.774 776.744 918.024 777.324 916.31 777.954C906.078 781.709 897.102 787.21 900.869 795.639C904.731 804.344 915.473 800.819 925.465 795.336C927.397 794.276 929.301 793.143 931.121 792.011C929.655 793.579 928.171 795.225 926.754 796.91C919.44 805.606 913.9 815.342 921.607 820.886C929.339 826.404 936.726 818.047 942.588 808.343C943.765 806.393 944.882 804.389 945.927 802.432C945.415 804.57 944.914 806.811 944.485 809.069C942.297 820.597 942 832.559 951.759 833.516C961.896 834.51 963.707 821.864 963.69 809.706C963.686 807.24 963.608 804.794 963.508 802.486C964.163 804.721 964.886 807.057 965.689 809.367C969.57 820.53 975.318 831.108 984.313 827.036C992.967 823.088 989.393 812.427 983.89 802.459C982.837 800.551 981.713 798.668 980.59 796.863C982.146 798.303 983.782 799.764 985.459 801.164C994.208 808.466 1004.07 814.099 1009.56 806.299C1014.89 798.837 1007.15 791.642 997.789 785.947C996.223 784.994 994.611 784.083 993.007 783.22C994.801 783.524 996.632 783.798 998.455 784.012ZM983.486 825.216C985.58 824.259 986.656 822.913 987.155 821.32C987.683 819.633 987.624 817.467 986.994 814.871C985.731 809.66 982.381 803.531 978.892 797.919L981.948 795.395C986.781 799.866 992.187 804.349 997.088 806.606C999.53 807.731 1001.66 808.211 1003.42 808.017C1005.08 807.833 1006.6 807.034 1007.93 805.148L1007.93 805.137C1009.2 803.363 1009.48 801.752 1009.2 800.226C1008.91 798.622 1007.95 796.899 1006.32 795.085C1003.06 791.435 997.631 787.98 992.06 784.982L993.341 781.249C999.507 782.292 1005.85 782.928 1010.65 782.091C1013.04 781.675 1014.86 780.926 1016.09 779.853C1017.26 778.831 1018.04 777.392 1018.16 775.218C1018.29 773.064 1017.68 771.561 1016.65 770.426C1015.56 769.234 1013.86 768.291 1011.55 767.614C1006.91 766.25 1000.55 766.165 994.248 766.511L993.544 762.605C999.654 760.703 1005.81 758.358 1009.86 755.382C1011.88 753.903 1013.21 752.383 1013.85 750.843C1014.45 749.384 1014.5 747.727 1013.59 745.703L1013.58 745.693C1012.65 743.583 1011.31 742.497 1009.71 741.989C1008.02 741.451 1005.84 741.502 1003.23 742.125C997.992 743.375 991.819 746.721 986.213 750.208L983.696 747.143C988.209 742.317 992.686 736.955 994.938 732.089C996.06 729.665 996.539 727.552 996.348 725.794C996.168 724.135 995.375 722.605 993.507 721.26C991.618 719.913 989.907 719.657 988.275 720.027C986.545 720.42 984.695 721.569 982.758 723.431C978.87 727.17 975.238 733.184 972.116 739.03L968.409 737.61C970.015 731.091 971.398 723.894 971.028 718.257C970.843 715.444 970.232 713.239 969.188 711.719C968.206 710.292 966.743 709.32 964.403 709.09C961.936 708.849 960.252 709.582 958.975 710.907C957.611 712.323 956.58 714.558 955.874 717.501C954.461 723.388 954.55 731.179 954.847 738.044L950.93 738.693C949.018 732.169 946.598 725.067 943.414 720.222C941.824 717.802 940.163 716.136 938.462 715.307C936.864 714.529 935.071 714.405 932.871 715.4C930.777 716.356 929.701 717.703 929.202 719.296C928.673 720.983 928.733 723.149 929.362 725.745C930.626 730.956 933.976 737.085 937.465 742.697L934.408 745.221C929.576 740.75 924.17 736.267 919.269 734.01C916.827 732.885 914.701 732.405 912.94 732.599C911.281 732.782 909.758 733.582 908.432 735.468L908.425 735.477C907.137 737.285 906.864 738.92 907.17 740.468C907.493 742.101 908.508 743.852 910.198 745.695C913.597 749.402 919.176 752.897 924.8 755.95L923.335 759.642C917.274 758.04 911.049 756.871 906.244 757.297C903.857 757.509 902.008 758.1 900.714 759.057C899.483 759.968 898.595 761.324 898.295 763.462M983.486 825.216C981.286 826.21 979.493 826.087 977.895 825.309C976.193 824.48 974.533 822.814 972.943 820.394C969.759 815.549 967.339 808.447 965.427 801.923L961.51 802.572C961.806 809.437 961.896 817.228 960.483 823.115C959.777 826.057 958.746 828.293 957.382 829.709C956.105 831.033 954.421 831.767 951.954 831.525C949.591 831.294 948.119 830.315 947.133 828.88C946.084 827.353 945.473 825.137 945.29 822.312C944.921 816.65 946.307 809.431 947.872 802.898L944.163 801.49C941.04 807.336 937.408 813.35 933.52 817.089C931.583 818.952 929.733 820.1 928.003 820.493C926.371 820.863 924.66 820.607 922.771 819.26C920.904 817.916 920.11 816.386 919.93 814.726C919.739 812.969 920.218 810.855 921.34 808.431C923.592 803.565 928.069 798.204 932.582 793.377L930.065 790.313C924.459 793.799 918.286 797.145 913.046 798.395C910.434 799.018 908.256 799.069 906.567 798.531C904.973 798.023 903.633 796.937 902.697 794.827L902.695 794.822C901.795 792.81 901.83 791.159 902.402 789.712C903.002 788.191 904.278 786.692 906.216 785.234C910.119 782.298 916.086 779.982 922.097 778.118L921.561 774.208C915.266 774.029 908.899 773.419 904.339 771.664C902.074 770.792 900.432 769.702 899.434 768.41C898.483 767.182 897.994 765.618 898.295 763.462" fill="#FF92E0"/>
<path d="M1843.34 221.055C1845.17 188.592 1802.29 185.734 1763.5 187.865C1801.07 176.172 1842.5 158.114 1828.76 127.631C1814.62 95.7592 1770.42 117.323 1735.95 138.761C1763.67 109.107 1793.36 70.4731 1765.14 50.1694C1736.65 29.8395 1709.69 70.8993 1690.52 106.788C1700.38 66.7493 1708.41 15.1995 1672.87 11.7138C1635.46 8.04473 1635.01 64.9233 1636.82 106.917C1625.1 66.9191 1606.3 16.5156 1572.99 31.5931C1541.36 46.0263 1562.97 89.692 1584.41 124.168C1554.73 96.7072 1515.59 66.6997 1495.53 95.2168C1476.13 122.45 1513.26 148.214 1547.84 166.983C1510.5 157.115 1467.88 151.586 1463.37 183.787C1458.84 216.255 1501.92 222.638 1540.65 223.74C1503.65 235.218 1463.85 253.167 1477.35 283.356C1491.48 315.228 1535.69 293.665 1570.16 272.227C1542.43 301.88 1512.75 340.514 1540.97 360.818C1569.46 381.148 1596.42 340.088 1615.58 304.199C1605.99 344.264 1597.67 396.055 1633.48 399.567C1670.89 403.236 1671.34 346.357 1669.52 304.364C1681.25 344.362 1700.05 394.765 1733.36 379.688C1764.99 365.254 1743.37 321.589 1721.93 287.113C1751.61 314.574 1790.76 344.581 1810.82 316.064C1829.9 289.339 1794.37 263.732 1760.03 245.257C1797.98 251.677 1841.48 253.785 1843.34 221.055Z" fill="#FF92E0"/>
<path d="M920.442 302.304C930.206 306.114 935.684 293.49 939.192 281.598C938.749 294.082 939.846 308.367 950.674 307.291C961.971 306.232 960.096 290.76 957.217 278.229C963.341 289.553 972.012 302.368 981.27 295.908C990.565 289.371 980.858 277.134 971.901 267.762C983.13 274.749 998.088 282.338 1002.97 271.988C1008.11 261.093 990.704 255.249 977.623 251.582C991.155 252.066 1008.64 251.465 1007.59 239.922C1006.55 228.951 990.832 231.077 977.953 234.071C989.564 227.891 1002.97 219.118 996.373 210.216C990.097 201.643 978.208 210.237 968.738 218.764C975.772 208.512 982.042 196.234 972.644 191.646C963.168 187.023 956.587 199.352 952.092 210.905C952.541 198.611 951.303 184.828 940.591 185.861C929.294 186.92 931.168 202.392 934.048 214.923C927.923 203.599 919.253 190.784 909.995 197.243C900.699 203.781 910.407 216.018 919.363 225.39C908.098 218.481 893.098 210.78 888.179 221.207C883.039 232.102 900.445 237.946 913.526 241.613C899.994 241.129 882.51 241.73 883.563 253.273C884.598 264.245 900.317 262.118 913.196 259.124C901.585 265.304 888.178 274.077 894.776 282.979C900.93 291.405 912.599 283.278 921.953 274.794C915.911 285.575 910.598 298.459 920.442 302.304Z" fill="#FF92E0"/>
</svg>
