<svg width="2083" height="5461" viewBox="0 0 2083 5461" fill="none" xmlns="http://www.w3.org/2000/svg">
<path d="M1512 2809.26C1530.79 2809.26 1547.3 2785.12 1556.67 2748.81C1565.97 2785.12 1582.49 2809.26 1601.33 2809.26C1630.39 2809.26 1654 2751.47 1654 2680.13C1654 2608.8 1630.39 2551 1601.27 2551C1582.49 2551 1565.97 2575.15 1556.61 2611.45C1547.3 2575.15 1530.79 2551 1512 2551C1493.21 2551 1476.7 2575.15 1467.33 2611.45C1458.03 2575.15 1441.51 2551 1422.73 2551C1393.61 2551 1370 2608.8 1370 2680.13C1370 2751.47 1393.61 2809.26 1422.73 2809.26C1441.51 2809.26 1458.03 2785.12 1467.39 2748.81C1476.7 2785.17 1493.21 2809.26 1512 2809.26Z" fill="#FF92E0"/>
<path d="M431.644 1352.12C433.726 1317.92 387.434 1315.04 345.551 1317.4C386.146 1304.97 430.93 1285.83 416.194 1253.77C401.026 1220.25 353.238 1243.09 315.95 1265.76C345.978 1234.45 378.15 1193.68 347.74 1172.38C317.043 1151.06 287.81 1194.38 267.006 1232.23C277.777 1190.03 286.599 1135.72 248.24 1132.15C207.862 1128.4 207.198 1188.3 209.03 1232.52C196.495 1190.43 176.356 1137.41 140.343 1153.38C106.148 1168.67 129.352 1214.59 152.391 1250.84C120.432 1222.01 78.264 1190.52 56.5152 1220.61C35.4889 1249.35 75.4976 1276.37 112.773 1296.03C72.4887 1285.75 26.4884 1280.05 21.523 1313.98C16.5285 1348.18 63.0182 1354.78 104.841 1355.83C64.8513 1368.02 21.8266 1387.04 36.304 1418.8C51.4719 1452.32 99.2596 1429.48 136.548 1406.8C106.52 1438.11 74.3479 1478.89 104.757 1500.19C135.455 1521.51 164.687 1478.19 185.492 1440.34C175.009 1482.56 165.87 1537.13 204.517 1540.72C244.895 1544.48 245.559 1484.58 243.727 1440.36C256.262 1482.45 276.401 1535.47 312.414 1519.5C346.609 1504.2 323.405 1458.28 300.366 1422.04C332.325 1450.87 374.493 1482.36 396.242 1452.27C416.922 1424.07 378.643 1397.2 341.627 1377.85C382.578 1384.5 429.534 1386.59 431.644 1352.12Z" fill="#C4FF63"/>
<path d="M1189 1695.23C1189 1515.03 1341.2 1369 1529 1369L1529 2021.45C1341.2 2021.45 1189 1875.42 1189 1695.23Z" fill="#FCFF79"/>
<rect x="1043.5" y="3270.5" width="534" height="889" rx="30.5" fill="#FCFF79" stroke="white" stroke-width="3"/>
<rect x="43.001" width="398" height="815" rx="32" fill="#FCFF79"/>
<path d="M1187.38 5120.3C1223.86 5012.37 1275.35 4648.09 1412.78 4673.2C1634.75 4713.74 1336.61 5243.2 1450.32 5276.92C1564.03 5310.64 1587.29 4761.4 1731.39 4841.78C1875.49 4922.16 1618.24 5323.14 1752.97 5391.36C1858.44 5444.77 1895.93 4925.45 2047.04 5063.93" stroke="#FF92E0" stroke-width="61" stroke-linecap="round"/>
<path d="M22.001 3635.05C88.5306 3635.05 142.448 3686.78 142.448 3750.61C142.448 3814.45 88.5306 3866.18 22.001 3866.18L22.001 3635.05Z" fill="#FF92E0"/>
<path d="M262.895 3750.61C262.895 3814.45 208.978 3866.18 142.448 3866.18L142.448 3635.05C208.978 3635.05 262.895 3686.78 262.895 3750.61Z" fill="#FF92E0"/>
<path d="M859.534 1135.33L695 1135.33L695 975.618C785.866 975.81 859.534 1047.24 859.534 1135.33Z" fill="#FCFF79"/>
<path d="M1024 1135.33L859.533 1135.33L859.533 975.618C950.399 975.81 1024 1047.24 1024 1135.33Z" fill="#FCFF79"/>
<path d="M695 815.905C785.866 816.097 859.534 887.528 859.534 975.621L695 975.621L695 815.905Z" fill="#FCFF79"/>
<path d="M859.533 815.905C950.399 816.097 1024.07 887.528 1024.07 975.621L859.533 975.621L859.533 815.905Z" fill="#FCFF79"/>
<path d="M318 673.181C336.786 673.181 353.301 649.034 362.666 612.732C371.974 649.034 388.489 673.181 407.332 673.181C436.39 673.181 460 615.384 460 544.049C460 472.715 436.39 414.918 407.275 414.918C388.489 414.918 371.974 439.064 362.609 475.367C353.301 439.064 336.786 414.918 318 414.918C299.214 414.918 282.699 439.064 273.334 475.367C264.026 439.064 247.511 414.918 228.725 414.918C199.61 414.918 176 472.715 176 544.049C176 615.384 199.61 673.181 228.725 673.181C247.511 673.181 264.026 649.034 273.391 612.732C282.699 649.089 299.214 673.181 318 673.181Z" stroke="#FF96E2" stroke-width="2"/>
<path d="M148 4560.72C166.786 4560.72 183.301 4536.57 192.666 4500.27C201.974 4536.57 218.489 4560.72 237.332 4560.72C266.39 4560.72 290 4502.92 290 4431.58C290 4360.25 266.39 4302.45 237.275 4302.45C218.489 4302.45 201.974 4326.6 192.609 4362.9C183.301 4326.6 166.786 4302.45 148 4302.45C129.214 4302.45 112.699 4326.6 103.334 4362.9C94.0264 4326.6 77.5108 4302.45 58.725 4302.45C29.6099 4302.45 6 4360.25 5.99999 4431.58C5.99999 4502.92 29.6099 4560.72 58.725 4560.72C77.5108 4560.72 94.0264 4536.57 103.391 4500.27C112.699 4536.62 129.214 4560.72 148 4560.72Z" fill="#C4FF63"/>
<path d="M1273.63 286.565L1271.7 286.564C1267.03 304.643 1260.61 319.627 1253.06 330.066C1245.49 340.522 1236.93 346.263 1228 346.263C1219.07 346.263 1210.51 340.535 1202.95 330.086C1195.41 319.655 1189 304.672 1184.36 286.566L1182.42 286.564C1177.76 304.643 1171.33 319.627 1163.78 330.066C1156.22 340.522 1147.66 346.263 1138.73 346.263C1131.8 346.263 1125.11 342.831 1118.92 336.423C1112.73 330.012 1107.11 320.681 1102.37 309.069C1092.89 285.85 1087 253.702 1087 218.131C1087 182.561 1092.89 150.412 1102.37 127.193C1107.11 115.581 1112.73 106.251 1118.92 99.84C1125.11 93.4315 1131.8 90 1138.73 90C1147.65 90 1156.22 95.7409 1163.77 106.197C1171.32 116.635 1177.73 131.618 1182.37 149.698L1184.3 149.699C1188.97 131.619 1195.39 116.636 1202.94 106.197C1210.51 95.7409 1219.07 90 1228 90C1236.93 90 1245.49 95.7409 1253.05 106.197C1260.59 116.635 1267.01 131.618 1271.64 149.698L1273.58 149.699C1278.24 131.619 1284.67 116.636 1292.22 106.197C1299.78 95.7409 1308.34 90 1317.27 90C1324.2 90 1330.89 93.4315 1337.08 99.84C1343.27 106.251 1348.89 115.581 1353.63 127.193C1363.11 150.412 1369 182.561 1369 218.131C1369 253.702 1363.11 285.851 1353.64 309.07C1348.9 320.682 1343.28 330.012 1337.1 336.423C1330.92 342.832 1324.24 346.263 1317.33 346.263C1308.37 346.263 1299.79 340.521 1292.23 330.066C1284.68 319.627 1278.27 304.644 1273.63 286.565Z" stroke="#FF92E0" stroke-width="2"/>
<path d="M243.001 2229C243.001 2272.14 207.413 2307.11 163.501 2307.11C119.589 2307.11 84.001 2272.14 84.001 2229H243.001Z" fill="#D1FF87"/>
<path d="M163.501 2385.21C119.589 2385.21 84.001 2350.25 84.001 2307.11H243.001C243.001 2350.25 207.413 2385.21 163.501 2385.21Z" fill="#D1FF87"/>
<path d="M276.749 5101.05C277.989 5079.12 249.021 5077.19 222.821 5078.63C248.197 5070.73 276.181 5058.53 266.903 5037.94C257.351 5016.41 227.495 5030.98 204.207 5045.46C222.937 5025.43 242.99 4999.33 223.926 4985.62C204.681 4971.89 186.471 4999.62 173.524 5023.86C180.185 4996.82 185.605 4962 161.599 4959.64C136.33 4957.16 136.024 4995.58 137.251 5023.95C129.332 4996.93 116.635 4962.89 94.1326 4973.07C72.7666 4982.82 87.3677 5012.32 101.849 5035.6C81.8005 5017.05 55.3606 4996.78 41.8085 5016.05C28.7059 5034.44 53.7869 5051.85 77.1446 5064.52C51.9216 5057.86 23.131 5054.12 20.0864 5075.87C17.0242 5097.81 46.1227 5102.12 72.2909 5102.86C47.2938 5110.62 20.4101 5122.74 29.526 5143.13C39.0772 5164.66 68.9338 5150.1 92.2218 5135.61C73.492 5155.65 53.4383 5181.74 72.5029 5195.46C91.7481 5209.19 109.958 5181.45 122.905 5157.21C116.424 5184.28 110.806 5219.26 134.992 5221.63C160.261 5224.11 160.567 5185.69 159.34 5157.32C167.26 5184.34 179.957 5218.39 202.459 5208.2C223.825 5198.45 209.224 5168.96 194.743 5145.67C214.791 5164.22 241.231 5184.49 254.783 5165.23C267.67 5147.17 243.672 5129.88 220.477 5117.4C246.11 5121.73 275.492 5123.16 276.749 5101.05Z" fill="#FF96E2"/>
</svg>
