<svg width="52" height="71" viewBox="0 0 52 71" fill="none" xmlns="http://www.w3.org/2000/svg">
<path d="M24.5039 67.5C24.5039 68.3284 25.1755 69 26.0039 69C26.8323 69 27.5039 68.3284 27.5039 67.5C27.5039 63.9677 28.7806 61.0398 30.8103 58.2521C32.5703 55.8349 34.8301 53.6042 37.272 51.1939C37.6971 50.7744 38.1277 50.3494 38.5621 49.917C44.3423 44.1638 50.5039 37.3826 50.5039 26.1462C50.5039 12.7888 39.5129 2 26.0039 2C12.4949 2 1.50391 12.7888 1.50391 26.1462C1.50391 37.3826 7.66551 44.1638 13.4457 49.917C13.8801 50.3494 14.3107 50.7744 14.7358 51.1939C17.1777 53.6042 19.4375 55.8349 21.1975 58.2521C23.2272 61.0398 24.5039 63.9677 24.5039 67.5Z" fill="#C4FF63" stroke="white" stroke-width="3" stroke-linejoin="round"/>
<path d="M41.5867 28.2605C41.6494 25.586 38.0334 25.3506 34.7762 25.5262C37.9038 24.5629 41.3382 23.0751 40.0965 20.5638C38.8169 17.938 35.1592 19.7145 32.3191 21.4807C34.5682 19.0377 36.9569 15.8548 34.525 14.1821C32.0707 12.5072 29.9185 15.8899 28.4073 18.8466C29.124 15.548 29.6535 11.3011 26.6537 11.0139C23.4961 10.7116 23.6185 15.3976 23.8899 18.8573C22.7906 15.562 21.0669 11.4095 18.3068 12.6517C15.6864 13.8408 17.6283 17.4382 19.5292 20.2785C16.9547 18.0161 13.5768 15.5439 11.9694 17.8933C10.4144 20.137 13.611 22.2595 16.5732 23.8058C13.4038 22.9929 9.80228 22.5373 9.51398 25.1902C9.22424 27.8651 12.8665 28.391 16.1289 28.4818C13.0479 29.4274 9.75016 30.9061 10.9708 33.3933C12.2504 36.019 15.9081 34.2425 18.7482 32.4763C16.4991 34.9194 14.1104 38.1022 16.5423 39.775C18.9966 41.4499 21.1488 38.0671 22.66 35.1104C21.9659 38.4112 21.4124 42.678 24.4347 42.9673C27.5923 43.2696 27.4699 38.5836 27.1985 35.124C28.2978 38.4192 30.0215 42.5717 32.7816 41.3296C35.402 40.1405 33.4601 36.5431 31.5592 33.7027C34.1337 35.9651 37.5116 38.4373 39.119 36.0879C40.6486 33.8861 37.5873 31.7766 34.6462 30.2544C37.857 30.7833 41.5225 30.957 41.5867 28.2605Z" fill="#E056BA"/>
</svg>
