<svg width="388" height="540" viewBox="0 0 388 540" fill="none" xmlns="http://www.w3.org/2000/svg">
<g clip-path="url(#clip0_2231_7647)">
<rect width="388" height="540" fill="#DCA8F5"/>
<path fill-rule="evenodd" clip-rule="evenodd" d="M9.76311 468.079L10.173 469.014C-5.58453 472.405 -18.9119 469.61 -25.4813 454.802C-32.1828 439.81 -25.1978 427.963 -11.9752 418.492L-11.5647 419.428C-11.9382 419.698 -12.3065 419.969 -12.6695 420.242C-18.7762 424.836 -23.2936 429.916 -25.5164 435.545C-27.7247 441.138 -27.708 447.371 -24.5684 454.394L-24.5672 454.397C-21.2812 461.804 -16.2952 466.037 -10.1799 467.985C-4.46515 469.806 2.32141 469.657 9.76311 468.079Z" fill="white"/>
<path d="M248.99 362.156L249.342 364.11C267.955 363.087 287.41 363.274 301.962 367.549C309.23 369.683 315.184 372.813 319.209 377.235C323.208 381.629 325.374 387.375 324.947 394.923C324.515 402.533 321.677 408.04 317.16 411.983C312.612 415.951 306.284 418.402 298.773 419.711C283.735 422.331 264.331 420.313 246.121 417.233L245.481 419.1C261.954 427.963 278.591 438.477 288.826 449.91C293.939 455.621 297.39 461.491 298.482 467.434C299.566 473.337 298.342 479.413 293.907 485.627L293.903 485.632C289.241 492.259 283.53 495.426 277.156 496.13C270.731 496.839 263.529 495.056 255.928 491.556C240.719 484.552 224.3 470.857 210.053 457.675L208.524 458.937C218.815 475.485 229.07 494.124 232.995 510.307C234.956 518.393 235.309 525.765 233.382 531.92C231.469 538.028 227.279 543.035 219.927 546.39C212.188 549.891 205.376 549.572 199.292 546.608C193.155 543.618 187.67 537.893 182.758 530.418C172.931 515.466 165.638 493.898 160.009 474.692L158.05 475.017C158.923 495.188 159.239 518.79 154.895 536.889C152.724 545.938 149.413 553.496 144.525 558.567C139.682 563.592 133.225 566.244 124.536 565.392C116.218 564.576 110.544 560.981 106.778 555.5C102.98 549.973 101.067 542.444 100.498 533.698C99.3591 516.202 103.622 494.285 108.229 475.048L106.375 474.344C97.1732 491.573 86.1637 509.917 74.0975 521.52C68.0679 527.319 61.8495 531.359 55.5367 532.792C49.2731 534.214 42.8159 533.093 36.1933 528.368C29.6336 523.649 26.4969 517.924 25.8071 511.561C25.1119 505.149 26.8913 497.986 30.3861 490.435C37.3797 475.323 51.0615 459.032 64.371 444.798L63.1125 443.266C46.5666 453.555 27.7994 463.798 11.5249 467.681C10.9338 467.823 10.3464 467.955 9.76311 468.079L10.173 469.014C25.9452 465.619 44.1522 456.027 60.454 446.079C61.5248 445.425 62.5874 444.77 63.6405 444.115C62.7932 445.021 61.944 445.936 61.0948 446.859C44.653 464.724 28.1913 485.545 25.1554 503.19C23.4206 513.272 26.0694 522.317 35.6102 529.181C62.0728 548.063 87.1585 511.791 105.428 478.209C106.045 477.074 106.655 475.942 107.257 474.815C106.96 476.055 106.664 477.306 106.371 478.567C97.573 516.442 91.1654 563.124 124.438 566.387C159.162 569.793 160.725 518.871 159.215 479.049C159.163 477.676 159.107 476.317 159.049 474.973C159.428 476.266 159.815 477.571 160.21 478.883C171.538 516.567 189.432 561.289 220.342 547.299C249.764 533.874 231.207 494.109 211.304 461.541C210.662 460.489 210.017 459.444 209.373 458.409C210.268 459.237 211.172 460.067 212.083 460.897C240.214 486.53 276.061 512.73 294.721 486.208C312.543 461.242 280.737 437.293 248.637 419.676C247.743 419.186 246.848 418.7 245.954 418.219C246.955 418.388 247.959 418.554 248.967 418.717C284.656 424.469 324.208 425.545 325.946 394.98C327.646 364.905 289.373 361.293 253.229 362.914C251.911 362.973 250.597 363.039 249.287 363.111C250.538 362.722 251.793 362.325 253.05 361.921C288.053 350.667 324.681 333.529 311.949 305.274C298.804 275.645 258.602 294.111 226.013 313.998C224.943 314.651 223.88 315.306 222.827 315.961C223.674 315.055 224.523 314.14 225.373 313.217C251.209 285.144 277.095 249.771 250.857 230.896C224.414 212.027 199.347 248.231 181.081 281.792C180.449 282.952 179.826 284.109 179.211 285.261C179.522 283.996 179.832 282.718 180.139 281.431C189.142 243.607 195.261 197.207 162.261 193.971C127.537 190.565 125.974 241.487 127.484 281.309C127.536 282.682 127.591 284.041 127.65 285.385C127.271 284.092 126.884 282.787 126.489 281.475C115.161 243.791 97.2666 199.069 66.3567 213.059C36.9351 226.484 55.4918 266.249 75.3944 298.817C76.0372 299.869 76.6813 300.913 77.3253 301.949C76.4307 301.121 75.5272 300.291 74.6155 299.461C46.4851 273.828 10.6377 247.628 -8.02185 274.15C-25.983 299.367 6.53182 323.272 38.6496 341.106C39.8372 341.766 41.0243 342.417 42.2083 343.06C40.9043 342.715 39.5936 342.376 38.2783 342.044C3.42544 333.247 -34.7293 329.4 -38.8997 359.195C-40.565 371.123 -35.539 379.384 -26.6148 385.098C-12.8436 393.915 10.21 396.666 32.2821 397.461C33.2934 397.498 34.3026 397.53 35.3087 397.559C34.3475 397.857 33.3842 398.159 32.4201 398.467C16.1763 403.645 -0.32183 410.145 -11.9752 418.492L-11.5647 419.428C0.642665 410.629 18.3755 403.858 35.605 398.514L35.3372 396.559C16.7472 396.03 -2.74338 394.233 -17.0178 388.738C-24.1476 385.993 -29.8874 382.358 -33.5809 377.581C-37.2499 372.836 -38.9633 366.883 -37.9093 359.334C-36.8613 351.847 -33.6198 346.631 -28.8481 343.102C-24.045 339.549 -17.6057 337.644 -10.0798 336.976C4.98804 335.639 24.0377 339.292 41.9528 344.027L42.6853 342.181C26.0895 333.173 9.00755 322.549 -1.60532 310.977C-6.90708 305.196 -10.5263 299.25 -11.7191 293.221C-12.9035 287.234 -11.7171 281.062 -7.20732 274.73L-7.20398 274.726C-2.54204 268.099 3.16857 264.932 9.54287 264.228C15.9675 263.518 23.17 265.302 30.7705 268.802C45.9794 275.806 62.3991 289.501 76.6462 302.683L78.1745 301.421C67.8842 284.873 57.6284 266.234 53.7041 250.051C51.7431 241.965 51.3893 234.593 53.317 228.438C55.2301 222.33 59.4195 217.323 66.7714 213.969C74.5103 210.467 81.3229 210.786 87.407 213.75C93.5435 216.74 99.0287 222.465 103.941 229.94C113.768 244.892 121.06 266.46 126.69 285.666L128.649 285.341C127.776 265.17 127.46 241.568 131.803 223.469C133.975 214.42 137.286 206.862 142.173 201.791C147.017 196.766 153.474 194.114 162.163 194.966C170.416 195.775 176.06 199.351 179.813 204.807C183.597 210.309 185.513 217.807 186.085 226.519C187.23 243.949 182.974 265.802 178.24 285.022L180.093 285.732C189.294 268.503 200.304 250.159 212.37 238.556C218.399 232.758 224.618 228.717 230.931 227.284C237.195 225.862 243.652 226.983 250.276 231.709C256.834 236.428 259.97 242.153 260.66 248.515C261.355 254.927 259.576 262.09 256.081 269.642C249.088 284.753 235.406 301.044 222.096 315.278L223.355 316.81C239.901 306.522 258.668 296.278 274.942 292.395C283.075 290.454 290.485 290.128 296.647 292.091C302.763 294.04 307.749 298.273 311.035 305.68L311.037 305.685C314.231 312.772 314.195 319.057 311.87 324.7C309.529 330.382 304.823 335.512 298.499 340.152C285.84 349.442 267.02 356.545 248.99 362.156Z" fill="white"/>
<path d="M183.136 114.287C184.152 96.3107 160.405 94.7285 138.926 95.9084C159.729 89.4335 182.67 79.4336 175.064 62.5534C167.234 44.9043 142.758 56.8451 123.667 68.7166C139.021 52.2957 155.461 30.902 139.832 19.6587C124.055 8.4009 109.127 31.138 98.5127 51.0116C103.974 28.8399 108.417 0.293945 88.7375 -1.63625C68.0221 -3.66804 67.7712 27.8287 68.777 51.0829C62.2848 28.9339 51.876 1.02274 33.429 9.37199C15.9134 17.3644 27.8832 41.5446 39.7547 60.6358C23.3193 45.4293 1.64417 28.8125 -9.46567 44.6039C-20.207 59.6846 0.35411 73.9512 19.5024 84.3446C-1.17509 78.8805 -24.7773 75.8187 -27.2731 93.6501C-29.7835 111.63 -5.92897 115.164 15.5234 115.775C-4.96892 122.13 -27.0078 132.069 -19.5347 148.787C-11.7047 166.436 12.7714 154.495 31.8626 142.624C16.5081 159.045 0.0682763 180.439 15.6973 191.682C31.4742 202.94 46.4025 180.203 57.0163 160.329C51.7031 182.515 47.0975 211.195 66.9251 213.139C87.6405 215.171 87.8913 183.674 86.8855 160.42C93.3778 182.569 103.787 210.48 122.234 202.131C139.749 194.139 127.779 169.959 115.908 150.867C132.343 166.074 154.018 182.691 165.128 166.899C175.693 152.1 156.019 137.92 137.004 127.689C158.019 131.244 182.105 132.412 183.136 114.287Z" fill="#C4FF63"/>
<path d="M431.136 481.287C432.152 463.311 408.405 461.728 386.926 462.908C407.729 456.434 430.67 446.434 423.064 429.553C415.234 411.904 390.758 423.845 371.667 435.717C387.021 419.296 403.461 397.902 387.832 386.659C372.055 375.401 357.127 398.138 346.513 418.012C351.974 395.84 356.417 367.294 336.737 365.364C316.022 363.332 315.771 394.829 316.777 418.083C310.285 395.934 299.876 368.023 281.429 376.372C263.913 384.364 275.883 408.545 287.755 427.636C271.319 412.429 249.644 395.812 238.534 411.604C227.793 426.685 248.354 440.951 267.502 451.345C246.825 445.881 223.223 442.819 220.727 460.65C218.216 478.63 242.071 482.164 263.523 482.775C243.031 489.13 220.992 499.069 228.465 515.787C236.295 533.436 260.771 521.495 279.863 509.624C264.508 526.045 248.068 547.439 263.697 558.682C279.474 569.94 294.402 547.203 305.016 527.329C299.703 549.515 295.098 578.195 314.925 580.139C335.64 582.171 335.891 550.674 334.886 527.42C341.378 549.569 351.787 577.48 370.234 569.131C387.749 561.139 375.779 536.959 363.908 517.867C380.343 533.074 402.018 549.691 413.128 533.899C423.693 519.1 404.019 504.92 385.004 494.689C406.019 498.244 430.105 499.412 431.136 481.287Z" fill="#C4FF63"/>
</g>
<defs>
<clipPath id="clip0_2231_7647">
<rect width="388" height="540" fill="white"/>
</clipPath>
</defs>
</svg>
