<svg width="1317" height="200" viewBox="0 0 1317 200" fill="none" xmlns="http://www.w3.org/2000/svg">
<g clip-path="url(#clip0_2231_7585)">
<rect width="1316" height="200" transform="translate(0.5)" fill="#DCA8F5"/>
<path fill-rule="evenodd" clip-rule="evenodd" d="M1040.76 191.079L1041.17 192.014C1025.42 195.405 1012.09 192.61 1005.52 177.802C998.817 162.81 1005.8 150.963 1019.02 141.492L1019.44 142.428C1019.06 142.698 1018.69 142.969 1018.33 143.242C1012.22 147.836 1007.71 152.916 1005.48 158.545C1003.28 164.138 1003.29 170.371 1006.43 177.394L1006.43 177.397C1009.72 184.804 1014.7 189.037 1020.82 190.985C1026.53 192.806 1033.32 192.657 1040.76 191.079Z" fill="white"/>
<path d="M1279.99 85.1564L1280.34 87.1097C1298.95 86.0872 1318.41 86.2742 1332.96 90.5485C1340.23 92.6834 1346.18 95.8126 1350.21 100.235C1354.21 104.629 1356.37 110.375 1355.95 117.923C1355.51 125.533 1352.68 131.04 1348.16 134.983C1343.61 138.951 1337.28 141.402 1329.77 142.711C1314.73 145.331 1295.33 143.313 1277.12 140.233L1276.48 142.1C1292.95 150.963 1309.59 161.477 1319.83 172.91C1324.94 178.621 1328.39 184.491 1329.48 190.434C1330.57 196.337 1329.34 202.413 1324.91 208.627L1324.9 208.632C1320.24 215.259 1314.53 218.426 1308.16 219.13C1301.73 219.839 1294.53 218.056 1286.93 214.556C1271.72 207.552 1255.3 193.857 1241.05 180.675L1239.52 181.937C1249.81 198.485 1260.07 217.124 1263.99 233.307C1265.96 241.393 1266.31 248.765 1264.38 254.92C1262.47 261.028 1258.28 266.035 1250.93 269.39C1243.19 272.891 1236.38 272.572 1230.29 269.608C1224.16 266.618 1218.67 260.893 1213.76 253.418C1203.93 238.466 1196.64 216.898 1191.01 197.692L1189.05 198.017C1189.92 218.188 1190.24 241.79 1185.9 259.889C1183.72 268.938 1180.41 276.496 1175.53 281.567C1170.68 286.592 1164.22 289.244 1155.54 288.392C1147.22 287.576 1141.54 283.981 1137.78 278.5C1133.98 272.973 1132.07 265.444 1131.5 256.698C1130.36 239.202 1134.62 217.285 1139.23 198.048L1137.37 197.344C1128.17 214.573 1117.16 232.917 1105.1 244.52C1099.07 250.319 1092.85 254.359 1086.54 255.792C1080.27 257.214 1073.82 256.093 1067.19 251.368C1060.63 246.649 1057.5 240.924 1056.81 234.561C1056.11 228.149 1057.89 220.986 1061.39 213.435C1068.38 198.323 1082.06 182.032 1095.37 167.798L1094.11 166.266C1077.57 176.555 1058.8 186.798 1042.52 190.681C1041.93 190.823 1041.35 190.955 1040.76 191.079L1041.17 192.014C1056.95 188.619 1075.15 179.027 1091.45 169.079C1092.52 168.425 1093.59 167.77 1094.64 167.115C1093.79 168.021 1092.94 168.936 1092.09 169.859C1075.65 187.724 1059.19 208.545 1056.16 226.19C1054.42 236.272 1057.07 245.317 1066.61 252.181C1093.07 271.063 1118.16 234.791 1136.43 201.209C1137.05 200.074 1137.66 198.942 1138.26 197.815C1137.96 199.055 1137.66 200.306 1137.37 201.567C1128.57 239.442 1122.17 286.124 1155.44 289.387C1190.16 292.793 1191.72 241.871 1190.22 202.049C1190.16 200.676 1190.11 199.317 1190.05 197.973C1190.43 199.266 1190.81 200.571 1191.21 201.883C1202.54 239.567 1220.43 284.289 1251.34 270.299C1280.76 256.874 1262.21 217.109 1242.3 184.541C1241.66 183.489 1241.02 182.444 1240.37 181.409C1241.27 182.237 1242.17 183.067 1243.08 183.897C1271.21 209.53 1307.06 235.73 1325.72 209.208C1343.54 184.242 1311.74 160.293 1279.64 142.676C1278.74 142.186 1277.85 141.7 1276.95 141.219C1277.95 141.388 1278.96 141.554 1279.97 141.717C1315.66 147.469 1355.21 148.545 1356.95 117.98C1358.65 87.9048 1320.37 84.2933 1284.23 85.9141C1282.91 85.9732 1281.6 86.0392 1280.29 86.1112C1281.54 85.7219 1282.79 85.3253 1284.05 84.9212C1319.05 73.6672 1355.68 56.5294 1342.95 28.2741C1329.8 -1.35549 1289.6 17.1107 1257.01 36.9977C1255.94 37.6512 1254.88 38.3061 1253.83 38.961C1254.67 38.0549 1255.52 37.14 1256.37 36.2172C1282.21 8.14421 1308.1 -27.2292 1281.86 -46.1044C1255.41 -64.9729 1230.35 -28.7687 1212.08 4.79205C1211.45 5.95231 1210.83 7.10941 1210.21 8.26097C1210.52 6.99558 1210.83 5.71822 1211.14 4.43091C1220.14 -33.3927 1226.26 -79.7927 1193.26 -83.0295C1158.54 -86.4351 1156.97 -35.5127 1158.48 4.30911C1158.54 5.68169 1158.59 7.04109 1158.65 8.38461C1158.27 7.09167 1157.88 5.78741 1157.49 4.4746C1146.16 -33.2087 1128.27 -77.9314 1097.36 -63.9414C1067.94 -50.5162 1086.49 -10.7506 1106.39 21.8174C1107.04 22.8692 1107.68 23.9135 1108.33 24.9491C1107.43 24.1214 1106.53 23.2913 1105.62 22.4606C1077.49 -3.17231 1041.64 -29.3724 1022.98 -2.84985C1005.02 22.3673 1037.53 46.2718 1069.65 64.1064C1070.84 64.7659 1072.02 65.4171 1073.21 66.0597C1071.9 65.7151 1070.59 65.3761 1069.28 65.0441C1034.43 56.2469 996.271 52.4004 992.1 82.1953C990.435 94.1227 995.461 102.384 1004.39 108.098C1018.16 116.915 1041.21 119.666 1063.28 120.461C1064.29 120.498 1065.3 120.53 1066.31 120.559C1065.35 120.857 1064.38 121.159 1063.42 121.467C1047.18 126.645 1030.68 133.145 1019.02 141.492L1019.44 142.428C1031.64 133.629 1049.38 126.858 1066.6 121.514L1066.34 119.559C1047.75 119.03 1028.26 117.233 1013.98 111.738C1006.85 108.993 1001.11 105.358 997.419 100.581C993.75 95.8362 992.037 89.8829 993.091 82.3336C994.139 74.8469 997.38 69.6309 1002.15 66.1016C1006.96 62.5491 1013.39 60.6435 1020.92 59.9759C1035.99 58.6391 1055.04 62.2925 1072.95 67.0265L1073.69 65.1808C1057.09 56.1729 1040.01 45.5494 1029.39 33.9769C1024.09 28.1958 1020.47 22.25 1019.28 16.2207C1018.1 10.2341 1019.28 4.06194 1023.79 -2.26969L1023.8 -2.27444C1028.46 -8.90091 1034.17 -12.0682 1040.54 -12.7721C1046.97 -13.4815 1054.17 -11.6985 1061.77 -8.19828C1076.98 -1.19433 1093.4 12.5013 1107.65 25.6831L1109.17 24.4211C1098.88 7.87257 1088.63 -10.7664 1084.7 -26.9487C1082.74 -35.0351 1082.39 -42.4073 1084.32 -48.5619C1086.23 -54.6699 1090.42 -59.6766 1097.77 -63.0314C1105.51 -66.5334 1112.32 -66.214 1118.41 -63.25C1124.54 -60.2604 1130.03 -54.5347 1134.94 -47.0604C1144.77 -32.1084 1152.06 -10.54 1157.69 8.6659L1159.65 8.3414C1158.78 -11.8304 1158.46 -35.4318 1162.8 -53.5311C1164.98 -62.5799 1168.29 -70.138 1173.17 -75.2087C1178.02 -80.2339 1184.47 -82.8865 1193.16 -82.0342C1201.42 -81.2248 1207.06 -77.6493 1210.81 -72.193C1214.6 -66.6911 1216.51 -59.1932 1217.09 -50.4806C1218.23 -33.0507 1213.97 -11.1978 1209.24 8.02181L1211.09 8.73207C1220.29 -8.49689 1231.3 -26.8405 1243.37 -38.4439C1249.4 -44.2423 1255.62 -48.2829 1261.93 -49.716C1268.19 -51.138 1274.65 -50.0167 1281.28 -45.2909C1287.83 -40.5719 1290.97 -34.8472 1291.66 -28.4845C1292.36 -22.0726 1290.58 -14.9097 1287.08 -7.3584C1280.09 7.75303 1266.41 24.0442 1253.1 38.278L1254.35 39.8102C1270.9 29.5215 1289.67 19.278 1305.94 15.3947C1314.08 13.4541 1321.48 13.1278 1327.65 15.0913C1333.76 17.0397 1338.75 21.2727 1342.03 28.6797L1342.04 28.685C1345.23 35.7722 1345.2 42.0572 1342.87 47.6996C1340.53 53.3823 1335.82 58.5116 1329.5 63.1525C1316.84 72.4423 1298.02 79.5446 1279.99 85.1564Z" fill="white"/>
<path d="M661.315 275.61L661.139 274.634C679.171 269.021 698.063 261.899 710.795 252.556C717.158 247.886 721.943 242.69 724.333 236.89C726.714 231.11 726.738 224.682 723.493 217.48L723.492 217.477C720.152 209.948 715.059 205.61 708.799 203.615C702.515 201.613 695.004 201.957 686.826 203.908C670.466 207.812 651.64 218.095 635.091 228.386L634.462 227.62C647.772 213.384 661.505 197.042 668.535 181.852C672.049 174.258 673.866 167 673.157 160.462C672.451 153.948 669.233 148.099 662.567 143.303C655.835 138.499 649.233 137.341 642.82 138.796C636.383 140.258 630.086 144.366 624.023 150.196C611.894 161.859 600.854 180.267 591.652 197.497L590.725 197.141C595.46 177.92 599.735 156.001 598.584 138.487C598.009 129.731 596.081 122.131 592.225 116.524C588.384 110.94 582.604 107.291 574.212 106.468C565.377 105.602 558.768 108.304 553.814 113.444C548.837 118.607 545.498 126.264 543.317 135.352C538.955 153.529 539.277 177.197 540.149 197.363L539.17 197.525C533.541 178.321 526.231 156.686 516.359 141.665C511.423 134.155 505.877 128.346 499.626 125.301C493.401 122.268 486.432 121.953 478.564 125.514C471.092 128.923 466.798 134.036 464.84 140.289C462.874 146.564 463.246 154.038 465.218 162.169C469.163 178.436 479.459 197.135 489.75 213.685L488.986 214.316C474.738 201.133 458.267 187.388 442.98 180.348C435.338 176.828 428.039 175.008 421.488 175.731C414.962 176.452 409.126 179.702 404.387 186.438L404.385 186.44C399.802 192.875 398.577 199.185 399.79 205.318C401.008 211.471 404.691 217.498 410.026 223.315C420.7 234.954 437.848 245.611 454.447 254.62L454.081 255.543C436.159 250.807 417.037 247.133 401.876 248.478C394.3 249.15 387.759 251.072 382.855 254.7C377.966 258.315 374.66 263.656 373.596 271.264L661.315 275.61ZM661.315 275.61C679.932 274.588 699.462 274.768 714.103 279.069C721.419 281.218 727.469 284.383 731.579 288.899C735.676 293.4 737.88 299.281 737.447 306.952C737.007 314.685 734.115 320.322 729.489 324.36C724.847 328.411 718.419 330.886 710.858 332.204C695.73 334.84 676.252 332.807 658.038 329.726L657.718 330.659C674.197 339.526 690.901 350.074 701.199 361.576C706.345 367.325 709.859 373.277 710.974 379.344C712.085 385.39 710.821 391.603 706.314 397.917L706.312 397.92C701.573 404.656 695.737 407.906 689.211 408.627C682.66 409.35 675.361 407.53 667.719 404.01C652.431 396.97 635.961 383.225 621.713 370.042L620.949 370.673C631.24 387.223 641.536 405.922 645.481 422.189C647.453 430.32 647.825 437.794 645.859 444.069C643.901 450.321 639.608 455.434 632.136 458.844C624.268 462.405 617.298 462.09 611.073 459.057C604.821 456.012 599.276 450.203 594.34 442.693C584.468 427.672 577.158 406.037 571.529 386.833L570.55 386.995C571.422 407.161 571.744 430.829 567.382 449.006C565.201 458.094 561.861 465.751 556.885 470.914C551.931 476.054 545.322 478.756 536.487 477.89C528.031 477.06 522.22 473.393 518.366 467.783C514.496 462.151 512.571 454.519 511.999 445.731C510.855 428.151 515.136 406.168 519.743 386.932L518.816 386.58C509.614 403.809 498.573 422.217 486.444 433.881C480.381 439.711 474.084 443.819 467.647 445.28C461.235 446.735 454.633 445.577 447.902 440.775C441.234 435.978 438.016 430.128 437.31 423.615C436.601 417.077 438.418 409.818 441.932 402.225C448.963 387.034 462.695 370.692 476.006 356.457L475.377 355.691C458.828 365.981 440.001 376.264 423.641 380.168C415.463 382.119 407.952 382.464 401.668 380.461C395.408 378.467 390.316 374.128 386.976 366.599L386.975 366.598C383.786 359.463 383.757 353.09 386.019 347.362C388.288 341.615 392.883 336.467 399.03 331.842C411.331 322.589 429.695 315.545 447.457 310.036L447.323 309.059M661.315 275.61L447.323 309.059M447.323 309.059C428.728 308.53 409.163 306.733 394.803 301.205M447.323 309.059L394.803 301.205M394.803 301.205C387.626 298.442 381.794 294.763 378.024 289.887M394.803 301.205L378.024 289.887M378.024 289.887C374.266 285.027 372.524 278.936 373.596 271.265L378.024 289.887Z" stroke="white"/>
<path d="M1019.64 212.287C1020.65 194.311 996.905 192.728 975.426 193.908C996.229 187.434 1019.17 177.434 1011.56 160.553C1003.73 142.904 979.258 154.845 960.167 166.717C975.521 150.296 991.961 128.902 976.332 117.659C960.555 106.401 945.627 129.138 935.013 149.012C940.474 126.84 944.917 98.2939 925.237 96.3637C904.522 94.332 904.271 125.829 905.277 149.083C898.785 126.934 888.376 99.0227 869.929 107.372C852.413 115.364 864.383 139.545 876.255 158.636C859.819 143.429 838.144 126.812 827.034 142.604C816.293 157.685 836.854 171.951 856.002 182.345C835.325 176.881 811.723 173.819 809.227 191.65C806.716 209.63 830.571 213.164 852.023 213.775C831.531 220.13 809.492 230.069 816.965 246.787C824.795 264.436 849.271 252.495 868.363 240.624C853.008 257.045 836.568 278.439 852.197 289.682C867.974 300.94 882.902 278.203 893.516 258.329C888.203 280.515 883.598 309.195 903.425 311.139C924.14 313.171 924.391 281.674 923.386 258.42C929.878 280.569 940.287 308.48 958.734 300.131C976.249 292.139 964.279 267.959 952.408 248.867C968.843 264.074 990.518 280.691 1001.63 264.899C1012.19 250.1 992.519 235.92 973.504 225.689C994.519 229.244 1018.61 230.412 1019.64 212.287Z" fill="#C4FF63"/>
<path d="M706.636 -3.71274C707.652 -21.6893 683.905 -23.2715 662.426 -22.0916C683.229 -28.5665 706.17 -38.5664 698.564 -55.4466C690.734 -73.0957 666.258 -61.1549 647.167 -49.2834C662.521 -65.7043 678.961 -87.098 663.332 -98.3413C647.555 -109.599 632.627 -86.862 622.013 -66.9884C627.474 -89.1601 631.917 -117.706 612.237 -119.636C591.522 -121.668 591.271 -90.1713 592.277 -66.9171C585.785 -89.0661 575.376 -116.977 556.929 -108.628C539.413 -100.636 551.383 -76.4554 563.255 -57.3642C546.819 -72.5707 525.144 -89.1875 514.034 -73.3961C503.293 -58.3154 523.854 -44.0488 543.002 -33.6554C522.325 -39.1195 498.723 -42.1813 496.227 -24.3499C493.716 -6.37047 517.571 -2.83566 539.023 -2.2255C518.531 4.13046 496.492 14.0695 503.965 30.7872C511.795 48.4363 536.271 36.4955 555.363 24.6241C540.008 41.0449 523.568 62.4386 539.197 73.6819C554.974 84.9397 569.902 62.2026 580.516 42.329C575.203 64.5152 570.598 93.1946 590.425 95.1393C611.14 97.1711 611.391 65.6743 610.386 42.4202C616.878 64.5692 627.287 92.4803 645.734 84.1311C663.249 76.1387 651.279 51.9585 639.408 32.8673C655.843 48.0738 677.518 64.6906 688.628 48.8992C699.193 34.0999 679.519 19.9203 660.504 9.68948C681.519 13.2445 705.605 14.4118 706.636 -3.71274Z" fill="#C4FF63"/>
</g>
<defs>
<clipPath id="clip0_2231_7585">
<rect width="1316" height="200" fill="white" transform="translate(0.5)"/>
</clipPath>
</defs>
</svg>
