<svg width="554" height="581" viewBox="0 0 554 581" fill="none" xmlns="http://www.w3.org/2000/svg">
<path fill-rule="evenodd" clip-rule="evenodd" d="M437.062 265.346L436.686 263.392C463.971 254.736 492.518 243.742 511.723 229.27C521.32 222.039 528.509 213.995 532.082 205.015C535.64 196.072 535.65 186.109 530.721 174.915L530.718 174.909C525.645 163.209 517.959 156.475 508.545 153.36C499.082 150.229 487.762 150.717 475.407 153.711C450.689 159.701 422.251 175.612 397.234 191.567L395.949 190.041C416.041 167.923 436.742 142.544 447.303 118.935C452.582 107.135 455.285 95.8684 454.186 85.7235C453.091 75.6263 448.22 66.5498 438.153 59.0797C427.989 51.6001 418.06 49.7822 408.434 51.9999C398.754 54.2299 389.273 60.5661 380.131 69.609C361.843 87.6997 345.221 116.307 331.365 143.115L329.505 142.405C336.584 112.471 342.946 78.3536 341.122 51.0822C340.21 37.4475 337.257 25.6346 331.42 16.922C325.615 8.25791 316.91 2.58322 304.271 1.26537C290.966 -0.121995 281.043 4.02716 273.613 11.9611C266.138 19.9424 261.127 31.8191 257.871 45.9587C251.357 74.2369 251.957 111.103 253.375 142.542L251.418 142.842C242.799 112.879 231.629 79.1492 216.623 55.7163C209.12 44.0006 200.721 34.9598 191.295 30.2103C181.927 25.4893 171.453 24.9599 159.618 30.4391C148.376 35.6874 141.939 43.5851 139.02 53.264C136.087 62.9884 136.68 74.5992 139.702 87.2646C145.747 112.605 161.415 141.776 177.082 167.623L175.547 168.858C153.901 148.237 128.913 126.754 105.763 115.722C94.1917 110.208 83.1793 107.354 73.3274 108.44C63.5271 109.521 54.7611 114.513 47.6466 124.942L47.6434 124.946C40.7622 134.909 38.9507 144.684 40.8068 154.192C42.6705 163.738 48.2526 173.115 56.3447 182.19C72.5397 200.354 98.5328 217.035 123.716 231.161L122.982 232.998C95.8172 225.526 66.8737 219.713 43.9654 221.727C32.5208 222.734 22.6738 225.687 15.3106 231.279C7.97625 236.85 3.01893 245.104 1.44852 256.911C-0.130868 268.817 2.52668 278.263 8.20288 285.805C13.9013 293.377 22.7081 299.117 33.5657 303.45C55.2986 312.122 84.9031 315.023 113.068 315.942L113.358 317.898C86.4843 326.392 58.7374 337.266 40.1847 351.599C30.9154 358.76 24.0121 366.731 20.6208 375.629C17.2423 384.493 17.3128 394.371 22.1579 405.462L22.159 405.464C27.2324 417.165 34.9179 423.898 44.3323 427.013C53.7953 430.144 65.1158 429.656 77.4704 426.662C102.189 420.672 130.626 404.761 155.643 388.807L156.928 390.332C136.836 412.45 116.135 437.83 105.574 461.438C100.295 473.238 97.592 484.505 98.6918 494.65C99.7864 504.746 104.656 513.822 114.723 521.292C124.887 528.773 134.817 530.591 144.444 528.373C154.123 526.143 163.604 519.807 172.746 510.764C191.034 492.674 207.657 464.067 221.512 437.258L223.374 437.963C216.488 467.922 210.116 502.139 211.931 529.512C212.839 543.197 215.787 555.06 221.645 563.812C227.47 572.515 236.222 578.22 248.958 579.548C262.263 580.936 272.186 576.786 279.617 568.853C287.091 560.871 292.102 548.995 295.359 534.855C301.872 506.577 301.272 469.711 299.854 438.272L301.811 437.972C310.431 467.935 321.6 501.664 336.606 525.097C344.109 536.813 352.508 545.854 361.934 550.603C371.303 555.325 381.778 555.854 393.613 550.374C404.854 545.125 411.29 537.228 414.209 527.55C417.142 517.825 416.549 506.214 413.528 493.549C407.482 468.209 391.814 439.038 376.147 413.19L377.682 411.956C399.328 432.577 424.317 454.059 447.467 465.092C459.038 470.606 470.05 473.46 479.902 472.374C489.702 471.293 498.468 466.301 505.583 455.872L505.586 455.866C512.354 446.09 514.224 436.467 512.523 427.092C510.814 417.681 505.488 408.422 497.682 399.455C482.058 381.508 456.739 365 431.738 351.097L432.378 349.237C459.98 354.133 489.453 357.392 512.307 353.369C523.725 351.36 533.402 347.547 540.369 341.296C547.31 335.069 551.643 326.352 552.27 314.347C552.887 302.44 549.533 293.319 543.351 286.333C537.144 279.319 528.013 274.374 516.948 270.996C494.798 264.232 465.255 263.847 437.062 265.346ZM114.138 522.097C73.8541 492.209 114.235 436.295 153.665 392.443C154.506 391.507 155.347 390.577 156.186 389.653C155.134 390.324 154.075 390.996 153.011 391.666C103.462 422.881 41.5206 452.619 21.2436 405.854C1.82241 361.398 57.2759 334.879 110.218 317.845C111.162 317.541 112.105 317.24 113.048 316.943C112.056 316.91 111.063 316.875 110.068 316.838C54.5143 314.748 -5.87167 304.484 0.458397 256.768C6.71239 209.744 65.9597 216.71 119.342 230.977C120.643 231.325 121.942 231.677 123.236 232.033C122.064 231.376 120.889 230.712 119.714 230.043C70.382 201.969 19.3875 164.087 46.82 124.37C75.2656 82.6725 130.581 125.059 173.52 165.566C174.429 166.424 175.333 167.281 176.23 168.136C175.587 167.075 174.944 166.009 174.302 164.937C143.625 113.766 114.193 50.5359 159.188 29.5304C206.484 7.63146 233.893 79.3159 251.201 138.519C251.599 139.878 251.991 141.231 252.377 142.575C252.315 141.183 252.253 139.779 252.194 138.366C249.586 75.9912 251.143 -5.27981 304.363 0.269585C354.935 5.54288 345.106 79.4292 331.403 138.689C331.096 140.016 330.787 141.335 330.477 142.646C331.095 141.451 331.718 140.252 332.347 139.05C359.929 86.3403 398.133 28.3916 438.739 58.2763C479.023 88.1644 438.642 144.079 399.212 187.931C398.371 188.866 397.53 189.796 396.691 190.72C397.743 190.049 398.802 189.378 399.866 188.707C449.415 157.492 511.357 127.755 531.634 174.519C551.299 219.176 494.26 245.81 440.705 263.158C439.467 263.559 438.231 263.955 436.998 264.346C438.294 264.277 439.594 264.212 440.896 264.152C496.235 261.578 555.728 266.952 553.267 314.411C550.757 362.511 489.679 360.121 435.181 350.741C434.19 350.571 433.201 350.398 432.215 350.223C433.094 350.712 433.973 351.203 434.852 351.699C484.037 379.395 533.548 417.241 506.409 456.444C477.964 498.141 422.648 455.755 379.71 415.248C378.8 414.39 377.897 413.533 376.999 412.678C377.642 413.739 378.285 414.805 378.927 415.877C409.604 467.048 439.037 530.278 394.041 551.283C346.746 573.182 319.336 501.498 302.028 442.294C301.631 440.935 301.239 439.583 300.852 438.239C300.915 439.631 300.976 441.034 301.035 442.447C303.644 504.823 302.086 586.093 248.866 580.544C197.889 575.229 208.152 500.927 221.519 441.6C221.811 440.301 222.105 439.01 222.4 437.727C221.796 438.895 221.187 440.067 220.573 441.242C192.987 493.973 154.765 551.997 114.138 522.097Z" fill="#FF92E0"/>
</svg>
