<svg width="1865" height="2761" viewBox="0 0 1865 2761" fill="none" xmlns="http://www.w3.org/2000/svg">
<rect x="227.5" y="263.5" width="571" height="751" rx="30.5" fill="#FCFF79" stroke="white" stroke-width="3"/>
<path d="M1865 1506.07C1677.2 1506.07 1525 1378.93 1525 1222.04C1525 1065.15 1677.2 938 1865 938L1865 1506.07Z" fill="#C4FF63"/>
<path d="M1185 1222.04C1185 1065.15 1337.2 938 1525 938L1525 1506.07C1337.2 1506.07 1185 1378.93 1185 1222.04Z" fill="#C4FF63"/>
<path d="M243.279 254.192L243.28 253.224C218.647 246.869 198.173 238.096 183.869 227.751C169.556 217.399 161.5 205.535 161.5 193C161.5 180.465 169.538 168.601 183.841 158.259C198.135 147.924 218.609 139.17 243.279 132.854L243.28 131.885C218.647 125.531 198.173 116.757 183.869 106.412C169.556 96.0605 161.5 84.1964 161.5 71.6615C161.5 61.9463 166.319 52.6427 175.136 44.1296C183.954 35.6152 196.74 27.9241 212.583 21.4541C244.266 8.5153 288.074 0.500011 336.5 0.500015C384.926 0.500019 428.734 8.51531 460.417 21.4542C476.26 27.9241 489.046 35.6153 497.864 44.1297C506.681 52.6427 511.5 61.9464 511.5 71.6615C511.5 84.1964 503.444 96.0605 489.131 106.402C474.828 116.738 454.354 125.492 429.721 131.808L429.72 132.776C454.353 139.131 474.827 147.904 489.131 158.249C503.444 168.601 511.5 180.465 511.5 193C511.5 205.535 503.444 217.399 489.131 227.741C474.828 238.077 454.354 246.83 429.72 253.146L429.72 254.115C454.353 260.469 474.827 269.243 489.131 279.588C503.444 289.94 511.5 301.804 511.5 314.339C511.5 324.054 506.681 333.357 497.864 341.87C489.046 350.385 476.26 358.076 460.417 364.546C428.734 377.485 384.926 385.5 336.5 385.5C288.074 385.5 244.266 377.485 212.583 364.555C196.74 358.09 183.954 350.406 175.135 341.903C166.319 333.4 161.5 324.111 161.5 314.416C161.5 301.842 169.557 289.958 183.869 279.607C198.172 269.262 218.646 260.508 243.279 254.192Z" stroke="#E056BA"/>
<path d="M550.5 2479C623.328 2479 687.355 2414.21 723.659 2316.8C759.743 2414.21 823.77 2479 896.818 2479C1009.47 2479 1101 2323.91 1101 2132.5C1101 1941.09 1009.47 1786 896.598 1786C823.77 1786 759.743 1850.79 723.439 1948.2C687.355 1850.79 623.328 1786 550.5 1786C477.672 1786 413.645 1850.79 377.341 1948.2C341.257 1850.79 277.23 1786 204.402 1786C91.53 1786 -6.98217e-06 1941.09 -1.55998e-05 2132.5C-2.42173e-05 2323.91 91.53 2479 204.402 2479C277.23 2479 341.257 2414.21 377.561 2316.8C413.645 2414.36 477.672 2479 550.5 2479Z" fill="#FF92E0"/>
<path d="M1638.9 2409.78L1639.42 2410.62C1659.7 2401.16 1681.53 2392.58 1699.73 2390.68C1708.83 2389.72 1716.97 2390.44 1723.54 2393.51C1730.09 2396.57 1735.13 2401.98 1738.01 2410.51C1740.91 2419.12 1740.16 2426.56 1736.76 2433.04C1733.36 2439.54 1727.27 2445.13 1719.42 2449.96C1703.72 2459.62 1681.13 2466.16 1659.51 2470.99L1659.57 2471.97C1681.79 2474.2 1705.02 2478.15 1721.53 2486.02C1729.78 2489.96 1736.31 2494.85 1740.22 2500.95C1744.11 2507.03 1745.42 2514.36 1743.16 2523.25L1743.16 2523.26C1740.83 2532.72 1735.74 2538.89 1728.76 2542.62C1721.76 2546.36 1712.82 2547.66 1702.76 2547.27C1682.65 2546.49 1658.29 2538.95 1636.66 2531.04L1636.2 2531.92C1654.89 2545.26 1674.55 2560.94 1686.06 2576.84C1691.82 2584.78 1695.51 2592.74 1696.07 2600.45C1696.63 2608.14 1694.08 2615.64 1687.24 2622.71C1680.01 2630.13 1672.09 2632.93 1663.8 2632.43C1655.48 2631.93 1646.75 2628.1 1637.96 2622.16C1620.39 2610.28 1602.78 2590.08 1588.11 2571.76L1587.27 2572.28C1597.06 2593.78 1607.78 2619.33 1610.88 2641.02C1612.43 2651.87 1612.07 2661.7 1608.78 2669.55C1605.5 2677.38 1599.3 2683.3 1589.06 2686.34C1579.25 2689.24 1571.15 2687.87 1564.38 2683.49C1557.59 2679.11 1552.1 2671.67 1547.61 2662.39C1538.64 2643.81 1533.79 2618.02 1530.5 2595.08L1529.51 2595.09C1526.8 2617.92 1522.57 2642.86 1514.17 2660.98C1509.97 2670.03 1504.74 2677.34 1498.2 2681.83C1491.67 2686.3 1483.78 2688.01 1474.16 2685.82C1464.61 2683.6 1458.45 2678.68 1454.8 2671.91C1451.15 2665.11 1449.99 2656.4 1450.58 2646.58C1451.76 2626.92 1459.9 2603.01 1468.48 2581.59L1467.62 2581.1C1453.7 2599.7 1437.24 2619.32 1420.72 2630.91C1412.46 2636.7 1404.24 2640.46 1396.34 2641.11C1388.46 2641.76 1380.87 2639.32 1373.84 2632.64L1373.84 2632.64C1367.16 2626.31 1364.33 2619.39 1364.34 2612.14C1364.35 2604.86 1367.22 2597.19 1372.04 2589.41C1381.69 2573.83 1399.06 2557.93 1416.43 2543.98L1415.94 2543.12C1395.01 2550.89 1372.43 2557.73 1354.01 2558.18C1344.8 2558.4 1336.68 2557.02 1330.33 2553.41C1323.99 2549.81 1319.38 2543.96 1317.21 2535.14C1315.06 2526.39 1316.41 2519.09 1320.28 2512.94C1324.16 2506.78 1330.62 2501.75 1338.77 2497.62C1355.08 2489.34 1377.99 2484.75 1400.01 2481.84L1399.99 2480.85C1377.58 2478.52 1353.81 2474.65 1336.82 2466.8C1328.33 2462.88 1321.58 2457.98 1317.52 2451.83C1313.47 2445.71 1312.07 2438.29 1314.36 2429.23L1314.36 2429.22C1316.7 2419.76 1321.79 2413.59 1328.77 2409.86C1335.77 2406.12 1344.71 2404.82 1354.77 2405.21C1374.88 2405.99 1399.24 2413.53 1420.87 2421.44L1421.33 2420.56C1402.63 2407.22 1382.98 2391.54 1371.47 2375.64C1365.71 2367.7 1362.02 2359.74 1361.46 2352.03C1360.9 2344.34 1363.45 2336.84 1370.29 2329.77C1377.51 2322.35 1385.44 2319.55 1393.73 2320.05C1402.05 2320.55 1410.78 2324.38 1419.57 2330.32C1437.14 2342.2 1454.75 2362.4 1469.42 2380.72L1470.26 2380.2C1460.47 2358.7 1449.75 2333.15 1446.65 2311.46C1445.1 2300.61 1445.46 2290.79 1448.75 2282.93C1452.03 2275.1 1458.23 2269.18 1468.47 2266.14C1478.2 2263.26 1486.27 2264.63 1493.01 2268.98C1499.77 2273.35 1505.25 2280.74 1509.72 2289.99C1518.67 2308.5 1523.51 2334.21 1526.65 2357.2L1527.64 2357.19C1530.34 2334.36 1534.58 2309.42 1542.98 2291.3C1547.18 2282.25 1552.4 2274.94 1558.95 2270.45C1565.48 2265.97 1573.37 2264.26 1582.99 2266.46C1592.54 2268.68 1598.7 2273.6 1602.34 2280.37C1606 2287.17 1607.16 2295.87 1606.57 2305.7C1605.39 2325.36 1597.25 2349.27 1588.66 2370.69L1589.53 2371.18C1603.44 2352.58 1619.91 2332.96 1636.43 2321.37C1644.68 2315.57 1652.91 2311.82 1660.81 2311.17C1668.69 2310.52 1676.28 2312.96 1683.31 2319.64L1683.31 2319.64C1690.09 2326.02 1692.88 2333.02 1692.76 2340.39C1692.64 2347.77 1689.58 2355.58 1684.53 2363.51C1674.44 2379.38 1656.51 2395.6 1638.9 2409.78Z" stroke="#E056BA"/>
</svg>
