<svg width="381" height="381" viewBox="0 0 381 381" fill="none" xmlns="http://www.w3.org/2000/svg">
<path d="M379.985 205.636C381.819 173.858 338.974 171.061 300.223 173.147C337.755 161.701 379.145 144.023 365.421 114.183C351.295 82.9842 307.136 104.093 272.692 125.078C300.394 96.0503 330.054 58.2317 301.857 38.3563C273.393 18.4554 246.46 58.6488 227.31 93.7804C237.163 54.5864 245.179 4.12433 209.674 0.712228C172.3 -2.87946 171.847 52.799 173.662 93.9065C161.949 54.7526 143.17 5.41265 109.888 20.172C78.2871 34.3006 99.8827 77.0451 121.301 110.794C91.6486 83.9122 52.543 54.5379 32.499 82.4532C13.1198 109.112 50.2155 134.332 84.7623 152.705C47.4566 143.046 4.87425 137.633 0.371264 169.155C-4.15791 200.938 38.8798 207.186 77.5835 208.265C40.6119 219.501 0.849968 237.07 14.3328 266.623C28.4593 297.822 72.6183 276.714 107.062 255.728C79.36 284.756 49.6998 322.575 77.8972 342.45C106.361 362.351 133.295 322.158 152.444 287.026C142.858 326.246 134.549 376.944 170.321 380.382C207.695 383.973 208.147 328.295 206.333 287.187C218.046 326.341 236.825 375.681 270.107 360.922C301.708 346.793 280.112 304.049 258.694 270.3C288.346 297.182 327.452 326.556 347.496 298.641C366.556 272.479 331.062 247.413 296.756 229.328C334.669 235.612 378.126 237.676 379.985 205.636Z" fill="#FF92E0"/>
</svg>
