<svg width="96" height="89" viewBox="0 0 96 89" fill="none" xmlns="http://www.w3.org/2000/svg">
<path d="M93.8431 30.746C91.2724 23.4927 80.9196 26.7406 71.992 30.7077C79.7482 24.7632 87.8241 17.0802 81.7733 11.6651C75.4992 5.98324 67.0954 14.6817 60.9677 22.4748C64.7481 13.4972 68.1591 2.38207 59.6416 0.497358C51.0589 -1.36895 48.5144 10.0294 47.3246 19.5954C45.9416 9.96347 43.0615 -2.01566 34.3786 0.431883C25.2388 3.00825 30.3928 15.4673 34.7039 24.4716C28.2466 16.7975 19.163 7.49012 12.7206 13.7895C6.61437 19.7964 15.738 27.3783 23.9699 32.9698C14.4479 29.654 2.46443 26.6365 0.382118 34.6739C-1.66237 42.3709 9.45536 44.6435 19.326 45.6193C9.62899 46.8363 -0.909264 49.4772 1.00858 56.9145C2.94498 64.4125 13.6694 61.9169 22.8849 58.6598C15.2408 64.5069 7.53802 72.0187 13.505 77.3915C19.7791 83.0734 28.1829 74.3749 34.3106 66.5818C30.5302 75.5594 27.1192 86.6746 35.6367 88.5593C44.2194 90.4256 46.7639 79.0272 47.9537 69.4612C49.402 79.0748 52.2354 91.133 60.9835 88.6671C70.1233 86.0907 64.9693 73.6317 60.6582 64.6273C67.1155 72.3014 76.1992 81.6088 82.6415 75.3094C88.7477 69.3025 79.6241 61.7206 71.3922 56.1291C80.9142 59.4449 92.8977 62.4625 94.98 54.4251C96.9963 46.8678 86.2703 44.4848 76.4835 43.5513C86.0046 41.5268 96.4323 38.0599 93.8431 30.746Z" fill="#DCA8F5"/>
</svg>
