<svg width="24" height="22" viewBox="0 0 24 22" fill="none" xmlns="http://www.w3.org/2000/svg">
<path d="M22.6896 7.4182C22.0672 5.66193 19.5604 6.44838 17.3987 7.40895C19.2768 5.96957 21.2322 4.10925 19.7671 2.79805C18.2479 1.42227 16.2131 3.52848 14.7293 5.41547C15.6447 3.24168 16.4706 0.550299 14.4082 0.0939445C12.3301 -0.357955 11.714 2.402 11.4259 4.71827C11.091 2.38602 10.3936 -0.514548 8.29118 0.0780907C6.07811 0.70192 7.32607 3.71869 8.36995 5.89897C6.80639 4.04079 4.60692 1.78714 3.04701 3.31245C1.56847 4.76694 3.77763 6.60278 5.77086 7.95668C3.46525 7.15381 0.563622 6.42315 0.0594197 8.36929C-0.435623 10.233 2.25637 10.7833 4.6464 11.0196C2.29842 11.3142 -0.253269 11.9537 0.21111 13.7545C0.67998 15.5701 3.27675 14.9658 5.50815 14.1771C3.65723 15.5929 1.79212 17.4118 3.23693 18.7128C4.75611 20.0885 6.79097 17.9823 8.27471 16.0953C7.35933 18.2691 6.53342 20.9605 8.5958 21.4169C10.674 21.8688 11.2901 19.1088 11.5782 16.7925C11.9289 19.1203 12.6149 22.04 14.7332 21.443C16.9462 20.8191 15.6983 17.8024 14.6544 15.6221C16.2179 17.4803 18.4174 19.7339 19.9773 18.2086C21.4559 16.7541 19.2467 14.9183 17.2535 13.5644C19.5591 14.3672 22.4607 15.0979 22.9649 13.1518C23.4531 11.3219 20.856 10.7449 18.4863 10.5188C20.7917 10.0286 23.3166 9.18917 22.6896 7.4182Z" fill="#FF92E0"/>
</svg>
