<svg width="430" height="651" viewBox="0 0 430 651" fill="none" xmlns="http://www.w3.org/2000/svg">
<g clip-path="url(#clip0_2541_7225)">
<rect width="430" height="651" fill="#FF92E0"/>
<path d="M142.742 474.251C96.9686 474.251 59.8728 441.069 59.8728 400.126C59.8728 359.182 96.9686 326 142.742 326L142.742 474.251Z" fill="#C4FF63"/>
<path d="M-22.9983 400.126C-22.9983 359.182 14.0975 326 59.8711 326L59.8711 474.251C14.0975 474.251 -22.9983 441.069 -22.9983 400.126Z" fill="#C4FF63"/>
<path d="M419.701 373.935L420.226 374.778C438.285 366.347 457.724 358.711 473.924 357.015C482.02 356.167 489.259 356.809 495.101 359.534C500.923 362.251 505.402 367.058 507.962 374.647C510.541 382.3 509.872 388.909 506.855 394.669C503.828 400.448 498.414 405.416 491.428 409.715C477.449 418.315 457.34 424.137 438.08 428.44L438.14 429.425C457.935 431.409 478.611 434.929 493.309 441.934C500.654 445.435 506.461 449.785 509.932 455.207C513.391 460.61 514.561 467.123 512.552 475.034L512.551 475.037C510.477 483.448 505.953 488.933 499.751 492.245C493.527 495.569 485.572 496.727 476.621 496.379C458.714 495.685 437.023 488.979 417.759 481.932L417.297 482.808C433.951 494.693 451.448 508.654 461.7 522.804C466.825 529.877 470.108 536.954 470.605 543.808C471.101 550.638 468.836 557.305 462.75 563.596C456.328 570.192 449.283 572.68 441.915 572.236C434.521 571.79 426.754 568.388 418.933 563.101C403.288 552.525 387.607 534.532 374.542 518.218L373.696 518.738C382.421 537.883 391.966 560.634 394.726 579.95C396.106 589.607 395.78 598.348 392.857 605.333C389.945 612.291 384.436 617.555 375.326 620.253C366.605 622.836 359.404 621.611 353.391 617.725C347.355 613.825 342.47 607.215 338.478 598.948C330.491 582.41 326.167 559.447 323.237 539.01L322.245 539.022C319.838 559.356 316.067 581.566 308.586 597.694C304.847 605.755 300.202 612.25 294.38 616.242C288.578 620.221 281.567 621.742 273.012 619.787C264.524 617.814 259.05 613.441 255.81 607.425C252.558 601.387 251.531 593.642 252.055 584.895C253.104 567.397 260.35 546.108 267.999 527.026L267.134 526.54C254.738 543.103 240.078 560.574 225.374 570.891C218.023 576.049 210.703 579.39 203.681 579.967C196.683 580.543 189.936 578.379 183.688 572.434L183.687 572.433C177.741 566.808 175.228 560.658 175.238 554.213C175.247 547.747 177.798 540.929 182.092 533.998C190.685 520.129 206.15 505.976 221.613 493.55L221.126 492.692C202.484 499.614 182.38 505.7 165.98 506.097C157.783 506.295 150.561 505.07 144.917 501.86C139.291 498.661 135.19 493.466 133.261 485.621C131.352 477.839 132.546 471.349 135.988 465.892C139.442 460.417 145.184 455.94 152.438 452.259C166.953 444.894 187.35 440.802 206.964 438.216L206.95 437.223C186.982 435.149 165.822 431.701 150.699 424.715C143.139 421.223 137.136 416.868 133.529 411.404C129.935 405.959 128.689 399.366 130.726 391.309L130.726 391.306C132.801 382.895 137.325 377.41 143.527 374.098C149.75 370.774 157.705 369.616 166.657 369.964C184.564 370.658 206.255 377.364 225.518 384.411L225.981 383.535C209.327 371.65 191.83 357.689 181.577 343.539C176.452 336.466 173.17 329.389 172.672 322.535C172.176 315.705 174.441 309.039 180.528 302.747C186.949 296.151 193.995 293.663 201.362 294.107C208.756 294.553 216.524 297.955 224.345 303.242C239.99 313.818 255.67 331.811 268.736 348.125L269.581 347.605C260.856 328.46 251.312 305.709 248.552 286.393C247.172 276.736 247.497 267.995 250.42 261.01C253.332 254.052 258.841 248.788 267.952 246.09C276.606 243.527 283.77 244.745 289.76 248.612C295.772 252.493 300.647 259.071 304.63 267.306C312.598 283.778 316.903 306.676 319.701 327.15L320.693 327.141C323.1 306.807 326.872 284.597 334.352 268.469C338.091 260.408 342.737 253.913 348.558 249.921C354.36 245.942 361.372 244.421 369.926 246.376C378.415 248.35 383.888 252.722 387.128 258.738C390.38 264.776 391.408 272.521 390.883 281.268C389.834 298.766 382.588 320.055 374.94 339.137L375.804 339.623C388.2 323.06 402.86 305.589 417.564 295.272C424.915 290.114 432.235 286.774 439.257 286.196C446.255 285.621 453.002 287.784 459.25 293.729L459.252 293.731C465.28 299.398 467.762 305.624 467.654 312.167C467.545 318.733 464.825 325.672 460.334 332.734C451.35 346.861 435.392 361.301 419.701 373.935Z" stroke="white"/>
</g>
<defs>
<clipPath id="clip0_2541_7225">
<rect width="430" height="651" fill="white"/>
</clipPath>
</defs>
</svg>
