<svg width="996" height="616" viewBox="0 0 996 616" fill="none" xmlns="http://www.w3.org/2000/svg">
<path d="M339.292 149.825C331.278 126.07 299.006 136.707 271.176 149.7C295.354 130.231 320.529 105.069 301.667 87.3338C282.109 68.7253 255.912 97.2134 236.81 122.737C248.594 93.3342 259.227 56.9311 232.676 50.7586C205.921 44.6463 197.989 81.9769 194.28 113.306C189.969 81.7608 180.991 42.5282 153.924 50.5441C125.433 58.982 141.499 99.7863 154.938 129.276C134.809 104.143 106.493 73.6604 86.4101 94.2916C67.3752 113.965 95.8162 138.796 121.477 157.109C91.7946 146.249 54.4387 136.366 47.9475 162.689C41.5743 187.898 76.2314 195.341 107.001 198.537C76.7726 202.522 43.9219 211.171 49.9004 235.529C55.9367 260.086 89.3678 251.912 118.095 241.245C94.2661 260.395 70.2545 284.997 88.8551 302.593C108.413 321.202 134.61 292.714 153.712 267.19C141.927 296.593 131.295 332.996 157.846 339.168C184.601 345.281 192.532 307.95 196.241 276.621C200.756 308.106 209.589 347.598 236.859 339.521C265.35 331.084 249.284 290.279 235.845 260.789C255.974 285.923 284.29 316.405 304.373 295.774C323.408 276.101 294.967 251.27 269.306 232.957C298.989 243.817 336.344 253.699 342.836 227.376C349.121 202.626 315.685 194.821 285.177 191.764C314.857 185.133 347.363 173.779 339.292 149.825Z" fill="#C4FF63"/>
<path d="M82.2795 300.192L82.2802 299.224C57.647 292.869 37.1726 284.096 22.8688 273.751C8.55641 263.399 0.499985 251.535 0.499986 239C0.499987 226.465 8.5381 214.601 22.8406 204.259C37.1348 193.924 57.6088 185.17 82.2793 178.854L82.2802 177.885C57.647 171.531 37.1726 162.757 22.8688 152.412C8.55642 142.06 0.499995 130.196 0.499996 117.661C0.499997 107.946 5.31906 98.6427 14.1357 90.1296C22.9538 81.6152 35.7404 73.9241 51.5831 67.4541C83.2659 54.5153 127.074 46.5 175.5 46.5C223.926 46.5 267.734 54.5153 299.417 67.4542C315.26 73.9241 328.046 81.6153 336.864 90.1297C345.681 98.6427 350.5 107.946 350.5 117.661C350.5 130.196 342.444 142.06 328.131 152.402C313.828 162.738 293.354 171.492 268.721 177.808L268.72 178.776C293.353 185.131 313.827 193.904 328.131 204.249C342.444 214.601 350.5 226.465 350.5 239C350.5 251.535 342.444 263.399 328.131 273.741C313.828 284.077 293.354 292.83 268.72 299.146L268.72 300.115C293.353 306.469 313.827 315.243 328.131 325.588C342.444 335.94 350.5 347.804 350.5 360.339C350.5 370.054 345.681 379.357 336.864 387.87C328.046 396.385 315.26 404.076 299.417 410.546C267.734 423.485 223.926 431.5 175.5 431.5C127.074 431.5 83.2658 423.485 51.5829 410.555C35.7402 404.09 22.9535 396.406 14.1354 387.903C5.31873 379.4 0.499975 370.111 0.499976 360.416C0.499977 347.842 8.55695 335.958 22.8688 325.607C37.1724 315.262 57.6465 306.508 82.2795 300.192Z" stroke="white"/>
<path d="M995.738 615.251C949.965 615.251 912.869 582.069 912.869 541.126C912.869 500.182 949.965 467 995.738 467L995.738 615.251Z" fill="#C4FF63"/>
<path d="M829.998 541.126C829.998 500.182 867.094 467 912.867 467L912.867 615.251C867.094 615.251 829.998 582.069 829.998 541.126Z" fill="#C4FF63"/>
</svg>
