<svg width="1440" height="701" viewBox="0 0 1440 701" fill="none" xmlns="http://www.w3.org/2000/svg">
<g clip-path="url(#clip0_2541_7170)">
<rect width="1440" height="701" fill="#FF92E0"/>
<path d="M208 691.035L770 691.035" stroke="#FFE7F8" stroke-width="2" stroke-miterlimit="10"/>
<path d="M208 656.01L770 656.01" stroke="#FFE7F8" stroke-width="2" stroke-miterlimit="10"/>
<path d="M208 620.984L770 620.984" stroke="#FFE7F8" stroke-width="2" stroke-miterlimit="10"/>
<path d="M208 585.941L770 585.941" stroke="#FFE7F8" stroke-width="2" stroke-miterlimit="10"/>
<path d="M208 550.916L770 550.916" stroke="#FFE7F8" stroke-width="2" stroke-miterlimit="10"/>
<path d="M208 515.891L770 515.891" stroke="#FFE7F8" stroke-width="2" stroke-miterlimit="10"/>
<path d="M208 480.865L770 480.865" stroke="#FFE7F8" stroke-width="2" stroke-miterlimit="10"/>
<path d="M208 445.84L770 445.84" stroke="#FFE7F8" stroke-width="2" stroke-miterlimit="10"/>
<path d="M208 410.814L770 410.814" stroke="#FFE7F8" stroke-width="2" stroke-miterlimit="10"/>
<path d="M243.812 375L243.812 937" stroke="#FFE7F8" stroke-width="2" stroke-miterlimit="10"/>
<path d="M278.84 375L278.84 937" stroke="#FFE7F8" stroke-width="2" stroke-miterlimit="10"/>
<path d="M313.863 375L313.863 937" stroke="#FFE7F8" stroke-width="2" stroke-miterlimit="10"/>
<path d="M348.891 375L348.891 937" stroke="#FFE7F8" stroke-width="2" stroke-miterlimit="10"/>
<path d="M383.914 375L383.914 937" stroke="#FFE7F8" stroke-width="2" stroke-miterlimit="10"/>
<path d="M418.941 375L418.941 937" stroke="#FFE7F8" stroke-width="2" stroke-miterlimit="10"/>
<path d="M453.965 375L453.965 937" stroke="#FFE7F8" stroke-width="2" stroke-miterlimit="10"/>
<path d="M488.992 375L488.992 937" stroke="#FFE7F8" stroke-width="2" stroke-miterlimit="10"/>
<path d="M524.016 375L524.016 937" stroke="#FFE7F8" stroke-width="2" stroke-miterlimit="10"/>
<path d="M559.059 375L559.059 937" stroke="#FFE7F8" stroke-width="2" stroke-miterlimit="10"/>
<path d="M594.086 375L594.086 937" stroke="#FFE7F8" stroke-width="2" stroke-miterlimit="10"/>
<path d="M629.109 375L629.109 937" stroke="#FFE7F8" stroke-width="2" stroke-miterlimit="10"/>
<path d="M664.133 375L664.133 937" stroke="#FFE7F8" stroke-width="2" stroke-miterlimit="10"/>
<path d="M699.16 375L699.16 937" stroke="#FFE7F8" stroke-width="2" stroke-miterlimit="10"/>
<path d="M734.187 375L734.188 937" stroke="#FFE7F8" stroke-width="2" stroke-miterlimit="10"/>
<path d="M1253.28 577.192L1253.28 576.224C1228.65 569.869 1208.17 561.096 1193.87 550.751C1179.56 540.399 1171.5 528.535 1171.5 516C1171.5 503.465 1179.54 491.601 1193.84 481.259C1208.13 470.924 1228.61 462.17 1253.28 455.854L1253.28 454.885C1228.65 448.531 1208.17 439.757 1193.87 429.412C1179.56 419.06 1171.5 407.196 1171.5 394.661C1171.5 384.946 1176.32 375.643 1185.14 367.13C1193.95 358.615 1206.74 350.924 1222.58 344.454C1254.27 331.515 1298.07 323.5 1346.5 323.5C1394.93 323.5 1438.73 331.515 1470.42 344.454C1486.26 350.924 1499.05 358.615 1507.86 367.13C1516.68 375.643 1521.5 384.946 1521.5 394.661C1521.5 407.196 1513.44 419.06 1499.13 429.402C1484.83 439.738 1464.35 448.492 1439.72 454.808L1439.72 455.776C1464.35 462.131 1484.83 470.904 1499.13 481.249C1513.44 491.601 1521.5 503.465 1521.5 516C1521.5 528.535 1513.44 540.399 1499.13 550.741C1484.83 561.077 1464.35 569.83 1439.72 576.146L1439.72 577.115C1464.35 583.469 1484.83 592.243 1499.13 602.588C1513.44 612.94 1521.5 624.804 1521.5 637.339C1521.5 647.054 1516.68 656.357 1507.86 664.87C1499.05 673.385 1486.26 681.076 1470.42 687.546C1438.73 700.485 1394.93 708.5 1346.5 708.5C1298.07 708.5 1254.27 700.485 1222.58 687.555C1206.74 681.09 1193.95 673.406 1185.14 664.903C1176.32 656.4 1171.5 647.111 1171.5 637.416C1171.5 624.842 1179.56 612.958 1193.87 602.607C1208.17 592.262 1228.65 583.508 1253.28 577.192Z" stroke="white"/>
<path d="M1347.11 569C1416.22 569 1472.22 631.611 1472.22 708.869L1222 708.869C1222 631.611 1278 569 1347.11 569Z" fill="#C4FF63"/>
<path fill-rule="evenodd" clip-rule="evenodd" d="M1046.91 -5.93145L1045.75 -7.59968C1070.51 -23.7955 1095.67 -42.2926 1109.83 -60.3762C1116.91 -69.4201 1121.16 -78.2643 1121.33 -86.5867C1121.5 -94.8373 1117.66 -102.692 1108.25 -109.881L1108.24 -109.885C1098.48 -117.432 1087.92 -120.199 1076.91 -119.463C1065.85 -118.725 1054.32 -114.452 1042.73 -107.845C1019.55 -94.6306 996.426 -72.2507 976.871 -51.0248L975.07 -52.1327C987.14 -76.5955 998.55 -103.842 1000.2 -126.208C1001.03 -137.387 999.402 -147.216 994.344 -154.845C989.321 -162.422 980.806 -167.986 967.46 -170.506C954.013 -173.001 942.981 -171.061 933.846 -165.973C924.686 -160.87 917.376 -152.568 911.491 -142.26C899.711 -121.629 893.765 -93.203 889.968 -67.1472L887.89 -67.3182C883.476 -93.5601 876.691 -122.844 864.164 -143.882C857.906 -154.39 850.271 -162.748 840.877 -167.674C831.519 -172.581 820.276 -174.154 806.634 -170.873C792.274 -167.418 783.625 -160.684 779.064 -151.829C774.485 -142.942 773.969 -131.812 776.138 -119.481C780.48 -94.7973 795.504 -65.694 809.273 -41.1504L807.595 -40.2046C786.982 -61.112 762.281 -84.1324 737.656 -97.6551C725.352 -104.411 713.144 -108.754 701.524 -109.323C689.939 -109.89 678.849 -106.712 668.741 -98.2767C659.156 -90.2295 655.645 -81.7502 656.416 -73.126C657.19 -64.4583 662.304 -55.4728 670.358 -46.4424C686.481 -28.3673 714.029 -10.504 740.311 4.73176L739.579 6.41297C709.189 -2.6187 674.992 -11.2049 646.768 -12.0944C632.66 -12.539 620.129 -11.0567 610.329 -6.80519C600.561 -2.56766 593.47 4.43449 590.221 15.1368L590.219 15.1421C587.029 25.3914 588.992 33.7076 594.559 40.5584C600.174 47.4677 609.559 53.0169 621.469 57.4863C645.287 66.4243 678.639 70.8416 710.15 73.5003L710.388 75.3864C679.444 78.7008 647.274 83.9451 624.388 93.3784C612.946 98.0946 603.911 103.824 598.487 110.808C593.091 117.758 591.241 125.983 594.217 135.834C597.221 145.761 603.594 152.323 612.371 156.377C621.209 160.46 632.558 162.032 645.486 161.779C671.341 161.271 703.048 153.474 732.462 144.602L733.554 146.293C709.154 162.221 684.771 180.351 671.233 198.101C664.463 206.977 660.48 215.664 660.465 223.857C660.45 231.983 664.337 239.745 673.624 246.882L673.627 246.884C683.391 254.43 693.954 257.197 704.965 256.462C716.018 255.723 727.552 251.45 739.142 244.844C762.326 231.629 785.445 209.249 805.001 188.023L806.801 189.131C794.731 213.594 783.321 240.84 781.67 263.206C780.845 274.386 782.47 284.215 787.527 291.844C792.55 299.42 801.065 304.984 814.41 307.504C827.857 310 838.89 308.06 848.025 302.971C857.185 297.868 864.495 289.566 870.381 279.258C882.161 258.628 888.106 230.202 891.904 204.146L893.98 204.31C898.604 230.507 905.418 259.873 917.976 280.996C924.248 291.547 931.899 299.945 941.329 304.895C950.724 309.826 962.026 311.409 975.772 308.102C990.132 304.647 998.781 297.913 1003.34 289.058C1007.92 280.171 1008.44 269.041 1006.27 256.71C1001.93 232.026 986.903 202.923 973.134 178.379L974.811 177.434C995.424 198.341 1020.13 221.361 1044.75 234.884C1057.05 241.64 1069.26 245.983 1080.88 246.552C1092.47 247.119 1103.56 243.94 1113.67 235.505C1123.25 227.458 1126.76 218.979 1125.99 210.355C1125.22 201.687 1120.1 192.702 1112.05 183.671C1095.93 165.596 1068.38 147.733 1042.1 132.497L1042.83 130.816C1073.22 139.848 1107.41 148.434 1135.64 149.323C1149.75 149.768 1162.28 148.286 1172.08 144.034C1181.85 139.797 1188.94 132.795 1192.19 122.092L1192.19 122.086C1195.33 112.022 1193.49 103.806 1188.13 97.0078C1182.73 90.155 1173.66 84.6129 1162.09 80.1328C1138.94 71.1724 1106.35 66.6626 1075.12 64.1197L1074.8 62.2447C1105.18 56.7302 1136.9 49.2692 1158.94 38.2534C1169.96 32.7456 1178.47 26.3911 1183.23 19.0237C1187.95 11.6967 1188.98 3.33018 1184.96 -6.35308C1180.98 -15.954 1174.01 -22.0332 1164.92 -25.4811C1155.76 -28.951 1144.38 -29.778 1131.61 -28.6916C1106.07 -26.5191 1075.41 -16.7377 1046.91 -5.93145ZM1114.42 236.231C1074.14 269.847 1017.69 221.905 976.644 180.632C975.776 179.759 974.915 178.889 974.06 178.022C974.634 179.046 975.21 180.077 975.788 181.116C1002.92 229.897 1033.28 295.273 976.137 309.02C921.44 322.179 902.957 259.44 893.531 207.637C893.331 206.541 893.136 205.449 892.944 204.363C892.79 205.423 892.632 206.487 892.47 207.554C884.671 258.985 867.987 318.396 814.302 308.433C761.131 298.391 780.764 240.269 804.225 191.961C804.76 190.86 805.297 189.763 805.835 188.673C805 189.579 804.158 190.488 803.31 191.398C764.426 233.127 712.198 277.878 672.994 247.577C635.646 218.876 682.175 178.973 730.002 147.397C730.962 146.763 731.923 146.132 732.884 145.505C731.741 145.85 730.594 146.193 729.445 146.534C671.405 163.761 605.33 176.058 593.207 135.994C581.276 96.5083 644.84 81.8329 705.377 74.9715C706.974 74.7905 708.569 74.6149 710.16 74.4445C708.531 74.307 706.896 74.1647 705.257 74.0174C643.523 68.4668 576.491 55.6586 589.207 14.8004C602.231 -28.105 675.925 -13.1984 736.078 4.41346C737.329 4.77956 738.573 5.14684 739.811 5.51478C738.694 4.86689 737.573 4.2141 736.452 3.5566C684.818 -26.7076 629.828 -66.9656 667.986 -99.0023C708.267 -132.618 764.721 -84.6763 805.762 -43.4033C806.631 -42.5301 807.492 -41.6599 808.346 -40.7935C807.772 -41.8165 807.196 -42.8477 806.618 -43.8865C779.488 -92.6677 749.13 -158.044 806.269 -171.791C860.533 -184.845 879.301 -122.583 888.353 -70.7185C888.549 -69.5955 888.74 -68.4773 888.927 -67.3649C889.085 -68.4497 889.247 -69.5388 889.413 -70.6315C897.217 -122.046 913.911 -181.392 967.57 -171.434C1020.74 -161.393 1001.11 -103.27 977.646 -54.9626C977.111 -53.8612 976.574 -52.765 976.036 -51.6745C976.871 -52.5809 977.713 -53.4895 978.561 -54.3996C1017.45 -96.1286 1069.67 -140.88 1108.88 -110.579C1146.53 -81.8183 1098.5 -41.318 1050.19 -9.29156C1048.94 -8.45915 1047.68 -7.63247 1046.43 -6.81187C1047.87 -7.35993 1049.32 -7.90547 1050.78 -8.44762C1106.75 -29.2899 1169.94 -45.1259 1185.94 -6.60353C1202.15 32.482 1138.43 51.4057 1078.63 62.5272C1077.45 62.7462 1076.28 62.9622 1075.1 63.1753C1076.33 63.2753 1077.56 63.3783 1078.79 63.4845C1140.25 68.7835 1205.82 82.0571 1193.2 122.429C1180.18 165.334 1106.48 150.428 1046.33 132.816C1045.08 132.45 1043.83 132.082 1042.6 131.714C1043.71 132.362 1044.83 133.015 1045.95 133.672C1097.59 163.937 1152.58 204.195 1114.42 236.231Z" fill="white"/>
</g>
<defs>
<clipPath id="clip0_2541_7170">
<rect width="1440" height="701" fill="white"/>
</clipPath>
</defs>
</svg>
