<svg width="2066" height="4521" viewBox="0 0 2066 4521" fill="none" xmlns="http://www.w3.org/2000/svg">
<path d="M1726 1101.91C1913.8 1101.91 2066 965.77 2066 797.784C2066 629.797 1913.8 493.658 1726 493.658V493.659C1538.2 493.659 1386 629.799 1386 797.785C1386 965.771 1538.2 1101.91 1726 1101.91V1101.91Z" fill="#C4FF63"/>
<path d="M1480.63 189.963L1479.67 186.35L1478.7 189.961C1474.04 207.341 1467.61 221.742 1460.07 231.774C1452.51 241.819 1443.95 247.349 1435 247.349C1426.05 247.349 1417.49 241.832 1409.94 231.794C1402.4 221.769 1395.99 207.369 1391.36 189.963L1390.39 186.347L1389.43 189.961C1384.76 207.341 1378.34 221.742 1370.79 231.774C1363.24 241.819 1354.67 247.349 1345.73 247.349C1338.79 247.349 1332.09 244.042 1325.91 237.884C1319.72 231.722 1314.1 222.755 1309.36 211.594C1299.89 189.276 1294 158.371 1294 124.174C1294 89.9775 1299.89 59.0727 1309.36 36.7545C1314.1 25.5935 1319.72 16.6265 1325.91 10.4644C1332.09 4.30645 1338.79 0.99999 1345.73 0.999991C1354.67 0.999991 1363.24 6.5297 1370.78 16.5742C1378.32 26.6063 1384.73 41.0072 1389.37 58.3864L1390.33 61.9993L1391.3 58.3878C1395.96 41.0082 1402.39 26.607 1409.93 16.5745C1417.49 6.52971 1426.05 0.999994 1435 0.999994C1443.95 0.999995 1452.51 6.5297 1460.06 16.5742C1467.6 26.6063 1474.01 41.0072 1478.64 58.3864L1479.61 61.9993L1480.57 58.3878C1485.24 41.0082 1491.66 26.607 1499.21 16.5745C1506.76 6.52972 1515.33 0.999997 1524.27 0.999998C1531.21 0.999998 1537.91 4.30646 1544.09 10.4645C1550.28 16.6265 1555.9 25.5935 1560.64 36.7545C1570.11 59.0727 1576 89.9775 1576 124.174C1576 158.371 1570.11 189.276 1560.64 211.595C1555.91 222.756 1550.29 231.723 1544.11 237.885C1537.94 244.043 1531.25 247.349 1524.33 247.349C1515.35 247.349 1506.78 241.818 1499.22 231.774C1491.68 221.742 1485.27 207.342 1480.63 189.963Z" stroke="#FF92E0" stroke-width="2"/>
<path fill-rule="evenodd" clip-rule="evenodd" d="M360.006 2616.33C438.996 2616.33 503.012 2557.7 503.012 2485.35H217C217 2557.7 281.015 2616.33 360.006 2616.33ZM217 2616.33C217 2688.68 281.015 2747.31 360.006 2747.31C438.996 2747.31 503.012 2688.68 503.012 2616.33H217Z" fill="#D1FF87"/>
<path fill-rule="evenodd" clip-rule="evenodd" d="M1680.49 1694.91C1680.35 1579.56 1594.68 1486.13 1489 1486.13L1489 1904.28C1594.68 1904.28 1680.35 1810.84 1680.49 1695.5L1680.49 1904.28C1786.27 1904.28 1871.99 1810.69 1871.99 1695.2C1871.99 1579.72 1786.27 1486.13 1680.49 1486.13L1680.49 1694.91Z" fill="#FCFF79"/>
<path fill-rule="evenodd" clip-rule="evenodd" d="M337.006 4224.07C415.996 4224.07 480.012 4165.43 480.012 4093.09H194C194 4165.43 258.015 4224.07 337.006 4224.07ZM194 4224.07C194 4296.42 258.015 4355.05 337.006 4355.05C415.996 4355.05 480.012 4296.42 480.012 4224.07H194Z" fill="#D1FF87"/>
<path d="M1971.9 4247.65C1974.98 4197.99 1903.16 4193.61 1838.2 4196.87C1901.11 4178.99 1970.5 4151.36 1947.49 4104.73C1923.81 4055.97 1849.79 4088.96 1792.05 4121.76C1838.49 4076.39 1888.2 4017.29 1840.94 3986.23C1793.22 3955.13 1748.07 4017.94 1715.97 4072.85C1732.49 4011.59 1745.93 3932.74 1686.41 3927.4C1623.76 3921.79 1623 4008.8 1626.04 4073.04C1606.41 4011.85 1574.93 3934.75 1519.14 3957.81C1466.16 3979.89 1502.36 4046.69 1538.27 4099.43C1488.56 4057.42 1423.01 4011.52 1389.41 4055.14C1356.92 4096.8 1419.11 4136.22 1477.02 4164.93C1414.48 4149.83 1343.1 4141.38 1335.55 4190.64C1327.96 4240.3 1400.1 4250.07 1464.98 4251.76C1403.01 4269.31 1336.35 4296.77 1358.96 4342.95C1382.64 4391.71 1456.66 4358.72 1514.4 4325.93C1467.96 4371.29 1418.24 4430.39 1465.51 4461.45C1513.22 4492.55 1558.37 4429.74 1590.47 4374.84C1574.4 4436.13 1560.48 4515.36 1620.44 4520.73C1683.09 4526.34 1683.85 4439.33 1680.81 4375.09C1700.44 4436.28 1731.92 4513.38 1787.71 4490.32C1840.69 4468.24 1804.49 4401.44 1768.58 4348.7C1818.29 4390.71 1883.84 4436.61 1917.44 4392.99C1949.39 4352.11 1889.89 4312.93 1832.39 4284.67C1895.94 4294.49 1968.79 4297.72 1971.9 4247.65Z" fill="#FF92E0"/>
<rect x="218.5" y="16.5" width="428" height="751" rx="30.5" fill="#FCFF79" stroke="white" stroke-width="3"/>
<path d="M525 511.541C543.786 511.541 560.301 489.031 569.666 455.187C578.974 489.031 595.489 511.541 614.332 511.541C643.39 511.541 667 457.66 667 391.158C667 324.657 643.39 270.775 614.275 270.775C595.489 270.775 578.974 293.286 569.609 327.129C560.301 293.286 543.786 270.775 525 270.775C506.214 270.775 489.699 293.286 480.334 327.129C471.026 293.286 454.511 270.775 435.725 270.775C406.61 270.775 383 324.657 383 391.158C383 457.66 406.61 511.541 435.725 511.541C454.511 511.541 471.026 489.031 480.391 455.187C489.699 489.082 506.214 511.541 525 511.541Z" stroke="#FF96E2" stroke-width="2"/>
</svg>
